<?xml version="1.0" encoding="utf-8"?>
<!-- Generator: Adobe Illustrator 23.0.1, SVG Export Plug-In . SVG Version: 6.00 Build 0)  -->
<svg version="1.1" xmlns="http://www.w3.org/2000/svg" xmlns:xlink="http://www.w3.org/1999/xlink" x="0px" y="0px"
	 viewBox="0 0 240 240" style="enable-background:new 0 0 240 240;" xml:space="preserve">
<style type="text/css">
	.st0{clip-path:url(#SVGID_2_);}
	.st1{fill:#D4DAFF;}
	.st2{fill:#E9EDFF;}
	.st3{fill:#7E91FE;}
	.st4{fill:#FFD26A;}
	.st5{opacity:0.5;clip-path:url(#SVGID_4_);fill:#000D54;enable-background:new    ;}
	.st6{opacity:0.5;clip-path:url(#SVGID_6_);fill:#000D54;enable-background:new    ;}
	.st7{fill:#FFFFFF;}
	.st8{fill:#536DFE;}
	.st9{clip-path:url(#SVGID_8_);fill:#FFD26A;}
	.st10{clip-path:url(#SVGID_10_);fill:#D4DAFF;}
	.st11{clip-path:url(#SVGID_12_);}
	.st12{opacity:0.5;clip-path:url(#SVGID_14_);fill:#000D54;enable-background:new    ;}
	.st13{opacity:0.5;clip-path:url(#SVGID_16_);fill:#000D54;enable-background:new    ;}
	.st14{fill:#A9DBB8;}
	.st15{clip-path:url(#SVGID_18_);fill:#536DFE;}
	.st16{clip-path:url(#SVGID_20_);fill:#D4DAFF;}
</style>
<g id="Artwork_2_1_">
	<g id="Artwork_2">
		<g>
			<g>
				<defs>
					<rect id="SVGID_1_" x="253.44" width="240.08" height="240.08"/>
				</defs>
				<clipPath id="SVGID_2_">
					<use xlink:href="#SVGID_1_"  style="overflow:visible;"/>
				</clipPath>
				<g class="st0">
					<g>
						<path class="st1" d="M455.89,80.62L455.89,80.62c-0.28,0-0.5-0.23-0.5-0.5c0.04-14.15-0.76-29.08-6.88-42.46
							c-6.55-14.32-19.2-24.31-32.24-25.45c-6.64-0.58-13.98,0.91-22.42,4.55c-10,4.32-19.26,10.48-28.22,16.45
							c-2.74,1.83-5.58,3.72-8.39,5.53c-11.13,7.15-24.51,14.69-39.39,16.47c-0.27,0.03-0.52-0.16-0.56-0.44
							c-0.03-0.27,0.16-0.52,0.44-0.56c14.67-1.75,27.93-9.23,38.97-16.31c2.81-1.8,5.64-3.69,8.38-5.52
							c8.99-5.99,18.29-12.19,28.37-16.54c8.6-3.71,16.08-5.23,22.9-4.63c13.39,1.17,26.37,11.39,33.07,26.03
							c6.2,13.56,7.01,28.62,6.97,42.88C456.39,80.39,456.16,80.62,455.89,80.62z"/>
						<path class="st1" d="M335.01,227.44c-9.06,0-18.11-1.23-26.9-3.68c-10.95-3.05-20-7.68-26.89-13.75
							c-11.12-9.79-18.53-25.2-20.86-43.39c-2.09-16.3-0.2-32.83,1.62-48.82c0.03-0.27,0.28-0.47,0.55-0.44s0.47,0.28,0.44,0.55
							c-1.81,15.93-3.69,32.39-1.62,48.58c2.3,17.95,9.59,33.14,20.52,42.77c6.78,5.97,15.7,10.52,26.5,13.54
							c17.06,4.76,35.13,4.86,52.24,0.28c6.9-1.84,13.7-4.47,20.28-7.02c8.6-3.33,17.49-6.76,26.72-8.5
							c0.27-0.05,0.53,0.13,0.58,0.4c0.05,0.27-0.13,0.53-0.4,0.58c-9.13,1.71-17.98,5.14-26.54,8.45
							c-6.6,2.55-13.43,5.19-20.38,7.05C352.41,226.31,343.71,227.44,335.01,227.44z"/>
					</g>
					<path id="XMLID_12_" class="st2" d="M259.73,119.39c0.74-13.37,3.29-26.86,9.55-38.71c6.27-11.84,16.57-21.94,29.36-26.02
						c12.93-4.12,27.1-1.9,40.3-5.05c26.23-6.28,46.03-33.01,73-32.47c20.03,0.4,36.91,16.87,43.86,35.61
						c6.94,18.74,5.94,39.37,4.25,59.28c-1.01,12-1.71,25.63,6.6,34.36c6.76,7.1,18.04,9.11,23.64,17.15
						c3.72,5.35,4.08,12.59,1.84,18.7s-6.82,11.17-12.13,14.95c-10.36,7.38-23.31,10.18-35.99,11.28
						c-12.68,1.1-25.49,0.67-38.1,2.41c-18.48,2.54-36.36,9.71-55.02,9.73c-21.16,0.03-66.4-9.29-78.8-31.23
						C264.84,176.53,258.74,137.42,259.73,119.39z"/>
					<path class="st3" d="M417.42,158.88c-0.41,0-0.75-0.34-0.75-0.75c0-6.14,7.56-14.8,7.88-15.17c0.27-0.31,0.75-0.34,1.06-0.07
						c0.31,0.27,0.34,0.75,0.07,1.06c-0.08,0.08-7.51,8.61-7.51,14.18C418.17,158.54,417.83,158.88,417.42,158.88z"/>
					<path class="st3" d="M459.38,176.65c-0.13,0-0.26-0.03-0.38-0.11l-11.67-7h-22.3c-0.41,0-0.75-0.34-0.75-0.75v-9.91h-26.5
						c-0.41,0-0.75-0.34-0.75-0.75s0.34-0.75,0.75-0.75h27.25c0.41,0,0.75,0.34,0.75,0.75v9.91h21.76c0.14,0,0.27,0.04,0.39,0.11
						l11.85,7.11c0.36,0.21,0.47,0.67,0.26,1.03C459.89,176.52,459.64,176.65,459.38,176.65z"/>
					<path class="st3" d="M403.98,86.96c-0.41,0-0.75-0.34-0.75-0.75v-5.65l-23.18-11.45c-0.26-0.13-0.42-0.39-0.42-0.67V59.2
						c0-0.41,0.34-0.75,0.75-0.75h11.39c0.41,0,0.75,0.34,0.75,0.75s-0.34,0.75-0.75,0.75h-10.64v8.03l23.18,11.45
						c0.26,0.13,0.42,0.39,0.42,0.67v6.11C404.73,86.62,404.39,86.96,403.98,86.96z"/>
					<path class="st3" d="M441.43,59.94h-32.45c-0.41,0-0.75-0.34-0.75-0.75s0.34-0.75,0.75-0.75h32.45c0.41,0,0.75,0.34,0.75,0.75
						S441.84,59.94,441.43,59.94z"/>
					<path class="st3" d="M289.81,92.28c-0.23,0-0.45-0.1-0.6-0.3c-0.25-0.33-0.19-0.8,0.14-1.05l7.03-5.32
						c0.13-0.1,0.29-0.15,0.45-0.15h134.12v-7.92c0-0.41,0.34-0.75,0.75-0.75h14.48c0.41,0,0.75,0.34,0.75,0.75
						s-0.34,0.75-0.75,0.75h-13.73v7.92c0,0.41-0.34,0.75-0.75,0.75H297.09l-6.83,5.17C290.13,92.23,289.97,92.28,289.81,92.28z"/>
					<path class="st3" d="M396.16,99.33c-0.41,0-0.75-0.34-0.75-0.75V86.21c0-0.41,0.34-0.75,0.75-0.75s0.75,0.34,0.75,0.75v12.37
						C396.91,98.99,396.57,99.33,396.16,99.33z"/>
					<path class="st3" d="M416.75,104.61c-0.24,0-0.48-0.12-0.63-0.34c-0.23-0.34-0.13-0.81,0.21-1.04l3.33-2.21
						c0.35-0.23,0.81-0.14,1.04,0.21c0.23,0.34,0.13,0.81-0.21,1.04l-3.33,2.21C417.04,104.57,416.9,104.61,416.75,104.61z
						 M426.75,97.98c-0.24,0-0.48-0.12-0.63-0.34c-0.23-0.35-0.13-0.81,0.21-1.04l1.49-0.99V86.2c0-0.41,0.34-0.75,0.75-0.75
						s0.75,0.34,0.75,0.75v9.81c0,0.25-0.13,0.49-0.33,0.63l-1.82,1.21C427.04,97.94,426.9,97.98,426.75,97.98z"/>
					<path class="st3" d="M354.79,86.96c-0.41,0-0.75-0.34-0.75-0.75V73.88H325.5c-0.1,0-0.2-0.02-0.29-0.06l-10.24-4.27
						c-0.38-0.16-0.56-0.6-0.4-0.98c0.16-0.38,0.6-0.56,0.98-0.4l10.1,4.21h29.14c0.41,0,0.75,0.34,0.75,0.75v13.08
						C355.54,86.62,355.2,86.96,354.79,86.96z"/>
					<path class="st3" d="M342.27,145.68c-0.4,0-0.73-0.32-0.75-0.72l-0.57-14.36c-0.01-0.21,0.07-0.42,0.22-0.56l11.23-11.09
						c0.14-0.14,0.33-0.22,0.53-0.22h26.69V86.21c0-0.41,0.34-0.75,0.75-0.75s0.75,0.34,0.75,0.75v33.27c0,0.41-0.34,0.75-0.75,0.75
						h-27.13l-10.78,10.64l0.55,14.03c0.02,0.41-0.31,0.76-0.72,0.78C342.29,145.68,342.28,145.68,342.27,145.68z"/>
					<path class="st3" d="M308.01,140.9c-0.41,0-0.75-0.34-0.75-0.75v-9.44c0-0.24,0.12-0.47,0.32-0.61l2.09-1.47
						c0.34-0.24,0.81-0.16,1.04,0.18s0.16,0.81-0.18,1.04l-1.77,1.24v9.05C308.76,140.57,308.42,140.9,308.01,140.9z M314.2,127.12
						c-0.24,0-0.47-0.11-0.62-0.32c-0.24-0.34-0.16-0.81,0.18-1.04l3.28-2.3c0.34-0.24,0.81-0.15,1.04,0.18
						c0.24,0.34,0.16,0.81-0.18,1.04l-3.28,2.3C314.5,127.08,314.34,127.12,314.2,127.12z M324.02,120.23
						c-0.24,0-0.47-0.11-0.62-0.32c-0.24-0.34-0.16-0.81,0.18-1.04l0.3-0.21v-10.85c0-0.41,0.34-0.75,0.75-0.75s0.75,0.34,0.75,0.75
						v11.24c0,0.24-0.12,0.47-0.32,0.61l-0.62,0.44C324.32,120.19,324.17,120.23,324.02,120.23z M357.96,103.88h-4
						c-0.41,0-0.75-0.34-0.75-0.75s0.34-0.75,0.75-0.75h4c0.41,0,0.75,0.34,0.75,0.75S358.38,103.88,357.96,103.88z M348.96,103.88
						h-12c-0.41,0-0.75-0.34-0.75-0.75s0.34-0.75,0.75-0.75h12c0.41,0,0.75,0.34,0.75,0.75S349.38,103.88,348.96,103.88z
						 M328.96,103.88h-4c-0.41,0-0.75-0.34-0.75-0.75s0.34-0.75,0.75-0.75h4c0.41,0,0.75,0.34,0.75,0.75
						S329.38,103.88,328.96,103.88z M361.04,98.96c-0.41,0-0.75-0.34-0.75-0.75v-12c0-0.41,0.34-0.75,0.75-0.75s0.75,0.34,0.75,0.75
						v12C361.79,98.62,361.46,98.96,361.04,98.96z"/>
					<path class="st3" d="M308.01,131.46c-0.15,0-0.3-0.05-0.44-0.14l-11.32-8.11h-24.64c-0.41,0-0.75-0.34-0.75-0.75
						s0.34-0.75,0.75-0.75h24.88c0.16,0,0.31,0.05,0.44,0.14l11.52,8.25c0.34,0.24,0.41,0.71,0.17,1.05
						C308.47,131.35,308.24,131.46,308.01,131.46z"/>
					<g>
						<g>
							<path id="XMLID_10_" class="st4" d="M408.38,204.93l-19.22-59.36c-0.41-1.26-1.58-2.11-2.91-2.11H292.3
								c-2.07,0-3.55,2.02-2.91,4L308,204.94L408.38,204.93L408.38,204.93z"/>
						</g>
						<g>
							<defs>
								<path id="SVGID_3_" d="M408.38,204.93l-19.22-59.36c-0.41-1.26-1.58-2.11-2.91-2.11H292.3c-2.07,0-3.55,2.02-2.91,4
									L308,204.94L408.38,204.93L408.38,204.93z"/>
							</defs>
							<clipPath id="SVGID_4_">
								<use xlink:href="#SVGID_3_"  style="overflow:visible;"/>
							</clipPath>
							<path class="st5" d="M386.55,188.84c0,0-16.99,5.04-28.03,15.84s18.84-3.72,18.84-3.72L386.55,188.84"/>
						</g>
						<g>
							<defs>
								<path id="SVGID_5_" d="M408.38,204.93l-19.22-59.36c-0.41-1.26-1.58-2.11-2.91-2.11H292.3c-2.07,0-3.55,2.02-2.91,4
									L308,204.94L408.38,204.93L408.38,204.93z"/>
							</defs>
							<clipPath id="SVGID_6_">
								<use xlink:href="#SVGID_5_"  style="overflow:visible;"/>
							</clipPath>
							<path class="st6" d="M340.08,199.21c0,0-13.36,1.75-20.68,7.51s22.3,5.88,22.3,5.88L340.08,199.21"/>
						</g>
					</g>
					<g>
						<path class="st3" d="M363.81,52.24h-6c-0.41,0-0.75-0.34-0.75-0.75s0.34-0.75,0.75-0.75h6c0.41,0,0.75,0.34,0.75,0.75
							S364.23,52.24,363.81,52.24z"/>
					</g>
					<g>
						<path class="st3" d="M350.83,52.24h-3.49c-0.41,0-0.75-0.34-0.75-0.75s0.34-0.75,0.75-0.75h3.49c0.41,0,0.75,0.34,0.75,0.75
							S351.24,52.24,350.83,52.24z"/>
					</g>
					<g>
						<path class="st3" d="M297.01,53.37c-0.26,0-0.51-0.13-0.65-0.37c-0.21-0.36-0.09-0.82,0.26-1.03l1.89-1.13
							c0.12-0.07,0.25-0.11,0.38-0.11h1.29c0.41,0,0.75,0.34,0.75,0.75s-0.34,0.75-0.75,0.75h-1.08l-1.72,1.02
							C297.28,53.33,297.14,53.37,297.01,53.37z M342.97,52.24H332.5c-0.41,0-0.75-0.34-0.75-0.75s0.34-0.75,0.75-0.75h10.48
							c0.41,0,0.75,0.34,0.75,0.75S343.39,52.24,342.97,52.24z M325.51,52.24h-3.49c-0.41,0-0.75-0.34-0.75-0.75
							s0.34-0.75,0.75-0.75h3.49c0.41,0,0.75,0.34,0.75,0.75S325.93,52.24,325.51,52.24z M317.66,52.24h-10.48
							c-0.41,0-0.75-0.34-0.75-0.75s0.34-0.75,0.75-0.75h10.48c0.41,0,0.75,0.34,0.75,0.75S318.07,52.24,317.66,52.24z"/>
					</g>
					<g>
						<path class="st3" d="M288.1,58.66c-0.26,0-0.51-0.13-0.65-0.37c-0.21-0.36-0.09-0.82,0.26-1.03l5.16-3.07
							c0.36-0.21,0.82-0.09,1.03,0.26c0.21,0.36,0.09,0.82-0.26,1.03l-5.16,3.07C288.36,58.63,288.23,58.66,288.1,58.66z"/>
					</g>
					<g>
						<path class="st3" d="M398.8,71.68c-0.41,0-0.75-0.34-0.75-0.75v-4.06c0-0.41,0.34-0.75,0.75-0.75s0.75,0.34,0.75,0.75v4.06
							C399.55,71.35,399.21,71.68,398.8,71.68z"/>
						<path class="st3" d="M402.48,71.68c-0.41,0-0.75-0.34-0.75-0.75v-4.06c0-0.41,0.34-0.75,0.75-0.75s0.75,0.34,0.75,0.75v4.06
							C403.23,71.35,402.89,71.68,402.48,71.68z"/>
						<path class="st3" d="M398.8,52.26c-0.41,0-0.75-0.34-0.75-0.75v-4.06c0-0.41,0.34-0.75,0.75-0.75s0.75,0.34,0.75,0.75v4.06
							C399.55,51.93,399.21,52.26,398.8,52.26z"/>
						<path class="st3" d="M402.48,52.26c-0.41,0-0.75-0.34-0.75-0.75v-4.06c0-0.41,0.34-0.75,0.75-0.75s0.75,0.34,0.75,0.75v4.06
							C403.23,51.93,402.89,52.26,402.48,52.26z"/>
					</g>
					<polygon class="st4" points="405.07,51.51 396.21,51.51 391.77,59.19 396.21,66.87 405.07,66.87 409.5,59.19 					"/>
					<path class="st3" d="M347,162.44c-12.36,0-18.26,4.36-22.37,11.75c3.9,6.75,10.02,11.75,22.37,11.75
						c12.36,0,18.26-4.36,22.37-11.75C365.47,167.44,359.36,162.44,347,162.44z"/>
					<ellipse class="st7" cx="346.76" cy="174.19" rx="9.07" ry="11.75"/>
					<path class="st3" d="M346.76,178.27c-2.25,0-4.08-1.83-4.08-4.08s1.83-4.08,4.08-4.08s4.08,1.83,4.08,4.08
						C350.83,176.44,349.01,178.27,346.76,178.27z M346.76,171.11c-1.7,0-3.08,1.38-3.08,3.08s1.38,3.08,3.08,3.08
						c1.7,0,3.08-1.38,3.08-3.08C349.83,172.49,348.45,171.11,346.76,171.11z"/>
					<path class="st8" d="M430.61,145.01c-11.41,0-30.88-8.81-34.48-14.8c-0.12-0.19-0.16-0.42-0.13-0.65
						c0.02-0.17,2.1-16.87-8.68-19.03c-0.54-0.11-0.89-0.64-0.78-1.18s0.63-0.89,1.18-0.78c11.62,2.32,10.57,18.22,10.32,20.88
						c3.9,5.69,24.63,14.55,34.4,13.47c7.96-0.88,8.04-23.48,7.41-32.11c-0.02-0.28,0.08-0.55,0.26-0.75
						c0.19-0.2,0.45-0.32,0.73-0.32h5.15c0.65,0,1.23-0.31,1.6-0.85s0.44-1.2,0.19-1.8l-5.5-13.75c-0.1-0.26-0.09-0.55,0.02-0.8
						c0.1-0.22,10.13-22.15-8.12-41.54c-17.56-18.65-58.86-7.96-62.69-6.91l-6.67,7.78v13.4l8.67,7.8c0.41,0.37,0.44,1,0.07,1.41
						s-1,0.45-1.41,0.07l-9-8.1c-0.21-0.19-0.33-0.46-0.33-0.74V51.49c0-0.24,0.08-0.47,0.24-0.65l7.11-8.29
						c0.13-0.15,0.29-0.26,0.48-0.31c1.86-0.54,45.83-12.97,64.99,7.38c17.79,18.9,9.98,40.15,8.65,43.35l5.35,13.37
						c0.49,1.21,0.34,2.58-0.39,3.67c-0.73,1.08-1.95,1.73-3.26,1.73h-4.08c0.38,6.3,1.25,32-9.25,33.17
						C432,144.97,431.32,145.01,430.61,145.01z"/>
					<circle class="st3" cx="412.94" cy="106.4" r="3.25"/>
					<circle class="st3" cx="396.66" cy="98.58" r="3.25"/>
					<circle class="st3" cx="271.61" cy="122.46" r="3.25"/>
					<circle class="st3" cx="315.26" cy="68.93" r="3.25"/>
					<circle class="st3" cx="289.25" cy="92.19" r="3.25"/>
					<circle class="st3" cx="324.22" cy="120.05" r="3.25"/>
					<circle class="st4" cx="352.72" cy="120.05" r="4"/>
					<circle class="st4" cx="372.27" cy="73.41" r="4"/>
					<circle class="st4" cx="457.22" cy="175.25" r="3.25"/>
					<circle class="st4" cx="288.1" cy="57.91" r="4"/>
					<g>
						<g>
							<defs>
								<path id="SVGID_7_" d="M259.37,119.39c0.74-13.37,3.29-26.86,9.55-38.71c6.27-11.84,16.57-21.94,29.36-26.02
									c12.93-4.12,27.1-1.9,40.3-5.05c26.23-6.28,46.03-33.01,73-32.47c20.03,0.4,36.91,16.87,43.86,35.61
									c6.94,18.74,5.94,39.37,4.25,59.28c-1.01,12-1.71,25.63,6.6,34.36c6.76,7.1,18.04,9.11,23.64,17.15
									c3.72,5.35,4.08,12.59,1.84,18.7s-6.82,11.17-12.13,14.95c-10.36,7.38-23.31,10.18-35.99,11.28s-25.49,0.67-38.1,2.41
									c-18.48,2.54-36.36,9.71-55.02,9.73c-21.16,0.03-66.4-9.29-78.8-31.23C264.48,176.53,258.38,137.42,259.37,119.39z"/>
							</defs>
							<clipPath id="SVGID_8_">
								<use xlink:href="#SVGID_7_"  style="overflow:visible;"/>
							</clipPath>
							<polygon class="st9" points="407.06,200.84 471.8,200.84 471.8,204.93 408.38,204.93 							"/>
						</g>
					</g>
					<g>
						<g>
							<defs>
								<path id="SVGID_9_" d="M259.37,119.39c0.74-13.37,3.29-26.86,9.55-38.71c6.27-11.84,16.57-21.94,29.36-26.02
									c12.93-4.12,27.1-1.9,40.3-5.05c26.23-6.28,46.03-33.01,73-32.47c20.03,0.4,36.91,16.87,43.86,35.61
									c6.94,18.74,5.94,39.37,4.25,59.28c-1.01,12-1.71,25.63,6.6,34.36c6.76,7.1,18.04,9.11,23.64,17.15
									c3.72,5.35,4.08,12.59,1.84,18.7s-6.82,11.17-12.13,14.95c-10.36,7.38-23.31,10.18-35.99,11.28s-25.49,0.67-38.1,2.41
									c-18.48,2.54-36.36,9.71-55.02,9.73c-21.16,0.03-66.4-9.29-78.8-31.23C264.48,176.53,258.38,137.42,259.37,119.39z"/>
							</defs>
							<clipPath id="SVGID_10_">
								<use xlink:href="#SVGID_9_"  style="overflow:visible;"/>
							</clipPath>
							<path class="st10" d="M340.08,199.21c4.56-1.23,9.84-1.49,13.58,1.4c1.47,1.14,2.65,2.73,4.39,3.38
								c3.29,1.23,6.64-1.4,9.28-3.71c6.53-5.7,14.05-10.74,22.6-12.21s18.26,1.33,23.05,8.56c1.51,2.28,2.57,4.99,4.78,6.59
								c5.61,4.06,13.79-1.67,20.29,0.73c2.92,1.08,5.14,3.89,5.5,6.98c0.37,3.1-1.13,6.34-3.72,8.07
								c-1.75,1.17-3.87,1.65-5.93,2.09c-25.26,5.42-50.89,9.09-76.66,10.98c-7.42,0.54-14.89,0.94-22.27,0.08
								c-5.81-0.68-18.97-2.22-19.68-9.94c-0.63-6.87,7.96-14.08,12.96-17.51C331.85,202.23,335.86,200.34,340.08,199.21z"/>
						</g>
					</g>
					<path class="st8" d="M419.07,142.97c-0.05,0-0.1,0-0.16-0.01c-0.55-0.08-0.92-0.6-0.83-1.14
						c3.03-19.46,22.64-21.27,22.84-21.29c0.54-0.05,1.03,0.36,1.08,0.91c0.04,0.55-0.36,1.03-0.91,1.08
						c-0.74,0.06-18.24,1.72-21.02,19.61C419.98,142.62,419.55,142.97,419.07,142.97z"/>
				</g>
			</g>
		</g>
	</g>
</g>
<g id="Artwork_1_1_">
	<g id="Artwork_1">
		<g>
			<g>
				<defs>
					<rect id="SVGID_11_" width="239.72" height="239.72"/>
				</defs>
				<clipPath id="SVGID_12_">
					<use xlink:href="#SVGID_11_"  style="overflow:visible;"/>
				</clipPath>
				<g class="st11">
					<g>
						<path class="st1" d="M202.45,80.62L202.45,80.62c-0.28,0-0.5-0.23-0.5-0.5c0.04-14.15-0.77-29.09-6.88-42.46
							c-6.55-14.32-19.2-24.31-32.24-25.45c-6.64-0.58-13.98,0.91-22.42,4.55c-10,4.32-19.26,10.49-28.22,16.45
							c-2.74,1.83-5.58,3.72-8.39,5.52c-11.14,7.15-24.52,14.69-39.4,16.46c-0.28,0.03-0.52-0.16-0.56-0.44s0.16-0.52,0.44-0.56
							c14.67-1.75,27.93-9.23,38.97-16.31c2.81-1.8,5.64-3.69,8.38-5.52c8.99-5.99,18.29-12.19,28.38-16.54
							c8.6-3.71,16.09-5.23,22.9-4.63c13.39,1.17,26.37,11.39,33.07,26.03c6.2,13.55,7.01,28.62,6.97,42.88
							C202.95,80.39,202.72,80.62,202.45,80.62z"/>
						<path class="st1" d="M81.57,227.44c-9.06,0-18.11-1.23-26.9-3.68c-10.95-3.05-20-7.68-26.89-13.75
							c-11.12-9.79-18.53-25.19-20.86-43.39c-2.08-16.3-0.2-32.83,1.62-48.82c0.03-0.27,0.26-0.48,0.55-0.44
							c0.27,0.03,0.47,0.28,0.44,0.55c-1.81,15.93-3.69,32.4-1.62,48.58c2.3,17.95,9.59,33.14,20.52,42.77
							c6.78,5.97,15.7,10.52,26.5,13.54c17.06,4.76,35.13,4.86,52.24,0.28c6.9-1.84,13.7-4.47,20.28-7.02
							c8.6-3.33,17.49-6.76,26.71-8.5c0.26-0.05,0.53,0.13,0.58,0.4c0.05,0.27-0.13,0.53-0.4,0.58c-9.13,1.71-17.98,5.14-26.54,8.45
							c-6.6,2.55-13.43,5.19-20.38,7.05C98.97,226.31,90.27,227.44,81.57,227.44z"/>
					</g>
					<path id="XMLID_7_" class="st2" d="M6.29,119.39c0.74-13.37,3.29-26.86,9.55-38.71c6.27-11.84,16.57-21.94,29.36-26.02
						c12.93-4.12,27.1-1.9,40.3-5.05c26.23-6.28,46.03-33.01,73-32.47c20.03,0.4,36.91,16.87,43.86,35.61s5.94,39.37,4.25,59.28
						c-1.01,12-1.71,25.63,6.6,34.36c6.76,7.1,18.04,9.11,23.64,17.15c3.72,5.35,4.08,12.59,1.84,18.7s-6.82,11.17-12.13,14.95
						c-10.36,7.38-23.31,10.18-35.99,11.28c-12.68,1.1-25.49,0.67-38.1,2.41c-18.48,2.54-36.36,9.71-55.02,9.73
						c-21.16,0.03-66.4-9.29-78.8-31.23C11.4,176.53,5.3,137.42,6.29,119.39z"/>
					<path class="st3" d="M163.98,158.88c-0.41,0-0.75-0.34-0.75-0.75c0-6.14,7.56-14.8,7.88-15.17c0.27-0.31,0.75-0.34,1.06-0.07
						c0.31,0.27,0.34,0.75,0.07,1.06c-0.08,0.08-7.51,8.61-7.51,14.18C164.73,158.54,164.39,158.88,163.98,158.88z"/>
					<path class="st3" d="M205.94,176.65c-0.13,0-0.26-0.03-0.38-0.11l-11.67-7h-22.3c-0.41,0-0.75-0.34-0.75-0.75v-9.91h-26.5
						c-0.41,0-0.75-0.34-0.75-0.75s0.34-0.75,0.75-0.75h27.25c0.41,0,0.75,0.34,0.75,0.75v9.91h21.76c0.14,0,0.27,0.04,0.39,0.11
						l11.85,7.11c0.36,0.21,0.47,0.67,0.26,1.03C206.45,176.52,206.2,176.65,205.94,176.65z"/>
					<path class="st3" d="M150.54,86.96c-0.41,0-0.75-0.34-0.75-0.75v-5.65l-23.18-11.45c-0.26-0.13-0.42-0.39-0.42-0.67V59.2
						c0-0.41,0.34-0.75,0.75-0.75h11.4c0.41,0,0.75,0.34,0.75,0.75s-0.34,0.75-0.75,0.75h-10.65v8.03l23.18,11.45
						c0.26,0.13,0.42,0.39,0.42,0.67v6.11C151.29,86.62,150.95,86.96,150.54,86.96z"/>
					<path class="st3" d="M187.99,59.94h-32.45c-0.41,0-0.75-0.34-0.75-0.75s0.34-0.75,0.75-0.75h32.45c0.41,0,0.75,0.34,0.75,0.75
						S188.4,59.94,187.99,59.94z"/>
					<path class="st3" d="M36.37,92.28c-0.23,0-0.45-0.1-0.6-0.3c-0.25-0.33-0.18-0.8,0.15-1.05l7.03-5.32
						c0.13-0.1,0.29-0.15,0.45-0.15h134.11v-7.92c0-0.41,0.34-0.75,0.75-0.75h14.48c0.41,0,0.75,0.34,0.75,0.75
						s-0.34,0.75-0.75,0.75h-13.73v7.92c0,0.41-0.34,0.75-0.75,0.75H43.65l-6.83,5.17C36.69,92.23,36.53,92.28,36.37,92.28z"/>
					<path class="st3" d="M142.72,99.33c-0.41,0-0.75-0.34-0.75-0.75V86.21c0-0.41,0.34-0.75,0.75-0.75s0.75,0.34,0.75,0.75v12.37
						C143.47,98.99,143.13,99.33,142.72,99.33z"/>
					<path class="st3" d="M163.31,104.61c-0.24,0-0.48-0.12-0.63-0.34c-0.23-0.34-0.13-0.81,0.21-1.04l3.33-2.21
						c0.35-0.23,0.81-0.13,1.04,0.21s0.13,0.81-0.21,1.04l-3.33,2.21C163.6,104.57,163.46,104.61,163.31,104.61z M173.31,97.98
						c-0.24,0-0.48-0.12-0.63-0.34c-0.23-0.35-0.13-0.81,0.21-1.04l1.49-0.99V86.2c0-0.41,0.34-0.75,0.75-0.75s0.75,0.34,0.75,0.75
						v9.81c0,0.25-0.13,0.49-0.33,0.63l-1.82,1.21C173.6,97.94,173.46,97.98,173.31,97.98z"/>
					<path class="st3" d="M101.34,86.96c-0.41,0-0.75-0.34-0.75-0.75V73.88H72.06c-0.1,0-0.2-0.02-0.29-0.06l-10.24-4.27
						c-0.38-0.16-0.56-0.6-0.4-0.98c0.16-0.38,0.6-0.56,0.98-0.4l10.1,4.21h29.14c0.41,0,0.75,0.34,0.75,0.75v13.08
						C102.09,86.62,101.76,86.96,101.34,86.96z"/>
					<path class="st3" d="M88.83,145.68c-0.4,0-0.73-0.32-0.75-0.72l-0.57-14.36c-0.01-0.21,0.07-0.42,0.22-0.56l11.23-11.09
						c0.14-0.14,0.33-0.22,0.53-0.22h26.69V86.21c0-0.41,0.34-0.75,0.75-0.75s0.75,0.34,0.75,0.75v33.27c0,0.41-0.34,0.75-0.75,0.75
						H99.8l-10.78,10.64l0.56,14.03c0.02,0.41-0.31,0.76-0.72,0.78C88.85,145.68,88.84,145.68,88.83,145.68z"/>
					<path class="st3" d="M54.57,140.9c-0.41,0-0.75-0.34-0.75-0.75v-9.44c0-0.24,0.12-0.47,0.32-0.61l2.09-1.47
						c0.34-0.24,0.81-0.16,1.04,0.18c0.24,0.34,0.16,0.81-0.18,1.04l-1.77,1.24v9.05C55.32,140.57,54.98,140.9,54.57,140.9z
						 M60.76,127.12c-0.24,0-0.47-0.11-0.61-0.32c-0.24-0.34-0.16-0.81,0.18-1.04l3.28-2.3c0.34-0.24,0.81-0.16,1.04,0.18
						s0.16,0.81-0.18,1.04l-3.28,2.3C61.05,127.08,60.9,127.12,60.76,127.12z M70.58,120.23c-0.24,0-0.47-0.11-0.61-0.32
						c-0.24-0.34-0.16-0.81,0.18-1.04l0.3-0.21v-10.85c0-0.41,0.34-0.75,0.75-0.75s0.75,0.34,0.75,0.75v11.24
						c0,0.24-0.12,0.47-0.32,0.61l-0.62,0.44C70.88,120.19,70.73,120.23,70.58,120.23z M104.52,103.88h-4
						c-0.41,0-0.75-0.34-0.75-0.75s0.34-0.75,0.75-0.75h4c0.41,0,0.75,0.34,0.75,0.75S104.93,103.88,104.52,103.88z M95.52,103.88
						h-12c-0.41,0-0.75-0.34-0.75-0.75s0.34-0.75,0.75-0.75h12c0.41,0,0.75,0.34,0.75,0.75S95.93,103.88,95.52,103.88z
						 M75.52,103.88h-4c-0.41,0-0.75-0.34-0.75-0.75s0.34-0.75,0.75-0.75h4c0.41,0,0.75,0.34,0.75,0.75S75.93,103.88,75.52,103.88z
						 M107.6,98.96c-0.41,0-0.75-0.34-0.75-0.75v-12c0-0.41,0.34-0.75,0.75-0.75s0.75,0.34,0.75,0.75v12
						C108.35,98.62,108.01,98.96,107.6,98.96z"/>
					<path class="st3" d="M54.57,131.46c-0.15,0-0.3-0.05-0.44-0.14l-11.32-8.11H18.17c-0.41,0-0.75-0.34-0.75-0.75
						s0.34-0.75,0.75-0.75h24.88c0.16,0,0.31,0.05,0.44,0.14L55,130.1c0.34,0.24,0.41,0.71,0.17,1.05
						C55.03,131.35,54.8,131.46,54.57,131.46z"/>
					<g>
						<g>
							<path id="XMLID_6_" class="st8" d="M154.94,204.93l-19.22-59.36c-0.41-1.26-1.58-2.11-2.91-2.11H38.86
								c-2.07,0-3.55,2.02-2.91,4l18.61,57.48L154.94,204.93L154.94,204.93z"/>
						</g>
						<g>
							<defs>
								<path id="SVGID_13_" d="M154.94,204.93l-19.22-59.36c-0.41-1.26-1.58-2.11-2.91-2.11H38.86c-2.07,0-3.55,2.02-2.91,4
									l18.61,57.48L154.94,204.93L154.94,204.93z"/>
							</defs>
							<clipPath id="SVGID_14_">
								<use xlink:href="#SVGID_13_"  style="overflow:visible;"/>
							</clipPath>
							<path class="st12" d="M133.11,188.84c0,0-16.99,5.04-28.03,15.84s18.84-3.72,18.84-3.72L133.11,188.84"/>
						</g>
						<g>
							<defs>
								<path id="SVGID_15_" d="M154.94,204.93l-19.22-59.36c-0.41-1.26-1.58-2.11-2.91-2.11H38.86c-2.07,0-3.55,2.02-2.91,4
									l18.61,57.48L154.94,204.93L154.94,204.93z"/>
							</defs>
							<clipPath id="SVGID_16_">
								<use xlink:href="#SVGID_15_"  style="overflow:visible;"/>
							</clipPath>
							<path class="st13" d="M86.64,199.21c0,0-13.36,1.75-20.68,7.51s22.3,5.88,22.3,5.88L86.64,199.21"/>
						</g>
					</g>
					<g>
						<path class="st3" d="M110.37,52.24h-6c-0.41,0-0.75-0.34-0.75-0.75s0.34-0.75,0.75-0.75h6c0.41,0,0.75,0.34,0.75,0.75
							S110.79,52.24,110.37,52.24z"/>
					</g>
					<g>
						<path class="st3" d="M97.39,52.24H93.9c-0.41,0-0.75-0.34-0.75-0.75s0.34-0.75,0.75-0.75h3.49c0.41,0,0.75,0.34,0.75,0.75
							S97.8,52.24,97.39,52.24z"/>
					</g>
					<g>
						<path class="st3" d="M43.57,53.37c-0.26,0-0.5-0.13-0.65-0.37c-0.21-0.36-0.09-0.82,0.26-1.03l1.9-1.13
							c0.12-0.07,0.25-0.11,0.38-0.11h1.29c0.41,0,0.75,0.34,0.75,0.75s-0.34,0.75-0.75,0.75h-1.08l-1.72,1.02
							C43.84,53.33,43.7,53.37,43.57,53.37z M89.53,52.24H79.06c-0.41,0-0.75-0.34-0.75-0.75s0.34-0.75,0.75-0.75h10.48
							c0.41,0,0.75,0.34,0.75,0.75S89.95,52.24,89.53,52.24z M72.07,52.24h-3.49c-0.41,0-0.75-0.34-0.75-0.75s0.34-0.75,0.75-0.75
							h3.49c0.41,0,0.75,0.34,0.75,0.75S72.49,52.24,72.07,52.24z M64.21,52.24H53.74c-0.41,0-0.75-0.34-0.75-0.75
							s0.34-0.75,0.75-0.75h10.48c0.41,0,0.75,0.34,0.75,0.75S64.63,52.24,64.21,52.24z"/>
					</g>
					<g>
						<path class="st3" d="M34.66,58.66c-0.26,0-0.5-0.13-0.65-0.37c-0.21-0.36-0.09-0.82,0.26-1.03l5.16-3.07
							c0.36-0.21,0.82-0.09,1.03,0.26c0.21,0.36,0.09,0.82-0.26,1.03l-5.16,3.07C34.92,58.63,34.79,58.66,34.66,58.66z"/>
					</g>
					<g>
						<path class="st3" d="M145.36,71.68c-0.41,0-0.75-0.34-0.75-0.75v-4.06c0-0.41,0.34-0.75,0.75-0.75s0.75,0.34,0.75,0.75v4.06
							C146.11,71.35,145.77,71.68,145.36,71.68z"/>
						<path class="st3" d="M149.04,71.68c-0.41,0-0.75-0.34-0.75-0.75v-4.06c0-0.41,0.34-0.75,0.75-0.75s0.75,0.34,0.75,0.75v4.06
							C149.79,71.35,149.45,71.68,149.04,71.68z"/>
						<path class="st3" d="M145.36,52.26c-0.41,0-0.75-0.34-0.75-0.75v-4.06c0-0.41,0.34-0.75,0.75-0.75s0.75,0.34,0.75,0.75v4.06
							C146.11,51.93,145.77,52.26,145.36,52.26z"/>
						<path class="st3" d="M149.04,52.26c-0.41,0-0.75-0.34-0.75-0.75v-4.06c0-0.41,0.34-0.75,0.75-0.75s0.75,0.34,0.75,0.75v4.06
							C149.79,51.93,149.45,52.26,149.04,52.26z"/>
					</g>
					<polygon class="st8" points="151.63,51.51 142.77,51.51 138.33,59.19 142.77,66.87 151.63,66.87 156.06,59.19 					"/>
					<path class="st4" d="M93.56,162.44c-12.36,0-18.26,4.36-22.37,11.75c3.9,6.75,10.02,11.75,22.37,11.75
						c12.36,0,18.26-4.36,22.37-11.75C112.03,167.44,105.92,162.44,93.56,162.44z"/>
					<ellipse class="st7" cx="93.32" cy="174.19" rx="9.07" ry="11.75"/>
					<path class="st3" d="M93.32,178.27c-2.25,0-4.08-1.83-4.08-4.08s1.83-4.08,4.08-4.08s4.08,1.83,4.08,4.08
						S95.57,178.27,93.32,178.27z M93.32,171.11c-1.7,0-3.08,1.38-3.08,3.08s1.38,3.08,3.08,3.08s3.08-1.38,3.08-3.08
						S95.01,171.11,93.32,171.11z"/>
					<path class="st8" d="M177.17,145.01c-11.41,0-30.88-8.81-34.48-14.8c-0.12-0.19-0.16-0.42-0.13-0.65
						c0.02-0.17,2.1-16.87-8.68-19.03c-0.54-0.11-0.89-0.64-0.78-1.18s0.63-0.89,1.18-0.78c11.62,2.32,10.57,18.22,10.31,20.88
						c3.9,5.69,24.63,14.55,34.4,13.47c7.96-0.88,8.05-23.48,7.41-32.11c-0.02-0.28,0.08-0.55,0.26-0.75
						c0.19-0.2,0.45-0.32,0.73-0.32h5.15c0.65,0,1.23-0.31,1.6-0.85c0.37-0.54,0.44-1.2,0.19-1.8l-5.5-13.75
						c-0.1-0.26-0.09-0.55,0.02-0.8c0.1-0.22,10.13-22.15-8.12-41.54c-17.56-18.65-58.86-7.96-62.69-6.91l-6.67,7.78v13.4l8.67,7.8
						c0.41,0.37,0.44,1,0.07,1.41s-1,0.44-1.41,0.07l-9-8.1c-0.21-0.19-0.33-0.46-0.33-0.74V51.49c0-0.24,0.09-0.47,0.24-0.65
						l7.11-8.29c0.13-0.15,0.29-0.26,0.48-0.31c1.86-0.54,45.83-12.97,64.99,7.38c17.79,18.9,9.98,40.14,8.65,43.35l5.35,13.37
						c0.49,1.21,0.34,2.58-0.39,3.66s-1.95,1.73-3.26,1.73h-4.08c0.38,6.3,1.25,32-9.25,33.17
						C178.56,144.97,177.88,145.01,177.17,145.01z"/>
					<circle class="st3" cx="159.5" cy="106.4" r="3.25"/>
					<circle class="st3" cx="143.22" cy="98.58" r="3.25"/>
					<circle class="st3" cx="18.17" cy="122.46" r="3.25"/>
					<circle class="st3" cx="61.82" cy="68.93" r="3.25"/>
					<circle class="st3" cx="35.81" cy="92.19" r="3.25"/>
					<circle class="st3" cx="70.78" cy="120.05" r="3.25"/>
					<circle class="st14" cx="99.28" cy="120.05" r="4"/>
					<circle class="st14" cx="118.83" cy="73.41" r="4"/>
					<circle class="st3" cx="203.78" cy="175.25" r="3.25"/>
					<circle class="st14" cx="34.66" cy="57.91" r="4"/>
					<g>
						<g>
							<defs>
								<path id="SVGID_17_" d="M5.93,119.39c0.74-13.37,3.29-26.86,9.55-38.71c6.27-11.84,16.57-21.94,29.36-26.02
									c12.93-4.12,27.1-1.9,40.3-5.05c26.23-6.28,46.03-33.01,73-32.47c20.03,0.4,36.91,16.87,43.86,35.61s5.94,39.37,4.25,59.28
									c-1.01,12-1.71,25.63,6.6,34.36c6.76,7.1,18.04,9.11,23.64,17.15c3.72,5.35,4.08,12.59,1.84,18.7s-6.82,11.17-12.13,14.95
									c-10.36,7.38-23.31,10.18-35.99,11.28c-12.68,1.1-25.49,0.67-38.1,2.41c-18.48,2.54-36.36,9.71-55.02,9.73
									c-21.16,0.03-66.4-9.29-78.8-31.23C11.04,176.53,4.94,137.42,5.93,119.39z"/>
							</defs>
							<clipPath id="SVGID_18_">
								<use xlink:href="#SVGID_17_"  style="overflow:visible;"/>
							</clipPath>
							<polygon class="st15" points="153.62,200.84 218.36,200.84 218.36,204.93 154.94,204.93 							"/>
						</g>
					</g>
					<g>
						<g>
							<defs>
								<path id="SVGID_19_" d="M5.93,119.39c0.74-13.37,3.29-26.86,9.55-38.71c6.27-11.84,16.57-21.94,29.36-26.02
									c12.93-4.12,27.1-1.9,40.3-5.05c26.23-6.28,46.03-33.01,73-32.47c20.03,0.4,36.91,16.87,43.86,35.61s5.94,39.37,4.25,59.28
									c-1.01,12-1.71,25.63,6.6,34.36c6.76,7.1,18.04,9.11,23.64,17.15c3.72,5.35,4.08,12.59,1.84,18.7s-6.82,11.17-12.13,14.95
									c-10.36,7.38-23.31,10.18-35.99,11.28c-12.68,1.1-25.49,0.67-38.1,2.41c-18.48,2.54-36.36,9.71-55.02,9.73
									c-21.16,0.03-66.4-9.29-78.8-31.23C11.04,176.53,4.94,137.42,5.93,119.39z"/>
							</defs>
							<clipPath id="SVGID_20_">
								<use xlink:href="#SVGID_19_"  style="overflow:visible;"/>
							</clipPath>
							<path class="st16" d="M86.64,199.21c4.56-1.23,9.84-1.49,13.58,1.4c1.47,1.14,2.65,2.73,4.39,3.38
								c3.29,1.23,6.64-1.4,9.28-3.71c6.53-5.7,14.05-10.74,22.6-12.21s18.26,1.33,23.05,8.56c1.51,2.28,2.57,4.99,4.78,6.59
								c5.61,4.06,13.79-1.67,20.29,0.73c2.92,1.08,5.14,3.89,5.5,6.98c0.37,3.1-1.13,6.34-3.72,8.07
								c-1.75,1.17-3.87,1.65-5.93,2.09c-25.26,5.42-50.89,9.09-76.66,10.98c-7.42,0.54-14.89,0.94-22.27,0.08
								c-5.81-0.68-18.97-2.22-19.68-9.94c-0.63-6.87,7.96-14.08,12.96-17.51C78.41,202.23,82.42,200.34,86.64,199.21z"/>
						</g>
					</g>
					<path class="st8" d="M165.63,142.97c-0.05,0-0.1,0-0.16-0.01c-0.55-0.08-0.92-0.6-0.83-1.14
						c3.04-19.46,22.64-21.27,22.84-21.29c0.54-0.05,1.03,0.36,1.08,0.91c0.04,0.55-0.36,1.03-0.91,1.08
						c-0.74,0.06-18.24,1.72-21.02,19.61C166.54,142.62,166.11,142.97,165.63,142.97z"/>
				</g>
			</g>
		</g>
	</g>
</g>
</svg>
