<?xml version="1.0" encoding="utf-8"?>
<!-- Generator: Adobe Illustrator 23.0.1, SVG Export Plug-In . SVG Version: 6.00 Build 0)  -->
<svg version="1.1" id="Artwork" xmlns="http://www.w3.org/2000/svg" xmlns:xlink="http://www.w3.org/1999/xlink" x="0px" y="0px"
	 viewBox="0 0 240 240" style="enable-background:new 0 0 240 240;" xml:space="preserve">
<style type="text/css">
	.st0{clip-path:url(#SVGID_2_);}
	.st1{fill:#BEC8FF;}
	.st2{fill:#E9EDFF;}
	.st3{clip-path:url(#XMLID_2_);fill:#FFC337;}
	.st4{opacity:0.5;clip-path:url(#XMLID_2_);fill:#000D54;}
	.st5{opacity:0.5;clip-path:url(#XMLID_3_);fill:#7E91FE;}
	.st6{opacity:0.5;clip-path:url(#XMLID_3_);fill:#000D54;}
	.st7{opacity:0.5;clip-path:url(#XMLID_4_);fill:#7E91FE;}
	.st8{opacity:0.5;clip-path:url(#XMLID_4_);fill:#000D54;}
	.st9{fill:#FFC337;}
	.st10{opacity:0.5;clip-path:url(#XMLID_5_);fill:#E9A300;}
	.st11{fill:#000D54;}
	.st12{fill:#536DFE;}
	.st13{opacity:0.5;clip-path:url(#XMLID_13_);fill:#659157;}
	.st14{fill:#A9DBB8;}
	.st15{fill:#895737;}
	.st16{fill:#FFFFFF;}
	.st17{fill:#FFD26A;}
	.st18{fill:none;stroke:#7E91FE;stroke-width:2;stroke-linecap:round;stroke-linejoin:round;stroke-miterlimit:10;}
	.st19{fill:#FFC337;stroke:#FFC337;stroke-miterlimit:10;}
	.st20{fill:#7E91FE;}
	.st21{clip-path:url(#XMLID_14_);fill:#D4DAFF;}
	.st22{fill:#D4DAFF;}
</style>
<g>
	<defs>
		<rect id="SVGID_1_" width="240" height="240"/>
	</defs>
	<clipPath id="SVGID_2_">
		<use xlink:href="#SVGID_1_"  style="overflow:visible;"/>
	</clipPath>
	<g class="st0">
		<path class="st1" d="M117.89,234.7c-0.19,0-0.38-0.11-0.46-0.3c-0.11-0.25,0-0.55,0.26-0.66c8.36-3.68,18.44-5.23,30.83-4.76
			c6,0.23,12.07,0.89,17.93,1.52c4.32,0.47,8.79,0.95,13.19,1.26c7.94,0.56,19.75,0.88,30.72-2.75
			c10.66-3.53,19.11-10.47,23.16-19.06c4.58-9.69,2.92-21.65-3.94-28.45c-0.2-0.19-0.2-0.51,0-0.71s0.51-0.2,0.71,0
			c7.15,7.08,8.9,19.53,4.15,29.58c-4.17,8.83-12.83,15.97-23.75,19.58c-11.14,3.68-23.08,3.36-31.1,2.79
			c-4.42-0.31-8.9-0.8-13.23-1.26c-5.85-0.63-11.9-1.29-17.87-1.52c-12.23-0.47-22.17,1.06-30.38,4.67
			C118.03,234.68,117.96,234.7,117.89,234.7z"/>
		<path class="st1" d="M53.96,174.32c-29.3,0-53.14-24.71-53.14-55.09c0-30.38,23.84-55.09,53.14-55.09
			c29.3,0,53.14,24.71,53.14,55.09C107.09,149.61,83.26,174.32,53.96,174.32z M53.96,65.14c-28.75,0-52.14,24.27-52.14,54.09
			c0,29.83,23.39,54.09,52.14,54.09s52.14-24.27,52.14-54.09C106.09,89.41,82.71,65.14,53.96,65.14z"/>
		<path id="XMLID_11_" class="st2" d="M2.13,138.77c0.74-13.37,3.29-26.86,9.55-38.71s16.57-21.94,29.36-26.02
			c12.93-4.12,27.1-1.9,40.3-5.05c26.23-6.28,46.03-33.01,73-32.47c20.03,0.4,36.91,16.87,43.86,35.61s5.94,39.37,4.25,59.28
			c-1.01,12-1.71,25.63,6.6,34.36c6.76,7.1,18.04,9.11,23.64,17.15c3.72,5.35,4.08,12.59,1.84,18.7
			c-2.24,6.11-6.82,11.17-12.13,14.95c-10.36,7.38-23.31,10.18-35.99,11.28c-12.68,1.1-25.49,0.67-38.1,2.41
			c-18.48,2.54-36.36,9.71-55.02,9.73c-21.16,0.03-66.4-9.29-78.8-31.23C7.24,195.91,1.14,156.79,2.13,138.77z"/>
		<g>
			<defs>
				<path id="XMLID_10_" d="M141.43,151.38H36.26c-2.49,0-4.5-2.01-4.5-4.5v-27.56c0-2.49,2.01-4.5,4.5-4.5h105.16
					c2.49,0,4.5,2.01,4.5,4.5v27.56C145.93,149.36,143.91,151.38,141.43,151.38z"/>
			</defs>
			<use xlink:href="#XMLID_10_"  style="overflow:visible;fill:#7E91FE;"/>
			<clipPath id="XMLID_2_">
				<use xlink:href="#XMLID_10_"  style="overflow:visible;"/>
			</clipPath>
			<path class="st3" d="M130.08,129.88H56.82c-0.28,0-0.5-0.22-0.5-0.5s0.22-0.5,0.5-0.5h73.26c0.28,0,0.5,0.22,0.5,0.5
				S130.36,129.88,130.08,129.88z"/>
			<path class="st3" d="M130.08,139.62H56.82c-0.28,0-0.5-0.22-0.5-0.5s0.22-0.5,0.5-0.5h73.26c0.28,0,0.5,0.22,0.5,0.5
				S130.36,139.62,130.08,139.62z"/>
			<path class="st4" d="M72.96,116.43c0,0,23.64,13.68,53.28,17.52l25.92,49.58l-0.84-41.54l-20.13-20.04l-22.83-4.32L72.96,116.43z
				"/>
		</g>
		<g>
			<defs>
				<path id="XMLID_9_" d="M141.43,187.94H36.26c-2.49,0-4.5-2.01-4.5-4.5v-27.56c0-2.49,2.01-4.5,4.5-4.5h105.16
					c2.49,0,4.5,2.01,4.5,4.5v27.56C145.93,185.93,143.91,187.94,141.43,187.94z"/>
			</defs>
			<use xlink:href="#XMLID_9_"  style="overflow:visible;fill:#7E91FE;"/>
			<clipPath id="XMLID_3_">
				<use xlink:href="#XMLID_9_"  style="overflow:visible;"/>
			</clipPath>
			<polygon class="st5" points="147.9,152.97 29.64,152.97 34.68,149.19 147.9,149.19 			"/>
			<polyline class="st6" points="135.35,151.38 152.13,186.27 157.26,168.99 145.56,145.61 135.35,151.38 			"/>
		</g>
		<g>
			<defs>
				<path id="XMLID_8_" d="M141.43,224.5H36.26c-2.49,0-4.5-2.01-4.5-4.5v-27.56c0-2.49,2.01-4.5,4.5-4.5h105.16
					c2.49,0,4.5,2.01,4.5,4.5V220C145.93,222.49,143.91,224.5,141.43,224.5z"/>
			</defs>
			<use xlink:href="#XMLID_8_"  style="overflow:visible;fill:#7E91FE;"/>
			<clipPath id="XMLID_4_">
				<use xlink:href="#XMLID_8_"  style="overflow:visible;"/>
			</clipPath>
			<rect x="31.08" y="184.95" class="st7" width="116.04" height="4.71"/>
			<path class="st8" d="M124.9,206.97c0,0-30.36,15.45-39.72,16.08s19.53,6.02,20.16,6.02c0.63,0,13.23-11.61,13.23-11.61
				L124.9,206.97"/>
		</g>
		<path class="st9" d="M130.08,165.29H56.82c-0.28,0-0.5-0.22-0.5-0.5s0.22-0.5,0.5-0.5h73.26c0.28,0,0.5,0.22,0.5,0.5
			S130.36,165.29,130.08,165.29z"/>
		<path class="st9" d="M130.08,175.02H56.82c-0.28,0-0.5-0.22-0.5-0.5s0.22-0.5,0.5-0.5h73.26c0.28,0,0.5,0.22,0.5,0.5
			S130.36,175.02,130.08,175.02z"/>
		<path class="st9" d="M130.08,201.86H56.82c-0.28,0-0.5-0.22-0.5-0.5s0.22-0.5,0.5-0.5h73.26c0.28,0,0.5,0.22,0.5,0.5
			S130.36,201.86,130.08,201.86z"/>
		<path class="st9" d="M130.08,211.59H56.82c-0.28,0-0.5-0.22-0.5-0.5s0.22-0.5,0.5-0.5h73.26c0.28,0,0.5,0.22,0.5,0.5
			S130.36,211.59,130.08,211.59z"/>
		<g>
			<defs>
				<path id="XMLID_7_" d="M96.73,27.54c-0.08,2.38-0.35,4.85-1.63,6.86c-1.13,1.76-3,3.03-5.06,3.41
					c-1.31,0.25-2.67,0.14-3.93-0.29c-0.1,3.36-0.07,6.24-0.17,9.62c-0.25,1.13-1.21,2.01-2.28,2.45c-1.06,0.44-2.25,0.5-3.41,0.5
					c-1.7,0-3.44-0.14-4.95-0.9c-1.52-0.76-2.7-2.55-2.76-4.24c1.05-6.97,1.5-13.26,2.65-19.36c-0.61-0.09-1.21-0.25-1.77-0.5
					c-0.99-0.44-1.87-1.22-2.33-2.17c-0.04-0.09-0.08-0.18-0.12-0.27c-0.16-0.42-0.24-0.86-0.21-1.32c0.03-0.5,0.19-0.96,0.44-1.39
					c0.59-1,1.67-1.73,2.83-2.03c1.63-0.42,3.35-0.13,5.01,0.14c8.53,0.01,14.92-0.83,16.36-3.61
					C96.41,18.73,96.88,23.14,96.73,27.54z"/>
			</defs>
			<use xlink:href="#XMLID_7_"  style="overflow:visible;fill:#FFD26A;"/>
			<clipPath id="XMLID_5_">
				<use xlink:href="#XMLID_7_"  style="overflow:visible;"/>
			</clipPath>
			<path class="st10" d="M86.11,37.53c0,0-2.52-0.65-3.9-1.67c-1.38-1.02,5.01,10.14,5.01,10.14L86.11,37.53"/>
		</g>
		<path class="st11" d="M171.72,198.47c-1,1.36-6.12,3.44-6.96,1.68v-0.01c0-1.51,1.88-3.27,4.85-5.16L171.72,198.47z"/>
		<path class="st12" d="M210.42,192l-31.92,17.75l-6.78-11.28l-2.11-3.49c5.55-3.55,14.89-7.58,22.85-11.45l2.39,5.08
			C194.86,188.61,208.62,186.62,210.42,192z"/>
		<g>
			<defs>
				<path id="XMLID_6_" d="M192.47,183.54c-7.96,3.87-17.3,7.9-22.85,11.45c-2.97,1.89-4.85,3.66-4.85,5.16l-35.46-68.69
					c-14.71-1.87-36.1-6.28-50.11-11.15c-6.45-2.23-12.97-4.88-17.95-9.54c-4.33-4.03-7.93-11.13-7.18-18.18
					c5.65,1.81,12.34,2.77,17.7,2.39c0.33,0.38,0.68,0.72,1.03,1.02c5.82,4.85,40.51,5.45,49.07,5.53h0.01
					c8.1,2.46,23.85,7.69,31.41,13.3l0.02,0.01c0.98,0.72,1.85,1.46,2.6,2.22c4.99,4.99,15.91,25.37,24.53,42.27
					C187.15,172.48,192.47,183.54,192.47,183.54z"/>
			</defs>
			<use xlink:href="#XMLID_6_"  style="overflow:visible;fill:#A9DBB8;"/>
			<clipPath id="XMLID_13_">
				<use xlink:href="#XMLID_6_"  style="overflow:visible;"/>
			</clipPath>
			<path class="st13" d="M52.82,96.18c0,0,11.25,0.23,16.47-2.25c5.22-2.47-16.97-4.26-17.1-4.4
				C52.05,89.39,52.82,96.18,52.82,96.18z"/>
		</g>
		<path class="st14" d="M207.98,175.78l-27.55-16.47c-8.62-16.9-19.55-37.28-24.53-42.27c-0.75-0.75-1.63-1.5-2.6-2.22l65.77,34.35
			c-4.09,6.78-9.3,14.18-11.21,19.8C206.89,171.79,206.75,174.15,207.98,175.78z"/>
		<path class="st15" d="M95.38,14.45c-1.44,2.78-7.82,3.62-16.36,3.61c-1.66-0.28-3.38-0.57-5.01-0.14
			c-1.15,0.3-2.24,1.03-2.83,2.03c-1.99-2.46-1.97-6.85-0.8-9.49c1.29-2.89,3.9-5.08,6.85-6.22c2.95-1.14,6.21-1.31,9.34-0.89
			c2.72,0.35,5.49,1.22,7.44,3.14C95.97,8.41,96.72,12.06,95.38,14.45z"/>
		<path class="st15" d="M75.18,25.59c-1.15,6.09-1.6,12.39-2.65,19.36c-3.26-0.39-6.46,1.47-8.56,4.01
			c-2.08,2.54-3.26,5.68-4.38,8.78c-0.63,1.73-1.25,3.47-1.86,5.21c-7.68-5.43-16.62-15.5-22.12-23.59c0.28-1.89,1.74-3.55,3.37-4.7
			c1.96-1.4,4.34-2.05,6.67-2.67c5.16-1.39,10.33-2.77,15.48-4.14c3.06-0.82,7.36-2.59,9.94-4.92c0.45,0.95,1.34,1.73,2.33,2.17
			C73.97,25.34,74.57,25.5,75.18,25.59z"/>
		<path class="st12" d="M124.87,90.45l-0.19,1.93l-0.92,9.15c0,0-0.69,0-1.89-0.01h-0.01c-8.56-0.08-43.25-0.68-49.07-5.53
			c-0.35-0.3-0.7-0.64-1.03-1.02c-5.35,0.38-12.05-0.59-17.7-2.39c-1.96-0.62-3.8-1.34-5.41-2.14c2.85-9.23,5.87-18.4,9.09-27.49
			c0.61-1.74,1.23-3.48,1.86-5.21c1.12-3.09,2.29-6.24,4.38-8.78c2.09-2.54,5.3-4.4,8.56-4.01c0.06,1.7,1.24,3.48,2.76,4.24
			c1.52,0.75,3.26,0.9,4.95,0.9c1.16,0,2.35-0.06,3.41-0.5c1.07-0.44,2.03-1.32,2.28-2.45c0,0,9.01,1.2,11.23,10.06
			c2.22,8.87,3.32,22.16,3.32,22.16l21.06,6.65l-0.9,3.51C122.49,89.83,123.94,90.14,124.87,90.45z"/>
		<path class="st16" d="M120.65,90.03c-0.03,0-0.05,0-0.08-0.01c-11.17-1.85-36.48-3.49-36.73-3.51c-0.23-0.02-0.43-0.19-0.46-0.42
			C81.48,74,75.23,58.04,70.8,51.28c-0.15-0.23-0.09-0.54,0.14-0.69c0.23-0.15,0.54-0.09,0.69,0.14
			c4.43,6.77,10.67,22.64,12.66,34.81c3.29,0.22,25.99,1.76,36.43,3.49c0.27,0.04,0.46,0.3,0.41,0.57
			C121.1,89.86,120.89,90.03,120.65,90.03z"/>
		<path class="st16" d="M71.76,95.47c-0.14,0-0.28-0.06-0.38-0.17c-5.89-6.76-7.87-25.08-7.95-25.85c-0.03-0.27,0.17-0.52,0.44-0.55
			c0.27-0.03,0.52,0.17,0.55,0.44c0.02,0.19,2.03,18.78,7.71,25.3c0.18,0.21,0.16,0.52-0.05,0.71
			C71.99,95.43,71.87,95.47,71.76,95.47z"/>
		<path class="st16" d="M91.05,87.02c-0.25,0-0.47-0.19-0.5-0.44L87.8,63.92c-0.03-0.27,0.16-0.52,0.44-0.56
			c0.28-0.03,0.52,0.16,0.56,0.44l2.75,22.67c0.03,0.27-0.16,0.52-0.44,0.56C91.09,87.02,91.07,87.02,91.05,87.02z"/>
		<path class="st17" d="M138.62,104.16l-14.86-2.63l0.92-9.15C124.68,92.38,137.98,97.91,138.62,104.16z"/>
		<polyline class="st18" points="121.87,101.52 142.6,104.86 158.11,70.5 		"/>
		<path class="st12" d="M238.68,146.27l-12.23,29.51l-14.02-5.12l-4.58-1.67c1.92-5.62,7.13-13.02,11.21-19.8l5.25,2.19
			C224.32,151.38,231.9,143.29,238.68,146.27z"/>
		<path class="st11" d="M212.43,170.66c-0.93,2.3-2.7,5.88-4.44,5.12c-1.23-1.63-1.1-3.99-0.13-6.79L212.43,170.66z"/>
		<path class="st15" d="M33.72,36.65c-0.12,0-0.24-0.04-0.33-0.13c-0.21-0.18-0.23-0.5-0.04-0.71c3.64-4.11,9.72-6.92,13.86-7.57
			c2.2-0.35,4.44-0.5,6.61-0.65c1.64-0.11,3.34-0.23,5-0.43c5.29-0.64,9.2-1.86,11.63-3.63c0.22-0.16,0.54-0.11,0.7,0.11
			c0.16,0.22,0.11,0.54-0.11,0.7c-2.57,1.87-6.64,3.16-12.1,3.82c-1.68,0.2-3.39,0.32-5.05,0.43c-2.15,0.15-4.37,0.3-6.52,0.64
			c-3.96,0.63-9.78,3.32-13.26,7.25C34,36.59,33.86,36.65,33.72,36.65z"/>
		<circle class="st19" cx="46.4" cy="129.38" r="2.25"/>
		<g>
			<path class="st9" d="M46.4,141.87c-1.52,0-2.75-1.23-2.75-2.75s1.23-2.75,2.75-2.75s2.75,1.23,2.75,2.75
				S47.92,141.87,46.4,141.87z M46.4,137.37c-0.96,0-1.75,0.79-1.75,1.75s0.79,1.75,1.75,1.75s1.75-0.79,1.75-1.75
				S47.37,137.37,46.4,137.37z"/>
		</g>
		<circle class="st19" cx="46.4" cy="174.52" r="2.25"/>
		<path class="st9" d="M46.4,167.54c-1.52,0-2.75-1.23-2.75-2.75s1.23-2.75,2.75-2.75s2.75,1.23,2.75,2.75S47.92,167.54,46.4,167.54
			z M46.4,163.04c-0.96,0-1.75,0.79-1.75,1.75s0.79,1.75,1.75,1.75s1.75-0.79,1.75-1.75S47.37,163.04,46.4,163.04z"/>
		<path class="st9" d="M46.4,213.84c-1.52,0-2.75-1.23-2.75-2.75s1.23-2.75,2.75-2.75s2.75,1.23,2.75,2.75S47.92,213.84,46.4,213.84
			z M46.4,209.34c-0.96,0-1.75,0.79-1.75,1.75s0.79,1.75,1.75,1.75s1.75-0.79,1.75-1.75S47.37,209.34,46.4,209.34z"/>
		<path class="st9" d="M46.4,204.11c-1.52,0-2.75-1.23-2.75-2.75s1.23-2.75,2.75-2.75s2.75,1.23,2.75,2.75S47.92,204.11,46.4,204.11
			z M46.4,199.61c-0.96,0-1.75,0.79-1.75,1.75s0.79,1.75,1.75,1.75s1.75-0.79,1.75-1.75S47.37,199.61,46.4,199.61z"/>
		<g>
			<g>
				<path class="st20" d="M107.9,31.79h1.08v0.48h-2.74v-0.48h1.08v-3.74l-0.87,0.55l-0.27-0.44l1.29-0.82h0.41V31.79z"/>
				<path class="st20" d="M111.75,31.68c-0.29-0.43-0.44-1.05-0.44-1.88c0-0.83,0.15-1.45,0.44-1.88c0.29-0.43,0.72-0.64,1.29-0.64
					c0.57,0,0.99,0.21,1.29,0.64c0.29,0.43,0.44,1.05,0.44,1.88c0,0.83-0.15,1.45-0.44,1.88s-0.72,0.64-1.29,0.64
					C112.47,32.33,112.04,32.11,111.75,31.68z M113.9,31.35c0.19-0.33,0.28-0.85,0.28-1.55c0-0.7-0.09-1.22-0.28-1.54
					c-0.18-0.32-0.47-0.49-0.87-0.49c-0.39,0-0.68,0.16-0.87,0.49c-0.19,0.33-0.28,0.84-0.28,1.54c0,0.7,0.09,1.22,0.28,1.55
					c0.19,0.33,0.48,0.5,0.87,0.5C113.43,31.85,113.72,31.68,113.9,31.35z"/>
				<path class="st20" d="M117.35,31.68c-0.29-0.43-0.44-1.05-0.44-1.88c0-0.83,0.15-1.45,0.44-1.88c0.29-0.43,0.72-0.64,1.29-0.64
					c0.57,0,0.99,0.21,1.29,0.64c0.29,0.43,0.44,1.05,0.44,1.88c0,0.83-0.15,1.45-0.44,1.88s-0.72,0.64-1.29,0.64
					C118.07,32.33,117.64,32.11,117.35,31.68z M119.5,31.35c0.19-0.33,0.28-0.85,0.28-1.55c0-0.7-0.09-1.22-0.28-1.54
					c-0.18-0.32-0.47-0.49-0.87-0.49c-0.39,0-0.68,0.16-0.87,0.49c-0.19,0.33-0.28,0.84-0.28,1.54c0,0.7,0.09,1.22,0.28,1.55
					c0.19,0.33,0.48,0.5,0.87,0.5C119.03,31.85,119.32,31.68,119.5,31.35z"/>
				<path class="st20" d="M126.15,31.68c-0.29-0.43-0.44-1.05-0.44-1.88c0-0.83,0.15-1.45,0.44-1.88c0.29-0.43,0.72-0.64,1.29-0.64
					c0.57,0,0.99,0.21,1.29,0.64c0.29,0.43,0.44,1.05,0.44,1.88c0,0.83-0.15,1.45-0.44,1.88s-0.72,0.64-1.29,0.64
					C126.88,32.33,126.45,32.11,126.15,31.68z M128.31,31.35c0.19-0.33,0.28-0.85,0.28-1.55c0-0.7-0.09-1.22-0.28-1.54
					c-0.18-0.32-0.47-0.49-0.87-0.49c-0.39,0-0.68,0.16-0.87,0.49c-0.19,0.33-0.28,0.84-0.28,1.54c0,0.7,0.09,1.22,0.28,1.55
					c0.19,0.33,0.48,0.5,0.87,0.5C127.83,31.85,128.12,31.68,128.31,31.35z"/>
				<path class="st20" d="M133.51,31.79h1.08v0.48h-2.74v-0.48h1.08v-3.74l-0.87,0.55l-0.27-0.44l1.29-0.82h0.41V31.79z"/>
				<path class="st20" d="M139.11,31.79h1.08v0.48h-2.74v-0.48h1.08v-3.74l-0.87,0.55l-0.27-0.44l1.29-0.82h0.41V31.79z"/>
				<path class="st20" d="M152.57,31.68c-0.29-0.43-0.44-1.05-0.44-1.88c0-0.83,0.15-1.45,0.44-1.88c0.29-0.43,0.72-0.64,1.29-0.64
					c0.57,0,0.99,0.21,1.29,0.64c0.29,0.43,0.44,1.05,0.44,1.88c0,0.83-0.15,1.45-0.44,1.88s-0.72,0.64-1.29,0.64
					C153.29,32.33,152.87,32.11,152.57,31.68z M154.73,31.35c0.19-0.33,0.28-0.85,0.28-1.55c0-0.7-0.09-1.22-0.28-1.54
					c-0.18-0.32-0.47-0.49-0.87-0.49c-0.39,0-0.68,0.16-0.87,0.49c-0.19,0.33-0.28,0.84-0.28,1.54c0,0.7,0.09,1.22,0.28,1.55
					c0.19,0.33,0.48,0.5,0.87,0.5C154.25,31.85,154.54,31.68,154.73,31.35z"/>
				<path class="st20" d="M159.93,31.79h1.08v0.48h-2.74v-0.48h1.08v-3.74l-0.87,0.55l-0.27-0.44l1.29-0.82h0.41V31.79z"/>
				<path class="st20" d="M170.18,31.68c-0.29-0.43-0.44-1.05-0.44-1.88c0-0.83,0.15-1.45,0.44-1.88c0.29-0.43,0.72-0.64,1.29-0.64
					c0.57,0,0.99,0.21,1.29,0.64c0.29,0.43,0.44,1.05,0.44,1.88c0,0.83-0.15,1.45-0.44,1.88s-0.72,0.64-1.29,0.64
					C170.91,32.33,170.48,32.11,170.18,31.68z M172.34,31.35c0.19-0.33,0.28-0.85,0.28-1.55c0-0.7-0.09-1.22-0.28-1.54
					c-0.18-0.32-0.47-0.49-0.87-0.49c-0.39,0-0.68,0.16-0.87,0.49c-0.19,0.33-0.28,0.84-0.28,1.54c0,0.7,0.09,1.22,0.28,1.55
					c0.19,0.33,0.48,0.5,0.87,0.5C171.86,31.85,172.15,31.68,172.34,31.35z"/>
				<path class="st20" d="M177.54,31.79h1.08v0.48h-2.74v-0.48h1.08v-3.74l-0.87,0.55l-0.27-0.44l1.29-0.82h0.41V31.79z"/>
				<path class="st20" d="M183.14,31.79h1.08v0.48h-2.74v-0.48h1.08v-3.74l-0.87,0.55l-0.27-0.44l1.29-0.82h0.41V31.79z"/>
				<path class="st20" d="M186.98,31.68c-0.29-0.43-0.44-1.05-0.44-1.88c0-0.83,0.15-1.45,0.44-1.88c0.29-0.43,0.72-0.64,1.29-0.64
					c0.57,0,0.99,0.21,1.29,0.64c0.29,0.43,0.44,1.05,0.44,1.88c0,0.83-0.15,1.45-0.44,1.88s-0.72,0.64-1.29,0.64
					C187.71,32.33,187.28,32.11,186.98,31.68z M189.14,31.35c0.19-0.33,0.28-0.85,0.28-1.55c0-0.7-0.09-1.22-0.28-1.54
					c-0.18-0.32-0.47-0.49-0.87-0.49c-0.39,0-0.68,0.16-0.87,0.49c-0.19,0.33-0.28,0.84-0.28,1.54c0,0.7,0.09,1.22,0.28,1.55
					c0.19,0.33,0.48,0.5,0.87,0.5C188.66,31.85,188.95,31.68,189.14,31.35z"/>
				<path class="st20" d="M107.9,40.19h1.08v0.48h-2.74v-0.48h1.08v-3.74L106.46,37l-0.27-0.44l1.29-0.82h0.41V40.19z"/>
				<path class="st20" d="M111.75,40.08c-0.29-0.43-0.44-1.05-0.44-1.88c0-0.83,0.15-1.45,0.44-1.88c0.29-0.43,0.72-0.64,1.29-0.64
					c0.57,0,0.99,0.21,1.29,0.64c0.29,0.43,0.44,1.05,0.44,1.88c0,0.83-0.15,1.45-0.44,1.88s-0.72,0.64-1.29,0.64
					C112.47,40.73,112.04,40.51,111.75,40.08z M113.9,39.75c0.19-0.33,0.28-0.85,0.28-1.55c0-0.7-0.09-1.22-0.28-1.54
					c-0.18-0.32-0.47-0.49-0.87-0.49c-0.39,0-0.68,0.16-0.87,0.49c-0.19,0.33-0.28,0.84-0.28,1.54c0,0.7,0.09,1.22,0.28,1.55
					c0.19,0.33,0.48,0.5,0.87,0.5C113.43,40.25,113.72,40.08,113.9,39.75z"/>
				<path class="st20" d="M119.1,40.19h1.08v0.48h-2.74v-0.48h1.08v-3.74L117.66,37l-0.27-0.44l1.29-0.82h0.41V40.19z"/>
				<path class="st20" d="M122.95,40.08c-0.29-0.43-0.44-1.05-0.44-1.88c0-0.83,0.15-1.45,0.44-1.88c0.29-0.43,0.72-0.64,1.29-0.64
					c0.57,0,0.99,0.21,1.29,0.64c0.29,0.43,0.44,1.05,0.44,1.88c0,0.83-0.15,1.45-0.44,1.88s-0.72,0.64-1.29,0.64
					C123.67,40.73,123.24,40.51,122.95,40.08z M125.1,39.75c0.19-0.33,0.28-0.85,0.28-1.55c0-0.7-0.09-1.22-0.28-1.54
					c-0.18-0.32-0.47-0.49-0.87-0.49c-0.39,0-0.68,0.16-0.87,0.49c-0.19,0.33-0.28,0.84-0.28,1.54c0,0.7,0.09,1.22,0.28,1.55
					c0.19,0.33,0.48,0.5,0.87,0.5C124.63,40.25,124.92,40.08,125.1,39.75z"/>
				<path class="st20" d="M128.55,40.08c-0.29-0.43-0.44-1.05-0.44-1.88c0-0.83,0.15-1.45,0.44-1.88c0.29-0.43,0.72-0.64,1.29-0.64
					c0.57,0,0.99,0.21,1.29,0.64c0.29,0.43,0.44,1.05,0.44,1.88c0,0.83-0.15,1.45-0.44,1.88s-0.72,0.64-1.29,0.64
					C129.27,40.73,128.84,40.51,128.55,40.08z M130.7,39.75c0.19-0.33,0.28-0.85,0.28-1.55c0-0.7-0.09-1.22-0.28-1.54
					c-0.18-0.32-0.47-0.49-0.87-0.49c-0.39,0-0.68,0.16-0.87,0.49c-0.19,0.33-0.28,0.84-0.28,1.54c0,0.7,0.09,1.22,0.28,1.55
					c0.19,0.33,0.48,0.5,0.87,0.5C130.23,40.25,130.52,40.08,130.7,39.75z"/>
				<path class="st20" d="M140.56,40.08c-0.29-0.43-0.44-1.05-0.44-1.88c0-0.83,0.15-1.45,0.44-1.88c0.29-0.43,0.72-0.64,1.29-0.64
					c0.57,0,0.99,0.21,1.29,0.64c0.29,0.43,0.44,1.05,0.44,1.88c0,0.83-0.15,1.45-0.44,1.88s-0.72,0.64-1.29,0.64
					C141.28,40.73,140.85,40.51,140.56,40.08z M142.72,39.75c0.19-0.33,0.28-0.85,0.28-1.55c0-0.7-0.09-1.22-0.28-1.54
					c-0.18-0.32-0.47-0.49-0.87-0.49c-0.39,0-0.68,0.16-0.87,0.49c-0.19,0.33-0.28,0.84-0.28,1.54c0,0.7,0.09,1.22,0.28,1.55
					c0.19,0.33,0.48,0.5,0.87,0.5C142.24,40.25,142.53,40.08,142.72,39.75z"/>
				<path class="st20" d="M147.92,40.19H149v0.48h-2.74v-0.48h1.08v-3.74L146.47,37l-0.27-0.44l1.29-0.82h0.41V40.19z"/>
				<path class="st20" d="M151.76,40.08c-0.29-0.43-0.44-1.05-0.44-1.88c0-0.83,0.15-1.45,0.44-1.88c0.29-0.43,0.72-0.64,1.29-0.64
					c0.57,0,0.99,0.21,1.29,0.64c0.29,0.43,0.44,1.05,0.44,1.88c0,0.83-0.15,1.45-0.44,1.88s-0.72,0.64-1.29,0.64
					C152.48,40.73,152.05,40.51,151.76,40.08z M153.92,39.75c0.19-0.33,0.28-0.85,0.28-1.55c0-0.7-0.09-1.22-0.28-1.54
					c-0.18-0.32-0.47-0.49-0.87-0.49c-0.39,0-0.68,0.16-0.87,0.49c-0.19,0.33-0.28,0.84-0.28,1.54c0,0.7,0.09,1.22,0.28,1.55
					c0.19,0.33,0.48,0.5,0.87,0.5C153.44,40.25,153.73,40.08,153.92,39.75z"/>
				<path class="st20" d="M106.15,48.48c-0.29-0.43-0.44-1.05-0.44-1.88c0-0.83,0.15-1.45,0.44-1.88c0.29-0.43,0.72-0.64,1.29-0.64
					c0.57,0,0.99,0.21,1.29,0.64c0.29,0.43,0.44,1.05,0.44,1.88c0,0.83-0.15,1.45-0.44,1.88s-0.72,0.64-1.29,0.64
					C106.87,49.13,106.44,48.91,106.15,48.48z M108.3,48.15c0.19-0.33,0.28-0.85,0.28-1.55c0-0.7-0.09-1.22-0.28-1.54
					c-0.18-0.32-0.47-0.49-0.87-0.49c-0.39,0-0.68,0.16-0.87,0.49c-0.19,0.33-0.28,0.84-0.28,1.54c0,0.7,0.09,1.22,0.28,1.55
					c0.19,0.33,0.48,0.5,0.87,0.5C107.83,48.65,108.12,48.48,108.3,48.15z"/>
				<path class="st20" d="M111.75,48.48c-0.29-0.43-0.44-1.05-0.44-1.88c0-0.83,0.15-1.45,0.44-1.88c0.29-0.43,0.72-0.64,1.29-0.64
					c0.57,0,0.99,0.21,1.29,0.64c0.29,0.43,0.44,1.05,0.44,1.88c0,0.83-0.15,1.45-0.44,1.88s-0.72,0.64-1.29,0.64
					C112.47,49.13,112.04,48.91,111.75,48.48z M113.9,48.15c0.19-0.33,0.28-0.85,0.28-1.55c0-0.7-0.09-1.22-0.28-1.54
					c-0.18-0.32-0.47-0.49-0.87-0.49c-0.39,0-0.68,0.16-0.87,0.49c-0.19,0.33-0.28,0.84-0.28,1.54c0,0.7,0.09,1.22,0.28,1.55
					c0.19,0.33,0.48,0.5,0.87,0.5C113.43,48.65,113.72,48.48,113.9,48.15z"/>
				<path class="st20" d="M119.1,48.59h1.08v0.48h-2.74v-0.48h1.08v-3.74l-0.87,0.55l-0.27-0.44l1.29-0.82h0.41V48.59z"/>
				<path class="st20" d="M129.36,48.48c-0.29-0.43-0.44-1.05-0.44-1.88c0-0.83,0.15-1.45,0.44-1.88c0.29-0.43,0.72-0.64,1.29-0.64
					c0.57,0,0.99,0.21,1.29,0.64c0.29,0.43,0.44,1.05,0.44,1.88c0,0.83-0.15,1.45-0.44,1.88s-0.72,0.64-1.29,0.64
					C130.08,49.13,129.65,48.91,129.36,48.48z M131.52,48.15c0.19-0.33,0.28-0.85,0.28-1.55c0-0.7-0.09-1.22-0.28-1.54
					c-0.18-0.32-0.47-0.49-0.87-0.49c-0.39,0-0.68,0.16-0.87,0.49c-0.19,0.33-0.28,0.84-0.28,1.54c0,0.7,0.09,1.22,0.28,1.55
					c0.19,0.33,0.48,0.5,0.87,0.5C131.04,48.65,131.33,48.48,131.52,48.15z"/>
				<path class="st20" d="M134.96,48.48c-0.29-0.43-0.44-1.05-0.44-1.88c0-0.83,0.15-1.45,0.44-1.88c0.29-0.43,0.72-0.64,1.29-0.64
					c0.57,0,0.99,0.21,1.29,0.64c0.29,0.43,0.44,1.05,0.44,1.88c0,0.83-0.15,1.45-0.44,1.88s-0.72,0.64-1.29,0.64
					C135.68,49.13,135.25,48.91,134.96,48.48z M137.12,48.15c0.19-0.33,0.28-0.85,0.28-1.55c0-0.7-0.09-1.22-0.28-1.54
					c-0.18-0.32-0.47-0.49-0.87-0.49c-0.39,0-0.68,0.16-0.87,0.49c-0.19,0.33-0.28,0.84-0.28,1.54c0,0.7,0.09,1.22,0.28,1.55
					c0.19,0.33,0.48,0.5,0.87,0.5C136.64,48.65,136.93,48.48,137.12,48.15z"/>
				<path class="st20" d="M148.73,48.59h1.08v0.48h-2.74v-0.48h1.08v-3.74l-0.87,0.55l-0.27-0.44l1.29-0.82h0.41V48.59z"/>
				<path class="st20" d="M154.33,48.59h1.08v0.48h-2.74v-0.48h1.08v-3.74l-0.87,0.55l-0.27-0.44l1.29-0.82h0.41V48.59z"/>
				<path class="st20" d="M159.93,48.59h1.08v0.48h-2.74v-0.48h1.08v-3.74l-0.87,0.55l-0.27-0.44l1.29-0.82h0.41V48.59z"/>
				<path class="st20" d="M171.94,48.59h1.08v0.48h-2.74v-0.48h1.08v-3.74l-0.87,0.55l-0.27-0.44l1.29-0.82h0.41V48.59z"/>
				<path class="st20" d="M177.54,48.59h1.08v0.48h-2.74v-0.48h1.08v-3.74l-0.87,0.55l-0.27-0.44l1.29-0.82h0.41V48.59z"/>
			</g>
		</g>
		<g>
			<defs>
				<path id="XMLID_12_" d="M2.13,138.77c0.74-13.37,3.29-26.86,9.55-38.71s16.57-21.94,29.36-26.02c12.93-4.12,27.1-1.9,40.3-5.05
					c26.23-6.28,46.03-33.01,73-32.47c20.03,0.4,36.91,16.87,43.86,35.61s5.94,39.37,4.25,59.28c-1.01,12-1.71,25.63,6.6,34.36
					c6.76,7.1,18.04,9.11,23.64,17.15c3.72,5.35,4.08,12.59,1.84,18.7c-2.24,6.11-6.82,11.17-12.13,14.95
					c-10.36,7.38-23.31,10.18-35.99,11.28c-12.68,1.1-25.49,0.67-38.1,2.41c-18.48,2.54-36.36,9.71-55.02,9.73
					c-21.16,0.03-66.4-9.29-78.8-31.23C7.24,195.91,1.14,156.79,2.13,138.77z"/>
			</defs>
			<clipPath id="XMLID_14_">
				<use xlink:href="#XMLID_12_"  style="overflow:visible;"/>
			</clipPath>
			<path class="st21" d="M72.67,220.84c4.38,0.18,8.58,1.86,12.95,2.25c9.94,0.89,19.12-4.82,27.63-10.02s18.3-10.29,28.02-8.06
				c2.98,0.69,5.77,2.04,8.52,3.38c2.09,1.02,4.17,2.03,6.26,3.05c3.93,1.92,7.88,3.84,11.56,6.2c2.85,1.83,5.61,4,7.28,6.94
				s2.08,6.81,0.26,9.67c-1.7,2.67-4.88,3.94-7.87,4.99c-31.67,11.04-65.88,14.72-99.17,10.66c-4.51-0.55-9.12-1.27-13.12-3.44
				c-3.14-1.7-6.33-4.74-7.32-8.29c-1.1-3.94,1.19-5.52,4.1-8.02C57.63,225.14,64.64,220.5,72.67,220.84z"/>
		</g>
		<path class="st16" d="M180.43,159.81c-0.18,0-0.36-0.1-0.45-0.28c-5.9-11.87-22.21-42.97-26.82-44.22
			c-0.27-0.07-0.42-0.35-0.35-0.61c0.07-0.27,0.34-0.42,0.61-0.35c5.89,1.6,25.27,40.33,27.46,44.74c0.12,0.25,0.02,0.55-0.23,0.67
			C180.58,159.8,180.51,159.81,180.43,159.81z"/>
		<g>
			<path class="st20" d="M143.67,76.69c-0.28,0-0.5-0.22-0.5-0.5v-12c0-0.28,0.22-0.5,0.5-0.5s0.5,0.22,0.5,0.5v12
				C144.17,76.47,143.95,76.69,143.67,76.69z M143.67,56.69c-0.28,0-0.5-0.22-0.5-0.5v-3.1c0-0.28,0.22-0.5,0.5-0.5
				s0.5,0.22,0.5,0.5v3.1C144.17,56.47,143.95,56.69,143.67,56.69z"/>
		</g>
		<g>
			<path class="st20" d="M168.16,101.21c-0.28,0-0.5-0.22-0.5-0.5v-12c0-0.28,0.22-0.5,0.5-0.5s0.5,0.22,0.5,0.5v12
				C168.66,100.98,168.43,101.21,168.16,101.21z M168.16,81.21c-0.28,0-0.5-0.22-0.5-0.5v-4c0-0.28,0.22-0.5,0.5-0.5
				s0.5,0.22,0.5,0.5v4C168.66,80.98,168.43,81.21,168.16,81.21z M168.16,72.21c-0.28,0-0.5-0.22-0.5-0.5V69.4
				c0-0.28,0.22-0.5,0.5-0.5s0.5,0.22,0.5,0.5v2.31C168.66,71.98,168.43,72.21,168.16,72.21z"/>
		</g>
		<g>
			<path class="st20" d="M187.78,97.28c-0.28,0-0.5-0.22-0.5-0.5v-12c0-0.28,0.22-0.5,0.5-0.5s0.5,0.22,0.5,0.5v12
				C188.28,97.06,188.05,97.28,187.78,97.28z M187.78,77.28c-0.28,0-0.5-0.22-0.5-0.5v-4c0-0.28,0.22-0.5,0.5-0.5s0.5,0.22,0.5,0.5
				v4C188.28,77.06,188.05,77.28,187.78,77.28z M187.78,68.28c-0.28,0-0.5-0.22-0.5-0.5v-12c0-0.28,0.22-0.5,0.5-0.5
				s0.5,0.22,0.5,0.5v12C188.28,68.06,188.05,68.28,187.78,68.28z"/>
		</g>
		<g>
			<path class="st20" d="M132.16,89.14c-0.28,0-0.5-0.22-0.5-0.5v-4c0-0.28,0.22-0.5,0.5-0.5s0.5,0.22,0.5,0.5v4
				C132.66,88.92,132.43,89.14,132.16,89.14z M132.16,77.14c-0.28,0-0.5-0.22-0.5-0.5v-12c0-0.28,0.22-0.5,0.5-0.5s0.5,0.22,0.5,0.5
				v12C132.66,76.92,132.43,77.14,132.16,77.14z"/>
		</g>
		<g>
			<path class="st22" d="M184.35,115.45h23.66c0.93,0,1.68-0.75,1.68-1.68v0c0-0.93-0.75-1.68-1.68-1.68h-23.66
				c-0.93,0-1.68,0.75-1.68,1.68v0C182.67,114.69,183.42,115.45,184.35,115.45z"/>
			<path class="st22" d="M184.35,121.96h33.03c0.93,0,1.68-0.75,1.68-1.68l0,0c0-0.93-0.75-1.68-1.68-1.68h-33.03
				c-0.93,0-1.68,0.75-1.68,1.68l0,0C182.67,121.21,183.42,121.96,184.35,121.96z"/>
		</g>
	</g>
</g>
</svg>
