<?xml version="1.0" encoding="utf-8"?>
<!-- Generator: Adobe Illustrator 23.0.1, SVG Export Plug-In . SVG Version: 6.00 Build 0)  -->
<svg version="1.1" id="Artwork" xmlns="http://www.w3.org/2000/svg" xmlns:xlink="http://www.w3.org/1999/xlink" x="0px" y="0px"
	 viewBox="0 0 820 466.04" style="enable-background:new 0 0 820 466.04;" xml:space="preserve">
<style type="text/css">
	.st0{clip-path:url(#SVGID_2_);}
	.st1{fill:#BEC8FF;}
	.st2{fill:#D4DAFF;}
	.st3{fill:none;stroke:#A9DBB8;stroke-width:1.5;stroke-miterlimit:10;}
	.st4{fill:none;stroke:#BEC8FF;stroke-miterlimit:10;}
	.st5{fill:#E9EDFF;}
	.st6{fill:#536DFE;}
	.st7{clip-path:url(#XMLID_2_);fill:#000D54;}
	.st8{opacity:0.8;clip-path:url(#XMLID_2_);}
	.st9{opacity:0.5;clip-path:url(#XMLID_3_);fill:#000D54;}
	.st10{fill:#659157;}
	.st11{opacity:0.5;clip-path:url(#XMLID_4_);fill:#FFB811;}
	.st12{clip-path:url(#XMLID_5_);}
	.st13{fill:#895737;}
	.st14{opacity:0.5;clip-path:url(#XMLID_5_);fill:#FFB811;}
	.st15{fill:#FFE19C;}
	.st16{opacity:0.5;clip-path:url(#XMLID_6_);fill:#FFB811;}
	.st17{fill:#606060;}
	.st18{fill:none;stroke:#7E91FE;stroke-linecap:round;stroke-linejoin:round;}
	.st19{fill:none;stroke:#7E91FE;stroke-linecap:round;stroke-linejoin:round;stroke-dasharray:7.04,7.04;}
	.st20{fill:#7E91FE;}
	.st21{fill:none;stroke:#536DFE;stroke-linecap:round;stroke-linejoin:round;stroke-miterlimit:10;}
	.st22{opacity:0.8;fill:none;stroke:#536DFE;stroke-linecap:round;stroke-linejoin:round;stroke-miterlimit:10;}
	.st23{opacity:0.8;}
	.st24{opacity:0.5;fill:#FFFFFF;}
	.st25{clip-path:url(#XMLID_7_);fill:#FFC337;}
	.st26{fill:#FFC337;}
	.st27{fill:#536DFE;stroke:#536DFE;stroke-width:1.5;stroke-miterlimit:10;}
	.st28{opacity:0.8;clip-path:url(#XMLID_9_);}
	.st29{fill:none;}
	.st30{opacity:0.5;clip-path:url(#XMLID_10_);fill:#E9A300;}
	.st31{clip-path:url(#XMLID_11_);}
	.st32{clip-path:url(#XMLID_11_);fill:#E9A300;}
	.st33{fill:#A9DBB8;}
	.st34{fill:#FFD26A;}
	.st35{fill:none;stroke:#536DFE;stroke-width:1.5;stroke-linecap:round;stroke-linejoin:round;stroke-miterlimit:10;}
	.st36{fill:#FFC337;stroke:#FFC337;stroke-miterlimit:10;}
	.st37{clip-path:url(#XMLID_12_);fill:#659157;}
	.st38{clip-path:url(#XMLID_12_);}
	.st39{opacity:0.5;clip-path:url(#XMLID_13_);fill:#659157;}
	.st40{opacity:0.5;clip-path:url(#XMLID_13_);}
	.st41{clip-path:url(#XMLID_14_);fill:#D4DAFF;}
	.st42{fill:none;stroke:#7E91FE;stroke-linecap:round;stroke-linejoin:round;stroke-miterlimit:10;}
	.st43{fill:none;stroke:#7E91FE;stroke-linecap:round;stroke-linejoin:round;stroke-miterlimit:10;stroke-dasharray:12;}
</style>
<g>
	<defs>
		<rect id="SVGID_1_" width="820" height="466.04"/>
	</defs>
	<clipPath id="SVGID_2_">
		<use xlink:href="#SVGID_1_"  style="overflow:visible;"/>
	</clipPath>
	<g class="st0">
		<g>
			<path class="st1" d="M598.14,246.87c-3.23-4.43-7.13-17.83-12.06-34.79C573.66,169.4,554.9,104.9,523.43,96.86
				c-39.64-10.13-67.15,11.8-81.93,23.59c-2.01,1.6-3.74,2.99-5.22,4.05c-33.48,24.13-56.3,47.9-86.7,83.31l-0.76-0.65
				c30.45-35.47,53.31-59.27,86.87-83.47c1.46-1.05,3.18-2.43,5.18-4.02c14.91-11.89,42.67-34.03,82.8-23.78
				c32.02,8.18,50.88,73.01,63.36,115.91c4.91,16.87,8.78,30.19,11.91,34.48L598.14,246.87z"/>
		</g>
		<g>
			<path class="st1" d="M372.38,445.63c-27.34,0-52.86-14.21-75.48-26.82c-26.2-14.6-51.96-27.52-78.98-25.43l-0.08-1
				c27.29-2.12,53.2,10.88,79.54,25.56c23.55,13.12,50.24,27.99,78.73,26.6c24.37-1.19,46.21-14.13,67.33-26.65
				c20.58-12.2,41.85-24.81,65.62-26.76l0.08,1c-23.53,1.93-44.71,14.48-65.19,26.62c-21.23,12.58-43.18,25.59-67.79,26.79
				C374.9,445.6,373.64,445.63,372.38,445.63z"/>
		</g>
		<g>
			<g>
				<path class="st2" d="M590.43,92.48c-0.13,0-0.25-0.05-0.35-0.14l-10.12-9.94c-0.2-0.19-0.2-0.51-0.01-0.71s0.51-0.2,0.71-0.01
					l10.12,9.94c0.2,0.19,0.2,0.51,0.01,0.71C590.69,92.43,590.56,92.48,590.43,92.48z"/>
			</g>
			<g>
				<path class="st2" d="M601.48,88.28c-0.04,0-0.09,0-0.13-0.01c-0.41-0.07-0.68-0.46-0.61-0.87l4.91-27.34
					c0.07-0.41,0.47-0.68,0.87-0.61c0.41,0.07,0.68,0.46,0.61,0.87l-4.91,27.34C602.16,88.03,601.84,88.28,601.48,88.28z"/>
			</g>
			<g>
				<path class="st2" d="M636.14,110.48c-0.19,0-0.37-0.11-0.45-0.29l-23.45-50.28c-0.12-0.25-0.01-0.55,0.24-0.66
					c0.25-0.11,0.55-0.01,0.66,0.24l23.45,50.28c0.12,0.25,0.01,0.55-0.24,0.66C636.28,110.47,636.21,110.48,636.14,110.48z"/>
			</g>
			<path class="st3" d="M639.53,87.48"/>
			<g>
				<path class="st2" d="M611.19,96.39c-0.33,0-0.63-0.21-0.72-0.54c-0.11-0.4,0.12-0.81,0.51-0.93l28.34-8.16
					c0.4-0.12,0.81,0.12,0.93,0.51c0.11,0.4-0.12,0.81-0.51,0.93l-28.34,8.16C611.33,96.38,611.25,96.39,611.19,96.39z"/>
			</g>
			<g>
				<path class="st2" d="M625.43,120.96c-0.17,0-0.33-0.06-0.47-0.17l-16.32-13.29c-0.32-0.26-0.37-0.73-0.11-1.06
					c0.26-0.32,0.73-0.37,1.06-0.11l16.32,13.29c0.32,0.26,0.37,0.73,0.11,1.06C625.86,120.87,625.65,120.96,625.43,120.96z"/>
			</g>
			<g>
				<path class="st2" d="M575.22,118.42c-0.22,0-0.44-0.1-0.58-0.28c-0.26-0.32-0.21-0.79,0.11-1.05l14.59-11.74
					c0.32-0.26,0.79-0.21,1.05,0.11c0.26,0.32,0.21,0.79-0.11,1.05l-14.59,11.74C575.55,118.36,575.39,118.42,575.22,118.42z"/>
			</g>
			<circle class="st2" cx="563.75" cy="125.18" r="13.7"/>
			<circle class="st2" cx="643.67" cy="128.26" r="19.93"/>
			<circle class="st2" cx="599.82" cy="99.38" r="11.96"/>
			<circle class="st2" cx="608.77" cy="50.01" r="10.45"/>
			<circle class="st2" cx="648.43" cy="84.97" r="9.24"/>
			<circle class="st2" cx="574.1" cy="75.19" r="9.24"/>
		</g>
		<g>
			<path class="st1" d="M280.71,120.61c-11.51,0-20.88-9.37-20.88-20.88s9.37-20.88,20.88-20.88s20.88,9.37,20.88,20.88
				S292.22,120.61,280.71,120.61z M280.71,79.85c-10.96,0-19.88,8.92-19.88,19.88s8.92,19.88,19.88,19.88s19.88-8.92,19.88-19.88
				S291.67,79.85,280.71,79.85z"/>
		</g>
		<g>
			<path class="st1" d="M689.32,407.13l-0.22-0.97c21.77-4.95,47.42-24.24,52.08-50.24c10.69-59.71-29.64-83.39-62.05-102.42
				l-1.33-0.78l0.51-0.86l1.33,0.78c32.68,19.18,73.35,43.06,62.53,103.46C737.43,382.52,711.41,402.11,689.32,407.13z"/>
		</g>
		<path class="st4" d="M349.37,203.1c-27.71,9.39-222.58-9.63-291.8,81.54c-22.86,30.11-27.88,110.98,43,119.48"/>
		<path id="XMLID_220_" class="st5" d="M734.34,329.29c-3.73-40.76-34.16-77.78-73.44-89.33c-19.82-5.83-40.94-5.57-61.03-10.36
			c-20.09-4.78-40.66-16.65-46.54-36.45c-5.66-19.06,3.73-40.25-2.29-59.2c-5.07-15.94-20.6-27.01-36.99-30.34
			c-16.39-3.33-33.47,0-49.27,5.49c-65.48,22.75-115.71,81.21-183.52,95.61c-24.86,5.28-50.63,4.22-75.77,7.88
			c-44.56,6.48-86.74,28.26-117.84,60.82c-11.43,11.97-21.46,26.08-29.79,41.36c-18.62,34.15,3.53,77.33,40.56,82.6
			c7.21,1.02,14.38,2.23,21.45,4l2.54,0.64c25.6,6.41,52.33,6.8,78.11,1.14l34.33-7.54c19.89,0,39.56,4.15,57.75,12.18
			c4.37,1.93,8.75,3.86,13.12,5.79c28.78,12.7,59.71,25.69,90.69,20.22c16.76-2.96,32.06-11.15,47.85-17.51
			c25.5-10.27,52.86-15.89,80.34-16.49c1.76-0.04,3.99-0.35,6.48-0.84c10.93-2.15,22.02-3.35,33.16-3.35h130.93
			c15.07,0,28.55-9.45,33.59-23.65C733.6,358.33,735.66,343.74,734.34,329.29z"/>
		<path id="XMLID_219_" class="st5" d="M734.34,329.29c-3.73-40.76-34.16-77.78-73.44-89.33c-19.82-5.83-40.94-5.57-61.03-10.36
			c-20.09-4.78-40.66-16.65-46.54-36.45c-5.66-19.06,3.73-40.25-2.29-59.2c-5.07-15.94-20.6-27.01-36.99-30.34
			c-16.39-3.33-33.47,0-49.27,5.49c-65.48,22.75-115.71,81.21-183.52,95.61c-24.86,5.28-50.63,4.22-75.77,7.88
			c-44.56,6.48-86.74,28.26-117.84,60.82c-11.43,11.97-21.46,26.08-29.79,41.36c-18.62,34.15,3.53,77.33,40.56,82.6
			c7.21,1.02,14.38,2.23,21.45,4l2.54,0.64c25.6,6.41,52.33,6.8,78.11,1.14l34.33-7.54c19.89,0,39.56,4.15,57.75,12.18
			c4.37,1.93,8.75,3.86,13.12,5.79c28.78,12.7,59.71,25.69,90.69,20.22c16.76-2.96,32.06-11.15,47.85-17.51
			c25.5-10.27,108.84-20.68,119.98-20.68h130.93c15.07,0,28.55-9.45,33.59-23.65C733.6,358.33,735.66,343.74,734.34,329.29z"/>
		<path id="XMLID_218_" class="st5" d="M734.34,329.29c-3.73-40.76-34.16-77.78-73.44-89.33c-19.82-5.83-40.94-5.57-61.03-10.36
			c-20.09-4.78-40.66-16.65-46.54-36.45c-5.66-19.06,3.73-40.25-2.29-59.2c-5.07-15.94-20.6-27.01-36.99-30.34
			c-16.39-3.33-33.47,0-49.27,5.49c-65.48,22.75-115.71,81.21-183.52,95.61c-24.86,5.28-50.63,4.22-75.77,7.88
			c-44.56,6.48-86.74,28.26-117.84,60.82c-11.43,11.97-21.46,26.08-29.79,41.36c-18.62,34.15,2.7,68.6,35.61,86.36
			c23.4,12.62,81.27,7.68,107.04,2.02l34.33-7.54c19.89,0,39.56,4.15,57.75,12.18c4.37,1.93,8.75,3.86,13.12,5.79
			c28.78,12.7,59.71,25.69,90.69,20.22c16.76-2.96,32.06-11.15,47.85-17.51c25.5-10.27,108.84-20.68,119.98-20.68h130.93
			c15.07,0,28.55-9.45,33.59-23.65C733.6,358.33,735.66,343.74,734.34,329.29z"/>
		<path class="st6" d="M617.5,185.82c4.34,3.26,7.18,8.45,7.58,13.87c0.11,1.49-0.02,3.16-1.1,4.19c-1.17,1.12-3.1,1.08-4.52,0.3
			c-1.42-0.77-2.42-2.12-3.3-3.48c-0.88-1.36-1.7-2.79-2.91-3.86c-2.22-1.97-5.33-2.42-8.19-3.21c-2.85-0.79-5.92-2.34-6.71-5.19
			c-0.48-1.71,0.14-3.62,1.36-4.87c1.41-1.45,3.46-1.48,5.38-1.57C609.5,181.82,613.97,183.17,617.5,185.82z"/>
		<g>
			<defs>
				<path id="XMLID_217_" d="M521.35,142.19c0,0,3.81,34.05,2.37,39.81s-4.23,8.4-4.23,8.4s-11.4,12.87-12.19,24.56
					c-0.8,11.68,22.24,37.6,29.2,35.68c6.96-1.92,11.95-23.51,11.95-23.51c1.13-3.99,2.55-8.37,6.14-10.46
					c3.77-2.19,8.49-1.05,12.75-0.17c8.63,1.78,17.52,2.22,26.28,1.3c4.63-0.48,9.29-1.37,13.5-3.36c4.21-2,7.98-5.2,9.96-9.42
					c1.9-4.04,2.02-8.87,0.33-13c-1.69-4.13-5.17-7.49-9.35-9.03c-2.35-0.87-4.88-1.18-7.27-1.96c-2.38-0.78-4.75-2.18-5.8-4.46
					c-0.64-1.4-14.79-13.52-22.53-15.05c-1.07-5.31-2.66-12.92-3.76-16.27c-2.9-8.85-5.54-18.51-12.78-24.36
					c-6.88-5.55-17.3-6.21-24.82-1.58C523.58,123.95,519.49,133.55,521.35,142.19"/>
			</defs>
			<use xlink:href="#XMLID_217_"  style="overflow:visible;fill:#536DFE;"/>
			<clipPath id="XMLID_2_">
				<use xlink:href="#XMLID_217_"  style="overflow:visible;"/>
			</clipPath>
			<path class="st7" d="M526.3,161.47c0.55,2.19,1.33,4.47,3.09,5.87c1.8,1.44,4.25,1.67,6.54,1.85c1.69,0.13,3.42,0.26,5.06-0.18
				c1.64-0.44,3.2-1.57,3.68-3.19c0.57-1.9-0.45-3.93-1.75-5.42c-1.31-1.49-2.95-2.7-4.03-4.36c-1.18-1.81-1.61-4.01-1.8-6.16
				s-0.16-4.33-0.53-6.46c-0.64-3.59-4.77-9.76-9.06-6.52c-1.65,1.25-1.95,3.61-2.21,5.51c-0.41,2.98-0.55,6.01-0.43,9.02
				C524.99,154.81,525.48,158.18,526.3,161.47z"/>
			<g class="st8">
				<path class="st6" d="M523.96,190.74c-2.25,0-4.54-0.08-6.73-0.8c-0.26-0.09-0.41-0.37-0.32-0.63c0.09-0.26,0.37-0.41,0.63-0.32
					c2.36,0.77,4.92,0.76,7.39,0.75c13.63-0.07,29.03-0.4,31.39-1.1c0.77-0.23,2.85-2.32,4.37-3.85c2.02-2.03,2.83-2.81,3.35-2.9
					c0.28-0.04,0.53,0.14,0.58,0.41c0.05,0.27-0.14,0.53-0.41,0.58c-0.33,0.12-1.71,1.51-2.81,2.61c-2.28,2.29-3.85,3.82-4.79,4.1
					c-3.01,0.89-23.15,1.1-31.67,1.14C524.61,190.74,524.29,190.74,523.96,190.74z"/>
			</g>
		</g>
		<g>
			<defs>
				<path id="XMLID_216_" d="M696.99,225.86l-32.9,48.23c-10.08-18.45-25.46-46.1-35.54-64.54c-3.23-5.9-6.75-12.07-11.41-16.79
					c-1.08,2.92-3.33,5.71-6.04,7.24c-14.08,11.13-33.22,15.58-50.76,11.82c-6.12-1.32-12-3.56-18.08-5.02
					c-6.09-1.46-12.58-2.11-18.54-0.22c-3.89,1.22-7.45,3.5-11.45,4.25c-1.13,0.22-2.34,0.26-3.53,0.11
					c-1.89,4.7-3.11,9.68-4.3,14.61c-4.66,19.19-7.86,38.65-12.52,57.85l-25.26-37.3l-22.35,17.58
					c7.98,12.65,16.22,25.97,23.32,36.33c6.44,9.37,13.4,18.43,21.97,25.92c25.06,21.9,41.16-50.36,44.77-72.39
					c0,0,15.08,52.14,13.4,69.4c-1.49,15.33-25.13,76.67-19.37,84.19l128.26,0.08c0,0-22.63-79.44-39.05-113.13
					c-6.9-14.16-8.42-47-8.63-47.61c9.51,18.97,22.19,40.29,35.73,56.62c3.59,4.32,7.4,8.62,12.28,11.4
					c4.89,2.78,10.86,3.31,16.14,1.41c8.34-3.01,38.22-50.78,50.89-72.33L696.99,225.86z"/>
			</defs>
			<use xlink:href="#XMLID_216_"  style="overflow:visible;fill:#7E91FE;"/>
			<clipPath id="XMLID_3_">
				<use xlink:href="#XMLID_216_"  style="overflow:visible;"/>
			</clipPath>
			<path class="st9" d="M573.15,244.44c0,0,34.11-38.44,51.01-48.09c16.9-9.65-1.8-11.88-1.8-11.88l-32.58,3.6l-17.32,33.04
				l2.33,19.2"/>
			<path class="st9" d="M650.33,352.42c3.16,5.12-0.35,19.53-2.92,24.97c-2.57,5.45-7.29,9.67-12.59,12.53
				c-5.3,2.87-11.17,4.49-17.04,5.81c-2.54,0.57-21.93,13.37-21.93,9c0-3.15,27.3-31.77,29.26-33.84
				C631.05,364.62,650.06,351.98,650.33,352.42z"/>
		</g>
		<g>
			<path class="st10" d="M364.65,254.99h-25.1c-0.74,0-1.39-0.47-1.62-1.17l-5.45-16.35c-0.17-0.52-0.09-1.09,0.23-1.54
				c0.32-0.44,0.84-0.71,1.39-0.71h25.1c0.74,0,1.39,0.47,1.62,1.17l5.46,16.35c0.17,0.52,0.08,1.1-0.24,1.54
				C365.71,254.72,365.19,254.99,364.65,254.99z M334.1,236.72c-0.09,0-0.15,0.05-0.17,0.09c-0.02,0.03-0.06,0.1-0.03,0.19
				l5.45,16.35c0.03,0.08,0.11,0.14,0.2,0.14h25.1c0.09,0,0.14-0.05,0.17-0.09c0.02-0.03,0.06-0.1,0.03-0.19l-5.46-16.35
				c-0.03-0.08-0.11-0.14-0.2-0.14H334.1z"/>
		</g>
		<g>
			<defs>
				<path id="XMLID_215_" d="M466.67,246.1l-22.35,17.58c-4.92-7.81-9.74-15.34-14.14-21.78c-0.01-0.01-0.01-0.02-0.02-0.03
					c0.82-0.57,1.57-1.79,1.31-2.54c1.2,0.81,3.46,1.4,4.3-1.23c0.25,0.16,0.51,0.27,0.81,0.28c0.81,0.03,1.5-0.7,1.71-1.49
					c0.21-0.79,0.04-1.64-0.13-2.43c-1.2-5.44-2.91-10.77-5.09-15.89c0,0-1.98,1.81-4.63,4.04c-1.17,0.99-2.48,2.07-3.81,3.12
					c-1.01,0.79-2.04,1.57-3.01,2.27c-3.22,2.31-5.95,3.78-6.35,2.46c-1.01-3.43,8.77-15.85,14.28-19.85
					c5.52-4.01,17.95,8.6,17.95,8.6c1.55-2.18,3.11-4.36,4.66-6.55c0.44-0.64,0.92-1.29,1.56-1.69c0.64-0.41,1.51-0.52,2.13-0.06
					c0.95,0.72,0.75,2.24,0.45,3.42c-1.01,4-2.01,8.01-3,12.02L466.67,246.1z"/>
			</defs>
			<use xlink:href="#XMLID_215_"  style="overflow:visible;fill:#FFE19C;"/>
			<clipPath id="XMLID_4_">
				<use xlink:href="#XMLID_215_"  style="overflow:visible;"/>
			</clipPath>
			<polygon class="st11" points="436.3,260.72 463.06,250.16 440.94,269.84 			"/>
		</g>
		<g>
			<defs>
				<path id="XMLID_214_" d="M742.76,205.53c0,3.28-11.53,25.41-11.53,25.41c-2.32,4.25-4.72,8.45-7.2,12.63l-27.05-17.71l8.7-13.04
					c1.09-5.82,2.19-11.64,3.28-17.46c0.27-1.45,0.74-3.14,2.12-3.63c1.61-0.57,3.19,0.88,4.22,2.24c0.76,1.01,1.47,2.04,2.14,3.11
					c4.29-6.28,9.99-13.89,14.52-19.03c0.91-1.03,2.01-2.12,3.32-2.01c1.53,0.12,2.54,1.97,2.48,3.63
					c-0.07,1.67-0.92,3.17-1.73,4.58c-2.55,4.43-5.11,8.85-7.67,13.29C733.22,196.16,742.76,202.26,742.76,205.53z"/>
			</defs>
			<use xlink:href="#XMLID_214_"  style="overflow:visible;fill:#FFE19C;"/>
			<clipPath id="XMLID_5_">
				<use xlink:href="#XMLID_214_"  style="overflow:visible;"/>
			</clipPath>
			<g class="st12">
				<path class="st13" d="M722.27,206.99c-0.1,0-0.2-0.03-0.29-0.09c-0.23-0.16-0.28-0.47-0.13-0.7l6.29-9.04
					c0.16-0.23,0.47-0.28,0.7-0.12c0.23,0.16,0.28,0.47,0.12,0.7l-6.29,9.04C722.58,206.92,722.43,206.99,722.27,206.99z"/>
			</g>
			<g class="st12">
				<path class="st13" d="M720.7,214.98c-0.48,0-0.95-0.09-1.38-0.26c-1.32-0.54-2.14-2-1.81-3.27c0.07-0.27,0.34-0.43,0.61-0.36
					c0.27,0.07,0.43,0.34,0.36,0.61c-0.22,0.87,0.45,1.78,1.22,2.09c0.81,0.33,1.84,0.22,2.82-0.3c0.91-0.48,1.65-1.21,2.45-2.05
					c4.01-4.16,7.68-8.68,10.92-13.46c0.16-0.23,0.47-0.29,0.69-0.13c0.23,0.16,0.29,0.47,0.13,0.69
					c-3.27,4.82-6.98,9.4-11.02,13.59c-0.83,0.86-1.67,1.68-2.7,2.23C722.23,214.77,721.45,214.98,720.7,214.98z"/>
			</g>
			<g class="st12">
				<path class="st13" d="M724.7,215.75c-1.22,0-2.35-0.43-3.09-1.22c-0.19-0.2-0.18-0.52,0.02-0.71c0.2-0.19,0.52-0.18,0.71,0.02
					c0.88,0.93,2.29,1.03,3.31,0.8c1.16-0.25,2.21-0.88,3.42-1.75c4.38-3.14,8.23-7.2,11.13-11.75c0.15-0.23,0.46-0.3,0.69-0.15
					c0.23,0.15,0.3,0.46,0.15,0.69c-2.97,4.65-6.91,8.81-11.39,12.02c-1.13,0.81-2.38,1.61-3.79,1.92
					C725.46,215.7,725.08,215.75,724.7,215.75z"/>
			</g>
			<g class="st12">
				<path class="st13" d="M729.92,216.07c-1.06,0-2.07-0.17-3.01-0.5c-0.26-0.09-0.4-0.38-0.3-0.64c0.09-0.26,0.38-0.39,0.64-0.3
					c2.38,0.85,5.33,0.47,8.1-1.04c2.54-1.39,4.65-3.48,6.69-5.5c0.19-0.19,0.51-0.19,0.71,0c0.19,0.2,0.19,0.51,0,0.71
					c-2.09,2.07-4.25,4.21-6.92,5.67C733.87,215.52,731.83,216.07,729.92,216.07z"/>
			</g>
			<polyline class="st14" points="702.72,229.62 731.14,242.48 728.77,251.48 707.5,246.92 702.72,229.62 			"/>
		</g>
		<g>
			<path class="st15" d="M438.29,236.88c-0.21,0.79-0.89,1.52-1.71,1.49c-0.3-0.01-0.57-0.11-0.81-0.28
				c-0.45-0.29-0.81-0.78-1.11-1.24c-2.74-4.25-4.83-9.38-6.22-14.24c2.64-2.23,4.63-4.04,4.63-4.04
				c2.18,5.12,3.89,10.45,5.09,15.89C438.33,235.24,438.49,236.09,438.29,236.88z"/>
			<g>
				<path class="st13" d="M436.63,238.87c-0.02,0-0.05,0-0.07,0c-0.37-0.01-0.73-0.13-1.07-0.36c-0.53-0.34-0.93-0.89-1.25-1.39
					c-3.24-5.02-5.2-10.59-6.28-14.38c-0.05-0.19,0.01-0.39,0.16-0.52c2.6-2.2,4.59-4.01,4.61-4.03c0.12-0.11,0.28-0.16,0.44-0.12
					c0.16,0.03,0.29,0.14,0.35,0.29c2.19,5.14,3.91,10.52,5.12,15.98c0.2,0.9,0.36,1.78,0.13,2.66
					C438.53,237.92,437.71,238.87,436.63,238.87z M429.01,222.78c1.08,3.71,2.99,9.01,6.07,13.8c0.25,0.38,0.58,0.85,0.96,1.09
					c0.2,0.13,0.38,0.19,0.56,0.2c0.57,0.05,1.06-0.55,1.21-1.12c0,0,0,0,0,0c0.17-0.67,0.03-1.42-0.14-2.19
					c-1.14-5.17-2.75-10.26-4.79-15.15C432.15,220.06,430.72,221.32,429.01,222.78z"/>
			</g>
			<path class="st15" d="M435.77,238.09c-0.84,2.63-3.1,2.05-4.3,1.23c-1.24-0.85-1.92-2.3-2.53-3.68
				c-1.44-3.26-2.87-6.66-4.31-9.92c1.33-1.05,2.63-2.13,3.81-3.12c1.39,4.86,3.49,10,6.22,14.24
				C434.96,237.31,435.32,237.8,435.77,238.09z"/>
			<g>
				<path class="st13" d="M433.51,240.51c-1.07,0-2-0.56-2.32-0.77c-1.32-0.9-2.03-2.36-2.71-3.9c-0.72-1.63-1.44-3.3-2.16-4.97
					c-0.72-1.66-1.43-3.33-2.15-4.96c-0.09-0.21-0.03-0.45,0.15-0.59c1.14-0.9,2.38-1.92,3.79-3.11c0.13-0.11,0.31-0.15,0.47-0.1
					c0.16,0.05,0.29,0.18,0.33,0.34c1.06,3.72,2.99,9.19,6.16,14.11c0.25,0.38,0.58,0.85,0.96,1.09c0.19,0.12,0.28,0.36,0.21,0.57
					c-0.36,1.11-0.97,1.82-1.83,2.12C434.11,240.47,433.8,240.51,433.51,240.51z M425.24,225.87c0.67,1.52,1.33,3.07,2,4.61
					c0.72,1.66,1.43,3.33,2.15,4.96c0.64,1.46,1.26,2.72,2.36,3.47c0.62,0.42,1.56,0.77,2.33,0.51c0.47-0.16,0.83-0.55,1.09-1.15
					c-0.38-0.33-0.68-0.76-0.93-1.15c-3.03-4.71-4.95-9.89-6.07-13.64C427.11,224.37,426.14,225.16,425.24,225.87z"/>
			</g>
			<path class="st15" d="M430.16,241.87c-0.22,0.15-0.43,0.26-0.64,0.3c-0.99,0.17-2-0.37-2.64-1.14c-0.65-0.77-1.01-1.73-1.36-2.67
				c-1.23-3.36-2.66-6.99-3.91-10.36c0.98-0.7,2.01-1.48,3.01-2.27c1.44,3.26,2.87,6.66,4.31,9.92c0.61,1.38,1.29,2.83,2.53,3.68
				C431.74,240.08,430.99,241.3,430.16,241.87z"/>
			<g>
				<path class="st13" d="M429.16,242.7c-0.95,0-1.93-0.49-2.66-1.35c-0.72-0.85-1.1-1.9-1.44-2.82c-0.65-1.78-1.36-3.64-2.07-5.49
					c-0.63-1.64-1.25-3.29-1.84-4.87c-0.08-0.21-0.01-0.45,0.18-0.58c0.9-0.64,1.9-1.4,3-2.26c0.12-0.09,0.28-0.13,0.43-0.09
					c0.15,0.04,0.27,0.14,0.34,0.28c0.72,1.63,1.44,3.3,2.16,4.97c0.72,1.66,1.43,3.33,2.15,4.96c0.64,1.46,1.26,2.72,2.36,3.47
					c0.09,0.06,0.15,0.14,0.19,0.24c0.35,0.99-0.5,2.44-1.49,3.12c-0.28,0.2-0.55,0.33-0.83,0.38
					C429.47,242.68,429.31,242.7,429.16,242.7z M422.22,228.17c0.54,1.47,1.12,2.98,1.7,4.5c0.71,1.86,1.42,3.72,2.07,5.5
					c0.33,0.89,0.67,1.8,1.27,2.52c0.6,0.72,1.46,1.09,2.17,0.97c0.12-0.02,0.27-0.1,0.43-0.21c0,0,0,0,0.01,0
					c0.64-0.44,1.18-1.33,1.14-1.83c-1.21-0.91-1.89-2.3-2.54-3.78c-0.72-1.63-1.44-3.3-2.16-4.97c-0.63-1.46-1.26-2.93-1.89-4.37
					C423.64,227.12,422.9,227.68,422.22,228.17z"/>
			</g>
		</g>
		<g>
			<defs>
				<path id="XMLID_213_" d="M561.85,173.41c-1.33,2.64-3.65,4.71-6.28,6.05c-2.63,1.34-5.57,1.98-8.53,2.24
					c-0.74,0.06-1.49,0.1-2.24,0.11c-0.11-6.19-0.99-12.36-2.59-18.34c-4.15,1.22-9.68,1.84-13.54-1.55
					c-2.82-2.47-3.68-8.01-3.72-13.76c-0.04-6.75,1.07-13.77,1.52-16.39c0.77,0.46,2.2,0.47,3.72,0.4c3.6-0.19,7.22,0,10.78,0.52
					c3.94,0.59,7.82,1.6,11.53,3.04c0.76,0.3,1.54,0.61,2.36,0.66c0.59,0.03,1.22-0.11,1.7-0.46c1.68,6.76,3.57,14.67,5.19,21.26
					c0.67,2.68,1.33,5.39,1.51,8.15C563.43,168.1,563.1,170.95,561.85,173.41z"/>
			</defs>
			<use xlink:href="#XMLID_213_"  style="overflow:visible;fill:#FFE19C;"/>
			<clipPath id="XMLID_6_">
				<use xlink:href="#XMLID_213_"  style="overflow:visible;"/>
			</clipPath>
			<path class="st16" d="M542.21,163.48c0,0,5.35-2.13,7.2-4.44c0,0-2.19,17.03-6.48,19.44
				C538.64,180.88,542.21,163.48,542.21,163.48"/>
		</g>
		<g>
			<path class="st13" d="M719.42,211.67c-0.86,0-1.75-0.25-2.47-0.71c-1.66-1.07-2.56-2.88-3.35-4.49
				c-0.12-0.25-0.02-0.55,0.22-0.67c0.25-0.12,0.55-0.02,0.67,0.22c0.74,1.49,1.58,3.17,3,4.09c0.77,0.5,1.79,0.67,2.67,0.47
				c0.44-0.11,1.04-0.36,1.4-0.98c0.61-1.04,0.22-2.42-0.23-3.63c-1.13-3.01-2.58-5.92-4.31-8.63c-0.15-0.23-0.08-0.54,0.15-0.69
				c0.23-0.15,0.54-0.08,0.69,0.15c1.77,2.77,3.26,5.74,4.41,8.82c0.51,1.35,0.98,3.08,0.16,4.49c-0.42,0.73-1.13,1.23-2.03,1.45
				C720.08,211.63,719.76,211.67,719.42,211.67z"/>
		</g>
		<g>
			<path class="st6" d="M323.95,256.14h-28.06c-0.23,0-0.45-0.11-0.59-0.29s-0.19-0.42-0.14-0.64l5.15-20.36
				c0.06-0.25,0.26-0.46,0.51-0.53c0.25-0.08,0.52-0.02,0.72,0.16l22.9,20.36c0.23,0.21,0.31,0.54,0.2,0.83
				C324.54,255.94,324.26,256.14,323.95,256.14z M296.85,254.64h25.12l-20.51-18.23L296.85,254.64z"/>
		</g>
		<g>
			<path class="st6" d="M385.83,322.33c-6.53,0-12.73-2.02-16.74-3.69c-3.73-1.56-7.38-3.45-10.9-5.28
				c-5.17-2.68-10.51-5.46-16.14-7.16c-8.18-2.48-20.17-2.67-27.03,4.96c-0.28,0.31-0.75,0.33-1.06,0.06
				c-0.31-0.28-0.33-0.75-0.06-1.06c7.33-8.15,19.98-8,28.58-5.39c5.76,1.75,11.16,4.55,16.39,7.27c3.5,1.82,7.12,3.69,10.79,5.22
				c6.36,2.66,18.48,6.25,28.11,0.53c3.07-1.83,5.66-4.5,8.16-7.09c2.78-2.88,5.66-5.86,9.28-7.78c9.12-4.85,19.89-1.53,25.5,0.87
				c3.76,1.62,7.38,3.63,10.88,5.58c3.87,2.16,7.88,4.39,12.03,6.05c9.21,3.68,17.98,3.57,24.08-0.3c0.35-0.22,0.81-0.12,1.04,0.23
				c0.22,0.35,0.12,0.81-0.23,1.04c-6.51,4.13-15.79,4.28-25.44,0.43c-4.25-1.7-8.29-3.95-12.21-6.13
				c-3.47-1.93-7.05-3.93-10.74-5.51c-5.36-2.3-15.63-5.48-24.2-0.93c-3.41,1.81-6.21,4.71-8.91,7.5c-2.57,2.66-5.23,5.4-8.47,7.33
				C394.52,321.46,390.11,322.33,385.83,322.33z"/>
		</g>
		<g>
			<path class="st6" d="M448.1,334.08c-5.28,0-10.56-0.98-15.49-2.95c-5.77-2.31-10.96-5.88-15.98-9.34
				c-2.38-1.64-4.83-3.33-7.31-4.86c-9.48-5.85-17.95-7.87-25.16-6.03c-6.11,1.56-10.88,5.67-15.93,10.01
				c-2.77,2.38-5.63,4.84-8.72,6.83c-11,7.07-25.74,8.02-37.56,2.42c-0.37-0.18-0.53-0.63-0.36-1c0.18-0.37,0.63-0.53,1-0.36
				c11.36,5.38,25.53,4.47,36.1-2.33c3-1.93,5.83-4.36,8.56-6.71c4.96-4.26,10.09-8.67,16.54-10.33c7.63-1.95,16.48,0.13,26.32,6.2
				c2.51,1.55,4.98,3.25,7.37,4.9c4.95,3.41,10.07,6.93,15.69,9.18c11.09,4.43,23.97,3.65,34.44-2.1
				c10.47-5.74,18.05-16.18,20.28-27.91c0.08-0.41,0.48-0.67,0.88-0.6c0.41,0.08,0.67,0.47,0.6,0.88
				c-2.31,12.17-10.17,22.99-21.04,28.95C462.12,332.36,455.11,334.08,448.1,334.08z"/>
		</g>
		<g>
			<g>
				<path class="st17" d="M396.13,271.45H306.6c-0.28,0-0.5-0.22-0.5-0.5s0.22-0.5,0.5-0.5h89.53c0.28,0,0.5,0.22,0.5,0.5
					S396.4,271.45,396.13,271.45z"/>
			</g>
			<g>
				<path class="st17" d="M401.87,281.25h-89.53c-0.28,0-0.5-0.22-0.5-0.5s0.22-0.5,0.5-0.5h89.53c0.28,0,0.5,0.22,0.5,0.5
					S402.14,281.25,401.87,281.25z"/>
			</g>
			<g>
				<path class="st17" d="M366.67,291.05h-48.59c-0.28,0-0.5-0.22-0.5-0.5s0.22-0.5,0.5-0.5h48.59c0.28,0,0.5,0.22,0.5,0.5
					S366.94,291.05,366.67,291.05z"/>
			</g>
		</g>
		<g>
			<g>
				<line class="st18" x1="309.25" y1="395.62" x2="315.25" y2="395.62"/>
				<line class="st19" x1="322.29" y1="395.62" x2="332.85" y2="395.62"/>
				<line class="st18" x1="336.37" y1="395.62" x2="342.37" y2="395.62"/>
			</g>
			<g>
				<path class="st20" d="M302.21,399.28c-2.02,0-3.66-1.64-3.66-3.67s1.64-3.66,3.66-3.66s3.66,1.64,3.66,3.66
					S304.23,399.28,302.21,399.28z M302.21,392.95c-1.47,0-2.66,1.2-2.66,2.66c0,1.47,1.2,2.67,2.66,2.67c1.47,0,2.66-1.2,2.66-2.67
					C304.88,394.15,303.68,392.95,302.21,392.95z"/>
			</g>
		</g>
		<g>
			<g>
				<g>
					<path class="st20" d="M438.03,167.65h-6c-0.28,0-0.5-0.22-0.5-0.5s0.22-0.5,0.5-0.5h6c0.28,0,0.5,0.22,0.5,0.5
						S438.3,167.65,438.03,167.65z"/>
				</g>
				<g>
					<path class="st20" d="M424.99,167.65h-7.04c-0.28,0-0.5-0.22-0.5-0.5s0.22-0.5,0.5-0.5h7.04c0.28,0,0.5,0.22,0.5,0.5
						S425.26,167.65,424.99,167.65z"/>
				</g>
				<g>
					<path class="st20" d="M410.91,167.65h-6c-0.28,0-0.5-0.22-0.5-0.5s0.22-0.5,0.5-0.5h6c0.28,0,0.5,0.22,0.5,0.5
						S411.18,167.65,410.91,167.65z"/>
				</g>
			</g>
			<g>
				<path class="st20" d="M445.07,170.81c-2.02,0-3.67-1.64-3.67-3.66s1.64-3.66,3.67-3.66s3.66,1.64,3.66,3.66
					S447.09,170.81,445.07,170.81z M445.07,164.48c-1.47,0-2.67,1.2-2.67,2.66c0,1.47,1.2,2.66,2.67,2.66c1.47,0,2.66-1.2,2.66-2.66
					C447.73,165.68,446.54,164.48,445.07,164.48z"/>
			</g>
		</g>
		<g>
			<g>
				<path class="st20" d="M37.61,280.65c-0.13,0-0.26-0.05-0.35-0.15l-5.79-5.79c-0.2-0.2-0.2-0.51,0-0.71s0.51-0.2,0.71,0
					l5.79,5.79c0.2,0.2,0.2,0.51,0,0.71C37.87,280.6,37.74,280.65,37.61,280.65z"/>
			</g>
			<g>
				<path class="st20" d="M31.82,280.65c-0.13,0-0.26-0.05-0.35-0.15c-0.2-0.2-0.2-0.51,0-0.71l5.79-5.79c0.2-0.2,0.51-0.2,0.71,0
					s0.2,0.51,0,0.71l-5.79,5.79C32.08,280.6,31.95,280.65,31.82,280.65z"/>
			</g>
		</g>
		<g>
			<g>
				<path class="st20" d="M534.42,72.24c-0.13,0-0.26-0.05-0.35-0.15l-5.79-5.79c-0.2-0.2-0.2-0.51,0-0.71s0.51-0.2,0.71,0
					l5.79,5.79c0.2,0.2,0.2,0.51,0,0.71C534.68,72.19,534.55,72.24,534.42,72.24z"/>
			</g>
			<g>
				<path class="st20" d="M528.63,72.24c-0.13,0-0.26-0.05-0.35-0.15c-0.2-0.2-0.2-0.51,0-0.71l5.79-5.79c0.2-0.2,0.51-0.2,0.71,0
					s0.2,0.51,0,0.71l-5.79,5.79C528.89,72.19,528.76,72.24,528.63,72.24z"/>
			</g>
		</g>
		<g>
			<g>
				<path class="st20" d="M779,251.72c-0.13,0-0.26-0.05-0.35-0.15l-5.79-5.79c-0.2-0.2-0.2-0.51,0-0.71s0.51-0.2,0.71,0l5.79,5.79
					c0.2,0.2,0.2,0.51,0,0.71C779.25,251.67,779.12,251.72,779,251.72z"/>
			</g>
			<g>
				<path class="st20" d="M773.21,251.72c-0.13,0-0.26-0.05-0.35-0.15c-0.2-0.2-0.2-0.51,0-0.71l5.79-5.79c0.2-0.2,0.51-0.2,0.71,0
					s0.2,0.51,0,0.71l-5.79,5.79C773.46,251.67,773.34,251.72,773.21,251.72z"/>
			</g>
		</g>
		<g>
			<g>
				<path class="st20" d="M240.35,325.45c-0.13,0-0.26-0.05-0.35-0.15l-5.79-5.79c-0.2-0.2-0.2-0.51,0-0.71s0.51-0.2,0.71,0
					l5.79,5.79c0.2,0.2,0.2,0.51,0,0.71C240.61,325.4,240.48,325.45,240.35,325.45z"/>
			</g>
			<g>
				<path class="st20" d="M234.56,325.45c-0.13,0-0.26-0.05-0.35-0.15c-0.2-0.2-0.2-0.51,0-0.71l5.79-5.79c0.2-0.2,0.51-0.2,0.71,0
					s0.2,0.51,0,0.71l-5.79,5.79C234.82,325.4,234.69,325.45,234.56,325.45z"/>
			</g>
		</g>
		<path class="st21" d="M543.95,311.63"/>
		<line class="st22" x1="491.93" y1="283.4" x2="497.85" y2="290.55"/>
		<g class="st23">
			<path class="st6" d="M659.28,281.25c-0.1,0-0.2-0.03-0.29-0.09c-0.22-0.16-0.27-0.47-0.11-0.7l4.81-6.65
				c0.16-0.23,0.47-0.27,0.7-0.11c0.22,0.16,0.27,0.47,0.11,0.7l-4.81,6.65C659.58,281.18,659.43,281.25,659.28,281.25z"/>
		</g>
		<g>
			<g>
				<path class="st6" d="M290.95,215.38c-2.05,0-3.71-1.67-3.71-3.71s1.67-3.71,3.71-3.71c2.05,0,3.72,1.67,3.72,3.71
					S293,215.38,290.95,215.38z M290.95,209.45c-1.22,0-2.21,0.99-2.21,2.21s0.99,2.21,2.21,2.21c1.22,0,2.22-0.99,2.22-2.21
					S292.17,209.45,290.95,209.45z"/>
			</g>
			<g>
				<path class="st6" d="M277.75,215.38c-2.05,0-3.72-1.67-3.72-3.71s1.67-3.71,3.72-3.71c2.05,0,3.71,1.67,3.71,3.71
					S279.8,215.38,277.75,215.38z M277.75,209.45c-1.22,0-2.22,0.99-2.22,2.21s0.99,2.21,2.22,2.21c1.22,0,2.21-0.99,2.21-2.21
					S278.97,209.45,277.75,209.45z"/>
			</g>
		</g>
		<path id="XMLID_212_" class="st24" d="M314.06,346.03h197.88c5.15,0,8.79-5.05,7.16-9.94l-43.01-128.94
			c-1.03-3.08-3.91-5.16-7.16-5.16H271.05c-5.15,0-8.79,5.05-7.16,9.94l43.01,128.94C307.93,343.95,310.81,346.03,314.06,346.03z"/>
		<path class="st17" d="M511.94,346.78H314.06c-3.58,0-6.74-2.28-7.87-5.67l-43.01-128.94c-0.85-2.56-0.44-5.29,1.14-7.48
			s4.03-3.45,6.73-3.45h197.88c3.58,0,6.74,2.28,7.87,5.67l43.01,128.94c0.85,2.56,0.44,5.29-1.14,7.48
			C517.09,345.52,514.64,346.78,511.94,346.78z M271.05,202.74c-2.21,0-4.22,1.03-5.52,2.82c-1.29,1.79-1.63,4.03-0.93,6.13
			l43.01,128.94c0.93,2.78,3.52,4.65,6.45,4.65h197.88c2.21,0,4.22-1.03,5.52-2.82c1.29-1.79,1.63-4.03,0.93-6.12l-43.01-128.94
			c-0.93-2.78-3.52-4.65-6.45-4.65H271.05z"/>
		<g>
			<rect x="266.95" y="220.6" class="st17" width="214.18" height="1"/>
		</g>
		<g>
			<defs>
				<path id="XMLID_211_" d="M402.41,254.24H387.9c-5.41,0-9.8-4.39-9.8-9.8v0c0-5.41,4.39-9.8,9.8-9.8h14.51
					c5.41,0,9.8,4.39,9.8,9.8v0C412.21,249.85,407.82,254.24,402.41,254.24z"/>
			</defs>
			<clipPath id="XMLID_7_">
				<use xlink:href="#XMLID_211_"  style="overflow:visible;"/>
			</clipPath>
			<ellipse class="st25" cx="406.08" cy="244.01" rx="13.74" ry="11.75"/>
			<use xlink:href="#XMLID_211_"  style="overflow:visible;fill:none;stroke:#536DFE;stroke-width:1.5;stroke-miterlimit:10;"/>
		</g>
		<g>
			<circle class="st26" cx="339.12" cy="304.99" r="3.25"/>
			<circle class="st26" cx="360.36" cy="326.2" r="3.25"/>
			<circle class="st26" cx="396.99" cy="310.51" r="3.25"/>
			<circle class="st26" cx="437.35" cy="331.03" r="3.25"/>
			<circle class="st26" cx="451.89" cy="310.51" r="3.25"/>
		</g>
		<circle class="st27" cx="304.15" cy="211.66" r="2.97"/>
		<g>
			<path class="st10" d="M724.04,193.26c-0.03,0-0.06,0-0.09,0c-0.28-0.02-0.54-0.17-0.71-0.39l-9.99-13.13
				c-0.33-0.44-0.25-1.07,0.19-1.4c0.44-0.33,1.07-0.25,1.4,0.19l9.32,12.26l31.02-28.47c0.4-0.37,1.04-0.35,1.41,0.06
				c0.37,0.41,0.35,1.04-0.06,1.41l-31.83,29.21C724.53,193.16,724.28,193.26,724.04,193.26z"/>
		</g>
		<path id="XMLID_210_" class="st24" d="M757.41,204.75h-72.89c-2.14,0-3.62-2.12-2.89-4.13l15.61-42.94
			c0.44-1.22,1.6-2.03,2.89-2.03h72.89c2.14,0,3.62,2.12,2.89,4.13l-15.61,42.94C759.86,203.94,758.7,204.75,757.41,204.75z"/>
		<path class="st17" d="M757.41,205.5h-72.89c-1.25,0-2.42-0.61-3.14-1.63c-0.72-1.02-0.89-2.33-0.46-3.51l15.61-42.94
			c0.55-1.51,1.99-2.52,3.6-2.52h72.9c1.25,0,2.42,0.61,3.14,1.63c0.72,1.02,0.89,2.33,0.46,3.51l-15.61,42.94
			C760.46,204.49,759.01,205.5,757.41,205.5z M700.13,156.41c-0.98,0-1.86,0.62-2.19,1.53l-15.61,42.94
			c-0.26,0.72-0.16,1.5,0.28,2.13c0.44,0.63,1.14,0.99,1.91,0.99h72.89c0.98,0,1.86-0.62,2.19-1.53l15.61-42.94
			c0.26-0.72,0.16-1.5-0.28-2.13c-0.44-0.63-1.14-0.99-1.91-0.99H700.13z"/>
		<g>
			<g>
				<path class="st17" d="M781.52,163.9c-0.17,0-0.35-0.09-0.44-0.26c-0.46-0.83-1.31-1.33-2.26-1.33h-2.73
					c-0.28,0-0.5-0.22-0.5-0.5s0.22-0.5,0.5-0.5h2.73c1.3,0,2.5,0.71,3.13,1.85c0.13,0.24,0.05,0.55-0.19,0.68
					C781.69,163.88,781.61,163.9,781.52,163.9z"/>
			</g>
			<g>
				<path class="st17" d="M778.7,174.74c-0.06,0-0.11-0.01-0.17-0.03c-0.26-0.09-0.39-0.38-0.3-0.64l1.31-3.59
					c0.09-0.26,0.38-0.39,0.64-0.3c0.26,0.09,0.39,0.38,0.3,0.64l-1.31,3.59C779.1,174.62,778.91,174.74,778.7,174.74z"/>
			</g>
			<g>
				<path class="st17" d="M763.22,211.41h-3.31c-0.28,0-0.5-0.22-0.5-0.5s0.22-0.5,0.5-0.5h3.31c1.08,0,2.06-0.68,2.42-1.7l1.5-4.12
					c0.09-0.26,0.38-0.39,0.64-0.3c0.26,0.09,0.39,0.38,0.3,0.64l-1.5,4.12C766.07,210.46,764.72,211.41,763.22,211.41z
					 M752.26,211.41h-3.82c-0.28,0-0.5-0.22-0.5-0.5s0.22-0.5,0.5-0.5h3.82c0.28,0,0.5,0.22,0.5,0.5S752.54,211.41,752.26,211.41z
					 M743.67,211.41h-11.46c-0.28,0-0.5-0.22-0.5-0.5s0.22-0.5,0.5-0.5h11.46c0.28,0,0.5,0.22,0.5,0.5S743.94,211.41,743.67,211.41z
					 M724.57,211.41h-3.82c-0.28,0-0.5-0.22-0.5-0.5s0.22-0.5,0.5-0.5h3.82c0.28,0,0.5,0.22,0.5,0.5S724.84,211.41,724.57,211.41z
					 M715.97,211.41h-11.46c-0.28,0-0.5-0.22-0.5-0.5s0.22-0.5,0.5-0.5h11.46c0.28,0,0.5,0.22,0.5,0.5S716.25,211.41,715.97,211.41z
					 M696.87,211.41h-3.82c-0.28,0-0.5-0.22-0.5-0.5s0.22-0.5,0.5-0.5h3.82c0.28,0,0.5,0.22,0.5,0.5S697.15,211.41,696.87,211.41z
					 M769.24,200.77c-0.06,0-0.11-0.01-0.17-0.03c-0.26-0.09-0.39-0.38-0.3-0.64l1.31-3.59c0.09-0.26,0.38-0.39,0.64-0.3
					c0.26,0.09,0.39,0.38,0.3,0.64l-1.31,3.59C769.64,200.64,769.44,200.77,769.24,200.77z M773.16,190c-0.06,0-0.11-0.01-0.17-0.03
					c-0.26-0.09-0.39-0.38-0.3-0.64l3.92-10.77c0.09-0.26,0.38-0.39,0.64-0.3c0.26,0.09,0.39,0.38,0.3,0.64l-3.92,10.77
					C773.55,189.87,773.36,190,773.16,190z"/>
			</g>
			<g>
				<path class="st17" d="M688.42,210.75c-0.11,0-0.22-0.04-0.31-0.11c-1.22-0.96-1.68-2.58-1.15-4.04l0.73-2.02
					c0.09-0.26,0.38-0.39,0.64-0.3c0.26,0.09,0.39,0.38,0.3,0.64l-0.73,2.02c-0.38,1.05-0.05,2.22,0.83,2.91
					c0.22,0.17,0.25,0.49,0.08,0.7C688.71,210.68,688.56,210.75,688.42,210.75z"/>
			</g>
		</g>
		<g>
			<path class="st17" d="M503.58,359.5H492.3c-0.28,0-0.5-0.22-0.5-0.5s0.22-0.5,0.5-0.5h11.29c0.22,0,0.45-0.01,0.67-0.03
				c0.27-0.02,0.52,0.18,0.54,0.45c0.03,0.28-0.18,0.52-0.45,0.54C504.09,359.48,503.84,359.5,503.58,359.5z M487.3,359.5h-4
				c-0.28,0-0.5-0.22-0.5-0.5s0.22-0.5,0.5-0.5h4c0.28,0,0.5,0.22,0.5,0.5S487.57,359.5,487.3,359.5z M475.3,359.5h-12
				c-0.28,0-0.5-0.22-0.5-0.5s0.22-0.5,0.5-0.5h12c0.28,0,0.5,0.22,0.5,0.5S475.57,359.5,475.3,359.5z M458.3,359.5h-4
				c-0.28,0-0.5-0.22-0.5-0.5s0.22-0.5,0.5-0.5h4c0.28,0,0.5,0.22,0.5,0.5S458.57,359.5,458.3,359.5z M446.3,359.5h-12
				c-0.28,0-0.5-0.22-0.5-0.5s0.22-0.5,0.5-0.5h12c0.28,0,0.5,0.22,0.5,0.5S446.57,359.5,446.3,359.5z M429.3,359.5h-4
				c-0.28,0-0.5-0.22-0.5-0.5s0.22-0.5,0.5-0.5h4c0.28,0,0.5,0.22,0.5,0.5S429.57,359.5,429.3,359.5z M417.3,359.5h-12
				c-0.28,0-0.5-0.22-0.5-0.5s0.22-0.5,0.5-0.5h12c0.28,0,0.5,0.22,0.5,0.5S417.57,359.5,417.3,359.5z M400.3,359.5h-4
				c-0.28,0-0.5-0.22-0.5-0.5s0.22-0.5,0.5-0.5h4c0.28,0,0.5,0.22,0.5,0.5S400.57,359.5,400.3,359.5z M388.3,359.5h-12
				c-0.28,0-0.5-0.22-0.5-0.5s0.22-0.5,0.5-0.5h12c0.28,0,0.5,0.22,0.5,0.5S388.57,359.5,388.3,359.5z M371.3,359.5h-4
				c-0.28,0-0.5-0.22-0.5-0.5s0.22-0.5,0.5-0.5h4c0.28,0,0.5,0.22,0.5,0.5S371.57,359.5,371.3,359.5z M359.3,359.5h-12
				c-0.28,0-0.5-0.22-0.5-0.5s0.22-0.5,0.5-0.5h12c0.28,0,0.5,0.22,0.5,0.5S359.57,359.5,359.3,359.5z M342.3,359.5h-4
				c-0.28,0-0.5-0.22-0.5-0.5s0.22-0.5,0.5-0.5h4c0.28,0,0.5,0.22,0.5,0.5S342.57,359.5,342.3,359.5z M330.3,359.5h-12
				c-0.28,0-0.5-0.22-0.5-0.5s0.22-0.5,0.5-0.5h12c0.28,0,0.5,0.22,0.5,0.5S330.57,359.5,330.3,359.5z M313.3,359.5h-4
				c-0.28,0-0.5-0.22-0.5-0.5s0.22-0.5,0.5-0.5h4c0.28,0,0.5,0.22,0.5,0.5S313.57,359.5,313.3,359.5z M301.54,358.25
				c-0.09,0-0.19-0.03-0.28-0.08c-1.5-0.99-2.63-2.47-3.2-4.17l-2.21-6.62c-0.09-0.26,0.05-0.54,0.32-0.63
				c0.26-0.09,0.54,0.05,0.63,0.32l2.21,6.62c0.5,1.49,1.49,2.79,2.8,3.65c0.23,0.15,0.29,0.46,0.14,0.69
				C301.87,358.17,301.71,358.25,301.54,358.25z M510.49,355.01c-0.07,0-0.14-0.01-0.2-0.04c-0.25-0.11-0.37-0.41-0.25-0.66
				c0.4-0.9,0.61-1.86,0.61-2.84c0-0.27-0.02-0.53-0.05-0.8c-0.03-0.27,0.17-0.52,0.44-0.55c0.26-0.03,0.52,0.17,0.55,0.44
				c0.04,0.31,0.05,0.61,0.05,0.92c0,1.13-0.23,2.22-0.69,3.25C510.86,354.9,510.68,355.01,510.49,355.01z M294.75,342.97
				c-0.21,0-0.4-0.13-0.47-0.34l-1.27-3.79c-0.09-0.26,0.05-0.54,0.32-0.63c0.26-0.09,0.55,0.05,0.63,0.32l1.27,3.79
				c0.09,0.26-0.05,0.54-0.32,0.63C294.86,342.97,294.8,342.97,294.75,342.97z M290.96,331.59c-0.21,0-0.4-0.13-0.47-0.34
				l-3.8-11.38c-0.09-0.26,0.05-0.54,0.32-0.63c0.26-0.09,0.54,0.05,0.63,0.32l3.8,11.38c0.09,0.26-0.05,0.54-0.32,0.63
				C291.06,331.58,291.01,331.59,290.96,331.59z M285.58,315.46c-0.21,0-0.4-0.13-0.47-0.34l-1.27-3.79
				c-0.09-0.26,0.05-0.54,0.32-0.63c0.26-0.09,0.54,0.05,0.63,0.32l1.27,3.79c0.09,0.26-0.05,0.54-0.32,0.63
				C285.68,315.46,285.63,315.46,285.58,315.46z M281.78,304.08c-0.21,0-0.4-0.13-0.47-0.34l-3.8-11.38
				c-0.09-0.26,0.05-0.54,0.32-0.63s0.55,0.06,0.63,0.32l3.8,11.38c0.09,0.26-0.05,0.54-0.32,0.63
				C281.89,304.07,281.83,304.08,281.78,304.08z M276.4,287.95c-0.21,0-0.4-0.13-0.47-0.34l-1.27-3.79
				c-0.09-0.26,0.05-0.54,0.32-0.63c0.26-0.09,0.55,0.05,0.63,0.32l1.27,3.79c0.09,0.26-0.05,0.54-0.32,0.63
				C276.51,287.95,276.45,287.95,276.4,287.95z M272.6,276.57c-0.21,0-0.4-0.13-0.47-0.34l-3.8-11.38
				c-0.09-0.26,0.05-0.54,0.32-0.63c0.26-0.09,0.54,0.06,0.63,0.32l3.8,11.38c0.09,0.26-0.05,0.54-0.32,0.63
				C272.71,276.56,272.66,276.57,272.6,276.57z M267.22,260.44c-0.21,0-0.4-0.13-0.47-0.34l-1.27-3.79
				c-0.09-0.26,0.05-0.54,0.32-0.63c0.26-0.09,0.54,0.05,0.63,0.32l1.27,3.79c0.09,0.26-0.05,0.54-0.32,0.63
				C267.33,260.44,267.28,260.44,267.22,260.44z M263.43,249.06c-0.21,0-0.4-0.13-0.47-0.34l-3.8-11.38
				c-0.09-0.26,0.05-0.54,0.32-0.63c0.26-0.09,0.55,0.06,0.63,0.32l3.8,11.38c0.09,0.26-0.05,0.54-0.32,0.63
				C263.53,249.05,263.48,249.06,263.43,249.06z M258.05,232.93c-0.21,0-0.4-0.13-0.47-0.34l-1.27-3.79
				c-0.09-0.26,0.05-0.54,0.32-0.63c0.26-0.09,0.55,0.05,0.63,0.32l1.27,3.79c0.09,0.26-0.05,0.54-0.32,0.63
				C258.15,232.93,258.1,232.93,258.05,232.93z M255.31,221.4c-0.04,0-0.07,0-0.11-0.01c-0.27-0.06-0.44-0.33-0.38-0.6
				c0.82-3.73,4.05-6.33,7.87-6.33h1.76c0.28,0,0.5,0.22,0.5,0.5s-0.22,0.5-0.5,0.5h-1.76c-3.34,0-6.17,2.28-6.89,5.55
				C255.75,221.24,255.54,221.4,255.31,221.4z"/>
		</g>
		<path class="st15" d="M556.55,135.94c0,0-1.05-7.18-6.18-10.24c-5.13-3.06-7.2-3.15-10.35-2.88c-3.15,0.27-10.09,1.9-13.55,8.96
			c-3.46,7.06,27.95,7.42,27.95,7.42L556.55,135.94z"/>
		<path class="st6" d="M539.34,125.79c2.88,2.83,7.25,3.56,10.46,6.01c2.45,1.87,4.07,4.62,5.34,7.44c1.27,2.81,2.25,5.76,3.75,8.45
			c0.47,0.84,1,1.67,1.78,2.24c0.77,0.57,1.83,0.83,2.71,0.45c0.89-0.39,1.41-1.36,1.53-2.32c0.12-0.96-0.08-1.93-0.29-2.88
			c-1.01-4.63-2.04-9.3-4.06-13.58c-2.03-4.28-5.18-8.2-9.45-10.24c-3.87-1.85-8.32-2.03-12.6-1.74c-3.85,0.26-7.98,1.02-10.65,3.81
			c-1.38,1.45-2.21,3.31-2.81,5.21c-0.32,1.03-1.86,4.9-1.16,5.79c0.74,0.93,2.78-1.15,3.34-1.62c1.72-1.44,3.62-2.68,5.55-3.81
			C533.43,128.62,538.87,125.33,539.34,125.79z"/>
		<g>
			<defs>
				<path id="XMLID_209_" d="M555.76,143.53c1.44,5.58,1.37,11.77-1.45,16.8c-2.82,5.02-9.54,7.25-15.35,8.48
					c-5.66,1.2-7.34,2.24-7.41,4.69c-0.09,3.3-0.08,6.9,1.97,9.49c1.48,1.87,3.83,2.88,6.19,3.22c2.36,0.34,4.76,0.08,7.13-0.18
					c5.58-0.61,11.3-1.26,16.31-3.8c5.01-2.54,9.22-7.42,9.32-13.03c0.07-3.96-1.85-7.65-3.72-11.14
					c-4.94-9.22-9.89-18.45-14.83-27.67c-0.45-0.84-1.58-3.43-2.89-3.11c-1.38,0.34-0.99,2.67-0.68,3.55
					C551.86,135.18,554.58,138.95,555.76,143.53z"/>
			</defs>
			<use xlink:href="#XMLID_209_"  style="overflow:visible;fill:#536DFE;"/>
			<clipPath id="XMLID_8_">
				<use xlink:href="#XMLID_209_"  style="overflow:visible;"/>
			</clipPath>
		</g>
		<g>
			<defs>
				<path id="XMLID_208_" d="M563.3,258.08c-1.1,1.56-13.62,32.35-14.31,31.44c-6.17-8.18-15.85-27.35-17.46-32.16
					c-9.18-27.56-22-24.73-24.88-33.81c-1.85-5.85-1.85-15.53,2.14-20.19c4.95-5.77,13.81-5.14,21.4-5.76
					c7.69-0.62,15.39,0.56,23.09,1.02c13.95,0.84,28.04-0.71,41.48-4.55c3.31-0.95,6.68-2.04,10.12-1.79
					c2.27,0.17,12.2-2.18,13.74-0.27C622.17,196.41,612.78,188.05,563.3,258.08z"/>
			</defs>
			<use xlink:href="#XMLID_208_"  style="overflow:visible;fill:#536DFE;"/>
			<clipPath id="XMLID_9_">
				<use xlink:href="#XMLID_208_"  style="overflow:visible;"/>
			</clipPath>
			<g class="st28">
				<path class="st6" d="M528.86,221.09c-0.13,0-0.26-0.05-0.35-0.15c-1.21-1.22-3.07-2.93-5.31-3.77c-4.63-1.73-6.07-6-7.34-9.78
					c-0.92-2.73-1.8-5.31-3.74-6.45c-0.24-0.14-0.32-0.45-0.18-0.68c0.14-0.24,0.45-0.32,0.68-0.18c2.27,1.33,3.2,4.08,4.18,6.99
					c1.26,3.73,2.57,7.6,6.75,9.16c2.42,0.91,4.39,2.71,5.67,4c0.2,0.2,0.19,0.51,0,0.71C529.12,221.04,528.99,221.09,528.86,221.09
					z"/>
			</g>
		</g>
		<g class="st23">
			<path class="st6" d="M571.39,205.25c-0.11,0-0.22-0.04-0.32-0.11c-0.21-0.17-0.25-0.49-0.07-0.7c6.54-8,18.56-16.42,32.15-22.51
				c0.25-0.11,0.55,0,0.66,0.25c0.11,0.25,0,0.55-0.25,0.66c-13.45,6.04-25.33,14.35-31.78,22.23
				C571.68,205.19,571.54,205.25,571.39,205.25z"/>
		</g>
		<g class="st23">
			<path class="st6" d="M553.42,178.38c-0.17,0-0.34-0.09-0.43-0.25c-0.14-0.24-0.06-0.54,0.18-0.68
				c5.08-2.95,9.86-6.46,14.21-10.41c2.01-1.82,3.55-3.44,4.57-5.41c0.13-0.25,0.43-0.34,0.67-0.21c0.25,0.13,0.34,0.43,0.21,0.67
				c-1.15,2.23-2.98,4.05-4.79,5.69c-4.4,4-9.24,7.54-14.38,10.53C553.59,178.36,553.51,178.38,553.42,178.38z"/>
		</g>
		<path class="st2" d="M651.34,419.99c13.04-0.5,26.25-1.22,38.67-5.24c12.41-4.02,24.13-11.77,30.26-23.29s5.47-27.07-3.64-36.42
			c-6.32-6.48-15.77-9.25-24.82-8.99c-9.05,0.26-17.81,3.24-26.11,6.87c-15.56,6.82-30.06,16.04-42.82,27.25
			c-5.39,4.73-10.56,9.88-16.93,13.17c-13.42,6.93-29.48,4.5-44.52,3.12c-9.95-0.91-47.41-7.56-50.29,7.55
			c-2.03,10.68,51.22,18.24,97.7,16.6C623,420.12,637.18,420.53,651.34,419.99z"/>
		<path class="st29" d="M695.17,395.62c15.07,0,28.55-9.45,33.59-23.65c4.84-13.64,6.91-28.23,5.58-42.67
			c-3.73-40.76-34.16-77.78-73.44-89.33c-19.82-5.83-40.94-5.57-61.03-10.36c-20.09-4.78-40.66-16.65-46.54-36.45
			c-5.66-19.06,3.73-40.25-2.29-59.2c-5.07-15.94-20.6-27.01-36.99-30.34c-16.39-3.33-33.47,0-49.27,5.49
			c-65.48,22.75-115.71,81.21-183.52,95.61c-24.86,5.28-50.63,4.22-75.77,7.88c-44.56,6.48-86.74,28.26-117.84,60.82
			c-11.43,11.97-21.46,26.08-29.79,41.36c-19.86,36.43,6.42,80.84,47.91,80.84H695.17z"/>
		<path class="st29" d="M695.17,395.62c15.07,0,28.55-9.45,33.59-23.65c4.84-13.64,6.91-28.23,5.58-42.67
			c-3.73-40.76-34.16-77.78-73.44-89.33c-19.82-5.83-40.94-5.57-61.03-10.36c-20.09-4.78-40.66-16.65-46.54-36.45
			c-5.66-19.06,3.73-40.25-2.29-59.2c-5.07-15.94-20.6-27.01-36.99-30.34c-16.39-3.33-33.47,0-49.27,5.49
			c-65.48,22.75-115.71,81.21-183.52,95.61c-24.86,5.28-50.63,4.22-75.77,7.88c-44.56,6.48-86.74,28.26-117.84,60.82
			c-11.43,11.97-21.46,26.08-29.79,41.36c-19.86,36.43,6.42,80.84,47.91,80.84H695.17z"/>
		<path class="st13" d="M250.67,82.85c-0.63,4.64-4.43,8.55-8.94,9.78c-0.46,0.13-0.93,0.23-1.41,0.3
			c-5.12,0.73-10.46-1.85-13.43-6.09c-3.77,3.7-9.86,4.79-14.68,2.63c-0.41,2.03-0.82,4.05-1.24,6.08
			c-2.47-0.64-5.16-0.74-7.44,0.38c-0.95,0.47-1.79,1.19-2.41,2.06c-2.88-4.21-3.47-9.96-1.34-14.61c2.47-5.36,8.42-8.92,14.31-8.56
			c2.65,0.16,5.23,1.04,7.88,1.05c7.21,0.02,13.77-6.28,20.81-4.73C247.83,72.25,251.36,77.72,250.67,82.85z"/>
		<g>
			<defs>
				<path id="XMLID_207_" d="M236.4,120.72c-2.3,1.15-4.44,1.56-6.38,1.5l-0.3,22.4c0,0-3.9,11.86-14.54,14.38
					c-10.64,2.52-13-17.72-13-17.72l7.47-34.8c-1.47,0.22-2.94,0.33-4.4,0.09c-2.15-0.36-4.29-1.65-5.03-3.7
					c-0.6-1.64-0.15-3.45,0.9-4.88c0.62-0.87,1.46-1.59,2.41-2.06c2.28-1.12,4.97-1.02,7.44-0.38c0.42-2.03,0.83-4.05,1.24-6.08
					c4.82,2.16,10.91,1.07,14.68-2.63c2.97,4.24,8.31,6.82,13.43,6.09c0.48-0.07,0.95-0.17,1.41-0.3
					C242.66,98.56,244.72,116.56,236.4,120.72z"/>
			</defs>
			<use xlink:href="#XMLID_207_"  style="overflow:visible;fill:#FFD26A;"/>
			<clipPath id="XMLID_10_">
				<use xlink:href="#XMLID_207_"  style="overflow:visible;"/>
			</clipPath>
			<path class="st30" d="M230.02,122.22c-2.49-0.39-6.9-2.37-8.34-3.72s5.13,15.75,9.18,18
				C234.91,138.75,230.02,122.22,230.02,122.22"/>
		</g>
		<g>
			<defs>
				<path id="XMLID_206_" d="M395.14,41.7c-0.96,2.64-10.8,1.92-12.96,4.08c-0.78,0.78-1.53,1.53-2.16,2.16
					c0,0,10.8,6.48,10.56,11.52c-0.1,2.16-12.08,18.96-24.3,35.43c-1.53,2.06-3.06,4.12-4.58,6.13
					c-6.54-2.36-12.25-15.06-17.37-25.71c8.29-8.98,14.72-16.31,15.29-18.01c1.68-5.04,2.4-15.84,4.8-15.12
					c2.4,0.72,2.16,9.12,2.16,9.12s8.88-9.12,11.28-11.04C380.26,38.34,396.1,39.06,395.14,41.7z"/>
			</defs>
			<use xlink:href="#XMLID_206_"  style="overflow:visible;fill:#FFD26A;"/>
			<clipPath id="XMLID_11_">
				<use xlink:href="#XMLID_206_"  style="overflow:visible;"/>
			</clipPath>
			<g class="st31">
				<path class="st13" d="M374.92,64.4c-0.43,0-0.83-0.15-1.16-0.44c-1.12-1.01-0.68-3.01-0.32-4.11c1.3-3.95,3.54-7.4,5.71-10.73
					l0.69-1.06c0.15-0.23,0.46-0.3,0.69-0.15c0.23,0.15,0.3,0.46,0.15,0.69l-0.69,1.06c-2.13,3.28-4.34,6.67-5.6,10.5
					c-0.48,1.46-0.46,2.6,0.04,3.06c0.32,0.29,0.78,0.18,1.08,0c0.43-0.27,0.81-0.76,1.18-1.28c2.8-3.93,5.19-8.29,7.11-12.97
					c0.11-0.26,0.4-0.38,0.65-0.27c0.26,0.1,0.38,0.4,0.27,0.65c-1.95,4.75-4.38,9.19-7.22,13.18c-0.43,0.61-0.87,1.19-1.47,1.55
					C375.68,64.29,375.29,64.4,374.92,64.4z"/>
			</g>
			<g class="st31">
				<path class="st13" d="M378.07,64.85c-0.85,0-1.73-0.35-2.18-1.15c-0.13-0.24-0.05-0.55,0.19-0.68c0.24-0.13,0.55-0.05,0.68,0.19
					c0.34,0.62,1.25,0.76,1.92,0.54c0.81-0.26,1.47-0.94,2.03-1.55c2.7-2.98,4.87-6.54,6.25-10.32c0.1-0.26,0.39-0.39,0.64-0.3
					c0.26,0.1,0.39,0.38,0.3,0.64c-1.43,3.89-3.66,7.58-6.45,10.65c-0.64,0.71-1.42,1.49-2.46,1.83
					C378.7,64.8,378.39,64.85,378.07,64.85z"/>
			</g>
			<g class="st31">
				<path class="st13" d="M381.12,65.13c-0.93,0-1.93-0.12-2.53-0.46c-0.24-0.14-0.33-0.44-0.19-0.68c0.14-0.24,0.44-0.33,0.68-0.19
					c0.7,0.39,2.63,0.39,3.54,0.2c0.94-0.2,1.81-0.66,2.53-1.08c3.08-1.81,5.74-4.36,7.69-7.37c0.15-0.23,0.46-0.3,0.69-0.15
					c0.23,0.15,0.3,0.46,0.15,0.69c-2.03,3.14-4.8,5.8-8.02,7.69c-0.79,0.47-1.75,0.97-2.83,1.2
					C382.42,65.06,381.79,65.13,381.12,65.13z"/>
			</g>
			<path class="st32" d="M346.42,80.1c0,0,10.08,16.89,19.44,18.04c9.36,1.16-9.72,9.58-9.72,9.58l-11.04-8.78L346.42,80.1"/>
		</g>
		<path class="st33" d="M366.48,100.78c-14.12,18.8-32.09,35.83-36.2,39.28c-7.06,5.93-15.84,9.35-24.44,12.68
			c-20.32,7.85-40.65,15.7-60.97,23.55c-7.69,25.74-16.63,53.9-24.24,79.49c-0.63,2.12-1.35,4.39-3.1,5.77
			c-0.72,0.57-1.52,0.92-2.36,1.11c-2.93,0.65-6.43-0.72-9.38-1.98c-12.98-5.56-27.29-7.97-41.37-6.97
			c-6,0.42-11.98,1.45-17.98,1.19c-5.15-0.23-10.46-1.55-14.53-4.64c-1.77,2.8-3.53,5.57-5.26,8.3
			c-3.16,4.99-9.45,16.94-12.41,21.63c0.03-0.07-9.7-7.88-18.91-21.81c19.01-36.79,51.47-99.12,58.53-108.14
			c4.65-5.94,9.96-11.89,17.09-14.34c5.12-1.77,10.76-1.54,16.03-0.3c5.28,1.25,10.26,3.47,15.2,5.68c0,0,2.36,20.24,13,17.72
			c10.64-2.52,14.54-14.38,14.54-14.38c28.22-10.43,42.16-11.16,70.38-21.59c0,0,27.94-30.07,44.23-47.72
			c5.12,10.65,10.83,23.35,17.37,25.71C363.24,101.57,364.84,101.55,366.48,100.78z"/>
		<path class="st34" d="M114.25,280.18c-0.04,0.07-0.07,0.14-0.1,0.21c0,0.01-0.01,0.01-0.01,0.02c-3.52,7-6.34,15.36-7.4,23.1
			c-0.11,0.85-0.22,1.73-0.65,2.47c-0.43,0.74-1.27,1.32-2.11,1.16c-1.39-0.26-1.72-2.08-1.74-3.5c-0.03-3.11-0.08-6.24-0.11-9.35
			c-3.77,5.66-8.67,11.76-12.73,16.87c-0.39,0.49-0.79,0.98-1.31,1.32c-0.53,0.34-1.2,0.5-1.78,0.27c-0.48-0.19-0.81-0.62-0.98-1.11
			c-0.98-0.29-1.72-1.35-2.13-2.38c-0.96-1-1.74-2.3-2.29-3.72c-3.73-3.54-3.85-10.78-1.75-15.29c2.06-4.32,8.23-16.51,16.18-31.88
			C100.77,266.34,107.13,273.67,114.25,280.18z"/>
		<g>
			<path class="st10" d="M131.91,250.76c-0.09,0-0.18-0.03-0.27-0.08c-0.23-0.15-0.3-0.46-0.15-0.69l14.93-23.52
				c10.58-16.67,21.35-33.64,30.47-48.03c0.15-0.23,0.46-0.3,0.69-0.15c0.23,0.15,0.3,0.46,0.15,0.69
				c-9.12,14.39-19.89,31.36-30.47,48.03l-14.93,23.52C132.24,250.67,132.08,250.76,131.91,250.76z"/>
		</g>
		<path class="st17" d="M366.48,100.78c-1.64,0.77-3.24,0.79-4.78,0.24c1.52-2.01,3.05-4.07,4.58-6.13
			C368.5,98.05,366.91,100.58,366.48,100.78z"/>
		<g>
			<path class="st13" d="M85.33,312.14c-0.21,0-0.4-0.13-0.47-0.33c-0.1-0.29-0.16-0.62-0.16-0.95c0-0.86,0.32-1.64,0.67-2.43
				c2.6-5.79,6.06-11.12,10.28-15.85c0.18-0.21,0.5-0.22,0.71-0.04c0.21,0.18,0.22,0.5,0.04,0.71c-4.15,4.65-7.56,9.9-10.12,15.59
				c-0.31,0.69-0.59,1.36-0.59,2.02c0,0.22,0.03,0.43,0.1,0.61c0.09,0.26-0.04,0.55-0.3,0.64
				C85.44,312.13,85.38,312.14,85.33,312.14z"/>
		</g>
		<g>
			<path class="st13" d="M83.2,309.76c-0.2,0-0.38-0.12-0.46-0.31c-0.2-0.49-0.34-0.97-0.39-1.37c-0.22-1.37,0.06-2.75,0.34-3.93
				c1.13-4.81,3.03-9.36,5.64-13.54c0.15-0.23,0.46-0.3,0.69-0.16c0.23,0.15,0.31,0.46,0.16,0.69c-2.56,4.08-4.41,8.54-5.52,13.24
				c-0.26,1.09-0.52,2.36-0.32,3.56c0.04,0.33,0.16,0.73,0.33,1.14c0.1,0.25-0.02,0.55-0.27,0.65
				C83.32,309.75,83.26,309.76,83.2,309.76z"/>
		</g>
		<g>
			<path class="st13" d="M80.91,306.04c-0.2,0-0.39-0.12-0.47-0.32c-0.78-2-1.1-4.17-0.9-6.11c0.36-3.3,1.66-6.41,2.91-9.41
				c0.11-0.26,0.41-0.39,0.66-0.29c0.25,0.11,0.38,0.38,0.28,0.64c-1.24,2.97-2.51,6-2.85,9.16c-0.18,1.76,0.13,3.81,0.84,5.64
				c0.1,0.26-0.03,0.55-0.28,0.65C81.03,306.03,80.97,306.04,80.91,306.04z"/>
		</g>
		<g>
			<path class="st10" d="M237.46,179.21c-0.21,0-0.41-0.13-0.48-0.34c-0.09-0.26,0.06-0.54,0.32-0.63l7.44-2.45
				c0.26-0.09,0.55,0.06,0.63,0.32s-0.06,0.54-0.32,0.63l-7.44,2.45C237.56,179.2,237.51,179.21,237.46,179.21z"/>
		</g>
		<path class="st13" d="M205.81,106.64c0,0-1.18,6.03,2.33,6.9l1.52-7.06C209.65,106.48,208.26,106.72,205.81,106.64z"/>
		<g>
			<path class="st13" d="M200.9,96.86c-3.87-2.14-6.38-6.37-6.39-10.79c-0.01-4.42,2.48-8.67,6.34-10.82
				c3.43-1.91,10.45-1.63,14.34-0.81c1.25,0.26,3.28,0.5,5.42,0.75c4.31,0.5,9.18,1.08,11.49,2.17l-0.43,0.9
				c-2.15-1.03-7.15-1.61-11.17-2.08c-2.26-0.27-4.22-0.49-5.51-0.77c-3.63-0.76-10.48-1.06-13.65,0.71
				c-3.49,1.95-5.83,5.95-5.82,9.95c0.01,4,2.37,7.99,5.87,9.92L200.9,96.86z"/>
		</g>
		<g>
			<path class="st6" d="M130.27,219.36c-0.3,0-0.58-0.18-0.7-0.48l-17.2-43.99c-0.15-0.39,0.04-0.82,0.43-0.97
				c0.38-0.15,0.82,0.04,0.97,0.43l17.2,43.99c0.15,0.39-0.04,0.82-0.43,0.97C130.45,219.34,130.36,219.36,130.27,219.36z"/>
		</g>
		<path class="st6" d="M117.03,195.61l-2.47-6.55c-0.51-1.36,0.49-2.81,1.94-2.81h3.61c0.86,0,1.64,0.54,1.94,1.34l2.47,6.55
			c0.51,1.36-0.49,2.81-1.94,2.81h-3.61C118.1,196.95,117.33,196.42,117.03,195.61z"/>
		<g>
			<path class="st6" d="M87.67,219.36c-0.3,0-0.58-0.18-0.7-0.48l-17.2-43.99c-0.15-0.39,0.04-0.82,0.43-0.97
				c0.39-0.15,0.82,0.04,0.97,0.43l17.2,43.99c0.15,0.39-0.04,0.82-0.43,0.97C87.85,219.34,87.76,219.36,87.67,219.36z"/>
		</g>
		<path class="st6" d="M76.75,204.6l-2.47-6.55c-0.51-1.36,0.49-2.81,1.94-2.81h3.61c0.86,0,1.64,0.54,1.94,1.34l2.47,6.55
			c0.51,1.36-0.49,2.81-1.94,2.81H78.7C77.83,205.94,77.06,205.4,76.75,204.6z"/>
		<g>
			<rect x="24.12" y="169.68" class="st17" width="118.46" height="1"/>
		</g>
		<g>
			<path class="st6" d="M63.41,219.36c-0.3,0-0.58-0.18-0.7-0.48l-17.2-43.99c-0.15-0.39,0.04-0.82,0.43-0.97
				c0.39-0.15,0.82,0.04,0.97,0.43l17.2,43.99c0.15,0.39-0.04,0.82-0.43,0.97C63.59,219.34,63.5,219.36,63.41,219.36z"/>
		</g>
		<g>
			<path class="st6" d="M109.15,219.36c-0.3,0-0.58-0.18-0.7-0.48l-17.2-43.99c-0.15-0.39,0.04-0.82,0.43-0.97
				c0.38-0.15,0.82,0.04,0.97,0.43l17.2,43.99c0.15,0.39-0.04,0.82-0.43,0.97C109.33,219.34,109.24,219.36,109.15,219.36z"/>
		</g>
		<g>
			<path class="st6" d="M139.25,220.03H52.79c-0.41,0-0.75-0.34-0.75-0.75s0.34-0.75,0.75-0.75h86.46c0.41,0,0.75,0.34,0.75,0.75
				S139.66,220.03,139.25,220.03z"/>
		</g>
		<line class="st35" x1="31.82" y1="162.95" x2="66.94" y2="162.95"/>
		<path id="XMLID_205_" class="st24" d="M48.52,228.39h109.23c3.2,0,5.43-3.18,4.34-6.19l-23.4-64.34c-0.66-1.82-2.4-3.04-4.34-3.04
			H25.12c-3.2,0-5.43,3.18-4.34,6.19l23.4,64.34C44.85,227.18,46.58,228.39,48.52,228.39z"/>
		<path class="st17" d="M157.75,229.14H48.52c-2.25,0-4.27-1.42-5.04-3.53l-23.4-64.34c-0.61-1.67-0.37-3.46,0.65-4.91
			c1.02-1.45,2.62-2.29,4.39-2.29h109.23c2.25,0,4.27,1.42,5.04,3.53l23.4,64.34c0.61,1.67,0.37,3.46-0.65,4.91
			S159.53,229.14,157.75,229.14z M25.12,155.57c-1.28,0-2.43,0.6-3.17,1.65s-0.9,2.34-0.47,3.54l23.4,64.34
			c0.55,1.52,2.01,2.54,3.63,2.54h109.23c1.28,0,2.43-0.6,3.17-1.65s0.9-2.34,0.47-3.54l-23.4-64.34c-0.55-1.52-2.01-2.54-3.63-2.54
			H25.12z"/>
		<path class="st6" d="M47.81,192.1l-2.47-6.55c-0.51-1.36,0.49-2.81,1.94-2.81h3.61c0.86,0,1.64,0.54,1.94,1.34l2.47,6.55
			c0.51,1.36-0.49,2.81-1.94,2.81h-3.61C48.89,193.44,48.12,192.91,47.81,192.1z"/>
		<path class="st6" d="M92.06,185.9l-2.47-6.55c-0.51-1.36,0.49-2.81,1.94-2.81h3.61c0.86,0,1.64,0.54,1.94,1.34l2.47,6.55
			c0.51,1.36-0.49,2.81-1.94,2.81H94C93.14,187.24,92.37,186.71,92.06,185.9z"/>
		<g>
			<path class="st17" d="M143.87,237.88h-12c-0.28,0-0.5-0.22-0.5-0.5s0.22-0.5,0.5-0.5h12c0.28,0,0.5,0.22,0.5,0.5
				S144.14,237.88,143.87,237.88z M126.87,237.88h-4c-0.28,0-0.5-0.22-0.5-0.5s0.22-0.5,0.5-0.5h4c0.28,0,0.5,0.22,0.5,0.5
				S127.14,237.88,126.87,237.88z M114.87,237.88h-12c-0.28,0-0.5-0.22-0.5-0.5s0.22-0.5,0.5-0.5h12c0.28,0,0.5,0.22,0.5,0.5
				S115.14,237.88,114.87,237.88z M97.87,237.88h-4c-0.28,0-0.5-0.22-0.5-0.5s0.22-0.5,0.5-0.5h4c0.28,0,0.5,0.22,0.5,0.5
				S98.14,237.88,97.87,237.88z M85.87,237.88h-12c-0.28,0-0.5-0.22-0.5-0.5s0.22-0.5,0.5-0.5h12c0.28,0,0.5,0.22,0.5,0.5
				S86.14,237.88,85.87,237.88z M68.87,237.88h-4c-0.28,0-0.5-0.22-0.5-0.5s0.22-0.5,0.5-0.5h4c0.28,0,0.5,0.22,0.5,0.5
				S69.14,237.88,68.87,237.88z M56.87,237.88h-12c-0.28,0-0.5-0.22-0.5-0.5s0.22-0.5,0.5-0.5h12c0.28,0,0.5,0.22,0.5,0.5
				S57.14,237.88,56.87,237.88z M151.87,237.87c-0.26,0-0.48-0.21-0.5-0.47c-0.02-0.28,0.2-0.51,0.47-0.53
				c1.2-0.07,2.31-0.66,3.05-1.63c0.17-0.22,0.48-0.26,0.7-0.1c0.22,0.17,0.26,0.48,0.1,0.7c-0.91,1.2-2.29,1.94-3.79,2.02
				C151.89,237.87,151.88,237.87,151.87,237.87z M39.99,237.22c-0.09,0-0.18-0.02-0.26-0.07c-1-0.6-1.77-1.54-2.17-2.63l-0.29-0.81
				c-0.09-0.26,0.04-0.55,0.3-0.64c0.26-0.09,0.55,0.04,0.64,0.3l0.29,0.81c0.32,0.88,0.94,1.63,1.74,2.12
				c0.24,0.14,0.31,0.45,0.17,0.69C40.32,237.13,40.16,237.22,39.99,237.22z M155.8,231.31c-0.2,0-0.4-0.13-0.47-0.33l-0.63-1.72
				c-0.09-0.26,0.04-0.55,0.3-0.64c0.26-0.09,0.55,0.04,0.64,0.3l0.63,1.72c0.09,0.26-0.04,0.55-0.3,0.64
				C155.92,231.3,155.86,231.31,155.8,231.31z M35.01,226.51c-0.2,0-0.4-0.13-0.47-0.33l-4.1-11.28c-0.09-0.26,0.04-0.55,0.3-0.64
				c0.26-0.09,0.55,0.04,0.64,0.3l4.1,11.28c0.09,0.26-0.04,0.55-0.3,0.64C35.12,226.5,35.06,226.51,35.01,226.51z M29.2,210.53
				c-0.2,0-0.4-0.13-0.47-0.33l-1.37-3.76c-0.09-0.26,0.04-0.55,0.3-0.64c0.26-0.09,0.55,0.04,0.64,0.3l1.37,3.76
				c0.09,0.26-0.04,0.55-0.3,0.64C29.31,210.52,29.25,210.53,29.2,210.53z M25.09,199.26c-0.2,0-0.4-0.13-0.47-0.33l-4.1-11.28
				c-0.09-0.26,0.04-0.55,0.3-0.64c0.26-0.09,0.55,0.04,0.64,0.3l4.1,11.28c0.09,0.26-0.04,0.55-0.3,0.64
				C25.21,199.25,25.15,199.26,25.09,199.26z M19.28,183.28c-0.2,0-0.4-0.13-0.47-0.33l-1.37-3.76c-0.09-0.26,0.04-0.55,0.3-0.64
				c0.26-0.09,0.55,0.04,0.64,0.3l1.37,3.76c0.09,0.26-0.04,0.55-0.3,0.64C19.4,183.27,19.34,183.28,19.28,183.28z M15.18,172
				c-0.2,0-0.4-0.13-0.47-0.33l-0.55-1.51c-0.21-0.57-0.31-1.16-0.31-1.75c0-2.82,2.3-5.11,5.12-5.11h1.53c0.28,0,0.5,0.22,0.5,0.5
				s-0.22,0.5-0.5,0.5h-1.53c-2.27,0-4.12,1.84-4.12,4.11c0,0.48,0.08,0.95,0.25,1.41l0.55,1.51c0.09,0.26-0.04,0.55-0.3,0.64
				C15.3,171.99,15.24,172,15.18,172z"/>
		</g>
		<g>
			<path class="st6" d="M373.72,44.18H319.9c-0.41,0-0.75-0.34-0.75-0.75s0.34-0.75,0.75-0.75h53.82c0.41,0,0.75,0.34,0.75,0.75
				S374.14,44.18,373.72,44.18z"/>
		</g>
		<g>
			<path class="st6" d="M348.95,56.95h-33.6c-0.41,0-0.75-0.34-0.75-0.75s0.34-0.75,0.75-0.75h33.6c0.41,0,0.75,0.34,0.75,0.75
				S349.36,56.95,348.95,56.95z"/>
		</g>
		<g>
			<path class="st6" d="M344.38,69.73h-33.6c-0.41,0-0.75-0.34-0.75-0.75s0.34-0.75,0.75-0.75h33.6c0.41,0,0.75,0.34,0.75,0.75
				S344.8,69.73,344.38,69.73z"/>
		</g>
		<g>
			<g>
				<path class="st26" d="M481.09,25.15c-1.81,0-3.29-1.48-3.29-3.29s1.48-3.29,3.29-3.29s3.29,1.48,3.29,3.29
					S482.91,25.15,481.09,25.15z M481.09,19.57c-1.26,0-2.29,1.03-2.29,2.29s1.03,2.29,2.29,2.29s2.29-1.03,2.29-2.29
					S482.36,19.57,481.09,19.57z"/>
			</g>
			<g>
				<path class="st26" d="M468.67,25.15c-1.81,0-3.29-1.48-3.29-3.29s1.48-3.29,3.29-3.29s3.29,1.48,3.29,3.29
					S470.49,25.15,468.67,25.15z M468.67,19.57c-1.26,0-2.29,1.03-2.29,2.29s1.03,2.29,2.29,2.29s2.29-1.03,2.29-2.29
					S469.94,19.57,468.67,19.57z"/>
			</g>
		</g>
		<path class="st24" d="M450.57,123.85H287.25c-4.79,0-8.12-4.76-6.48-9.26l34.98-96.2c0.99-2.73,3.58-4.54,6.48-4.54h163.32
			c4.79,0,8.12,4.76,6.48,9.26l-34.98,96.2C456.06,122.03,453.47,123.85,450.57,123.85z"/>
		<g>
			<g>
				<path class="st33" d="M406.74,96.49h-9.88c-0.16,0-0.32-0.08-0.41-0.22c-0.09-0.13-0.11-0.31-0.06-0.46l9.59-25.57
					c0.07-0.19,0.26-0.32,0.47-0.32h9.88c0.16,0,0.32,0.08,0.41,0.22c0.09,0.13,0.11,0.31,0.06,0.46l-9.59,25.57
					C407.13,96.36,406.94,96.49,406.74,96.49z M397.58,95.49h8.81l9.22-24.57h-8.81L397.58,95.49z"/>
			</g>
			<polygon class="st33" points="428.23,95.99 443.14,56.2 433.26,56.2 418.35,95.99 			"/>
			<g>
				<path class="st33" d="M449.66,96.49h-9.88c-0.16,0-0.32-0.08-0.41-0.22c-0.09-0.13-0.11-0.31-0.06-0.46l19.71-52.56
					c0.07-0.19,0.26-0.32,0.47-0.32h9.88c0.16,0,0.32,0.08,0.41,0.22c0.09,0.13,0.11,0.31,0.06,0.46l-19.71,52.56
					C450.06,96.36,449.87,96.49,449.66,96.49z M440.5,95.49h8.81l19.33-51.56h-8.81L440.5,95.49z"/>
			</g>
		</g>
		<circle class="st36" cx="456.25" cy="21.86" r="2.79"/>
		<g>
			<path class="st10" d="M456.88,101.42h-71.64c-0.28,0-0.5-0.22-0.5-0.5s0.22-0.5,0.5-0.5h71.64c0.28,0,0.5,0.22,0.5,0.5
				S457.16,101.42,456.88,101.42z"/>
		</g>
		<g>
			<rect x="311.29" y="30.15" class="st17" width="178" height="1"/>
		</g>
		<g>
			<path class="st17" d="M459.4,131.6h-2.3c-0.28,0-0.5-0.22-0.5-0.5s0.22-0.5,0.5-0.5h2.3c2.68,0,5.1-1.69,6.01-4.21l0.43-1.19
				c0.09-0.26,0.38-0.39,0.64-0.3c0.26,0.09,0.39,0.38,0.3,0.64l-0.43,1.19C465.29,129.64,462.5,131.6,459.4,131.6z M449.1,131.6h-4
				c-0.28,0-0.5-0.22-0.5-0.5s0.22-0.5,0.5-0.5h4c0.28,0,0.5,0.22,0.5,0.5S449.37,131.6,449.1,131.6z M440.1,131.6h-12
				c-0.28,0-0.5-0.22-0.5-0.5s0.22-0.5,0.5-0.5h12c0.28,0,0.5,0.22,0.5,0.5S440.37,131.6,440.1,131.6z M420.1,131.6h-4
				c-0.28,0-0.5-0.22-0.5-0.5s0.22-0.5,0.5-0.5h4c0.28,0,0.5,0.22,0.5,0.5S420.37,131.6,420.1,131.6z M411.1,131.6h-12
				c-0.28,0-0.5-0.22-0.5-0.5s0.22-0.5,0.5-0.5h12c0.28,0,0.5,0.22,0.5,0.5S411.37,131.6,411.1,131.6z M391.1,131.6h-4
				c-0.28,0-0.5-0.22-0.5-0.5s0.22-0.5,0.5-0.5h4c0.28,0,0.5,0.22,0.5,0.5S391.37,131.6,391.1,131.6z M382.1,131.6h-12
				c-0.28,0-0.5-0.22-0.5-0.5s0.22-0.5,0.5-0.5h12c0.28,0,0.5,0.22,0.5,0.5S382.37,131.6,382.1,131.6z M362.1,131.6h-4
				c-0.28,0-0.5-0.22-0.5-0.5s0.22-0.5,0.5-0.5h4c0.28,0,0.5,0.22,0.5,0.5S362.37,131.6,362.1,131.6z M353.1,131.6h-12
				c-0.28,0-0.5-0.22-0.5-0.5s0.22-0.5,0.5-0.5h12c0.28,0,0.5,0.22,0.5,0.5S353.37,131.6,353.1,131.6z M333.1,131.6h-4
				c-0.28,0-0.5-0.22-0.5-0.5s0.22-0.5,0.5-0.5h4c0.28,0,0.5,0.22,0.5,0.5S333.37,131.6,333.1,131.6z M324.1,131.6h-12
				c-0.28,0-0.5-0.22-0.5-0.5s0.22-0.5,0.5-0.5h12c0.28,0,0.5,0.22,0.5,0.5S324.37,131.6,324.1,131.6z M304.1,131.6h-4
				c-0.28,0-0.5-0.22-0.5-0.5s0.22-0.5,0.5-0.5h4c0.28,0,0.5,0.22,0.5,0.5S304.37,131.6,304.1,131.6z M295.1,131.52
				c-0.03,0-0.05,0-0.08-0.01c-3.83-0.63-6.23-4.38-6.34-7.64c-0.01-0.28,0.21-0.51,0.48-0.52c0.27-0.01,0.51,0.21,0.52,0.48
				c0.11,3.21,2.58,6.21,5.5,6.69c0.27,0.04,0.46,0.3,0.41,0.57C295.55,131.34,295.34,131.52,295.1,131.52z M468.02,121.17
				c-0.06,0-0.11-0.01-0.17-0.03c-0.26-0.09-0.39-0.38-0.3-0.64l1.37-3.76c0.09-0.26,0.38-0.39,0.64-0.3
				c0.26,0.09,0.39,0.38,0.3,0.64l-1.37,3.76C468.42,121.04,468.23,121.17,468.02,121.17z M472.12,109.89
				c-0.06,0-0.11-0.01-0.17-0.03c-0.26-0.09-0.39-0.38-0.3-0.64l4.1-11.28c0.09-0.26,0.38-0.39,0.64-0.3
				c0.26,0.09,0.39,0.38,0.3,0.64l-4.1,11.28C472.52,109.76,472.33,109.89,472.12,109.89z M477.93,93.91
				c-0.06,0-0.11-0.01-0.17-0.03c-0.26-0.09-0.39-0.38-0.3-0.64l1.37-3.76c0.09-0.26,0.38-0.39,0.64-0.3
				c0.26,0.09,0.39,0.38,0.3,0.64l-1.37,3.76C478.33,93.79,478.14,93.91,477.93,93.91z M482.04,82.63c-0.06,0-0.11-0.01-0.17-0.03
				c-0.26-0.09-0.39-0.38-0.3-0.64l4.1-11.28c0.09-0.26,0.38-0.39,0.64-0.3c0.26,0.09,0.39,0.38,0.3,0.64l-4.1,11.28
				C482.43,82.51,482.24,82.63,482.04,82.63z M487.84,66.66c-0.06,0-0.11-0.01-0.17-0.03c-0.26-0.09-0.39-0.38-0.3-0.64l1.37-3.76
				c0.09-0.26,0.38-0.39,0.64-0.3c0.26,0.09,0.39,0.38,0.3,0.64l-1.37,3.76C488.24,66.53,488.05,66.66,487.84,66.66z M491.95,55.38
				c-0.06,0-0.11-0.01-0.17-0.03c-0.26-0.09-0.39-0.38-0.3-0.64l4.1-11.28c0.09-0.26,0.38-0.39,0.64-0.3
				c0.26,0.09,0.39,0.38,0.3,0.64l-4.1,11.28C492.34,55.25,492.15,55.38,491.95,55.38z M497.75,39.4c-0.06,0-0.11-0.01-0.17-0.03
				c-0.26-0.09-0.39-0.38-0.3-0.64l1.37-3.76c0.09-0.26,0.38-0.39,0.64-0.3c0.26,0.09,0.39,0.38,0.3,0.64l-1.37,3.76
				C498.15,39.28,497.96,39.4,497.75,39.4z M501.06,27.99c-0.23,0-0.44-0.17-0.49-0.4c-0.67-3.48-4.62-6.76-8.13-6.76
				c-0.28,0-0.5-0.22-0.5-0.5s0.22-0.5,0.5-0.5c4,0,8.34,3.61,9.11,7.57c0.05,0.27-0.13,0.53-0.4,0.59
				C501.12,27.99,501.09,27.99,501.06,27.99z"/>
		</g>
		<g>
			<path class="st17" d="M450.57,124.6H287.25c-2.53,0-4.81-1.19-6.27-3.26c-1.45-2.07-1.79-4.62-0.92-7l34.98-96.2
				c1.1-3.01,3.98-5.04,7.19-5.04h163.32c2.53,0,4.81,1.19,6.27,3.26c1.45,2.07,1.79,4.63,0.92,7l-34.98,96.2
				C456.66,122.57,453.78,124.6,450.57,124.6z M322.24,14.6c-2.58,0-4.9,1.63-5.78,4.05l-34.98,96.2c-0.7,1.91-0.42,3.96,0.74,5.63
				s3,2.62,5.04,2.62h163.32c2.58,0,4.9-1.63,5.78-4.05l34.98-96.2c0.7-1.91,0.42-3.96-0.74-5.63c-1.17-1.67-3-2.62-5.04-2.62
				H322.24z"/>
		</g>
		<g>
			<defs>
				<path id="XMLID_203_" d="M734.34,329.29c-3.73-40.76-34.16-77.78-73.44-89.33c-19.82-5.83-40.94-5.57-61.03-10.36
					c-20.09-4.78-40.66-16.65-46.54-36.45c-5.66-19.06,3.73-40.25-2.29-59.2c-5.07-15.94-20.6-27.01-36.99-30.34
					c-16.39-3.33-33.47,0-49.27,5.49c-65.48,22.75-115.71,81.21-183.52,95.61c-24.86,5.28-50.63,4.22-75.77,7.88
					c-44.56,6.48-86.74,28.26-117.84,60.82c-11.43,11.97-21.46,26.08-29.79,41.36c-18.62,34.15,3.88,75.06,40.56,82.6
					c7.13,1.47,14.38,2.23,21.45,4l2.54,0.64c25.6,6.41,52.33,6.8,78.11,1.14l34.33-7.54c19.89,0,39.56,4.15,57.75,12.18
					c4.37,1.93,8.75,3.86,13.12,5.79c28.78,12.7,59.71,25.69,90.69,20.22c16.76-2.96,32.06-11.15,47.85-17.51
					c25.5-10.27,108.84-20.68,119.98-20.68h130.93c15.07,0,28.55-9.45,33.59-23.65C733.6,358.33,735.66,343.74,734.34,329.29z"/>
			</defs>
			<clipPath id="XMLID_12_">
				<use xlink:href="#XMLID_203_"  style="overflow:visible;"/>
			</clipPath>
			<path id="XMLID_204_" class="st37" d="M215.17,262.66c-0.66,33.46-4.86,118.15-5.52,151.57L77.79,400.6
				c2.91-13.2,21.67-74.57,26.73-87.11c7.38-18.3,14.76-36.62,22.14-54.93c1.73-2.73,3.49-5.5,5.26-8.3
				c4.07,3.09,9.38,4.41,14.53,4.64c6,0.26,11.98-0.77,17.98-1.19c14.08-1,28.39,1.41,41.37,6.97
				C208.74,261.94,212.24,263.31,215.17,262.66z"/>
			<g class="st38">
				<defs>
					<path id="XMLID_202_" d="M215.17,262.66c-0.66,33.46-4.86,118.15-5.52,151.57L77.79,400.6c2.91-13.2,21.67-74.57,26.73-87.11
						c7.38-18.3,14.76-36.62,22.14-54.93c1.73-2.73,3.49-5.5,5.26-8.3c4.07,3.09,9.38,4.41,14.53,4.64c6,0.26,11.98-0.77,17.98-1.19
						c14.08-1,28.39,1.41,41.37,6.97C208.74,261.94,212.24,263.31,215.17,262.66z"/>
				</defs>
				<clipPath id="XMLID_13_">
					<use xlink:href="#XMLID_202_"  style="overflow:visible;"/>
				</clipPath>
				<path class="st39" d="M204.16,265.29c2.63,1.18,5.31,2.46,8.19,2.57c2.88,0.11,6.05-1.33,6.96-4.06
					c0.66-1.96,0.01-4.18-1.22-5.85c-1.23-1.66-2.98-2.86-4.76-3.93c-14.53-8.79-32.84-10.73-49.04-5.86
					c-4.14,1.24-9.92,2.92-13.09,5.92c4.19,0.9,9.14,0.32,13.48,0.75c4.5,0.44,8.98,1.13,13.41,2.05
					C187.06,258.74,195.81,261.56,204.16,265.29z"/>
				<g class="st40">
					<path class="st10" d="M146.45,406.74c-0.03,0-0.06,0-0.09-0.01c-0.27-0.05-0.45-0.31-0.4-0.58l19.26-101.9
						c0.05-0.27,0.32-0.45,0.58-0.4c0.27,0.05,0.45,0.31,0.4,0.58l-19.26,101.9C146.89,406.57,146.68,406.74,146.45,406.74z"/>
				</g>
				<g class="st40">
					<path class="st10" d="M112.61,291.51c-0.27,0-0.49-0.21-0.5-0.48c-0.01-0.28,0.2-0.51,0.48-0.52c3.67-0.15,7.56-1.35,11.9-3.68
						c14.83-7.96,25.13-23.95,26.23-40.75c0.02-0.28,0.24-0.49,0.53-0.47c0.28,0.02,0.48,0.26,0.47,0.53
						c-1.12,17.13-11.62,33.45-26.75,41.56c-4.48,2.4-8.51,3.64-12.33,3.8C112.62,291.51,112.61,291.51,112.61,291.51z"/>
				</g>
			</g>
		</g>
		<g>
			<defs>
				<path id="XMLID_201_" d="M734.34,329.29c-3.73-40.76-34.16-77.78-73.44-89.33c-19.82-5.83-40.94-5.57-61.03-10.36
					c-20.09-4.78-40.66-16.65-46.54-36.45c-5.66-19.06,3.73-40.25-2.29-59.2c-5.07-15.94-20.6-27.01-36.99-30.34
					c-16.39-3.33-33.47,0-49.27,5.49c-65.48,22.75-115.71,81.21-183.52,95.61c-24.86,5.28-50.63,4.22-75.77,7.88
					c-44.56,6.48-86.74,28.26-117.84,60.82c-11.43,11.97-21.46,26.08-29.79,41.36c-18.62,34.15,2.7,68.6,35.61,86.36
					c23.4,12.62,81.27,7.68,107.04,2.02l34.33-7.54c19.89,0,39.56,4.15,57.75,12.18c4.37,1.93,8.75,3.86,13.12,5.79
					c28.78,12.7,59.71,25.69,90.69,20.22c16.76-2.96,32.06-11.15,47.85-17.51c25.5-10.27,108.84-20.68,119.98-20.68h130.93
					c15.07,0,28.55-9.45,33.59-23.65C733.6,358.33,735.66,343.74,734.34,329.29z"/>
			</defs>
			<clipPath id="XMLID_14_">
				<use xlink:href="#XMLID_201_"  style="overflow:visible;"/>
			</clipPath>
			<path class="st41" d="M74.15,406.64c-16.59-18.85-23-45.21-12.39-59.49c5.87-7.9,15.36-12.44,24.99-14.5
				c15.29-3.26,31.73-0.78,45.38,6.85c11.2,6.26,20.44,15.93,26.29,27.35c2.13,4.16,6.74,6.43,11.34,5.63
				c12.1-2.11,24.94,0.02,35.61,6.14c5.16,2.96,9.77,6.83,13.64,11.34c8.01,9.34,0.95,23.74-11.34,23.14L74.15,406.64z"/>
		</g>
		<g>
			<line class="st18" x1="718.56" y1="331.03" x2="712.56" y2="331.03"/>
			<line class="st19" x1="705.52" y1="331.03" x2="694.96" y2="331.03"/>
			<line class="st18" x1="691.44" y1="331.03" x2="685.44" y2="331.03"/>
			<circle class="st42" cx="725.6" cy="331.03" r="3.16"/>
		</g>
		<g>
			<g>
				<path class="st43" d="M143.33,112.48"/>
				<path class="st43" d="M110.21,112.48"/>
				<circle class="st42" cx="103.17" cy="112.48" r="3.16"/>
			</g>
			<g>
				<line class="st18" x1="143.33" y1="112.48" x2="137.33" y2="112.48"/>
				<line class="st19" x1="130.29" y1="112.48" x2="119.73" y2="112.48"/>
				<line class="st18" x1="116.21" y1="112.48" x2="110.21" y2="112.48"/>
			</g>
		</g>
	</g>
</g>
</svg>
