<?xml version="1.0" encoding="utf-8"?>
<!-- Generator: Adobe Illustrator 23.0.1, SVG Export Plug-In . SVG Version: 6.00 Build 0)  -->
<svg version="1.1" id="Artwork" xmlns="http://www.w3.org/2000/svg" xmlns:xlink="http://www.w3.org/1999/xlink" x="0px" y="0px"
	 viewBox="0 0 1127 750" style="enable-background:new 0 0 1127 750;" xml:space="preserve">
<style type="text/css">
	.st0{clip-path:url(#SVGID_2_);}
	.st1{clip-path:url(#XMLID_3_);fill:#C3D8BD;}
	.st2{opacity:0.7;clip-path:url(#XMLID_3_);fill:#659157;}
	.st3{fill:#32482B;}
	.st4{fill:#C3D8BD;}
	.st5{fill:#BEC8FF;}
	.st6{fill:none;stroke:#FFFFFF;stroke-width:1.5;stroke-linecap:round;stroke-linejoin:round;stroke-miterlimit:10;}
	.st7{fill:#659157;}
	.st8{fill:#E9EDFF;}
	.st9{opacity:0.5;clip-path:url(#XMLID_4_);fill:#536DFE;}
	.st10{fill:#606060;stroke:#606060;stroke-linecap:round;stroke-linejoin:round;stroke-miterlimit:10;}
	.st11{clip-path:url(#SVGID_4_);}
	.st12{clip-path:url(#XMLID_5_);fill:#536DFE;}
	.st13{opacity:0.5;clip-path:url(#XMLID_5_);fill:#536DFE;}
	.st14{fill:#895737;}
	.st15{opacity:0.5;clip-path:url(#XMLID_7_);fill:#FFB811;}
	.st16{opacity:0.5;clip-path:url(#XMLID_8_);fill:#FFB811;}
	.st17{fill:#FFFFFF;}
	.st18{clip-path:url(#XMLID_9_);fill:#536DFE;}
	.st19{opacity:0.5;fill:#536DFE;}
	.st20{opacity:0.5;clip-path:url(#XMLID_10_);fill:#A87A1D;}
	.st21{fill:none;stroke:#000000;stroke-miterlimit:10;}
	.st22{opacity:0.5;clip-path:url(#XMLID_11_);fill:#A87A1D;}
	.st23{opacity:0.5;clip-path:url(#XMLID_12_);fill:#A87A1D;}
	.st24{opacity:0.5;clip-path:url(#XMLID_13_);fill:#A87A1D;}
	.st25{clip-path:url(#XMLID_14_);fill:#606060;stroke:#606060;stroke-linecap:round;stroke-linejoin:round;stroke-miterlimit:10;}
	.st26{fill:#536DFE;}
	.st27{clip-path:url(#XMLID_15_);fill:#536DFE;}
	.st28{clip-path:url(#XMLID_16_);fill:#FFFFFF;}
	.st29{fill:#606060;}
	.st30{fill:#7E91FE;}
	.st31{clip-path:url(#XMLID_17_);fill:#BEE4CA;}
	.st32{fill:#FFDA83;}
	.st33{fill:#BEE4CA;}
	.st34{fill:#FFCB51;}
	.st35{fill:#A9DBB8;}
	.st36{fill:none;stroke:#000000;stroke-linecap:round;stroke-linejoin:round;stroke-miterlimit:10;}
	.st37{fill:#FFFFFF;stroke:#606060;stroke-linecap:round;stroke-linejoin:round;stroke-miterlimit:10;}
	.st38{clip-path:url(#XMLID_18_);}
	.st39{fill:#888888;}
	.st40{clip-path:url(#XMLID_19_);}
	.st41{fill:#FFE19C;}
	.st42{fill:#D4DAFF;}
	.st43{fill:none;stroke:#606060;stroke-linecap:round;stroke-linejoin:round;stroke-miterlimit:10;}
	.st44{clip-path:url(#XMLID_20_);fill:#536DFE;}
	.st45{clip-path:url(#XMLID_21_);fill:#536DFE;}
	.st46{clip-path:url(#XMLID_22_);fill:#536DFE;}
	.st47{clip-path:url(#XMLID_23_);fill:#536DFE;}
	.st48{clip-path:url(#XMLID_24_);fill:#536DFE;}
	.st49{clip-path:url(#XMLID_25_);fill:#A9B6FF;}
	.st50{clip-path:url(#SVGID_6_);fill:#D4DAFF;}
	.st51{clip-path:url(#SVGID_8_);fill:#D4DAFF;}
</style>
<g>
	<defs>
		<rect id="SVGID_1_" width="1127" height="750"/>
	</defs>
	<clipPath id="SVGID_2_">
		<use xlink:href="#SVGID_1_"  style="overflow:visible;"/>
	</clipPath>
	<g class="st0">
		<g>
			<defs>
				<path id="XMLID_1_" d="M541.67,113.05c0.46,7.38,3.51,14.25,7.77,20.31c3.45-2.29,2.01-2.1,5.45-4.39
					c1.71-1.12,10.98-0.91,11.64-2.85c0.59-1.73-0.34-10.43-0.13-11.56c7.75-5.06,26.46-8.85,41.05-10.72
					c2-0.25,3.57,0.09,5.52,0.62c1.94,0.51,2.85,1.9,3.32,3.87c1.12-1.17,3.07-4.28,2.36-5.72c0.93-0.19,1.59-1.11,1.77-2.03
					c0.19-0.94,0.01-1.89-0.16-2.84c-0.96-5.18-1.23-10.6-2.19-15.78c-0.47-2.52-1.66-4.9-3.12-7c-2.19-3.14-5.31-5.91-9.14-5.76
					c-2.22,0.09-5.34,0.46-7.42,1.29c-11.45-0.28-25.22,3.3-35.46,8.04c-3.62,1.69-7.19,3.72-9.86,6.68
					c-1.74,1.93-3.07,4.32-3.61,6.84c-0.43,1.98-1.35,3.82-2.7,5.33C543.06,101.49,541.32,107.43,541.67,113.05z"/>
			</defs>
			<use xlink:href="#XMLID_1_"  style="overflow:visible;fill:#74A366;"/>
			<clipPath id="XMLID_3_">
				<use xlink:href="#XMLID_1_"  style="overflow:visible;"/>
			</clipPath>
			<path class="st1" d="M546.42,130.09c-0.06,0-0.12-0.01-0.18-0.03c-0.26-0.1-0.39-0.39-0.29-0.65l1.87-4.85
				c0.27-0.69,0.82-1.25,1.51-1.52l3.95-1.56c0.43-0.17,0.77-0.51,0.94-0.94l1.3-3.32c0.29-0.73,0.88-1.3,1.63-1.55l4.49-1.52
				c0.31-0.1,0.58-0.3,0.78-0.56l2.07-2.66c0.17-0.22,0.48-0.26,0.7-0.09c0.22,0.17,0.26,0.48,0.09,0.7l-2.07,2.66
				c-0.32,0.41-0.75,0.72-1.25,0.89l-4.49,1.52c-0.47,0.16-0.84,0.51-1.02,0.97l-1.3,3.32c-0.27,0.69-0.82,1.23-1.5,1.51l-3.95,1.56
				c-0.43,0.17-0.78,0.52-0.94,0.95l-1.87,4.85C546.81,129.97,546.63,130.09,546.42,130.09z"/>
			<path class="st2" d="M567.66,105.34c0,0,25.14-10.06,36.33-9.28c11.19,0.78,17.09,4.26,17.09,4.26l1.48,3.53l-6.42-2.36
				c0,0-14.18-2.18-20.22-1.55S567.66,105.34,567.66,105.34z"/>
			<path class="st2" d="M561.6,115.99c-1.22,0.76-4.46,3.79-5.82,4.23c-1.81,0.58-6.4,0.31-8.29,0.27
				c-2.31-0.05-6.18-2.46-8.27-3.45c-0.51-0.24,1.86-1.8,2.32-2.13c0.55-0.39,1.3-0.08,1.91,0.21c3.65,1.7,7.98,1.85,11.74,0.43
				c1.52-0.58,2.93-1.39,4.34-2.2c0.74-0.43,1.48-0.89,2.24-1.28c0.43-0.22,8.73-2.74,9.23-2.54c0.58,0.23-3.49,2.28-5.03,3.21
				C565.29,113.14,562.48,115.45,561.6,115.99z"/>
			<path class="st2" d="M546.36,95.37c0.18,0.52,0.88,0.6,1.43,0.57c1.23-0.08,2.45-0.31,3.68-0.34c1.52-0.04,3.05,0.21,4.48,0.74
				c0.18-0.23,0.1-0.58-0.08-0.79c-0.19-0.22-0.46-0.34-0.73-0.45c-1.14-0.48-2.28-0.96-3.43-1.44c-1-0.42-2.01-0.84-3.08-0.99
				c-1.07-0.15-2.23-0.01-3.11,0.63"/>
		</g>
		<path class="st3" d="M560.08,108.24c-0.2,0-0.4-0.13-0.47-0.33c-0.09-0.26,0.04-0.55,0.3-0.64c6.81-2.49,13.78-4.84,20.72-6.98
			c5.95-1.83,12.89-3.83,19.86-4.35c7.57-0.56,14.46,0.72,19.92,3.72c0.24,0.13,0.33,0.44,0.2,0.68c-0.13,0.24-0.44,0.33-0.68,0.2
			c-5.29-2.91-11.99-4.15-19.37-3.6c-6.87,0.51-13.74,2.5-19.64,4.31c-6.92,2.13-13.87,4.47-20.67,6.96
			C560.2,108.23,560.14,108.24,560.08,108.24z"/>
		<path class="st3" d="M547.49,110.35c-0.26,0-0.48-0.2-0.5-0.46c-0.02-0.28,0.19-0.51,0.46-0.53c5.89-0.42,16.21-3,25.32-5.27
			c6.75-1.69,13.12-3.28,17.17-3.89c9.75-1.46,19.45-0.81,28.83,1.93c0.26,0.08,0.42,0.36,0.34,0.62c-0.08,0.26-0.35,0.42-0.62,0.34
			c-9.24-2.7-18.8-3.34-28.4-1.9c-4.01,0.6-10.35,2.19-17.07,3.87c-9.6,2.4-19.52,4.88-25.5,5.3
			C547.51,110.35,547.5,110.35,547.49,110.35z"/>
		<path class="st3" d="M549.97,117.56c-2.32,0-5.01-0.64-8.15-2.39c-0.24-0.13-0.33-0.44-0.19-0.68c0.13-0.24,0.44-0.33,0.68-0.19
			c8.04,4.47,12.98,1.2,16.24-0.96c1.04-0.69,1.93-1.28,2.74-1.51c0.88-0.25,2.57-0.79,4.71-1.48c5.57-1.8,13.21-4.26,15.99-4.56
			c7.9-0.84,16.24-3.94,21.82-6.19c0.25-0.1,0.55,0.02,0.65,0.28c0.1,0.26-0.02,0.55-0.28,0.65c-5.64,2.28-14.06,5.4-22.09,6.26
			c-2.68,0.29-10.57,2.83-15.79,4.52c-2.15,0.69-3.84,1.24-4.74,1.49c-0.66,0.19-1.49,0.74-2.46,1.38
			C556.9,115.63,553.99,117.56,549.97,117.56z"/>
		<path class="st4" d="M556.92,108.67c-0.13,0-0.26-0.05-0.36-0.15l-3.22-3.27c-0.17-0.17-0.19-0.45-0.05-0.65
			c16.25-22.07,38.27-31.52,44.63-33.88l0.27-0.1c0.26-0.1,0.55,0.03,0.65,0.28c0.1,0.26-0.03,0.55-0.28,0.65l-0.29,0.11
			c-6.26,2.33-27.86,11.6-43.92,33.2l2.92,2.97c0.19,0.2,0.19,0.51-0.01,0.71C557.18,108.62,557.05,108.67,556.92,108.67z"/>
		<path class="st4" d="M555.79,104.35c-0.16,0-0.32-0.08-0.41-0.22c-0.15-0.23-0.09-0.54,0.13-0.69l2.11-1.43
			c0.05-0.03,0.1-0.05,0.15-0.07c0.23-0.06,0.43-0.21,0.56-0.41l2.06-3.16c0.21-0.32,0.51-0.58,0.87-0.73l2.95-1.29
			c0.24-0.1,0.43-0.3,0.52-0.54l1.38-3.52c0.21-0.54,0.64-0.96,1.19-1.15l4.83-1.69c0.25-0.09,0.45-0.26,0.56-0.5l1.64-3.43
			c0.28-0.58,0.82-0.99,1.45-1.1l3.98-0.67c0.25-0.04,0.46-0.17,0.61-0.37l2.14-2.81c0.33-0.43,0.82-0.71,1.36-0.77l4.8-0.52
			c0.32-0.04,0.61-0.23,0.76-0.52l1.02-1.94c0.3-0.58,0.87-0.97,1.52-1.04l5.24-0.6c0.27-0.03,0.52-0.17,0.68-0.39l1.1-1.5
			c0.16-0.22,0.48-0.27,0.7-0.11c0.22,0.16,0.27,0.48,0.11,0.7l-1.1,1.5c-0.32,0.44-0.82,0.73-1.37,0.79l-5.24,0.6
			c-0.32,0.04-0.6,0.23-0.75,0.52l-1.02,1.94c-0.31,0.58-0.88,0.97-1.54,1.04l-4.8,0.52c-0.27,0.03-0.51,0.17-0.67,0.38l-2.14,2.81
			c-0.3,0.4-0.75,0.67-1.24,0.75l-3.98,0.67c-0.31,0.05-0.58,0.26-0.72,0.54l-1.64,3.43c-0.23,0.47-0.64,0.84-1.13,1.02l-4.83,1.69
			c-0.27,0.09-0.48,0.3-0.59,0.57l-1.38,3.52c-0.19,0.49-0.57,0.88-1.05,1.09l-2.95,1.29c-0.18,0.08-0.32,0.2-0.43,0.36l-2.06,3.16
			c-0.25,0.38-0.62,0.67-1.05,0.8l-2.05,1.38C555.98,104.33,555.88,104.35,555.79,104.35z"/>
		<path class="st4" d="M594.52,96.47c-0.22,0-0.43-0.15-0.48-0.38c-0.07-0.27,0.09-0.54,0.36-0.61l3.91-0.99
			c0.24-0.06,0.45-0.21,0.58-0.42l1.91-2.97c0.29-0.45,0.76-0.77,1.29-0.87l4.74-0.9c0.32-0.06,0.59-0.28,0.71-0.57l0.87-2.02
			c0.26-0.6,0.79-1.03,1.43-1.16l5.18-1.02c0.27-0.05,0.5-0.21,0.64-0.45l0.98-1.59c0.15-0.24,0.45-0.31,0.69-0.16
			c0.23,0.15,0.31,0.45,0.16,0.69l-0.98,1.59c-0.29,0.47-0.76,0.8-1.3,0.9l-5.18,1.02c-0.32,0.06-0.58,0.28-0.71,0.57l-0.87,2.02
			c-0.26,0.6-0.8,1.04-1.45,1.16l-4.74,0.9c-0.26,0.05-0.5,0.21-0.64,0.43l-1.91,2.97c-0.27,0.42-0.69,0.73-1.18,0.85l-3.91,0.99
			C594.6,96.46,594.56,96.47,594.52,96.47z"/>
		<path class="st4" d="M554.33,102.29c-0.31,0.03-0.63-0.12-0.82-0.37c-0.19-0.25-0.25-0.58-0.19-0.89c0.12-0.63,0.8-1.1,1.43-0.99
			c0.63,0.11,1.11,0.77,1.02,1.41c-0.09,0.64-0.75,1.13-1.39,1.05"/>
		<path class="st4" d="M557.84,97.61c-0.31,0.03-0.63-0.12-0.82-0.37c-0.19-0.25-0.25-0.58-0.19-0.89c0.12-0.63,0.8-1.1,1.43-0.99
			s1.11,0.77,1.02,1.41c-0.09,0.64-0.75,1.13-1.39,1.05"/>
		<path class="st4" d="M567.46,88.42c-0.31,0.03-0.63-0.12-0.82-0.37c-0.19-0.25-0.25-0.58-0.19-0.89c0.12-0.63,0.8-1.1,1.43-0.99
			c0.63,0.11,1.11,0.77,1.02,1.41c-0.09,0.64-0.75,1.13-1.39,1.05"/>
		<path class="st4" d="M572.38,84.22c-0.31,0.03-0.63-0.12-0.82-0.37c-0.19-0.25-0.25-0.58-0.19-0.89c0.12-0.63,0.8-1.1,1.43-0.99
			s1.11,0.77,1.02,1.41c-0.09,0.64-0.75,1.13-1.39,1.05"/>
		<path class="st4" d="M578.38,80.68c-0.31,0.03-0.63-0.12-0.82-0.37c-0.19-0.25-0.25-0.58-0.19-0.89c0.12-0.63,0.8-1.1,1.43-0.99
			s1.11,0.77,1.02,1.41c-0.09,0.64-0.75,1.13-1.39,1.05"/>
		<path class="st4" d="M584.62,76.85c-0.31,0.03-0.63-0.12-0.82-0.37c-0.19-0.25-0.25-0.58-0.19-0.89c0.12-0.63,0.8-1.1,1.43-0.99
			s1.11,0.77,1.02,1.41c-0.09,0.64-0.75,1.13-1.39,1.05"/>
		<path class="st4" d="M591.16,74.39c-0.31,0.03-0.63-0.12-0.82-0.37c-0.19-0.25-0.25-0.58-0.19-0.89c0.12-0.63,0.8-1.1,1.43-0.99
			c0.63,0.11,1.11,0.77,1.02,1.41c-0.09,0.64-0.75,1.13-1.39,1.05"/>
		<path class="st4" d="M614.26,81.1c-0.31,0.03-0.63-0.12-0.82-0.37c-0.19-0.25-0.25-0.58-0.19-0.89c0.12-0.63,0.8-1.1,1.43-0.99
			s1.11,0.77,1.02,1.41c-0.09,0.64-0.75,1.13-1.39,1.05"/>
		<path class="st4" d="M609.22,84.22c-0.31,0.03-0.63-0.12-0.82-0.37c-0.19-0.25-0.25-0.58-0.19-0.89c0.12-0.63,0.8-1.1,1.43-0.99
			c0.63,0.11,1.11,0.77,1.02,1.41s-0.75,1.13-1.39,1.05"/>
		<path class="st4" d="M602.86,87.76c-0.31,0.03-0.63-0.12-0.82-0.37c-0.19-0.25-0.25-0.58-0.19-0.89c0.12-0.63,0.8-1.1,1.43-0.99
			s1.11,0.77,1.02,1.41c-0.09,0.64-0.75,1.13-1.39,1.05"/>
		<path class="st4" d="M598.18,91.37c-0.31,0.03-0.63-0.12-0.82-0.37c-0.19-0.25-0.25-0.58-0.19-0.89c0.12-0.63,0.8-1.1,1.43-0.99
			s1.11,0.77,1.02,1.41c-0.09,0.64-0.75,1.13-1.39,1.05"/>
		<path class="st4" d="M592.4,96.08c-0.31,0.03-0.63-0.12-0.82-0.37c-0.19-0.25-0.25-0.58-0.19-0.89c0.12-0.63,0.8-1.1,1.43-0.99
			c0.63,0.11,1.11,0.77,1.02,1.41c-0.09,0.64-0.75,1.13-1.39,1.05"/>
		<path class="st4" d="M562.64,93.16c-0.31,0.03-0.63-0.12-0.82-0.37c-0.19-0.25-0.25-0.58-0.19-0.89c0.12-0.63,0.8-1.1,1.43-0.99
			c0.63,0.11,1.11,0.77,1.02,1.41c-0.09,0.64-0.75,1.13-1.39,1.05"/>
		<path class="st4" d="M593.18,97.09c-0.14,0-0.28-0.06-0.38-0.17c-0.18-0.21-0.16-0.52,0.04-0.71
			c8.27-7.28,15.21-11.96,23.98-16.16c0.25-0.12,0.55-0.01,0.67,0.24s0.01,0.55-0.24,0.67c-8.68,4.15-15.56,8.79-23.75,16.01
			C593.42,97.05,593.3,97.09,593.18,97.09z"/>
		<path class="st5" d="M269.64,328.64l-0.83-0.56c57.72-86.38,93.93-132.25,155.92-175.67c34.03-23.84,63.14-32.73,88.99-27.19
			c34.95,7.5,57.82,39.69,76.51,69.28c17.44,27.6,39.14,61.95,73.33,72.39l-0.29,0.96c-34.55-10.55-56.36-45.07-73.88-72.81
			c-18.58-29.41-41.3-61.42-75.88-68.83c-25.56-5.48-54.42,3.36-88.21,27.03C363.44,196.56,327.29,242.36,269.64,328.64z"/>
		<path class="st5" d="M861.77,685.01c-53.08,0-106.81-6.91-159.52-13.69l-5.33-0.68c-99.65-12.8-196.35-21.73-284.01,9.1
			l-0.33-0.94c40.3-14.18,85.62-21.08,138.46-21.08c0.7,0,1.39,0,2.09,0c48.44,0.17,97.66,5.98,143.92,11.92l5.33,0.69
			c93.07,11.97,189.31,24.34,279.45-1.67c37.3-10.76,63.27-26.37,79.41-47.69c20.03-26.47,25.89-64.82,15.69-102.58
			c-9.68-35.83-38.3-105.06-61.14-132l0.76-0.65c22.92,27.04,51.64,96.47,61.34,132.38c10.28,38.05,4.35,76.72-15.86,103.44
			c-16.27,21.5-42.41,37.22-79.92,48.05C942.88,680.94,902.51,685.01,861.77,685.01z"/>
		<line class="st6" x1="444.78" y1="592.5" x2="788.95" y2="592.5"/>
		<path id="XMLID_79_" class="st7" d="M547.49,122.8l-1.41,21.24c-0.14,2.17,1.41,4.08,3.56,4.38l15.3,5.93l0.86-15.49L547.49,122.8
			z"/>
		<path class="st8" d="M1051.62,420.63c-12.72-37.75-27.26-75.5-50.83-107.62c-23.56-32.12-57.34-58.41-96.55-65.42
			c-76.16-13.62-157.64,45.8-228.1,13.81c-50.64-22.99-74.12-85.54-124.62-108.85c-39.12-18.06-86.4-7.86-123.36,14.28
			c-36.96,22.14-66.17,54.81-96.67,85.25c-30.5,30.43-64.2,59.85-105.34,72.64c-22.25,6.92-45.93,8.7-67.85,16.61
			c-55.91,20.18-91.36,77.91-101.77,136.43c-3.87,21.75-4.9,43.77-4.15,65.87c0.65,18.89,15.48,69.6,53.94,101.25
			c58.66,48.27,129.19,91.54,205.05,87.53c42.31-2.24,82.03-19.81,122.04-33.75c98.77-34.4,204.89-47.54,309.07-38.26
			c43.9,3.91,87.54,11.74,131.61,11.97c23.83,0.12,48.2-0.9,70.93-8.22c68.69-22.13,126.06-58.02,130.15-112.11
			c0.09-1.14,0.16-2.27,0.22-3.41C1077.81,505.04,1065.57,462.02,1051.62,420.63z"/>
		<g>
			<defs>
				<path id="XMLID_54_" d="M811.2,549.91h-5.28V401.45h5.28c11.37,0,20.59,9.22,20.59,20.59v107.27
					C831.79,540.69,822.57,549.91,811.2,549.91z"/>
			</defs>
			<use xlink:href="#XMLID_54_"  style="overflow:visible;fill:#7E91FE;"/>
			<clipPath id="XMLID_4_">
				<use xlink:href="#XMLID_54_"  style="overflow:visible;"/>
			</clipPath>
			<rect x="805.92" y="398.54" class="st9" width="15.55" height="162.19"/>
		</g>
		<path class="st10" d="M769.72,267.16c0.08,1.91-1.2,4.04-3.11,4.17c-2.03,0.14-3.5-1.84-4.55-3.58c-0.09-0.15-0.18-0.3-0.27-0.45
			c2.04-1.93,4.06-3.84,6.05-5.74C768.66,263.6,769.69,266.51,769.72,267.16z"/>
		<g>
			<defs>
				<path id="SVGID_3_" d="M1051.62,420.63c-12.72-37.75-27.26-75.5-50.83-107.62c-23.56-32.12-57.34-58.41-96.55-65.42
					c-76.16-13.62-157.64,45.8-228.1,13.81c-50.64-22.99-74.12-85.54-124.62-108.85c-39.12-18.06-86.4-7.86-123.36,14.28
					c-36.96,22.14-66.17,54.81-96.67,85.25c-30.5,30.43-64.2,59.85-105.34,72.64c-22.25,6.92-45.93,8.7-67.85,16.61
					c-55.91,20.18-91.36,77.91-101.77,136.43c-3.87,21.75-4.9,43.77-4.15,65.87c0.65,18.89,15.48,69.6,53.94,101.25
					c58.66,48.27,129.19,91.54,205.05,87.53c42.31-2.24,82.03-19.81,122.04-33.75c98.77-34.4,204.89-47.54,309.07-38.26
					c43.9,3.91,87.54,11.74,131.61,11.97c23.83,0.12,48.2-0.9,70.93-8.22c68.69-22.13,126.06-58.02,130.15-112.11
					c0.09-1.14,0.16-2.27,0.22-3.41C1077.81,505.04,1065.57,462.02,1051.62,420.63z"/>
			</defs>
			<clipPath id="SVGID_4_">
				<use xlink:href="#SVGID_3_"  style="overflow:visible;"/>
			</clipPath>
			<g class="st11">
				<defs>
					<polygon id="XMLID_50_" points="816.83,361.75 816.83,668.72 387.99,715.96 387.99,361.75 					"/>
				</defs>
				<use xlink:href="#XMLID_50_"  style="overflow:visible;fill:#7E91FE;"/>
				<clipPath id="XMLID_5_">
					<use xlink:href="#XMLID_50_"  style="overflow:visible;"/>
				</clipPath>
				<rect x="375.79" y="353.15" class="st12" width="82.89" height="302.22"/>
				<rect x="460.55" y="572.07" class="st13" width="360.89" height="6.6"/>
				<path class="st12" d="M414.88,651.76c15.5,7.53,27.37,22.17,31.54,38.9c0.73,2.94,1.21,6.16-0.06,8.91
					c-1.59,3.45-5.42,5.17-8.94,6.6c-6.7,2.73-14.13,5.48-20.96,3.11c-6.08-2.11-10.26-8.05-11.68-14.33s-0.47-12.86,1.13-19.09
					c1.59-6.23,3.82-12.31,5-18.64"/>
				<path class="st12" d="M800.6,642.53c0,0-38.17,10.07-51.61,24.71s36.24,3.12,36.24,3.12L800.6,642.53"/>
			</g>
		</g>
		<g>
			<defs>
				<path id="XMLID_52_" d="M619.88,133.49c-4.13,2.85-10.09,5.55-14.81,6.17c-5.13,0.68-10.35,0.29-15.46-0.59
					c-4.68-0.82-9.4-2.1-13.35-4.75c-3.48-2.31-9.25-14.9-10.29-19.49c13.98-9.31,32.8-13.51,49.4-10.87
					C617.05,111.32,619.49,125.94,619.88,133.49z"/>
			</defs>
			<use xlink:href="#XMLID_52_"  style="overflow:visible;fill:#FFE19C;"/>
			<clipPath id="XMLID_6_">
				<use xlink:href="#XMLID_52_"  style="overflow:visible;"/>
			</clipPath>
		</g>
		<path class="st14" d="M617.29,153.23c-2.31,4-6.44,6.9-10.99,7.71c-0.61,0.11-1.22,0.2-1.84,0.26c-4,0.43-8.24-0.1-13.04-1.7
			c0,0-8.31-0.93-14.78-10.16c-6.04-8.64-10.53-23.39-11.09-25.29c-0.04-0.14-0.06-0.21-0.06-0.21c1.03-0.78-0.59-10.09,0.48-10.8
			c1.04,4.59,7.05,17.41,10.52,20.5c3.55,3.17,8.44,4.69,13.13,5.51c5.11,0.88,10.33,1.27,15.46,0.59
			c4.71-0.62,10.68-3.32,14.81-6.17c0.09,1.6,0.15,3.22,0.17,4.83C620.13,143.44,619.85,148.79,617.29,153.23z"/>
		<g>
			<defs>
				<path id="XMLID_51_" d="M605.14,187.66v0.1c-1.3,1.02-11.96,9.07-23.79,8.76c-4.72-0.12-8.74-1.65-11.92-3.52
					c-0.32-0.2-0.62-0.39-0.93-0.57c-4.26-2.73-6.8-5.91-7.26-6.51c0-0.03,0.01-0.06,0.01-0.09c1.57-14.48,3.14-28.96,4.71-43.44
					c-2.77,0.27-5.56,0.31-8.24-0.37c-3.92-1.01-7.62-3.99-8.21-7.98c-0.56-3.77,1.87-7.54,5.24-9.32c0.14-0.07,0.28-0.15,0.42-0.21
					c3.21-1.5,6.95-1.44,10.38-0.45c0.56,1.89,5.06,16.65,11.09,25.29c6.46,9.23,14.78,10.16,14.78,10.16
					c4.8,1.59,9.04,2.12,13.04,1.7C604.69,169.43,604.9,179.27,605.14,187.66z"/>
			</defs>
			<use xlink:href="#XMLID_51_"  style="overflow:visible;fill:#FFE19C;"/>
			<clipPath id="XMLID_7_">
				<use xlink:href="#XMLID_51_"  style="overflow:visible;"/>
			</clipPath>
			<path class="st15" d="M584.65,152.91c0,0,9.37,18.26,25.01,25.47c15.64,7.21-10.02-27.35-10.02-27.35L584.65,152.91z"/>
			<path class="st15" d="M549.3,135.16c3.84-2.77,8.64-4.17,13.36-3.88c1.72,0.11,3.78,0.29,4.84-1.06
				c0.84-1.07,0.59-2.72-0.29-3.76s-2.22-1.58-3.54-1.88c-3.24-0.73-6.75-0.22-9.65,1.39c-2.91,1.61-5.19,4.32-6.29,7.45"/>
		</g>
		<g>
			<defs>
				<path id="XMLID_49_" d="M808.91,220.29l-5.46,1.94c1.74-0.32,3.48-0.63,5.21-0.96c1.22-0.23,2.76-0.3,3.37,0.76
					c0.39,0.68,0.19,1.57-0.29,2.19c-0.48,0.62-1.17,1.02-1.85,1.4c-3.15,1.76-6.41,3.34-9.74,4.75c2.49-0.43,4.97-0.85,7.45-1.28
					c1.14-0.19,2.58-0.26,3.17,0.74c0.4,0.69,0.16,1.6-0.35,2.21c-0.52,0.6-1.26,0.97-1.97,1.32c-14.35,7.1-27.67,16.24-39.44,27.09
					c-0.39,0.37-0.78,0.75-1.18,1.12c-1.99,1.9-4.01,3.82-6.05,5.74c-6.23-10.27-12.46-20.55-18.68-30.83
					c5.32-4.6,9.97-9,13.55-13.06c2.1-2.38,16.5-23.45,19.72-22.11c3.17,1.31-1.87,14.1-1.99,14.4c0.76-0.25,29.22-9.93,35.45-6.54
					c2.83,1.54-1.7,3.99-7.54,6.22c2.35-0.41,4.71-0.82,7.07-1.22c1.03-0.18,2.2-0.33,3.04,0.29c1.12,0.83,1,2.67,0.1,3.76
					C811.62,219.31,810.24,219.82,808.91,220.29z"/>
			</defs>
			<use xlink:href="#XMLID_49_"  style="overflow:visible;fill:#FFE19C;"/>
			<clipPath id="XMLID_8_">
				<use xlink:href="#XMLID_49_"  style="overflow:visible;"/>
			</clipPath>
			<polyline class="st16" points="745.17,239.63 767.28,266.45 752.42,272.87 745.17,239.63 			"/>
		</g>
		<path class="st17" d="M569.43,193.01c-1.11,3.56-4.56,8.29-6.9,10.15c-2.78,2.21-6.03,3.72-9,5.64c-2.98,1.93-5.8,4.43-6.95,7.78
			c-0.43,1.23-0.61,2.52-0.75,3.81c-0.47,4.51-0.36,9.05,0.33,13.53c-4.18-0.34-9.28-0.7-13.28-1.06
			c-0.91-5.83,0.45-11.99,3.7-16.91c4.26-6.4,11.29-10.36,18.37-13.37c2.72-1.16,5.5-2.21,7.99-3.81c2.4-1.55,4.55-3.67,5.56-6.33
			C568.81,192.63,569.11,192.81,569.43,193.01z"/>
		<path class="st17" d="M766.61,271.33L665.1,352.4v9.35l-197.99,0c18.57-60.98,34.54-158.24,47.06-169.01
			c6.42-5.53,14.97-8.05,23.42-8.62c7.9-0.53,15.81,0.54,23.66,1.71c0,0.03-0.01,0.06-0.01,0.09c0.47,0.6,3.01,3.79,7.26,6.51
			c-1.01,2.65-3.15,4.78-5.56,6.33c-2.49,1.6-5.28,2.65-7.99,3.81c-7.08,3.01-14.11,6.97-18.37,13.37
			c-3.26,4.92-4.61,11.08-3.7,16.91c4,0.36,9.1,0.72,13.28,1.06c-0.7-4.47-0.8-9.02-0.33-13.53c0.14-1.29,0.32-2.58,0.75-3.81
			c1.16-3.35,3.98-5.86,6.95-7.78c2.98-1.93,6.22-3.43,9-5.64c2.34-1.85,5.79-6.59,6.9-10.15c3.17,1.86,7.19,3.39,11.92,3.52
			c11.83,0.31,22.49-7.74,23.79-8.76v-0.1c10.49-0.83,21.12,0.33,31.19,3.4c3.31,1.02,6.62,2.27,9.37,4.38
			c6.37,4.91,8.54,13.39,10.32,21.23c5,21.99,11.41,49.61,16.7,72.78c17.56-13.46,49.26-34.69,70.4-52.99
			c6.22,10.28,12.45,20.56,18.68,30.83c0.09,0.15,0.18,0.3,0.27,0.45C763.12,269.49,764.58,271.46,766.61,271.33z"/>
		<path class="st17" d="M458.68,569.84c-0.41,0-0.75-0.34-0.75-0.75V361.75c0-0.41,0.34-0.75,0.75-0.75s0.75,0.34,0.75,0.75v207.35
			C459.43,569.51,459.1,569.84,458.68,569.84z"/>
		<g>
			<path class="st17" d="M787.48,595.73h-45.18c-0.83,0-1.5-0.67-1.5-1.5s0.67-1.5,1.5-1.5h45.18c0.83,0,1.5,0.67,1.5,1.5
				S788.3,595.73,787.48,595.73z"/>
			<path class="st17" d="M787.48,605.93h-45.18c-0.83,0-1.5-0.67-1.5-1.5s0.67-1.5,1.5-1.5h45.18c0.83,0,1.5,0.67,1.5,1.5
				S788.3,605.93,787.48,605.93z"/>
			<path class="st17" d="M787.48,616.12h-45.18c-0.83,0-1.5-0.67-1.5-1.5s0.67-1.5,1.5-1.5h45.18c0.83,0,1.5,0.67,1.5,1.5
				S788.3,616.12,787.48,616.12z"/>
			<path class="st17" d="M787.48,626.32h-45.18c-0.83,0-1.5-0.67-1.5-1.5s0.67-1.5,1.5-1.5h45.18c0.83,0,1.5,0.67,1.5,1.5
				S788.3,626.32,787.48,626.32z"/>
		</g>
		<g>
			<defs>
				<rect id="XMLID_48_" x="302.66" y="554.78" width="157.89" height="100.58"/>
			</defs>
			<use xlink:href="#XMLID_48_"  style="overflow:visible;fill:#7E91FE;"/>
			<clipPath id="XMLID_9_">
				<use xlink:href="#XMLID_48_"  style="overflow:visible;"/>
			</clipPath>
			<rect x="293.22" y="539.72" class="st18" width="45.24" height="115.66"/>
		</g>
		<path class="st19" d="M422.34,608.11c0,6.69-2.54,12.78-6.72,17.37l-0.91,0.96c-4.67,4.65-11.12,7.51-18.23,7.51
			c-14.27,0-25.84-11.57-25.84-25.84c0-7.57,3.25-14.37,8.44-19.09l0.97-0.84c4.46-3.7,10.19-5.91,16.44-5.91
			C410.76,582.27,422.34,593.84,422.34,608.11z"/>
		<path class="st17" d="M460.55,690.56c-0.41,0-0.75-0.34-0.75-0.75V570.18c0-0.41,0.34-0.75,0.75-0.75s0.75,0.34,0.75,0.75v119.63
			C461.3,690.23,460.97,690.56,460.55,690.56z"/>
		<path class="st17" d="M816.83,572.82H460.55c-0.41,0-0.75-0.34-0.75-0.75s0.34-0.75,0.75-0.75h356.28c0.41,0,0.75,0.34,0.75,0.75
			S817.25,572.82,816.83,572.82z"/>
		<g>
			<defs>
				<path id="XMLID_47_" d="M416.3,621.18c3.76-4.13,6.05-9.62,6.05-15.64c0-12.85-10.43-23.27-23.28-23.27
					c-5.62,0-10.78,1.99-14.8,5.32L502.4,483.99h0.02c0.59,1.85,1.34,3.64,2.21,5.34l-4.51,5.81c-1.82,2.35-1.61,5.67,0.47,7.69
					l6.12,6.12c2.05,2.1,5.36,2.31,7.71,0.49l5.81-4.51c1.7,0.86,3.49,1.6,5.34,2.21l0.01,0.08L416.3,621.18z"/>
			</defs>
			<use xlink:href="#XMLID_47_"  style="overflow:visible;fill:#FFCB51;"/>
			<clipPath id="XMLID_10_">
				<use xlink:href="#XMLID_47_"  style="overflow:visible;"/>
			</clipPath>
			<path class="st20" d="M510.19,512.97c2.6,1.57,5.6,2.46,8.63,2.55c2.58,0.08,5.25-0.44,7.34-1.95c2.09-1.52,3.46-4.15,3.03-6.69
				c-0.41-2.38-2.25-4.26-4.21-5.68c-4.73-3.44-10.68-5.07-16.5-4.75c-1.51,0.08-3.01,0.3-4.48,0.64c-0.92,0.22-3.41,0.57-3.97,1.41
				c-0.97,1.46,2.37,6.18,3.21,7.47C505.04,508.75,507.34,511.24,510.19,512.97z"/>
		</g>
		<path class="st21" d="M628.81,506.95"/>
		<g>
			<defs>
				<path id="XMLID_46_" d="M620.67,516.28c-0.32,0.63-0.6,1.3-0.82,1.99l-2.71,0.34c-1.09,0.14-1.91,1.05-1.91,2.14v1.62
					l-45.27-16.89l2.65-2.65c2.1-2.04,2.32-5.36,0.49-7.71l-4.51-5.81c0.86-1.7,1.6-3.48,2.21-5.33l7.28-0.94
					c0.53-0.06,1.04-0.19,1.51-0.39l40.96,27.21l-1.37,1.37c-0.79,0.76-0.86,2-0.19,2.87L620.67,516.28z"/>
			</defs>
			<use xlink:href="#XMLID_46_"  style="overflow:visible;fill:#FFCB51;"/>
			<clipPath id="XMLID_11_">
				<use xlink:href="#XMLID_46_"  style="overflow:visible;"/>
			</clipPath>
			<path class="st22" d="M574.03,492.18c0.6,3.06,4.56,18.55,3.35,20.61c-1.21,2.06-4.73-4.36-6.43-2.68
				c-3.84-2.4-7.18-5.76-8.95-9.93c-1.77-4.17-1.81-9.17,0.45-13.09c1.56-2.69,0.06-7.8,3.56-6.96c1.95,0.47,4.1-6.72,3.93-5.24
				C569.68,477.21,573.09,487.43,574.03,492.18z"/>
			<path class="st22" d="M623.64,513.11c-1.34,0.81-18.75,9.11-19.48,10.04c-0.22,0.28,8.15-0.67,8.15-0.32
				c-0.01,0.67,0.72,1.07,1.35,1.31c1.3,0.51,2.72,1.02,4.04,0.59c0.51-0.17,0.97-0.46,1.42-0.76c0.81-0.53,1.62-1.06,2.43-1.58
				c0.37-0.24,0.76-0.51,0.92-0.92c0.15-0.39,0.07-0.82-0.02-1.23c-0.25-1.18-0.5-2.36-0.75-3.55"/>
		</g>
		<g>
			<defs>
				<path id="XMLID_45_" d="M649.91,523.15v-2.39c0-1.09-0.82-2.01-1.9-2.14l-2.72-0.34c-0.22-0.69-0.5-1.35-0.82-1.99l1.68-2.15
					c0.68-0.87,0.6-2.11-0.18-2.86l-2.27-2.28c-0.76-0.78-2-0.86-2.87-0.18l-2.15,1.68c-0.63-0.32-1.3-0.6-1.99-0.82l-0.34-2.72
					l46.94-56.69l1.94,1.95c1.47,1.51,3.85,1.65,5.55,0.34l4.16-3.24c1.23,0.62,2.51,1.16,3.84,1.59L649.91,523.15z"/>
			</defs>
			<use xlink:href="#XMLID_45_"  style="overflow:visible;fill:#FFCB51;"/>
			<clipPath id="XMLID_12_">
				<use xlink:href="#XMLID_45_"  style="overflow:visible;"/>
			</clipPath>
			<path class="st23" d="M643.69,508.99c1.93,3.57,15.99,21.21,10.92,19.14c-0.42-0.17-11.64-4.89-13.62-8.1
				c-0.54-0.88-0.95-1.88-0.89-2.9c0.07-1.14,0.72-2.19,1.57-2.96c0.84-0.78,1.86-1.32,2.87-1.86"/>
			<polyline class="st23" points="687.72,453.41 703.37,453.86 698.76,445.49 687.26,447.18 687.72,453.41 			"/>
		</g>
		<g>
			<defs>
				<path id="XMLID_44_" d="M764.78,481.37c-0.23,0.33-0.39,0.74-0.44,1.17l-0.43,3.37c-0.85,0.27-1.68,0.61-2.46,1.02l-2.68-2.08
					c-1.07-0.84-2.6-0.75-3.54,0.22l-1.96,1.96l-34.8-37.71l4.17,3.24c1.69,1.31,4.07,1.16,5.53-0.34l4.39-4.39
					c1.51-1.47,1.67-3.85,0.35-5.54l-3.24-4.17c0.62-1.22,1.16-2.51,1.58-3.84l1.35-0.17l1.31-0.17L764.78,481.37z"/>
			</defs>
			<use xlink:href="#XMLID_44_"  style="overflow:visible;fill:#FFCB51;"/>
			<clipPath id="XMLID_13_">
				<use xlink:href="#XMLID_44_"  style="overflow:visible;"/>
			</clipPath>
			<polyline class="st24" points="733.82,444.75 728.72,464.78 715.17,446.36 723.23,443.87 733.82,444.75 			"/>
			<polyline class="st24" points="747.53,486.23 770.49,479.21 762.07,491.91 750.01,488.51 			"/>
		</g>
		<g>
			<defs>
				<path id="XMLID_43_" d="M423.78,537.94h-0.89c-6.06,0-10.97-4.91-10.97-10.97V409.51c0-6.06,4.91-10.97,10.97-10.97h0.89
					c6.06,0,10.97,4.91,10.97,10.97v117.47C434.75,533.03,429.84,537.94,423.78,537.94z"/>
			</defs>
			<use xlink:href="#XMLID_43_"  style="overflow:visible;fill:#FFFFFF;"/>
			<clipPath id="XMLID_14_">
				<use xlink:href="#XMLID_43_"  style="overflow:visible;"/>
			</clipPath>
			<path class="st25" d="M433.06,404.01c-12.97-2.66-15.97,8.3-15.97,11.81s-0.25,103.22,0,106.56c0.25,3.34,0.88,11.52,14.94,11.52
				s-14.44,14.05-14.44,14.05l-20.67-8.23l5.18-47.99c0,0,3.45-66.16,3.72-67.66c0.28-1.5,3.77-26.72,3.77-26.72
				s13.23-11.24,13.73-10.62c0.51,0.63,15.49,4.43,15.49,4.43L433.06,404.01"/>
		</g>
		<path class="st26" d="M502.42,393.58h-20.17c-0.27,0-0.52-0.14-0.65-0.38c-0.13-0.23-0.13-0.52,0-0.75l10.09-17.47
			c0.27-0.46,1.03-0.46,1.3,0l10.09,17.47c0.13,0.23,0.13,0.52,0,0.75C502.93,393.44,502.68,393.58,502.42,393.58z M483.54,392.08
			h17.58l-8.79-15.22L483.54,392.08z"/>
		<path class="st17" d="M538.44,393.58c-5.22,0-9.47-4.25-9.47-9.47s4.25-9.47,9.47-9.47s9.47,4.25,9.47,9.47
			S543.67,393.58,538.44,393.58z M538.44,376.14c-4.4,0-7.97,3.58-7.97,7.97s3.58,7.97,7.97,7.97s7.97-3.58,7.97-7.97
			S542.84,376.14,538.44,376.14z"/>
		<g>
			<defs>
				<rect id="XMLID_42_" x="575.8" y="375.39" width="17.51" height="17.51"/>
			</defs>
			<clipPath id="XMLID_15_">
				<use xlink:href="#XMLID_42_"  style="overflow:visible;"/>
			</clipPath>
			<rect x="584.56" y="371.88" class="st27" width="13.48" height="27.91"/>
			
				<use xlink:href="#XMLID_42_"  style="overflow:visible;fill:none;stroke:#536DFE;stroke-width:1.5;stroke-linecap:round;stroke-linejoin:round;stroke-miterlimit:10;"/>
		</g>
		<circle class="st26" cx="630.67" cy="384.11" r="8.72"/>
		<g>
			<defs>
				<path id="XMLID_41_" d="M790.53,392.83h-22.52c-5.84,0-10.57-4.73-10.57-10.57v-0.86c0-5.84,4.73-10.57,10.57-10.57h22.52
					c5.84,0,10.57,4.73,10.57,10.57v0.86C801.1,388.1,796.36,392.83,790.53,392.83z"/>
			</defs>
			<clipPath id="XMLID_16_">
				<use xlink:href="#XMLID_41_"  style="overflow:visible;"/>
			</clipPath>
			<circle class="st28" cx="791.94" cy="382.37" r="13.99"/>
			
				<use xlink:href="#XMLID_41_"  style="overflow:visible;fill:none;stroke:#FFFFFF;stroke-width:1.5;stroke-linecap:round;stroke-linejoin:round;stroke-miterlimit:10;"/>
		</g>
		<path class="st29" d="M948.7,450.06c-0.12,0-0.24-0.03-0.36-0.09l-16.9-9.23h-99.65c-0.41,0-0.75-0.34-0.75-0.75
			s0.34-0.75,0.75-0.75h99.84c0.13,0,0.25,0.03,0.36,0.09l17.07,9.32c0.36,0.2,0.5,0.65,0.3,1.02
			C949.22,449.92,948.96,450.06,948.7,450.06z"/>
		<path class="st29" d="M893.07,483.42c-0.09,0-0.18-0.02-0.28-0.05l-17.6-6.94h-43.41c-0.41,0-0.75-0.34-0.75-0.75
			s0.34-0.75,0.75-0.75h43.55c0.09,0,0.19,0.02,0.28,0.05l17.73,6.99c0.38,0.15,0.57,0.59,0.42,0.97
			C893.65,483.24,893.37,483.42,893.07,483.42z"/>
		<path class="st29" d="M911.69,507.89h-79.9c-0.41,0-0.75-0.34-0.75-0.75s0.34-0.75,0.75-0.75h79.67l21.53-14.28
			c0.35-0.23,0.81-0.13,1.04,0.21c0.23,0.35,0.13,0.81-0.21,1.04l-21.72,14.41C911.98,507.84,911.84,507.89,911.69,507.89z"/>
		<path class="st29" d="M879.77,423.45c-0.18,0-0.37-0.07-0.51-0.2l-8.65-8.13h-40.58c-0.41,0-0.75-0.34-0.75-0.75
			s0.34-0.75,0.75-0.75h40.88c0.19,0,0.37,0.07,0.51,0.2l8.87,8.33c0.3,0.28,0.32,0.76,0.03,1.06
			C880.17,423.37,879.97,423.45,879.77,423.45z"/>
		<path class="st29" d="M948.7,543.57h-60.06c-0.2,0-0.38-0.08-0.53-0.21l-8.65-8.47h-48.43c-0.41,0-0.75-0.34-0.75-0.75
			s0.34-0.75,0.75-0.75h48.74c0.2,0,0.38,0.08,0.53,0.21l8.65,8.47h59.75c0.41,0,0.75,0.34,0.75,0.75S949.11,543.57,948.7,543.57z"
			/>
		<path class="st29" d="M910.58,440.73c-0.41,0-0.75-0.34-0.75-0.75v-20.39c0-0.28,0.16-0.54,0.41-0.67l29.7-15.29
			c0.37-0.19,0.82-0.04,1.01,0.32c0.19,0.37,0.04,0.82-0.32,1.01l-29.29,15.08v19.93C911.33,440.4,910.99,440.73,910.58,440.73z"/>
		<g>
			<path class="st30" d="M920.53,342.62h-6c-0.41,0-0.75-0.34-0.75-0.75s0.34-0.75,0.75-0.75h5.25v-5.25c0-0.41,0.34-0.75,0.75-0.75
				s0.75,0.34,0.75,0.75v6C921.28,342.28,920.95,342.62,920.53,342.62z"/>
		</g>
		<g>
			<path class="st30" d="M912.61,342.62h-0.96c-0.41,0-0.75-0.34-0.75-0.75s0.34-0.75,0.75-0.75h0.96c0.41,0,0.75,0.34,0.75,0.75
				S913.02,342.62,912.61,342.62z"/>
		</g>
		<g>
			<path class="st30" d="M910.44,342.62h-6c-0.41,0-0.75-0.34-0.75-0.75v-6c0-0.41,0.34-0.75,0.75-0.75s0.75,0.34,0.75,0.75v5.25
				h5.25c0.41,0,0.75,0.34,0.75,0.75S910.86,342.62,910.44,342.62z"/>
		</g>
		<g>
			<path class="st30" d="M904.44,328.99c-0.41,0-0.75-0.34-0.75-0.75v-3.81c0-0.41,0.34-0.75,0.75-0.75s0.75,0.34,0.75,0.75v3.81
				C905.19,328.65,904.86,328.99,904.44,328.99z"/>
		</g>
		<g>
			<path class="st30" d="M904.44,320.41c-0.41,0-0.75-0.34-0.75-0.75v-11.44c0-0.41,0.34-0.75,0.75-0.75s0.75,0.34,0.75,0.75v11.44
				C905.19,320.07,904.86,320.41,904.44,320.41z M904.44,301.34c-0.41,0-0.75-0.34-0.75-0.75v-3.81c0-0.41,0.34-0.75,0.75-0.75
				s0.75,0.34,0.75,0.75v3.81C905.19,301,904.86,301.34,904.44,301.34z"/>
		</g>
		<g>
			<path class="st30" d="M904.44,292.75c-0.41,0-0.75-0.34-0.75-0.75v-6c0-0.41,0.34-0.75,0.75-0.75h6c0.41,0,0.75,0.34,0.75,0.75
				s-0.34,0.75-0.75,0.75h-5.25V292C905.19,292.42,904.86,292.75,904.44,292.75z"/>
		</g>
		<g>
			<path class="st30" d="M913.33,286.75h-0.96c-0.41,0-0.75-0.34-0.75-0.75s0.34-0.75,0.75-0.75h0.96c0.41,0,0.75,0.34,0.75,0.75
				S913.74,286.75,913.33,286.75z"/>
		</g>
		<g>
			<path class="st30" d="M920.53,292.75c-0.41,0-0.75-0.34-0.75-0.75v-5.25h-5.25c-0.41,0-0.75-0.34-0.75-0.75s0.34-0.75,0.75-0.75
				h6c0.41,0,0.75,0.34,0.75,0.75v6C921.28,292.42,920.95,292.75,920.53,292.75z"/>
		</g>
		<g>
			<path class="st30" d="M920.53,304.2c-0.41,0-0.75-0.34-0.75-0.75v-3.81c0-0.41,0.34-0.75,0.75-0.75s0.75,0.34,0.75,0.75v3.81
				C921.28,303.86,920.95,304.2,920.53,304.2z"/>
		</g>
		<g>
			<path class="st30" d="M920.53,331.85c-0.41,0-0.75-0.34-0.75-0.75v-3.81c0-0.41,0.34-0.75,0.75-0.75s0.75,0.34,0.75,0.75v3.81
				C921.28,331.51,920.95,331.85,920.53,331.85z M920.53,320.41c-0.41,0-0.75-0.34-0.75-0.75v-11.44c0-0.41,0.34-0.75,0.75-0.75
				s0.75,0.34,0.75,0.75v11.44C921.28,320.07,920.95,320.41,920.53,320.41z"/>
		</g>
		<g>
			<defs>
				<circle id="XMLID_55_" cx="1024.43" cy="549.96" r="35.78"/>
			</defs>
			<use xlink:href="#XMLID_55_"  style="overflow:visible;fill:#C9E8D2;"/>
			<clipPath id="XMLID_17_">
				<use xlink:href="#XMLID_55_"  style="overflow:visible;"/>
			</clipPath>
			<path class="st31" d="M1021.95,531.03c0,0,7.84,33.44,48.54,42.52c40.7,9.08-22.46-36.22-22.46-36.22L1021.95,531.03z"/>
		</g>
		<rect x="874.34" y="311.46" class="st32" width="16.09" height="30.41"/>
		<rect x="934.55" y="269.98" class="st32" width="16.09" height="71.89"/>
		<g>
			<path class="st30" d="M980.74,342.62h-6c-0.41,0-0.75-0.34-0.75-0.75s0.34-0.75,0.75-0.75h5.25v-5.25c0-0.41,0.34-0.75,0.75-0.75
				s0.75,0.34,0.75,0.75v6C981.49,342.28,981.16,342.62,980.74,342.62z"/>
		</g>
		<g>
			<path class="st30" d="M972.82,342.62h-0.96c-0.41,0-0.75-0.34-0.75-0.75s0.34-0.75,0.75-0.75h0.96c0.41,0,0.75,0.34,0.75,0.75
				S973.23,342.62,972.82,342.62z"/>
		</g>
		<g>
			<path class="st30" d="M970.66,342.62h-6c-0.41,0-0.75-0.34-0.75-0.75v-6c0-0.41,0.34-0.75,0.75-0.75s0.75,0.34,0.75,0.75v5.25
				h5.25c0.41,0,0.75,0.34,0.75,0.75S971.07,342.62,970.66,342.62z"/>
		</g>
		<g>
			<path class="st30" d="M964.66,327.82c-0.41,0-0.75-0.34-0.75-0.75v-4.4c0-0.41,0.34-0.75,0.75-0.75s0.75,0.34,0.75,0.75v4.4
				C965.41,327.48,965.07,327.82,964.66,327.82z"/>
		</g>
		<g>
			<path class="st30" d="M964.66,317.92c-0.41,0-0.75-0.34-0.75-0.75v-13.2c0-0.41,0.34-0.75,0.75-0.75s0.75,0.34,0.75,0.75v13.2
				C965.41,317.58,965.07,317.92,964.66,317.92z M964.66,295.92c-0.41,0-0.75-0.34-0.75-0.75v-4.4c0-0.41,0.34-0.75,0.75-0.75
				s0.75,0.34,0.75,0.75v4.4C965.41,295.58,965.07,295.92,964.66,295.92z M964.66,286.02c-0.41,0-0.75-0.34-0.75-0.75v-13.2
				c0-0.41,0.34-0.75,0.75-0.75s0.75,0.34,0.75,0.75v13.2C965.41,285.68,965.07,286.02,964.66,286.02z M964.66,264.02
				c-0.41,0-0.75-0.34-0.75-0.75v-4.4c0-0.41,0.34-0.75,0.75-0.75s0.75,0.34,0.75,0.75v4.4
				C965.41,263.69,965.07,264.02,964.66,264.02z"/>
		</g>
		<g>
			<path class="st30" d="M964.66,254.12c-0.41,0-0.75-0.34-0.75-0.75v-6c0-0.41,0.34-0.75,0.75-0.75h6c0.41,0,0.75,0.34,0.75,0.75
				s-0.34,0.75-0.75,0.75h-5.25v5.25C965.41,253.79,965.07,254.12,964.66,254.12z"/>
		</g>
		<g>
			<path class="st30" d="M973.54,248.12h-0.96c-0.41,0-0.75-0.34-0.75-0.75s0.34-0.75,0.75-0.75h0.96c0.41,0,0.75,0.34,0.75,0.75
				S973.96,248.12,973.54,248.12z"/>
		</g>
		<g>
			<path class="st30" d="M980.74,254.12c-0.41,0-0.75-0.34-0.75-0.75v-5.25h-5.25c-0.41,0-0.75-0.34-0.75-0.75s0.34-0.75,0.75-0.75
				h6c0.41,0,0.75,0.34,0.75,0.75v6C981.49,253.79,981.16,254.12,980.74,254.12z"/>
		</g>
		<g>
			<path class="st30" d="M980.74,267.32c-0.41,0-0.75-0.34-0.75-0.75v-4.4c0-0.41,0.34-0.75,0.75-0.75s0.75,0.34,0.75,0.75v4.4
				C981.49,266.99,981.16,267.32,980.74,267.32z"/>
		</g>
		<g>
			<path class="st30" d="M980.74,331.12c-0.41,0-0.75-0.34-0.75-0.75v-4.4c0-0.41,0.34-0.75,0.75-0.75s0.75,0.34,0.75,0.75v4.4
				C981.49,330.78,981.16,331.12,980.74,331.12z M980.74,317.92c-0.41,0-0.75-0.34-0.75-0.75v-13.2c0-0.41,0.34-0.75,0.75-0.75
				s0.75,0.34,0.75,0.75v13.2C981.49,317.58,981.16,317.92,980.74,317.92z M980.74,299.22c-0.41,0-0.75-0.34-0.75-0.75v-4.4
				c0-0.41,0.34-0.75,0.75-0.75s0.75,0.34,0.75,0.75v4.4C981.49,298.88,981.16,299.22,980.74,299.22z M980.74,286.02
				c-0.41,0-0.75-0.34-0.75-0.75v-13.2c0-0.41,0.34-0.75,0.75-0.75s0.75,0.34,0.75,0.75v13.2
				C981.49,285.68,981.16,286.02,980.74,286.02z"/>
		</g>
		<circle class="st30" cx="940.28" cy="404.3" r="4.2"/>
		<circle class="st30" cx="948.67" cy="448.84" r="4.2"/>
		<circle class="st30" cx="879.77" cy="422.7" r="4.2"/>
		<circle class="st30" cx="893.07" cy="482.67" r="4.2"/>
		<circle class="st30" cx="933.41" cy="492.73" r="4.2"/>
		<circle class="st30" cx="948.7" cy="542.82" r="4.2"/>
		<g>
			<path class="st33" d="M1061.68,170.89v-21.43c0-1.61-0.86-3.1-2.25-3.9l-18.56-10.72c-1.39-0.8-3.11-0.8-4.5,0l-18.56,10.72
				c-1.39,0.8-2.25,2.29-2.25,3.9v21.43c0,1.61,0.86,3.1,2.25,3.9l18.56,10.72c1.39,0.8,3.11,0.8,4.5,0l18.56-10.72
				C1060.82,173.99,1061.68,172.5,1061.68,170.89z"/>
			<path class="st5" d="M1007.85,134.19l-0.75-1.3l28.05-16.19c2.14-1.24,4.81-1.24,6.95,0l25.89,14.95l-0.75,1.3L1041.34,118
				c-1.68-0.97-3.77-0.97-5.45,0L1007.85,134.19z"/>
			<path class="st5" d="M1047.49,200.53l-0.75-1.3l27.04-15.61c1.68-0.97,2.73-2.78,2.73-4.72v-31.68h1.5v31.68
				c0,2.48-1.33,4.78-3.48,6.02L1047.49,200.53z"/>
			<path class="st5" d="M1027.79,199.41l-25.08-14.48c-2.14-1.24-3.48-3.54-3.48-6.02v-34.25h1.5v34.25c0,1.94,1.04,3.75,2.73,4.72
				l25.08,14.48L1027.79,199.41z"/>
			<circle class="st33" cx="1005.9" cy="135.76" r="3.48"/>
			<circle class="st33" cx="1030.55" cy="199.88" r="3.48"/>
			<circle class="st33" cx="1077.26" cy="145.5" r="3.48"/>
		</g>
		<g>
			<path class="st30" d="M1094.3,538.93c-16.03,16.62-42.23,19.46-61.6,5.66c-6.11-4.35-10.87-9.89-14.21-16.08l41.73-22.54
				L1094.3,538.93z"/>
			<path class="st34" d="M1060.22,505.98l-41.73,22.54c-3.06-5.68-4.91-11.91-5.49-18.26L1060.22,505.98z"/>
			<path class="st35" d="M1060.22,505.98l-47.22,4.28c-0.99-10.89,1.76-22.19,8.6-31.79c10.85-15.22,29.03-22.11,46.3-19.28
				L1060.22,505.98z"/>
			<path class="st36" d="M1060.22,505.97"/>
			<path class="st34" d="M1098.83,533.49c-1.39,1.95-2.9,3.77-4.52,5.45l-34.08-32.95l29.38-37.22
				C1109.34,484.31,1113.57,512.79,1098.83,533.49z"/>
			<path class="st37" d="M1096.98,459.41l-7.38,9.35l-29.38,37.22l7.69-46.79l0-0.02l1.5-11.51
				C1079.65,446.67,1088.76,450.93,1096.98,459.41z"/>
		</g>
		<g>
			<path class="st29" d="M161.24,446.96c-4.78,5.15-11.02,12.85-16.22,18.71c-5.12-2.36-8.06-10.06-6.35-15.43
				c0.65-1.99,1.63-3.81,2.85-5.5C148.14,444.41,154.75,445.26,161.24,446.96z"/>
			<path class="st29" d="M145.02,466.17c-0.07,0-0.14-0.01-0.21-0.05c-5.26-2.42-8.47-10.22-6.62-16.04
				c0.62-1.92,1.61-3.81,2.92-5.64c0.09-0.12,0.23-0.2,0.38-0.21c6.3-0.32,12.99,0.43,19.88,2.23c0.17,0.04,0.3,0.17,0.35,0.34
				s0.01,0.35-0.11,0.48c-2.75,2.96-6.05,6.85-9.25,10.61c-2.34,2.76-4.77,5.61-6.97,8.1C145.3,466.11,145.16,466.17,145.02,466.17z
				 M141.79,445.23c-1.18,1.68-2.07,3.42-2.64,5.17c-1.65,5.16,1.19,12.28,5.75,14.66c2.13-2.41,4.45-5.14,6.7-7.8
				c2.98-3.51,6.06-7.14,8.71-10.03C153.89,445.63,147.67,444.96,141.79,445.23z"/>
		</g>
		<g>
			<path class="st17" d="M396.93,457.93c0,0-3.19,5.41-4.6,7.01c-18.43,20.73-43.65,35.42-70.92,40.53
				c-27.26,5.1-56.21,0.76-80.79-12.12c-17.59-9.21-32.7-22.47-49.55-32.97c-9.22-5.75-19.34-10.68-29.81-13.42l-0.01,0
				c-6.49-1.7-13.1-2.55-19.72-2.21c2.23-3.16,5.23-5.89,8.15-8.5c8.83-7.87,17.64-15.74,26.48-23.61
				c9.31-1.55,19.16,0.06,28.06,3.45c11.57,4.41,21.82,11.6,31.95,18.69c10.14,7.08,20.44,14.23,32.05,18.52
				c16.99,6.28,35.97,6.01,53.49,1.37c17.5-4.65,33.68-13.46,48.51-23.87l-0.69,11.39l9.47-0.35l-2.07,9.75l16.22-5.06l-4.24,12.07
				L396.93,457.93z"/>
			<path class="st29" d="M298.62,508.08c-20.17,0-40.25-4.86-58.23-14.28c-10.45-5.47-20.18-12.48-29.59-19.26
				c-6.46-4.65-13.14-9.47-19.99-13.74c-10.27-6.41-20.26-10.9-29.67-13.36c-6.8-1.78-13.39-2.52-19.59-2.2
				c-0.2,0.03-0.37-0.09-0.46-0.26c-0.09-0.17-0.08-0.37,0.03-0.53c2.34-3.31,5.6-6.23,8.23-8.58l5.05-4.51
				c7.14-6.37,14.27-12.73,21.42-19.1c0.07-0.06,0.16-0.1,0.25-0.12c8.75-1.46,18.54-0.25,28.32,3.47
				c11.59,4.42,21.95,11.67,31.96,18.68l0.09,0.07c9.96,6.95,20.25,14.14,31.93,18.46c15.93,5.89,34.32,6.36,53.18,1.35
				c15.65-4.16,31.47-11.94,48.35-23.79c0.16-0.11,0.36-0.12,0.53-0.03c0.17,0.09,0.27,0.28,0.25,0.47l-0.66,10.84l8.92-0.33
				c0.14-0.01,0.3,0.06,0.4,0.18c0.1,0.12,0.14,0.27,0.11,0.43l-1.9,8.91l15.4-4.8c0.18-0.05,0.38-0.01,0.51,0.13
				c0.13,0.14,0.17,0.33,0.11,0.51l-3.99,11.34l7.29-0.6c0.19-0.01,0.37,0.07,0.46,0.23c0.1,0.16,0.1,0.36,0.01,0.52
				c-0.13,0.22-3.23,5.47-4.66,7.09c-18.81,21.16-44.1,35.61-71.2,40.69C313.93,507.38,306.27,508.08,298.62,508.08z M144.37,444.17
				c5.44,0,11.15,0.77,17,2.3c9.53,2.49,19.61,7.03,29.96,13.49c6.88,4.29,13.58,9.11,20.05,13.77
				c9.38,6.76,19.08,13.75,29.47,19.18c24.59,12.89,53.17,17.17,80.46,12.07c26.89-5.04,51.97-19.38,70.64-40.37
				c1.04-1.17,3.1-4.53,4.05-6.1l-7.08,0.58c-0.17,0.01-0.33-0.06-0.44-0.19c-0.1-0.13-0.13-0.31-0.08-0.47l3.91-11.13l-15.26,4.76
				c-0.17,0.05-0.35,0.01-0.49-0.11c-0.13-0.12-0.19-0.3-0.15-0.47l1.94-9.12l-8.83,0.32c-0.15,0-0.28-0.05-0.38-0.15
				c-0.1-0.1-0.15-0.24-0.14-0.38l0.63-10.35c-16.66,11.59-32.31,19.23-47.82,23.35c-19.07,5.06-37.67,4.58-53.79-1.38
				c-11.8-4.37-22.15-11.59-32.16-18.58l-0.1-0.07c-9.97-6.98-20.27-14.2-31.75-18.57c-9.56-3.65-19.12-4.84-27.66-3.44
				c-7.12,6.34-14.21,12.67-21.32,19l-5.05,4.51c-2.36,2.11-5.25,4.7-7.46,7.58C143.15,444.18,143.76,444.17,144.37,444.17z"/>
		</g>
		<g>
			<defs>
				<path id="XMLID_40_" d="M419.87,276.06c-7.37,11.14-18.56,23.98-27.98,33.14c-9.14-2.54-18.76-7.21-26.31-12.78
					c10.96-7.62,20.98-19.26,29.15-29.74C402.21,270.81,411.36,274.75,419.87,276.06z"/>
			</defs>
			<use xlink:href="#XMLID_40_"  style="overflow:visible;fill:#FFFFFF;"/>
			<clipPath id="XMLID_18_">
				<use xlink:href="#XMLID_40_"  style="overflow:visible;"/>
			</clipPath>
			<g class="st38">
				<path class="st39" d="M410.54,282.03c-0.04,0-0.09-0.01-0.13-0.02c-6.09-1.64-11.95-4.1-17.39-7.3
					c-0.24-0.14-0.32-0.45-0.18-0.68c0.14-0.24,0.45-0.32,0.68-0.18c5.37,3.15,11.14,5.57,17.15,7.19c0.27,0.07,0.42,0.35,0.35,0.61
					C410.96,281.88,410.76,282.03,410.54,282.03z"/>
				<path class="st39" d="M405.6,288c-0.05,0-0.09-0.01-0.14-0.02c-6.11-1.79-11.78-4.65-16.85-8.48c-0.22-0.17-0.26-0.48-0.1-0.7
					c0.17-0.22,0.48-0.27,0.7-0.1c4.98,3.76,10.54,6.56,16.53,8.32c0.27,0.08,0.42,0.36,0.34,0.62
					C406.02,287.86,405.82,288,405.6,288z"/>
				<path class="st39" d="M398.09,293.45c-0.09,0-0.17-0.02-0.25-0.07l-13.28-7.79c-0.24-0.14-0.32-0.45-0.18-0.68
					c0.14-0.24,0.45-0.32,0.68-0.18l13.28,7.79c0.24,0.14,0.32,0.45,0.18,0.68C398.43,293.36,398.27,293.45,398.09,293.45z"/>
				<path class="st39" d="M379.24,299.44c-0.3,0-0.59-0.04-0.88-0.12c-1.45-0.41-2.4-1.39-2.62-2.68c-0.22-1.35,0.42-2.85,1.56-3.63
					c1.1-0.76,2.46-0.76,3.75-0.01l0,0c1.46,0.85,2.1,2.8,1.45,4.35C381.96,298.61,380.61,299.44,379.24,299.44z M379.12,293.43
					c-0.44,0-0.87,0.13-1.25,0.39c-0.83,0.58-1.3,1.66-1.14,2.65c0.15,0.91,0.83,1.58,1.91,1.88c1.13,0.32,2.48-0.32,2.94-1.41
					c0.46-1.08-0.01-2.5-1.03-3.09l0,0C380.06,293.57,379.58,293.43,379.12,293.43z"/>
			</g>
			
				<use xlink:href="#XMLID_40_"  style="overflow:visible;fill:none;stroke:#888888;stroke-linecap:round;stroke-linejoin:round;stroke-miterlimit:10;"/>
		</g>
		<path class="st37" d="M291.06,306.07c-2.91,10.62-8.27,20.55-15.51,28.84c-9.97-0.99-19.77-3.58-28.67-8.14
			c-13.06-6.69-25.22-19.38-30.59-33.15c9.06-3.1,18.61-8.52,25.98-14.73C253.02,293.8,272.74,305.28,291.06,306.07z"/>
		<g>
			<defs>
				<path id="XMLID_39_" d="M146.59,370.2c-12.08,14.48-27.69,28.01-43.75,37.91c-5.41-9.45-10.84-18.89-16.25-28.34
					c14.29-11.99,28.01-24.63,41.15-37.87C133.82,351.04,140.47,361.02,146.59,370.2z"/>
			</defs>
			<use xlink:href="#XMLID_39_"  style="overflow:visible;fill:#FFFFFF;"/>
			<clipPath id="XMLID_19_">
				<use xlink:href="#XMLID_39_"  style="overflow:visible;"/>
			</clipPath>
			<g class="st40">
				<polyline class="st17" points="127.74,341.89 117.59,371.01 86.59,379.77 				"/>
				<path class="st39" d="M86.59,380.27c-0.22,0-0.42-0.14-0.48-0.36c-0.08-0.27,0.08-0.54,0.35-0.62l30.75-8.68l10.06-28.87
					c0.09-0.26,0.38-0.4,0.64-0.31c0.26,0.09,0.4,0.38,0.31,0.64l-10.15,29.12c-0.05,0.15-0.18,0.27-0.34,0.32l-31,8.75
					C86.68,380.26,86.63,380.27,86.59,380.27z"/>
			</g>
			
				<use xlink:href="#XMLID_39_"  style="overflow:visible;fill:none;stroke:#888888;stroke-linecap:round;stroke-linejoin:round;stroke-miterlimit:10;"/>
		</g>
		<path class="st41" d="M192.21,538.74l15.98,28.14c0.83,1.47,0.32,3.33-1.15,4.16l-59.06,33.53c-1.47,0.83-3.33,0.32-4.16-1.15
			l-19.5-34.34c-0.83-1.47-0.32-3.33,1.15-4.16l27.64-15.69l6.99,4.23l27.95-15.87C189.51,536.76,191.38,537.27,192.21,538.74z"/>
		<path class="st34" d="M183.8,231.21l-19.13,38.12c-0.76,1.51-2.59,2.12-4.1,1.36l-78.4-39.34c-1.51-0.76-2.12-2.59-1.36-4.1
			l23.18-46.2c0.76-1.51,2.59-2.12,4.1-1.36l3.5,1.76l33.23,16.67l0.46,10.35l18.53,9.3l7.57,3.8l11.05,5.54
			C183.95,227.86,184.56,229.7,183.8,231.21z"/>
		<polygon class="st37" points="172.44,206.25 163.83,217.77 145.3,208.47 144.83,198.11 111.6,181.44 122,169.02 126.47,172.32 		
			"/>
		<polygon class="st37" points="185.18,208.89 171.4,221.57 163.83,217.77 172.44,206.25 126.47,172.32 135.66,167.04 		"/>
		<path class="st30" d="M261.15,119.74c-0.19,0-0.37-0.07-0.52-0.21c-1.13-1.07-2.28-2.14-3.44-3.18c-0.31-0.28-0.33-0.75-0.06-1.06
			c0.28-0.31,0.75-0.34,1.06-0.06c1.17,1.05,2.34,2.13,3.48,3.21c0.3,0.29,0.31,0.76,0.03,1.06
			C261.55,119.66,261.35,119.74,261.15,119.74z M253.92,113.26c-0.17,0-0.34-0.06-0.48-0.18c-1.02-0.85-2.04-1.69-3.08-2.52
			c-0.32-0.26-0.38-0.73-0.12-1.05c0.26-0.32,0.73-0.38,1.05-0.12c1.05,0.84,2.08,1.68,3.11,2.55c0.32,0.27,0.36,0.74,0.09,1.06
			C254.34,113.17,254.13,113.26,253.92,113.26z M244.44,105.9c-0.15,0-0.3-0.05-0.44-0.14c-3.22-2.31-6.57-4.53-9.96-6.59
			c-0.35-0.22-0.47-0.68-0.25-1.03c0.22-0.35,0.68-0.47,1.03-0.25c3.42,2.08,6.81,4.32,10.05,6.65c0.34,0.24,0.41,0.71,0.17,1.05
			C244.91,105.79,244.68,105.9,244.44,105.9z M230.13,96.75c-0.13,0-0.25-0.03-0.37-0.1c-1.15-0.65-2.32-1.29-3.49-1.92
			c-0.37-0.19-0.5-0.65-0.31-1.01c0.2-0.37,0.65-0.5,1.01-0.31c1.18,0.63,2.36,1.28,3.52,1.94c0.36,0.2,0.49,0.66,0.28,1.02
			C230.64,96.62,230.39,96.75,230.13,96.75z M219.47,91.25c-0.11,0-0.22-0.02-0.32-0.07c-3.6-1.69-7.3-3.25-11-4.65
			c-0.39-0.15-0.58-0.58-0.44-0.97c0.15-0.39,0.58-0.58,0.97-0.44c3.73,1.41,7.47,3,11.1,4.7c0.38,0.18,0.54,0.62,0.36,1
			C220.02,91.09,219.75,91.25,219.47,91.25z M203.72,84.87c-0.08,0-0.16-0.01-0.25-0.04l-0.11-0.04c-1.23-0.43-2.46-0.86-3.68-1.32
			c-0.39-0.15-0.58-0.58-0.44-0.97c0.15-0.39,0.58-0.58,0.97-0.44c1.2,0.46,2.42,0.88,3.64,1.3l0.11,0.04
			c0.39,0.14,0.6,0.56,0.46,0.95C204.32,84.68,204.03,84.87,203.72,84.87z M155.52,82.97C155.52,82.97,155.51,82.97,155.52,82.97
			c-3.91-0.05-7.97-0.32-12.06-0.82c-0.41-0.05-0.7-0.42-0.65-0.83s0.42-0.7,0.83-0.65c4.03,0.49,8.03,0.76,11.89,0.81
			c0.41,0,0.75,0.34,0.74,0.76C156.26,82.64,155.93,82.97,155.52,82.97z M163.51,82.74c-0.39,0-0.72-0.3-0.75-0.7
			c-0.03-0.41,0.28-0.77,0.69-0.8c1.32-0.09,2.65-0.22,3.95-0.37c0.41-0.05,0.78,0.25,0.83,0.66c0.05,0.41-0.25,0.78-0.66,0.83
			c-1.32,0.15-2.67,0.28-4.02,0.38C163.55,82.74,163.53,82.74,163.51,82.74z M172.44,81.63c-0.36,0-0.67-0.25-0.74-0.62
			c-0.07-0.41,0.2-0.8,0.61-0.87c4-0.72,7.85-1.74,11.47-3.04c0.39-0.14,0.82,0.06,0.96,0.45c0.14,0.39-0.06,0.82-0.45,0.96
			c-3.69,1.32-7.63,2.37-11.71,3.1C172.53,81.62,172.48,81.63,172.44,81.63z M138.6,81.45c-0.04,0-0.08,0-0.12-0.01
			c-1.32-0.22-2.64-0.45-3.96-0.7c-0.41-0.08-0.67-0.47-0.6-0.88c0.08-0.41,0.47-0.67,0.88-0.6c1.3,0.25,2.61,0.48,3.92,0.69
			c0.41,0.07,0.69,0.45,0.62,0.86C139.28,81.19,138.96,81.45,138.6,81.45z M192.8,79.98c-0.15,0-0.29-0.04-0.42-0.13
			c-2.49-1.71-5.71-4.64-6.88-8.94c-0.09-0.35-0.17-0.71-0.23-1.07c-0.07-0.41,0.21-0.79,0.62-0.86c0.41-0.07,0.79,0.21,0.86,0.62
			c0.05,0.31,0.12,0.62,0.2,0.92c1.04,3.85,3.99,6.53,6.27,8.09c0.34,0.23,0.43,0.7,0.19,1.04
			C193.27,79.87,193.04,79.98,192.8,79.98z M126.85,79.06c-0.06,0-0.12-0.01-0.18-0.02c-3.63-0.88-7.43-1.9-11.62-3.15
			c-0.4-0.12-0.62-0.54-0.51-0.93c0.12-0.4,0.54-0.62,0.93-0.51c4.16,1.23,7.94,2.26,11.54,3.13c0.4,0.1,0.65,0.5,0.55,0.9
			C127.49,78.83,127.19,79.06,126.85,79.06z M191.37,75.4c-0.27,0-0.54-0.15-0.67-0.41c-0.19-0.37-0.04-0.82,0.33-1.01
			c0.46-0.23,0.92-0.47,1.37-0.72c0.71-0.38,1.38-0.79,2.01-1.22c0.34-0.23,0.81-0.15,1.04,0.19s0.15,0.81-0.19,1.04
			c-0.67,0.46-1.39,0.9-2.14,1.3c-0.47,0.25-0.94,0.5-1.41,0.74C191.6,75.38,191.49,75.4,191.37,75.4z M110.48,74.46
			c-0.07,0-0.15-0.01-0.22-0.03c-1.27-0.4-2.55-0.8-3.82-1.21c-0.39-0.13-0.61-0.55-0.48-0.94c0.13-0.39,0.55-0.61,0.94-0.48
			c1.27,0.41,2.54,0.81,3.81,1.21c0.4,0.12,0.62,0.54,0.49,0.94C111.1,74.26,110.8,74.46,110.48,74.46z M99.07,70.76
			c-0.08,0-0.16-0.01-0.24-0.04l-3.24-1.08c-2.72-0.9-5.43-1.81-8.15-2.7c-0.39-0.13-0.61-0.55-0.48-0.95
			c0.13-0.39,0.55-0.61,0.95-0.48c2.72,0.89,5.44,1.79,8.16,2.7l3.24,1.08c0.39,0.13,0.61,0.56,0.48,0.95
			C99.68,70.56,99.38,70.76,99.07,70.76z M198.49,70.03c-0.15,0-0.31-0.05-0.44-0.15c-0.33-0.25-0.4-0.72-0.16-1.05
			c0.92-1.24,1.38-2.5,1.38-3.74c0-0.33-0.03-0.66-0.1-0.99c-0.34-1.71-1.71-3.12-3.67-3.78c-0.39-0.13-0.6-0.56-0.47-0.95
			s0.55-0.61,0.95-0.47c2.48,0.83,4.23,2.67,4.67,4.91c0.08,0.43,0.13,0.86,0.13,1.28c0,1.57-0.56,3.13-1.68,4.63
			C198.95,69.92,198.72,70.03,198.49,70.03z M186.38,65.54c-0.08,0-0.15-0.01-0.23-0.04c-0.39-0.13-0.61-0.55-0.48-0.95
			c0.46-1.42,1.22-2.71,2.17-3.71c0.29-0.3,0.76-0.31,1.06-0.02c0.3,0.29,0.31,0.76,0.02,1.06c-0.8,0.84-1.44,1.92-1.83,3.14
			C186.99,65.33,186.7,65.54,186.38,65.54z M82.92,65.45c-0.07,0-0.15-0.01-0.23-0.04c-1.27-0.4-2.54-0.8-3.81-1.18
			c-0.4-0.12-0.62-0.54-0.5-0.94c0.12-0.4,0.54-0.62,0.94-0.5c1.28,0.39,2.56,0.79,3.83,1.19c0.4,0.12,0.61,0.55,0.49,0.94
			C83.53,65.25,83.24,65.45,82.92,65.45z M71.41,62.04c-0.07,0-0.13-0.01-0.2-0.03c-4.12-1.13-7.92-2.05-11.61-2.82
			c-0.41-0.08-0.67-0.48-0.58-0.89c0.08-0.41,0.48-0.67,0.89-0.58c3.72,0.78,7.55,1.71,11.7,2.84c0.4,0.11,0.63,0.52,0.52,0.92
			C72.05,61.82,71.74,62.04,71.41,62.04z M54.85,58.26c-0.04,0-0.09,0-0.13-0.01c-1.31-0.23-2.62-0.44-3.93-0.63
			c-0.41-0.06-0.69-0.44-0.63-0.85c0.06-0.41,0.44-0.7,0.85-0.63c1.33,0.19,2.65,0.4,3.97,0.63c0.41,0.07,0.68,0.46,0.61,0.87
			C55.52,58,55.2,58.26,54.85,58.26z M42.95,56.74c-0.02,0-0.04,0-0.06,0c-4.08-0.32-8.09-0.39-11.9-0.23
			c-0.41,0.01-0.76-0.3-0.78-0.72c-0.02-0.41,0.3-0.76,0.72-0.78c3.87-0.16,7.94-0.09,12.08,0.23c0.41,0.03,0.72,0.39,0.69,0.81
			C43.67,56.44,43.34,56.74,42.95,56.74z"/>
		<g>
			<polygon class="st42" points="326.06,164.84 267.73,147.56 256.08,144.11 276.91,133.69 281.33,136.49 			"/>
			<polygon class="st42" points="326.06,164.84 280.31,131.43 294.13,125.86 			"/>
			<polygon class="st30" points="326.06,164.84 281.33,136.49 280.31,131.43 			"/>
			<polygon class="st30" points="326.06,164.84 264.45,153.85 267.73,147.56 			"/>
		</g>
		
			<rect x="33.25" y="482.61" transform="matrix(0.9086 -0.4176 0.4176 0.9086 -212.3758 74.0802)" class="st37" width="59.72" height="79.54"/>
		
			<rect x="41" y="492.29" transform="matrix(0.9086 -0.4176 0.4176 0.9086 -212.7528 74.3645)" class="st35" width="45.14" height="62.18"/>
		<path class="st37" d="M61.12,476.74l2.86,6.21l-31.36,14.41l-2.86-6.21l10.13-4.66l-0.03-0.07c-1.24-2.69-0.06-5.88,2.63-7.12
			c2.69-1.24,5.88-0.06,7.12,2.63l0.03,0.07L61.12,476.74z"/>
		<g>
			<path class="st30" d="M404.63,203.5h-6c-0.28,0-0.5-0.22-0.5-0.5s0.22-0.5,0.5-0.5h6c0.28,0,0.5,0.22,0.5,0.5
				S404.9,203.5,404.63,203.5z"/>
			<path class="st30" d="M422.53,203.5h-8.95c-0.28,0-0.5-0.22-0.5-0.5s0.22-0.5,0.5-0.5h8.95c0.28,0,0.5,0.22,0.5,0.5
				S422.81,203.5,422.53,203.5z"/>
			<path class="st30" d="M437.48,203.5h-6c-0.28,0-0.5-0.22-0.5-0.5s0.22-0.5,0.5-0.5h6c0.28,0,0.5,0.22,0.5,0.5
				S437.76,203.5,437.48,203.5z"/>
			<path class="st30" d="M390.37,207.22c-2.32,0-4.21-1.89-4.21-4.21c0-2.32,1.89-4.21,4.21-4.21c2.32,0,4.21,1.89,4.21,4.21
				C394.58,205.33,392.69,207.22,390.37,207.22z M390.37,199.79c-1.77,0-3.21,1.44-3.21,3.21c0,1.77,1.44,3.21,3.21,3.21
				c1.77,0,3.21-1.44,3.21-3.21C393.58,201.23,392.14,199.79,390.37,199.79z"/>
		</g>
		<g>
			<g>
				<g>
					<path class="st30" d="M1031.18,400.6h-6c-0.28,0-0.5-0.22-0.5-0.5s0.22-0.5,0.5-0.5h6c0.28,0,0.5,0.22,0.5,0.5
						S1031.45,400.6,1031.18,400.6z"/>
				</g>
				<g>
					<path class="st30" d="M1049.08,400.6h-8.95c-0.28,0-0.5-0.22-0.5-0.5s0.22-0.5,0.5-0.5h8.95c0.28,0,0.5,0.22,0.5,0.5
						S1049.36,400.6,1049.08,400.6z"/>
				</g>
				<g>
					<path class="st30" d="M1064.03,400.6h-6c-0.28,0-0.5-0.22-0.5-0.5s0.22-0.5,0.5-0.5h6c0.28,0,0.5,0.22,0.5,0.5
						S1064.31,400.6,1064.03,400.6z"/>
				</g>
			</g>
			<g>
				<path class="st30" d="M1016.92,404.32c-2.32,0-4.21-1.89-4.21-4.21c0-2.32,1.89-4.21,4.21-4.21c2.32,0,4.21,1.89,4.21,4.21
					C1021.13,402.43,1019.24,404.32,1016.92,404.32z M1016.92,396.89c-1.77,0-3.21,1.44-3.21,3.21s1.44,3.21,3.21,3.21
					s3.21-1.44,3.21-3.21S1018.69,396.89,1016.92,396.89z"/>
			</g>
		</g>
		<g>
			<g>
				<path class="st30" d="M52.57,335.72h-6c-0.28,0-0.5-0.22-0.5-0.5s0.22-0.5,0.5-0.5h6c0.28,0,0.5,0.22,0.5,0.5
					S52.84,335.72,52.57,335.72z"/>
			</g>
			<path class="st30" d="M70.47,335.72h-8.95c-0.28,0-0.5-0.22-0.5-0.5s0.22-0.5,0.5-0.5h8.95c0.28,0,0.5,0.22,0.5,0.5
				S70.75,335.72,70.47,335.72z"/>
			<g>
				<path class="st30" d="M85.42,335.72h-6c-0.28,0-0.5-0.22-0.5-0.5s0.22-0.5,0.5-0.5h6c0.28,0,0.5,0.22,0.5,0.5
					S85.7,335.72,85.42,335.72z"/>
			</g>
			<path class="st30" d="M38.31,339.43c-2.32,0-4.21-1.89-4.21-4.21c0-2.32,1.89-4.21,4.21-4.21c2.32,0,4.21,1.89,4.21,4.21
				C42.52,337.54,40.63,339.43,38.31,339.43z M38.31,332.01c-1.77,0-3.21,1.44-3.21,3.21c0,1.77,1.44,3.21,3.21,3.21
				c1.77,0,3.21-1.44,3.21-3.21C41.52,333.45,40.08,332.01,38.31,332.01z"/>
		</g>
		<g>
			<g>
				<path class="st30" d="M255.61,562.86c-0.13,0-0.26-0.05-0.35-0.15l-7.75-7.75c-0.2-0.2-0.2-0.51,0-0.71s0.51-0.2,0.71,0
					l7.75,7.75c0.2,0.2,0.2,0.51,0,0.71C255.86,562.81,255.74,562.86,255.61,562.86z"/>
			</g>
			<g>
				<path class="st30" d="M247.86,562.86c-0.13,0-0.26-0.05-0.35-0.15c-0.2-0.2-0.2-0.51,0-0.71l7.75-7.75c0.2-0.2,0.51-0.2,0.71,0
					s0.2,0.51,0,0.71l-7.75,7.75C248.12,562.81,247.99,562.86,247.86,562.86z"/>
			</g>
		</g>
		<g>
			<g>
				<path class="st30" d="M935.29,203.66c-0.13,0-0.26-0.05-0.35-0.15l-7.75-7.75c-0.2-0.2-0.2-0.51,0-0.71s0.51-0.2,0.71,0
					l7.75,7.75c0.2,0.2,0.2,0.51,0,0.71C935.54,203.62,935.42,203.66,935.29,203.66z"/>
			</g>
			<g>
				<path class="st30" d="M927.54,203.66c-0.13,0-0.26-0.05-0.35-0.15c-0.2-0.2-0.2-0.51,0-0.71l7.75-7.75c0.2-0.2,0.51-0.2,0.71,0
					s0.2,0.51,0,0.71l-7.75,7.75C927.8,203.62,927.67,203.66,927.54,203.66z"/>
			</g>
		</g>
		<g>
			<g>
				<path class="st30" d="M63.11,170.89c-0.13,0-0.26-0.05-0.35-0.15L55.01,163c-0.2-0.2-0.2-0.51,0-0.71s0.51-0.2,0.71,0l7.75,7.75
					c0.2,0.2,0.2,0.51,0,0.71C63.36,170.84,63.23,170.89,63.11,170.89z"/>
			</g>
			<g>
				<path class="st30" d="M55.36,170.89c-0.13,0-0.26-0.05-0.35-0.15c-0.2-0.2-0.2-0.51,0-0.71l7.75-7.75c0.2-0.2,0.51-0.2,0.71,0
					s0.2,0.51,0,0.71l-7.75,7.75C55.62,170.84,55.49,170.89,55.36,170.89z"/>
			</g>
		</g>
		<path class="st30" d="M251.68,344.48c-0.04,0-0.09,0-0.14-0.01c-1.32-0.24-2.65-0.53-3.96-0.88c-0.4-0.1-0.64-0.51-0.54-0.91
			c0.1-0.4,0.51-0.64,0.91-0.54c1.27,0.33,2.56,0.62,3.85,0.85c0.41,0.07,0.68,0.46,0.6,0.87
			C252.35,344.22,252.03,344.48,251.68,344.48z M240.2,341.04c-0.1,0-0.2-0.02-0.29-0.06c-3.71-1.57-7.28-3.55-10.62-5.88
			c-0.34-0.24-0.42-0.71-0.19-1.04c0.24-0.34,0.7-0.42,1.04-0.19c3.25,2.27,6.73,4.2,10.34,5.73c0.38,0.16,0.56,0.6,0.4,0.98
			C240.77,340.87,240.5,341.04,240.2,341.04z M225.76,332.19c-0.17,0-0.34-0.06-0.48-0.17c-1.03-0.86-2.05-1.77-3.02-2.71
			c-0.3-0.29-0.31-0.76-0.02-1.06c0.29-0.3,0.76-0.31,1.06-0.02c0.94,0.91,1.93,1.79,2.94,2.64c0.32,0.27,0.36,0.74,0.09,1.06
			C226.19,332.1,225.97,332.19,225.76,332.19z M217.43,323.59c-0.22,0-0.44-0.1-0.59-0.29c-2.52-3.23-4.67-6.71-6.37-10.33
			c-0.18-0.37-0.02-0.82,0.36-1c0.37-0.18,0.82-0.02,1,0.36c1.66,3.52,3.74,6.91,6.2,10.05c0.25,0.33,0.2,0.8-0.13,1.05
			C217.75,323.54,217.59,323.59,217.43,323.59z"/>
		<path class="st17" d="M338.46,655.4c-0.41,0-0.75-0.34-0.75-0.75v-99.87c0-0.41,0.34-0.75,0.75-0.75s0.75,0.34,0.75,0.75v99.87
			C339.21,655.07,338.87,655.4,338.46,655.4z"/>
		<path class="st29" d="M660.31,353.64c-9.66,0-15.31-9.37-18.54-14.75c-3.92-6.5-6.03-13.85-8.08-20.96
			c-2.63-9.12-4.73-19.36-6.76-29.25c-2.03-9.88-4.12-20.09-6.74-29.18c-0.08-0.27,0.08-0.54,0.34-0.62
			c0.27-0.08,0.54,0.08,0.62,0.34c2.63,9.12,4.73,19.36,6.76,29.25c2.03,9.88,4.12,20.09,6.74,29.18
			c2.03,7.05,4.13,14.34,7.97,20.72c3.87,6.43,10.34,17.17,22.33,13.54c0.26-0.08,0.54,0.07,0.62,0.33
			c0.08,0.26-0.07,0.54-0.33,0.62C663.49,353.4,661.85,353.64,660.31,353.64z"/>
		<path class="st14" d="M561.38,142.55c0,0-2.14,9.38,3.65,8.49l0.94-8.65C565.97,142.39,562.46,142.63,561.38,142.55z"/>
		<path class="st29" d="M467.11,362.25c-0.05,0-0.1-0.01-0.15-0.02c-0.26-0.08-0.41-0.36-0.33-0.62
			c7.39-24.28,14.26-53.81,20.89-82.37c10.01-43.08,18.66-80.29,26.31-86.87c7.45-6.41,17.01-8.29,23.72-8.74
			c7.79-0.52,15.37,0.46,23.77,1.71c0.22,0.03,0.39,0.21,0.42,0.42c0.8,1,3.22,3.82,7.03,6.26c0.2,0.13,0.28,0.38,0.2,0.6
			c-1.19,3.13-3.79,5.3-5.75,6.57c-2.11,1.36-4.46,2.34-6.72,3.28c-0.45,0.19-0.9,0.37-1.34,0.56c-6.08,2.59-13.65,6.42-18.15,13.19
			c-3.12,4.71-4.45,10.58-3.68,16.17c2.37,0.21,5.08,0.42,7.75,0.62c1.54,0.12,3.07,0.23,4.5,0.35c-0.61-4.29-0.7-8.67-0.24-13.03
			c0.13-1.26,0.32-2.61,0.77-3.92c1.02-2.96,3.36-5.59,7.15-8.04c1.12-0.72,2.29-1.4,3.42-2.05c1.88-1.08,3.83-2.2,5.55-3.57
			c2.28-1.81,5.65-6.42,6.73-9.9c0.05-0.15,0.16-0.26,0.3-0.32c0.14-0.06,0.3-0.04,0.43,0.04c3.72,2.18,7.65,3.34,11.68,3.45
			c11.26,0.29,21.52-7.16,23.3-8.53c0.06-0.18,0.23-0.32,0.43-0.34c10.61-0.84,21.17,0.31,31.37,3.42c3.07,0.95,6.6,2.22,9.52,4.46
			c6.29,4.85,8.56,12.95,10.51,21.51c2.84,12.5,6.14,26.81,9.42,41.1c2.43,10.57,4.87,21.13,7.1,30.92
			c5.88-4.49,13.35-9.86,21.24-15.54c16.21-11.67,34.59-24.9,48.52-36.96c0.11-0.1,0.26-0.14,0.41-0.12
			c0.15,0.02,0.27,0.11,0.35,0.24c6.22,10.28,12.45,20.56,18.68,30.83l0.26,0.44c0.98,1.63,2.32,3.49,4.09,3.35
			c0.21-0.01,0.42,0.11,0.5,0.32c0.08,0.2,0.02,0.44-0.15,0.57L665.6,352.64v9.11c0,0.28-0.22,0.5-0.5,0.5s-0.5-0.22-0.5-0.5v-9.35
			c0-0.15,0.07-0.3,0.19-0.39l100.59-80.33c-1.63-0.51-2.83-2.17-3.74-3.67c-0.04-0.07-0.09-0.15-0.14-0.24l-0.12-0.2
			c-6.14-10.11-12.26-20.22-18.38-30.34c-13.91,11.98-32.08,25.07-48.14,36.62c-8.16,5.88-15.87,11.42-21.83,16
			c-0.13,0.1-0.31,0.13-0.47,0.07c-0.16-0.06-0.28-0.19-0.32-0.36c-2.29-10-4.78-20.83-7.28-31.68c-3.29-14.29-6.59-28.6-9.42-41.1
			c-1.9-8.38-4.11-16.29-10.14-20.94c-2.79-2.15-6.22-3.38-9.21-4.3c-9.99-3.05-20.32-4.19-30.71-3.41
			c-0.01,0.01-0.02,0.01-0.03,0.02c-1.2,0.94-12.06,9.17-24.11,8.87c-4.01-0.11-7.92-1.21-11.63-3.28c-1.31,3.56-4.6,8.01-6.87,9.8
			c-1.77,1.41-3.75,2.55-5.67,3.65c-1.12,0.64-2.28,1.31-3.37,2.02c-3.6,2.33-5.81,4.79-6.75,7.53c-0.42,1.22-0.6,2.5-0.72,3.7
			c-0.47,4.49-0.36,9,0.33,13.4c0.02,0.15-0.02,0.31-0.13,0.42s-0.25,0.17-0.41,0.16c-1.61-0.13-3.36-0.27-5.13-0.4
			c-2.82-0.22-5.7-0.44-8.16-0.66c-0.23-0.02-0.41-0.19-0.45-0.42c-0.92-5.94,0.46-12.24,3.78-17.26
			c4.65-6.99,12.38-10.92,18.59-13.56c0.45-0.19,0.9-0.38,1.35-0.57c2.23-0.93,4.53-1.89,6.57-3.2c1.76-1.14,4.06-3.03,5.21-5.71
			c-3.86-2.55-6.28-5.43-7-6.35c-8.22-1.22-15.67-2.17-23.26-1.66c-6.56,0.44-15.89,2.26-23.13,8.5
			c-7.41,6.37-16.44,45.22-25.99,86.34c-6.64,28.58-13.51,58.12-20.91,82.44C467.52,362.11,467.32,362.25,467.11,362.25z"/>
		<path class="st29" d="M569.57,193.59c-0.09,0-0.18-0.02-0.26-0.07l-1.06-0.65c-0.24-0.14-0.31-0.45-0.16-0.69
			c0.14-0.24,0.45-0.31,0.69-0.17l1.06,0.65c0.24,0.14,0.31,0.45,0.16,0.69C569.9,193.51,569.74,193.59,569.57,193.59z"/>
		<path class="st29" d="M513.12,363.09c-0.04,0-0.08,0-0.13-0.02c-0.27-0.07-0.43-0.34-0.36-0.61l27.13-103.23
			c0.07-0.27,0.34-0.43,0.61-0.36c0.27,0.07,0.43,0.34,0.36,0.61L513.6,362.72C513.54,362.94,513.34,363.09,513.12,363.09z"/>
		<path class="st43" d="M672.72,289.46"/>
		<path class="st29" d="M672.72,297.83c-0.28,0-0.5-0.22-0.5-0.5v-7.87c0-0.28,0.22-0.5,0.5-0.5s0.5,0.22,0.5,0.5v7.87
			C673.22,297.6,672.99,297.83,672.72,297.83z"/>
		<g>
			<defs>
				<rect id="XMLID_38_" x="583.22" y="336.26" width="233.61" height="25.49"/>
			</defs>
			<use xlink:href="#XMLID_38_"  style="overflow:visible;fill:#7E91FE;"/>
			<clipPath id="XMLID_20_">
				<use xlink:href="#XMLID_38_"  style="overflow:visible;"/>
			</clipPath>
			<rect x="572.72" y="325.76" class="st44" width="94.83" height="56.07"/>
		</g>
		<path class="st17" d="M816.83,362.5H583.22c-0.41,0-0.75-0.34-0.75-0.75s0.34-0.75,0.75-0.75h233.61c0.41,0,0.75,0.34,0.75,0.75
			S817.25,362.5,816.83,362.5z"/>
		<path class="st35" d="M583.22,468.59v8.7c0,2.4-1.48,4.51-3.62,5.38c-0.47,0.2-0.98,0.32-1.51,0.39l-7.28,0.94
			c-0.6,1.85-1.34,3.63-2.21,5.33l4.51,5.81c1.83,2.35,1.61,5.67-0.49,7.71l-2.65,2.65l-3.47,3.47c-2.03,2.08-5.34,2.3-7.69,0.48
			l-5.81-4.52c-1.7,0.87-3.49,1.61-5.34,2.22l-0.93,7.29c-0.35,2.91-2.84,5.12-5.78,5.12h-8.7c-2.95,0-5.42-2.21-5.78-5.13
			l-0.92-7.2l-0.01-0.08c-1.85-0.6-3.64-1.34-5.34-2.21l-5.81,4.51c-2.35,1.82-5.66,1.61-7.71-0.49l-6.12-6.12
			c-2.08-2.02-2.29-5.34-0.47-7.69l4.51-5.81c-0.86-1.7-1.61-3.49-2.21-5.34h-0.02l-7.28-0.93c-2.91-0.35-5.12-2.84-5.12-5.78v-8.7
			c0-2.95,2.21-5.43,5.13-5.78l7.28-0.93c0.6-1.85,1.35-3.64,2.22-5.34l-4.51-5.81c-1.83-2.35-1.61-5.67,0.49-7.71l6.12-6.12
			c2.03-2.09,5.34-2.29,7.69-0.48l5.81,4.52c1.7-0.86,3.48-1.6,5.34-2.21l0.93-7.31c0.35-2.91,2.83-5.12,5.78-5.12h8.7
			c2.93,0,5.42,2.21,5.78,5.13l0.93,7.28c1.85,0.6,3.64,1.34,5.34,2.22l5.81-4.52c2.35-1.82,5.66-1.61,7.71,0.5l6.12,6.12
			c2.08,2.02,2.29,5.34,0.47,7.68l-4.51,5.81c0.86,1.71,1.61,3.49,2.21,5.34l7.31,0.93C581.02,463.16,583.22,465.65,583.22,468.59z"
			/>
		<path class="st35" d="M649.91,520.76v3.24c0,1.09-0.82,2.02-1.91,2.15l-2.71,0.34c-0.22,0.69-0.5,1.35-0.82,1.98l1.68,2.16
			c0.69,0.87,0.6,2.1-0.18,2.86l-2.28,2.28c-0.75,0.78-1.99,0.85-2.86,0.18l-2.15-1.68c-0.63,0.32-1.3,0.59-1.99,0.82l-0.34,2.72
			c-0.14,1.08-1.05,1.9-2.15,1.9h-3.23c-1.1,0-2.02-0.82-2.15-1.91l-0.34-2.71c-0.69-0.23-1.35-0.5-1.99-0.82l-2.15,1.68
			c-0.87,0.68-2.11,0.6-2.87-0.18l-2.27-2.28c-0.78-0.75-0.85-1.99-0.18-2.86l1.68-2.15c-0.32-0.63-0.6-1.3-0.82-1.99l-2.72-0.34
			c-1.08-0.14-1.9-1.06-1.9-2.15v-3.24c0-1.09,0.82-2.01,1.91-2.14l2.71-0.34c0.22-0.69,0.5-1.35,0.82-1.99l-1.68-2.15
			c-0.68-0.87-0.6-2.11,0.19-2.87l2.27-2.27c0.75-0.78,1.99-0.85,2.86-0.18l2.15,1.68c0.63-0.32,1.3-0.6,1.99-0.82l0.34-2.72
			c0.14-1.08,1.05-1.9,2.15-1.9h3.23c1.1,0,2.02,0.82,2.15,1.9l0.34,2.72c0.69,0.22,1.35,0.5,1.99,0.82l2.15-1.68
			c0.87-0.69,2.11-0.6,2.87,0.18l2.27,2.28c0.78,0.75,0.85,1.99,0.18,2.86l-1.68,2.15c0.32,0.63,0.6,1.3,0.82,1.99l2.72,0.34
			C649.08,518.75,649.91,519.67,649.91,520.76z"/>
		<path class="st35" d="M740.2,423.2v6.25c0,2.11-1.59,3.89-3.69,4.14l-2.57,0.33l-1.31,0.17l-1.35,0.17
			c-0.43,1.33-0.96,2.62-1.58,3.84l3.24,4.17c1.31,1.69,1.16,4.07-0.35,5.54l-4.39,4.39c-1.46,1.5-3.84,1.65-5.53,0.34l-4.17-3.24
			c-1.22,0.62-2.51,1.16-3.84,1.58l-0.67,5.26c-0.25,2.09-2.04,3.67-4.15,3.67h-6.24c-2.11,0-3.9-1.58-4.15-3.68l-0.67-5.23
			c-1.33-0.44-2.61-0.97-3.84-1.59l-4.16,3.24c-1.7,1.31-4.08,1.17-5.55-0.34l-1.94-1.95l-2.46-2.46c-1.5-1.46-1.65-3.83-0.34-5.53
			l3.25-4.17c-0.63-1.22-1.17-2.5-1.59-3.83l-5.24-0.67c-2.09-0.26-3.68-2.04-3.68-4.15v-6.25c0-2.11,1.59-3.9,3.68-4.15l5.24-0.67
			c0.43-1.33,0.96-2.61,1.58-3.83l-3.24-4.17c-1.31-1.7-1.16-4.08,0.35-5.55l4.4-4.39c1.45-1.5,3.83-1.64,5.52-0.34l4.17,3.25
			c1.22-0.62,2.51-1.16,3.84-1.59l0.67-5.24c0.25-2.09,2.04-3.67,4.15-3.67h6.24c2.11,0,3.9,1.58,4.15,3.68l0.67,5.23
			c1.33,0.44,2.62,0.97,3.84,1.59l4.17-3.25c1.69-1.31,4.07-1.16,5.54,0.35l4.39,4.4c1.5,1.45,1.65,3.83,0.34,5.52l-3.24,4.17
			c0.62,1.23,1.16,2.51,1.58,3.84l5.26,0.67C738.61,419.3,740.2,421.09,740.2,423.2z"/>
		<path class="st35" d="M790.49,499.67v4.01c0,1.35-1.01,2.5-2.36,2.66l-3.36,0.43c-0.27,0.85-0.61,1.68-1.01,2.46l2.07,2.67
			c0.84,1.09,0.75,2.61-0.23,3.56l-2.82,2.82c-0.93,0.96-2.46,1.06-3.54,0.22l-2.67-2.08c-0.78,0.41-1.61,0.75-2.47,1.02l-0.43,3.37
			c-0.16,1.34-1.3,2.35-2.66,2.35h-4.01c-1.35,0-2.5-1.01-2.66-2.36l-0.43-3.36c-0.85-0.27-1.68-0.61-2.46-1.02l-2.67,2.08
			c-1.09,0.84-2.61,0.75-3.56-0.23l-2.82-2.82c-0.96-0.93-1.06-2.46-0.22-3.54l2.08-2.67c-0.41-0.78-0.74-1.61-1.02-2.47l-3.36-0.43
			c-1.35-0.17-2.36-1.31-2.36-2.66v-4.01c0-1.36,1.01-2.5,2.36-2.66l3.36-0.43c0.28-0.85,0.61-1.68,1.02-2.46l-2.08-2.68
			c-0.84-1.08-0.74-2.61,0.23-3.55l0.86-0.86l1.96-1.96c0.94-0.97,2.47-1.06,3.54-0.22l2.68,2.08c0.78-0.41,1.6-0.75,2.46-1.02
			l0.43-3.37c0.05-0.43,0.21-0.83,0.44-1.17c0.49-0.72,1.31-1.19,2.23-1.19h4.01c1.36,0,2.51,1.01,2.66,2.36l0.43,3.36
			c0.85,0.27,1.69,0.61,2.47,1.02l2.67-2.08c1.08-0.84,2.61-0.75,3.55,0.23l2.82,2.82c0.97,0.93,1.06,2.46,0.22,3.54l-2.07,2.67
			c0.4,0.79,0.74,1.61,1.01,2.47l3.37,0.43C789.49,497.17,790.49,498.3,790.49,499.67z"/>
		<g>
			<g>
				<defs>
					<circle id="XMLID_37_" cx="536.61" cy="472.94" r="18.79"/>
				</defs>
				<use xlink:href="#XMLID_37_"  style="overflow:visible;fill:#7E91FE;"/>
				<clipPath id="XMLID_21_">
					<use xlink:href="#XMLID_37_"  style="overflow:visible;"/>
				</clipPath>
				<path class="st45" d="M550.06,459.82c0,0,9.26,25.89-20.34,30.6c-29.6,4.72,17.44,9.51,17.44,9.51l15.67-13.7l1.1-17.99
					l-2.83-8.42H550.06"/>
			</g>
			<g>
				<defs>
					<circle id="XMLID_36_" cx="632.57" cy="522.38" r="5.75"/>
				</defs>
				<use xlink:href="#XMLID_36_"  style="overflow:visible;fill:#7E91FE;"/>
				<clipPath id="XMLID_22_">
					<use xlink:href="#XMLID_36_"  style="overflow:visible;"/>
				</clipPath>
				<path class="st46" d="M628.81,526.72c0,0,7.53,0.31,9.04-8.18c1.26-7.11,5,7.18,5,7.18l-5.81,5.24l-8.23-0.87V526.72"/>
			</g>
			<g>
				<defs>
					<circle id="XMLID_35_" cx="706.7" cy="426.32" r="14.05"/>
				</defs>
				<use xlink:href="#XMLID_35_"  style="overflow:visible;fill:#7E91FE;"/>
				<clipPath id="XMLID_23_">
					<use xlink:href="#XMLID_35_"  style="overflow:visible;"/>
				</clipPath>
				<path class="st47" d="M718.39,418.53c0,0,0.49,16.35-16.96,20.81c-17.45,4.46,15.71,3.34,15.71,3.34l12.74-10.86l-4.12-13.28
					H718.39"/>
			</g>
			<g>
				<defs>
					<circle id="XMLID_34_" cx="769.01" cy="501.67" r="9.76"/>
				</defs>
				<use xlink:href="#XMLID_34_"  style="overflow:visible;fill:#7E91FE;"/>
				<clipPath id="XMLID_24_">
					<use xlink:href="#XMLID_34_"  style="overflow:visible;"/>
				</clipPath>
				<path class="st48" d="M776.69,495.66c0,0,2.02,12.13-11.91,14.79c-13.92,2.66,15.86,2.1,15.86,2.1l0.19-8.05v-5.62
					L776.69,495.66"/>
			</g>
		</g>
		<path class="st35" d="M422.34,605.54c0,6.03-2.29,11.51-6.05,15.64l-0.82,0.86c-4.2,4.18-10.01,6.76-16.41,6.76
			c-12.85,0-23.27-10.42-23.27-23.27c0-6.82,2.92-12.93,7.6-17.19l0.87-0.76c4.02-3.33,9.18-5.32,14.8-5.32
			C411.91,582.27,422.34,592.69,422.34,605.54z"/>
		<g>
			<path class="st29" d="M175.77,441.75c-0.13,0-0.26-0.05-0.35-0.15c-0.2-0.19-0.2-0.51,0-0.71l5.48-5.49c0.2-0.2,0.51-0.2,0.71,0
				c0.2,0.19,0.2,0.51,0,0.71l-5.48,5.49C176.03,441.71,175.9,441.75,175.77,441.75z"/>
			<path class="st29" d="M188.73,428.15c-0.13,0-0.26-0.05-0.35-0.15c-0.2-0.19-0.2-0.51,0-0.71l5.19-5.2c0.2-0.2,0.51-0.2,0.71,0
				c0.2,0.19,0.2,0.51,0,0.71l-5.19,5.2C188.98,428.1,188.85,428.15,188.73,428.15z"/>
			<path class="st29" d="M189.98,448.16c-0.12,0-0.24-0.04-0.34-0.13c-0.2-0.19-0.22-0.5-0.03-0.71l19.37-21.34
				c0.19-0.2,0.5-0.22,0.71-0.03c0.2,0.19,0.22,0.5,0.03,0.71l-19.37,21.34C190.25,448.1,190.11,448.16,189.98,448.16z"/>
			<path class="st29" d="M210.64,458.15c-0.12,0-0.24-0.04-0.33-0.13c-0.21-0.18-0.23-0.5-0.04-0.71l10.57-11.97
				c0.18-0.21,0.5-0.23,0.71-0.04c0.21,0.18,0.23,0.5,0.04,0.71l-10.57,11.97C210.92,458.1,210.78,458.15,210.64,458.15z"/>
			<path class="st29" d="M228.85,473.09c-0.09,0-0.19-0.03-0.28-0.08c-0.23-0.15-0.29-0.46-0.14-0.69l11.14-16.82
				c0.15-0.23,0.46-0.29,0.69-0.14c0.23,0.15,0.29,0.46,0.14,0.69l-11.14,16.82C229.17,473.01,229.01,473.09,228.85,473.09z"/>
			<path class="st29" d="M249.21,483.96c-0.09,0-0.17-0.02-0.25-0.07c-0.24-0.14-0.32-0.45-0.18-0.68l9.16-15.46
				c0.14-0.24,0.45-0.32,0.69-0.18c0.24,0.14,0.32,0.45,0.18,0.69l-9.16,15.46C249.54,483.87,249.38,483.96,249.21,483.96z"/>
			<path class="st29" d="M298.04,501.62c-0.05,0-0.1-0.01-0.15-0.02c-0.26-0.08-0.41-0.36-0.33-0.63l6.44-20.59
				c0.08-0.26,0.36-0.41,0.63-0.33c0.26,0.08,0.41,0.36,0.33,0.63l-6.44,20.59C298.45,501.48,298.25,501.62,298.04,501.62z"/>
			<path class="st29" d="M306.07,476.94c-0.05,0-0.09-0.01-0.14-0.02c-0.27-0.08-0.42-0.35-0.34-0.62l1.45-5
				c0.08-0.27,0.35-0.42,0.62-0.34c0.27,0.08,0.42,0.35,0.34,0.62l-1.45,5C306.49,476.8,306.29,476.94,306.07,476.94z"/>
			<path class="st29" d="M322.9,496.83c-0.02,0-0.05,0-0.07,0c-0.27-0.04-0.46-0.29-0.43-0.56l4.21-30.7
				c0.04-0.27,0.29-0.46,0.56-0.43c0.27,0.04,0.46,0.29,0.43,0.56l-4.21,30.7C323.36,496.65,323.15,496.83,322.9,496.83z"/>
			<path class="st29" d="M361.54,473.06c-0.05,0-0.1-0.01-0.15-0.02c-0.26-0.08-0.41-0.36-0.33-0.63c0.81-2.63,1.08-5.46,0.79-8.19
				c-0.11-1.01-0.34-2.28-1.17-3.02c-0.07-0.06-0.15-0.12-0.23-0.17c-0.85,0.34-1.75,0.5-2.53,0.6c-0.18,0.03-0.36-0.05-0.47-0.2
				c-0.11-0.15-0.12-0.34-0.04-0.51c0.28-0.58,0.81-0.97,1.51-1.11c0.5-0.1,1.05-0.05,1.54,0.13c0.34-0.17,0.66-0.38,0.95-0.65
				c0.82-0.76,1.23-2.23,0.52-3.12c-0.51-0.64-1.39-0.83-2.32-1.04c-0.73-0.16-1.49-0.33-2.16-0.73c-0.9-0.53-1.51-1.48-1.69-2.62
				c-0.17-1.13,0.13-2.23,0.82-3c0.19-0.2,0.5-0.22,0.71-0.04c0.21,0.19,0.22,0.5,0.04,0.71c-0.49,0.54-0.71,1.36-0.58,2.18
				s0.58,1.54,1.21,1.91c0.53,0.31,1.18,0.46,1.87,0.61c1.06,0.23,2.16,0.48,2.89,1.39c1.11,1.38,0.54,3.4-0.62,4.48
				c-0.21,0.19-0.43,0.36-0.66,0.51c1.02,0.97,1.29,2.42,1.41,3.58c0.3,2.87,0.02,5.84-0.83,8.59
				C361.95,472.92,361.75,473.06,361.54,473.06z"/>
		</g>
		<g>
			<path class="st14" d="M785.8,221.08c-0.22,0-0.42-0.15-0.48-0.37c-0.07-0.27,0.09-0.54,0.36-0.61c0.09-0.02,9.29-2.46,16.41-5.16
				c0.34-0.15,0.72,0.1,0.72,0.45c0,0.2-0.11,0.37-0.28,0.45c-0.02,0.01-0.04,0.02-0.06,0.03c-7.17,2.73-16.44,5.17-16.53,5.2
				C785.89,221.07,785.84,221.08,785.8,221.08z"/>
			<path class="st14" d="M787.48,228.39c-0.21,0-0.4-0.13-0.47-0.33c-0.09-0.26,0.04-0.55,0.3-0.64c5.32-1.88,10.65-3.78,15.97-5.67
				c0.26-0.09,0.55,0.04,0.64,0.3c0.09,0.26-0.04,0.55-0.3,0.64c-5.33,1.89-10.66,3.79-15.97,5.67
				C787.59,228.38,787.53,228.39,787.48,228.39z"/>
			<path class="st14" d="M789.88,234.5c-0.22,0-0.42-0.14-0.48-0.36c-0.08-0.27,0.07-0.54,0.34-0.62c3.46-1.01,6.9-2.23,10.22-3.62
				c0.26-0.11,0.55,0.01,0.65,0.27c0.11,0.25-0.01,0.55-0.27,0.65c-3.36,1.41-6.83,2.64-10.32,3.66
				C789.97,234.5,789.93,234.5,789.88,234.5z"/>
			<path class="st14" d="M776.96,238.99c-0.04,0-0.08-0.01-0.13-0.02c-0.27-0.07-0.43-0.34-0.36-0.61
				c1.46-5.56,1.12-11.58-0.96-16.95c-0.1-0.26,0.03-0.55,0.29-0.65c0.26-0.1,0.55,0.03,0.65,0.29c2.15,5.56,2.5,11.8,0.99,17.56
				C777.39,238.85,777.19,238.99,776.96,238.99z"/>
		</g>
		<g>
			<path class="st39" d="M43.53,516.29c-0.24,0-0.45-0.17-0.49-0.42c-0.05-0.27,0.14-0.53,0.41-0.58c1.45-0.24,2.74-1.21,3.38-2.54
				c0.26-0.54,0.41-1.13,0.44-1.73c-0.35-0.34-0.61-0.78-0.75-1.25c-0.18-0.62-0.11-1.23,0.18-1.74c0.09-0.15,0.25-0.25,0.44-0.25
				c0.18,0,0.34,0.1,0.43,0.26c0.43,0.77,0.66,1.63,0.7,2.51c0.04,0.03,0.08,0.05,0.13,0.07c0.72,0.38,1.69,0.39,2.86,0.04
				c1.9-0.57,3.66-1.77,5.36-2.93c2.44-1.67,4.93-3.4,7.99-3.31c0.77,0.02,1.53,0.17,2.25,0.31c0.74,0.14,1.44,0.28,2.15,0.29
				c1.29,0.02,2.75-0.55,3.06-1.72c0.07-0.27,0.34-0.43,0.61-0.36c0.27,0.07,0.43,0.34,0.36,0.61c-0.46,1.74-2.42,2.51-4.05,2.46
				c-0.79-0.02-1.57-0.17-2.31-0.31c-0.72-0.14-1.4-0.27-2.09-0.29c-2.69-0.07-4.98,1.48-7.4,3.13c-1.77,1.21-3.59,2.46-5.64,3.07
				c-1.3,0.39-2.42,0.39-3.33,0.01c-0.08,0.54-0.24,1.06-0.48,1.55c-0.77,1.61-2.35,2.8-4.12,3.09
				C43.58,516.28,43.55,516.29,43.53,516.29z"/>
			<path class="st39" d="M49.41,531.57c-0.11,0-0.22-0.04-0.32-0.11c-0.21-0.18-0.24-0.49-0.07-0.7c0.96-1.16,1.7-2.48,2.21-3.89
				c-0.37-0.11-0.72-0.27-1.03-0.47c-1-0.65-1.56-1.79-1.38-2.82c0.11-0.62,0.54-1.2,1.12-1.52c0.52-0.28,1.1-0.33,1.6-0.12
				c1.28,0.53,1.43,2.13,1.15,3.46c-0.05,0.22-0.1,0.44-0.16,0.65c0.52,0.05,1.08-0.09,1.63-0.28c1.05-0.36,2.02-1,2.97-1.62
				l0.4-0.26c0.95-0.62,1.94-1.22,2.95-1.77c0.99-0.55,2.15-1.14,3.42-1.21c0.46-0.03,0.91,0.02,1.34,0.06
				c0.41,0.04,0.81,0.08,1.19,0.06c1.38-0.08,2.57-0.9,3.84-1.76c0.29-0.2,0.58-0.4,0.87-0.58c2.2-1.42,4.3-1.69,5.77-0.73
				c0.23,0.15,0.29,0.46,0.14,0.69c-0.15,0.23-0.46,0.3-0.69,0.14c-1.58-1.04-3.8,0.16-4.68,0.73c-0.28,0.18-0.57,0.38-0.85,0.57
				c-1.32,0.91-2.69,1.84-4.35,1.94c-0.46,0.03-0.91-0.02-1.34-0.06c-0.41-0.04-0.8-0.07-1.19-0.06c-1.05,0.06-2.05,0.57-2.99,1.09
				c-0.98,0.54-1.95,1.13-2.89,1.74l-0.4,0.26c-0.99,0.65-2.02,1.33-3.19,1.73c-0.77,0.26-1.54,0.37-2.25,0.33
				c-0.54,1.58-1.37,3.06-2.44,4.35C49.7,531.51,49.56,531.57,49.41,531.57z M50.88,522.8c-0.19,0-0.36,0.07-0.46,0.13
				c-0.32,0.17-0.56,0.49-0.61,0.81c-0.11,0.63,0.28,1.38,0.94,1.81c0.23,0.15,0.5,0.27,0.79,0.35c0.07-0.24,0.12-0.48,0.18-0.73
				c0.15-0.71,0.2-2.01-0.56-2.33C51.06,522.81,50.97,522.8,50.88,522.8z"/>
			<path class="st39" d="M70.23,549.34c-1.13,0-2.26-0.28-3.24-0.87c-2.2-1.31-3.32-3.83-2.84-6.41c0.48-2.59,2.35-4.47,4.88-4.91
				c2.67-0.46,5.35,0.86,6.68,3.28c1.28,2.33,0.96,4.99-0.82,6.94l0,0C73.71,548.67,71.97,549.34,70.23,549.34z M70.11,538.07
				c-0.3,0-0.61,0.03-0.92,0.08c-2.52,0.44-3.75,2.41-4.06,4.1c-0.32,1.72,0.14,4.03,2.37,5.36c2.08,1.24,5.06,0.83,6.64-0.9l0,0
				c1.77-1.94,1.51-4.26,0.68-5.79C73.83,539.13,72.05,538.07,70.11,538.07z"/>
		</g>
		<g>
			<path class="st30" d="M843.19,181.03c-0.05,0-0.1-0.01-0.15-0.02c-0.26-0.05-0.47-0.24-0.56-0.49l-3.88-11.21
				c-0.14-0.39,0.07-0.82,0.46-0.95c0.39-0.14,0.82,0.07,0.95,0.46l3.72,10.76c0.02,0.01,0.03,0.03,0.05,0.04
				c0.3,0.28,0.32,0.75,0.04,1.06l-0.09,0.1C843.59,180.94,843.39,181.03,843.19,181.03z M846.68,177.26c-0.18,0-0.37-0.07-0.51-0.2
				c-0.3-0.28-0.32-0.76-0.04-1.06l2.72-2.94c0.28-0.3,0.76-0.32,1.06-0.04c0.3,0.28,0.32,0.76,0.04,1.06l-2.72,2.94
				C847.08,177.18,846.88,177.26,846.68,177.26z M854.82,168.45c-0.18,0-0.37-0.07-0.51-0.2c-0.3-0.28-0.32-0.76-0.04-1.06
				l8.15-8.81c0.28-0.31,0.76-0.32,1.06-0.04c0.3,0.28,0.32,0.76,0.04,1.06l-8.15,8.81C855.23,168.37,855.03,168.45,854.82,168.45z
				 M836.69,162.26c-0.31,0-0.6-0.19-0.71-0.5l-1.31-3.78c-0.13-0.39,0.07-0.82,0.46-0.95s0.82,0.07,0.95,0.46l1.31,3.78
				c0.14,0.39-0.07,0.82-0.46,0.95C836.85,162.25,836.77,162.26,836.69,162.26z M866.37,155.97c-0.18,0-0.37-0.07-0.51-0.2
				c-0.3-0.28-0.32-0.76-0.04-1.06l2.72-2.94c0.28-0.3,0.76-0.32,1.06-0.04c0.3,0.28,0.32,0.76,0.04,1.06l-2.72,2.94
				C866.77,155.89,866.57,155.97,866.37,155.97z M833.74,153.76c-0.31,0-0.6-0.19-0.71-0.5l-3.93-11.34
				c-0.14-0.39,0.07-0.82,0.46-0.95c0.39-0.14,0.82,0.07,0.95,0.46l3.93,11.34c0.14,0.39-0.07,0.82-0.46,0.95
				C833.91,153.75,833.82,153.76,833.74,153.76z M758.63,150.51c-0.19,0-0.38-0.07-0.53-0.22c-0.29-0.29-0.29-0.77,0-1.06l2.22-2.22
				c0.29-0.29,0.77-0.29,1.06,0s0.29,0.77,0,1.06l-2.22,2.22C759.01,150.44,758.82,150.51,758.63,150.51z M874.52,147.16
				c-0.18,0-0.37-0.07-0.51-0.2c-0.3-0.28-0.32-0.76-0.04-1.06l8.15-8.81c0.28-0.31,0.76-0.32,1.06-0.04
				c0.3,0.28,0.32,0.76,0.04,1.06l-8.15,8.81C874.92,147.08,874.72,147.16,874.52,147.16z M766.52,142.64
				c-0.19,0-0.38-0.07-0.53-0.22c-0.29-0.29-0.29-0.77,0-1.06l8.5-8.47c0.29-0.29,0.77-0.29,1.06,0c0.29,0.29,0.29,0.77,0,1.06
				l-8.5,8.47C766.9,142.57,766.71,142.64,766.52,142.64z M827.2,134.86c-0.31,0-0.6-0.19-0.71-0.5l-1.31-3.78
				c-0.14-0.39,0.07-0.82,0.46-0.95c0.39-0.14,0.82,0.07,0.95,0.46l1.31,3.78c0.13,0.39-0.07,0.82-0.46,0.95
				C827.36,134.85,827.28,134.86,827.2,134.86z M778.56,130.64c-0.19,0-0.38-0.07-0.53-0.22c-0.29-0.29-0.29-0.77,0-1.06l2.83-2.82
				c0.29-0.29,0.77-0.29,1.06,0c0.29,0.29,0.29,0.77,0,1.06l-2.83,2.82C778.94,130.57,778.75,130.64,778.56,130.64z M824.25,126.36
				c-0.31,0-0.6-0.19-0.71-0.5l-3.93-11.34c-0.14-0.39,0.07-0.82,0.46-0.95c0.39-0.14,0.82,0.07,0.95,0.46l3.93,11.34
				c0.14,0.39-0.07,0.82-0.46,0.95C824.42,126.34,824.33,126.36,824.25,126.36z M787.05,122.17c-0.19,0-0.38-0.07-0.53-0.22
				c-0.29-0.29-0.29-0.77,0-1.06l8.5-8.47c0.29-0.29,0.77-0.29,1.06,0c0.29,0.29,0.29,0.77,0,1.06l-8.5,8.47
				C787.44,122.09,787.25,122.17,787.05,122.17z M799.09,110.16c-0.19,0-0.38-0.07-0.53-0.22c-0.29-0.29-0.29-0.77,0-1.06l2.83-2.82
				c0.29-0.29,0.77-0.29,1.06,0s0.29,0.77,0,1.06l-2.83,2.82C799.47,110.09,799.28,110.16,799.09,110.16z M817.71,107.46
				c-0.31,0-0.6-0.19-0.71-0.5l-1.31-3.78c-0.14-0.39,0.07-0.82,0.46-0.95c0.39-0.14,0.82,0.07,0.95,0.46l1.31,3.78
				c0.14,0.39-0.07,0.82-0.46,0.95C817.87,107.44,817.79,107.46,817.71,107.46z M807.59,101.69c-0.19,0-0.38-0.07-0.53-0.22
				c-0.29-0.29-0.29-0.77,0-1.06l6.04-6.02c0.18-0.18,0.44-0.26,0.7-0.2c0.25,0.06,0.46,0.24,0.54,0.49l1.14,3.28
				c0.14,0.39-0.07,0.82-0.46,0.95c-0.39,0.14-0.82-0.07-0.95-0.46l-0.75-2.15l-5.19,5.18
				C807.97,101.62,807.78,101.69,807.59,101.69z"/>
			<circle class="st42" cx="751.7" cy="157.7" r="10.22"/>
			<circle class="st42" cx="843.23" cy="179.59" r="17.13"/>
			<circle class="st42" cx="882.66" cy="137.6" r="7.6"/>
			<circle class="st42" cx="813.63" cy="96.3" r="10.74"/>
			<g>
				<defs>
					<path id="XMLID_33_" d="M830.26,54.21c-22.44-9.17-48.17,1.64-57.33,24.08c-9.17,22.45,1.63,48.18,24.07,57.34
						c22.45,9.17,48.17-1.64,57.34-24.09C863.5,89.1,852.7,63.38,830.26,54.21z M802.15,123c-15.5-6.33-22.94-24.05-16.61-39.56
						c6.33-15.5,24.05-22.94,39.55-16.61c15.51,6.34,22.94,24.05,16.61,39.55C835.37,121.9,817.67,129.34,802.15,123z"/>
				</defs>
				<use xlink:href="#XMLID_33_"  style="overflow:visible;fill:#FFFFFF;"/>
				<clipPath id="XMLID_25_">
					<use xlink:href="#XMLID_33_"  style="overflow:visible;"/>
				</clipPath>
				<polyline class="st49" points="839.62,79.28 858.38,66.88 802.55,36.45 734.37,66.95 736.5,122.25 779.34,146.85 824.08,155.46 
					857.6,129.24 832.21,111.32 839.62,79.28 				"/>
				
					<use xlink:href="#XMLID_33_"  style="overflow:visible;fill:none;stroke:#606060;stroke-linecap:round;stroke-linejoin:round;stroke-miterlimit:10;"/>
			</g>
		</g>
		<path class="st42" d="M1063.74,298.19h-41.03c-1.29,0-2.34-1.05-2.34-2.34v-0.19c0-1.29,1.05-2.34,2.34-2.34h41.03
			c1.29,0,2.34,1.05,2.34,2.34v0.19C1066.08,297.14,1065.03,298.19,1063.74,298.19z"/>
		<path class="st42" d="M1090.09,309.33h-67.38c-1.29,0-2.34-1.05-2.34-2.34v-0.19c0-1.29,1.05-2.34,2.34-2.34h67.38
			c1.29,0,2.34,1.05,2.34,2.34v0.19C1092.43,308.29,1091.38,309.33,1090.09,309.33z"/>
		<path class="st42" d="M1063.74,320.48h-41.03c-1.29,0-2.34-1.05-2.34-2.34v-0.19c0-1.29,1.05-2.34,2.34-2.34h41.03
			c1.29,0,2.34,1.05,2.34,2.34v0.19C1066.08,319.43,1065.03,320.48,1063.74,320.48z"/>
		<path class="st42" d="M261.81,391.39h41.03c1.29,0,2.34-1.05,2.34-2.34v-0.19c0-1.29-1.05-2.34-2.34-2.34h-41.03
			c-1.29,0-2.34,1.05-2.34,2.34v0.19C259.47,390.34,260.52,391.39,261.81,391.39z"/>
		<path class="st42" d="M261.57,402.54h67.38c1.29,0,2.34-1.05,2.34-2.34v-0.19c0-1.29-1.05-2.34-2.34-2.34h-67.38
			c-1.29,0-2.34,1.05-2.34,2.34v0.19C259.23,401.49,260.28,402.54,261.57,402.54z"/>
		<g>
			<defs>
				<path id="SVGID_5_" d="M1051.62,420.63c-12.72-37.75-27.26-75.5-50.83-107.62c-23.56-32.12-57.34-58.41-96.55-65.42
					c-76.16-13.62-157.64,45.8-228.1,13.81c-50.64-22.99-74.12-85.54-124.62-108.85c-39.12-18.06-86.4-7.86-123.36,14.28
					c-36.96,22.14-66.17,54.81-96.67,85.25c-30.5,30.43-64.2,59.85-105.34,72.64c-22.25,6.92-45.93,8.7-67.85,16.61
					c-55.91,20.18-91.36,77.91-101.77,136.43c-3.87,21.75-4.9,43.77-4.15,65.87c0.65,18.89,15.48,69.6,53.94,101.25
					c58.66,48.27,129.19,91.54,205.05,87.53c42.31-2.24,82.03-19.81,122.04-33.75c98.77-34.4,204.89-47.54,309.07-38.26
					c43.9,3.91,87.54,11.74,131.61,11.97c23.83,0.12,48.2-0.9,70.93-8.22c68.69-22.13,126.06-58.02,130.15-112.11
					c0.09-1.14,0.16-2.27,0.22-3.41C1077.81,505.04,1065.57,462.02,1051.62,420.63z"/>
			</defs>
			<clipPath id="SVGID_6_">
				<use xlink:href="#SVGID_5_"  style="overflow:visible;"/>
			</clipPath>
			<path class="st50" d="M223.52,630.86c13.53-5.22,29.51-8.47,41.98-1.07c7.51,4.46,12.55,12.14,19.62,17.26
				c9.78,7.09,22.65,8.63,34.66,7.32c12.01-1.32,23.56-5.22,35.29-8.11c17.95-4.43,37.61-6.35,54.35,1.49s28.63,28.23,21.63,45.34
				c-6.39,15.6-24.55,22.26-40.91,26.34c-58.76,14.63-120.28,18.1-180.32,10.18c-19.44-2.56-72.45-15.49-58.48-45.67
				C162.44,659.98,200.28,639.83,223.52,630.86z"/>
		</g>
		<g>
			<defs>
				<path id="SVGID_7_" d="M1051.62,420.63c-12.72-37.75-27.26-75.5-50.83-107.62c-23.56-32.12-57.34-58.41-96.55-65.42
					c-76.16-13.62-157.64,45.8-228.1,13.81c-50.64-22.99-74.12-85.54-124.62-108.85c-39.12-18.06-86.4-7.86-123.36,14.28
					c-36.96,22.14-66.17,54.81-96.67,85.25c-30.5,30.43-64.2,59.85-105.34,72.64c-22.25,6.92-45.93,8.7-67.85,16.61
					c-55.91,20.18-91.36,77.91-101.77,136.43c-3.87,21.75-4.9,43.77-4.15,65.87c0.65,18.89,15.48,69.6,53.94,101.25
					c58.66,48.27,129.19,91.54,205.05,87.53c42.31-2.24,82.03-19.81,122.04-33.75c98.77-34.4,204.89-47.54,309.07-38.26
					c43.9,3.91,87.54,11.74,131.61,11.97c23.83,0.12,48.2-0.9,70.93-8.22c68.69-22.13,126.06-58.02,130.15-112.11
					c0.09-1.14,0.16-2.27,0.22-3.41C1077.81,505.04,1065.57,462.02,1051.62,420.63z"/>
			</defs>
			<clipPath id="SVGID_8_">
				<use xlink:href="#SVGID_7_"  style="overflow:visible;"/>
			</clipPath>
			<path class="st51" d="M767.3,669.86c8.86-10.22,18.14-20.76,30.51-26.24c11.46-5.07,26.39-4.46,35.18,4.11
				c1.18,1.15,3.06,1.23,4.33,0.17c17.94-15.1,39.04-26.44,61.53-33.06c6.58-1.94,14.09-3.36,19.95,0.18
				c2.5,1.51,4.45,3.81,6.92,5.37c8.54,5.43,19.53,0.7,29.23-2.2c10.77-3.21,22.68-3.88,33.07,0.42s18.82,14.24,19.23,25.47
				c0.38,10.42-6.02,20.15-14.31,26.46c-8.3,6.31-18.35,9.8-28.22,13.15c-32.01,10.88-64.6,21.56-98.36,23.34
				s-69.37-6.34-94.45-29.02"/>
		</g>
		<g>
			<g>
				<g>
					<path class="st30" d="M917.99,640.54h-6c-0.28,0-0.5-0.22-0.5-0.5s0.22-0.5,0.5-0.5h6c0.28,0,0.5,0.22,0.5,0.5
						S918.26,640.54,917.99,640.54z"/>
				</g>
				<g>
					<path class="st30" d="M935.89,640.54h-8.95c-0.28,0-0.5-0.22-0.5-0.5s0.22-0.5,0.5-0.5h8.95c0.28,0,0.5,0.22,0.5,0.5
						S936.17,640.54,935.89,640.54z"/>
				</g>
				<g>
					<path class="st30" d="M950.84,640.54h-6c-0.28,0-0.5-0.22-0.5-0.5s0.22-0.5,0.5-0.5h6c0.28,0,0.5,0.22,0.5,0.5
						S951.12,640.54,950.84,640.54z"/>
				</g>
			</g>
			<g>
				<path class="st30" d="M903.73,644.25c-2.32,0-4.21-1.89-4.21-4.21c0-2.32,1.89-4.21,4.21-4.21c2.32,0,4.21,1.89,4.21,4.21
					C907.94,642.36,906.05,644.25,903.73,644.25z M903.73,636.83c-1.77,0-3.21,1.44-3.21,3.21s1.44,3.21,3.21,3.21
					s3.21-1.44,3.21-3.21S905.5,636.83,903.73,636.83z"/>
			</g>
		</g>
	</g>
</g>
</svg>
