<?xml version="1.0" encoding="utf-8"?>
<!-- Generator: Adobe Illustrator 23.0.1, SVG Export Plug-In . SVG Version: 6.00 Build 0)  -->
<svg version="1.1" id="Artwork" xmlns="http://www.w3.org/2000/svg" xmlns:xlink="http://www.w3.org/1999/xlink" x="0px" y="0px"
	 viewBox="0 0 240 240" style="enable-background:new 0 0 240 240;" xml:space="preserve">
<style type="text/css">
	.st0{clip-path:url(#SVGID_2_);}
	.st1{fill:#D4DAFF;}
	.st2{fill:#E9EDFF;}
	.st3{fill:#895737;}
	.st4{opacity:0.5;clip-path:url(#XMLID_2_);fill:#E9A300;}
	.st5{fill:#7E91FE;}
	.st6{opacity:0.5;clip-path:url(#XMLID_3_);fill:#000D54;}
	.st7{fill:#FFD26A;}
	.st8{opacity:0.5;fill:#FFFFFF;}
	.st9{fill:#FFFFFF;}
	.st10{clip-path:url(#XMLID_4_);fill:#895737;}
	.st11{clip-path:url(#XMLID_5_);fill:#E9A300;}
	.st12{clip-path:url(#XMLID_5_);fill:#895737;}
	.st13{clip-path:url(#XMLID_6_);fill:#E9A300;}
	.st14{clip-path:url(#XMLID_6_);fill:#895737;}
	.st15{clip-path:url(#XMLID_7_);fill:#E9A300;}
	.st16{clip-path:url(#XMLID_7_);fill:#895737;}
	.st17{clip-path:url(#XMLID_15_);fill:#E9A300;}
	.st18{clip-path:url(#XMLID_15_);fill:#895737;}
	.st19{fill:#000D54;}
	.st20{clip-path:url(#SVGID_4_);fill:#D4DAFF;}
	.st21{clip-path:url(#SVGID_6_);fill:#D4DAFF;}
</style>
<g>
	<defs>
		<rect id="SVGID_1_" width="240" height="240"/>
	</defs>
	<clipPath id="SVGID_2_">
		<use xlink:href="#SVGID_1_"  style="overflow:visible;"/>
	</clipPath>
	<g class="st0">
		<g>
			<g>
				<path class="st1" d="M190.12,220.1c-3,0-5.71-0.2-7.94-0.46c-10.3-1.18-20.38-4.31-30.12-7.35c-3.08-0.96-6.26-1.95-9.4-2.86
					c-25.5-7.41-58.79-15.66-90.1-13.62l-0.06-1c31.48-2.04,64.87,6.22,90.45,13.66c3.15,0.92,6.34,1.91,9.42,2.87
					c9.7,3.02,19.73,6.14,29.94,7.31c8.94,1.02,25.79,1.17,38.11-9.38c6.86-5.87,11.76-14.84,13.81-25.27
					c1.63-8.34,1.61-17.67-0.09-29.37l0.99-0.14c1.71,11.81,1.74,21.25,0.08,29.7c-2.09,10.64-7.11,19.82-14.14,25.83
					C211.52,218.19,199.4,220.1,190.12,220.1z"/>
			</g>
			<g>
				<path class="st1" d="M31.35,73.89l-0.97-0.24c5.18-20.56,22.41-37.67,43.9-43.6c20.27-5.59,43.29-1.26,61.59,11.59
					c4.29,3.01,8.32,6.47,12.22,9.82c4.12,3.53,8.39,7.19,12.93,10.3c10.39,7.11,21,9.86,29.9,7.75l0.23,0.97
					c-9.17,2.18-20.07-0.63-30.69-7.89c-4.59-3.14-8.87-6.81-13.01-10.36c-3.88-3.33-7.9-6.78-12.15-9.76
					c-18.06-12.68-40.77-16.96-60.75-11.45C53.4,36.85,36.45,53.68,31.35,73.89z"/>
			</g>
		</g>
		<path class="st2" d="M25.55,73.12C54.36,39.1,98.66,33,127.49,40.48c18.18,4.72,24.27,16.58,39.87,23.46
			c9.28,4.09,55.91,1.22,65.99,31.61c4.69,14.14,6.81,24.77,6.3,39.67c-0.65,18.77-1.79,38.94-13.41,53.69
			c-14.09,17.89-39.58,22.35-62.26,20.28c-22.68-2.07-44.81-9.29-67.58-9.44c-20.98-0.14-43.16,5.53-62.23-3.23
			c-16.16-7.43-27.64-23.92-30.66-41.45C-1.85,123.87,6.55,95.57,25.55,73.12z"/>
		<path class="st3" d="M72.1,62.59c-0.15-0.96-0.32-1.91-0.52-2.84c-1.92-0.75-3.36-2.21-4.57-3.89c-1.41,5.44-6.96,9.42-12.58,9.67
			c-1.28-0.04-2.91-0.05-4.09,0.46c-0.61,0.26-1.16,0.71-1.52,1.26c-1.31-1.53-2-3.52-2.06-5.56c-0.04-1.23,0.15-2.48,0.56-3.63
			c1.12-3.12,3.73-5.6,6.78-6.94c0.41-0.18,0.82-0.34,1.25-0.47c2.71-0.93,5.68-1.09,8.53-0.71c3.17,0.41,6.44,1.56,8.42,4.08
			C74.25,56.49,74.42,60.5,72.1,62.59z"/>
		<path class="st3" d="M55.34,50.65c-0.43,0.13-0.84,0.29-1.25,0.47c-3.05,1.34-5.66,3.81-6.78,6.94c-0.41,1.15-0.6,2.4-0.56,3.63
			c-3.12,0.36-7.16,0.38-9.67-0.66c-2.99-1.24-5.55-3.82-6.18-7c-0.65-3.18,0.98-6.83,4-8.03c1.98-0.78,4.37-0.42,6.03,0.92
			c1-3.16,5.06-4.57,8.19-3.46C52.02,44.49,54.19,47.69,55.34,50.65z"/>
		<g>
			<defs>
				<path id="XMLID_14_" d="M71.89,77.07c-0.85,1.47-2.28,2.59-3.9,3.08c-0.04,4.04-0.11,8.19-0.16,12.23c0,0-2.59,3.08-6.83,3.18
					c-4.24,0.1-8.34-3.32-8.34-3.32c0.57-6,1.07-13.73,1.63-20c-1.24,0-2.49-0.26-3.62-0.78c-1.07-0.48-2.12-1.3-2.31-2.46
					c-0.1-0.62,0.09-1.24,0.45-1.76c0.36-0.55,0.9-1,1.52-1.26c1.19-0.52,2.81-0.51,4.09-0.46c5.62-0.26,11.17-4.23,12.58-9.67
					c1.21,1.68,2.65,3.14,4.57,3.89c0.19,0.94,0.37,1.89,0.52,2.84c0.39,2.41,0.67,4.84,0.84,7.27
					C73.11,72.31,73.13,74.93,71.89,77.07z"/>
			</defs>
			<use xlink:href="#XMLID_14_"  style="overflow:visible;fill:#FFD26A;"/>
			<clipPath id="XMLID_2_">
				<use xlink:href="#XMLID_14_"  style="overflow:visible;"/>
			</clipPath>
			<path class="st4" d="M67.99,80.15c-1.45,0.02-5.46-1.85-5.98-1.92c-0.52-0.06,6.46,10.73,6.46,10.73L67.99,80.15"/>
		</g>
		<g>
			<g>
				<path class="st5" d="M169.12,50.76c-0.17,0-0.34-0.09-0.43-0.25c-0.14-0.24-0.05-0.55,0.19-0.68l8.79-4.99
					c0.21-0.12,0.48-0.07,0.63,0.12c0.15,0.19,0.15,0.46-0.01,0.64l-3.91,4.55c-0.18,0.21-0.5,0.23-0.71,0.05
					c-0.21-0.18-0.23-0.5-0.05-0.71l2.04-2.38l-6.3,3.58C169.29,50.74,169.2,50.76,169.12,50.76z"/>
			</g>
			<g>
				<path class="st5" d="M167.06,58.42c-0.12,0-0.23-0.04-0.33-0.12c-0.21-0.18-0.23-0.5-0.05-0.71l2.32-2.7
					c0.18-0.21,0.5-0.23,0.71-0.05c0.21,0.18,0.23,0.5,0.05,0.71l-2.32,2.7C167.34,58.36,167.2,58.42,167.06,58.42z"/>
			</g>
			<g>
				<path class="st5" d="M150.27,77.99c-0.12,0-0.23-0.04-0.33-0.12c-0.21-0.18-0.23-0.5-0.05-0.7l2.31-2.7
					c0.18-0.21,0.5-0.23,0.71-0.05c0.21,0.18,0.23,0.5,0.05,0.7l-2.31,2.7C150.55,77.93,150.42,77.99,150.27,77.99z M157.22,69.89
					c-0.12,0-0.23-0.04-0.33-0.12c-0.21-0.18-0.23-0.5-0.05-0.71l6.95-8.1c0.18-0.21,0.5-0.23,0.71-0.05
					c0.21,0.18,0.23,0.5,0.05,0.71l-6.95,8.1C157.5,69.83,157.36,69.89,157.22,69.89z"/>
			</g>
			<g>
				<path class="st5" d="M143.47,85.92c-0.04,0-0.07,0-0.11-0.01c-0.18-0.04-0.32-0.18-0.37-0.36l-1.59-5.79
					c-0.07-0.27,0.08-0.54,0.35-0.61c0.27-0.07,0.54,0.08,0.62,0.35l1.34,4.88l3.29-3.84c0.18-0.21,0.5-0.23,0.71-0.05
					c0.21,0.18,0.23,0.5,0.05,0.71l-3.91,4.55C143.76,85.86,143.62,85.92,143.47,85.92z"/>
			</g>
			<g>
				<path class="st5" d="M139.05,69.81c-0.22,0-0.42-0.15-0.48-0.37l-1.42-5.16c-0.07-0.27,0.08-0.54,0.35-0.61
					c0.27-0.07,0.54,0.08,0.62,0.35l1.42,5.16c0.07,0.27-0.08,0.54-0.35,0.61C139.14,69.81,139.09,69.81,139.05,69.81z"/>
			</g>
			<g>
				<path class="st5" d="M135.86,58.2c-0.22,0-0.42-0.15-0.48-0.37l-1.26-4.59l-2.26,4.18c-0.13,0.24-0.44,0.33-0.68,0.2
					c-0.24-0.13-0.33-0.44-0.2-0.68l2.85-5.28c0.1-0.18,0.3-0.28,0.5-0.26c0.2,0.02,0.37,0.17,0.43,0.36l1.59,5.79
					c0.07,0.27-0.08,0.54-0.35,0.61C135.94,58.2,135.9,58.2,135.86,58.2z"/>
			</g>
			<g>
				<path class="st5" d="M126.79,66.25c-0.08,0-0.16-0.02-0.24-0.06c-0.24-0.13-0.33-0.44-0.2-0.68l1.54-2.85
					c0.13-0.24,0.44-0.33,0.68-0.2c0.24,0.13,0.33,0.44,0.2,0.68l-1.54,2.85C127.13,66.15,126.96,66.25,126.79,66.25z"/>
			</g>
			<g>
				<path class="st5" d="M115.6,86.91c-0.08,0-0.16-0.02-0.24-0.06c-0.24-0.13-0.33-0.44-0.2-0.68l1.54-2.85
					c0.13-0.24,0.43-0.33,0.68-0.2c0.24,0.13,0.33,0.44,0.2,0.68l-1.54,2.85C115.95,86.82,115.78,86.91,115.6,86.91z M120.23,78.36
					c-0.08,0-0.16-0.02-0.24-0.06c-0.24-0.13-0.33-0.44-0.2-0.68l4.63-8.55c0.13-0.24,0.44-0.33,0.68-0.2
					c0.24,0.13,0.33,0.44,0.2,0.68l-4.63,8.55C120.58,78.27,120.41,78.36,120.23,78.36z"/>
			</g>
			<g>
				<path class="st5" d="M110.82,95.75c-0.17,0-0.32-0.08-0.42-0.22l-3.32-5c-0.15-0.23-0.09-0.54,0.14-0.69
					c0.23-0.15,0.54-0.09,0.69,0.14l2.86,4.3l2.46-4.55c0.13-0.24,0.43-0.33,0.68-0.2c0.24,0.13,0.33,0.44,0.2,0.68l-2.85,5.28
					c-0.08,0.15-0.24,0.25-0.42,0.26C110.84,95.75,110.83,95.75,110.82,95.75z"/>
			</g>
			<g>
				<path class="st5" d="M104.94,86.9c-0.16,0-0.32-0.08-0.42-0.22l-1.28-1.93c-0.15-0.23-0.09-0.54,0.14-0.69
					c0.23-0.15,0.54-0.09,0.69,0.14l1.28,1.93c0.15,0.23,0.09,0.54-0.14,0.69C105.13,86.88,105.03,86.9,104.94,86.9z"/>
			</g>
			<g>
				<path class="st5" d="M102.05,82.56c-0.16,0-0.32-0.08-0.42-0.22l-2.95-4.43l-3.38,4.11c-0.17,0.21-0.49,0.24-0.7,0.07
					c-0.21-0.18-0.24-0.49-0.07-0.7l3.81-4.64c0.1-0.12,0.25-0.19,0.41-0.18c0.16,0.01,0.3,0.09,0.39,0.22l3.32,5
					c0.15,0.23,0.09,0.54-0.14,0.69C102.24,82.54,102.15,82.56,102.05,82.56z"/>
			</g>
			<g>
				<path class="st5" d="M86.11,92.93c-0.11,0-0.22-0.04-0.32-0.11c-0.21-0.18-0.24-0.49-0.07-0.7l2.94-3.58
					c0.17-0.21,0.49-0.25,0.7-0.07c0.21,0.18,0.24,0.49,0.07,0.7l-2.94,3.58C86.39,92.87,86.25,92.93,86.11,92.93z"/>
			</g>
			<g>
				<path class="st5" d="M64.81,118.85c-0.11,0-0.22-0.04-0.32-0.11c-0.21-0.18-0.24-0.49-0.07-0.7l2.94-3.58
					c0.17-0.21,0.49-0.25,0.7-0.07c0.21,0.18,0.24,0.49,0.07,0.7l-2.94,3.58C65.1,118.79,64.95,118.85,64.81,118.85z M73.62,108.12
					c-0.11,0-0.22-0.04-0.32-0.11c-0.21-0.18-0.24-0.49-0.07-0.7l8.81-10.73c0.17-0.21,0.49-0.25,0.7-0.07
					c0.21,0.18,0.24,0.49,0.07,0.7l-8.81,10.73C73.91,108.06,73.77,108.12,73.62,108.12z"/>
			</g>
			<g>
				<path class="st5" d="M57.33,127.95c-0.11,0-0.22-0.04-0.32-0.11c-0.21-0.18-0.24-0.49-0.07-0.7l3.81-4.64
					c0.17-0.21,0.49-0.24,0.7-0.07c0.21,0.18,0.24,0.49,0.07,0.7l-3.81,4.64C57.61,127.89,57.47,127.95,57.33,127.95z"/>
			</g>
			<path class="st5" d="M174.62,55.75c-0.05,0-0.1-0.01-0.16-0.02c-0.26-0.09-0.41-0.37-0.32-0.63l3.29-9.99
				c0.09-0.26,0.37-0.4,0.63-0.32c0.26,0.09,0.41,0.37,0.32,0.63l-3.29,9.99C175.03,55.62,174.83,55.75,174.62,55.75z"/>
		</g>
		<g>
			<defs>
				<path id="XMLID_13_" d="M144.07,133.33l-24.65,16.97l-3.46,2.38l-0.01,0.01l-0.09,0.05c-0.6,0.34-1.23,0.66-1.87,0.94
					c-2.71,1.16-5.93,1.51-8.61,0.26c-2.62-1.22-4.35-3.74-5.96-6.14c-5.48-8.25-10.99-16.49-16.47-24.74
					c-0.94,17.05-4.24,42.34-7.72,58.96c-9.23-2.4-18.22-6.52-27.43-9.21c-3.67-1.07-7.41-1.92-11.19-2.53
					c-6.24-1.03-12.58-1.44-18.9-1.22c2.9-20.68,8.97-47.17,14.99-66.58c0.85-2.74,1.8-5.57,3.8-7.62c2.1-2.15,5.16-3.17,8.17-3.37
					c2.99-0.2,5.03,0.22,7.99,0.73c0,0,4.09,3.42,8.34,3.32c4.24-0.1,6.83-3.18,6.83-3.18c5.62-1.84,12.36-1.4,17.21,1.98
					c0.54,0.38,1.07,0.79,1.56,1.22c3.23,2.74,5.63,6.39,7.96,9.95c5.71,8.76,12,19.05,17.71,27.81
					c7.8-5.68,15.51-11.93,23.25-18.09c1.45,4.68,4.3,13.17,6.61,16.6C142.84,132.91,143.51,133.49,144.07,133.33z"/>
			</defs>
			<use xlink:href="#XMLID_13_"  style="overflow:visible;fill:#536DFE;"/>
			<clipPath id="XMLID_3_">
				<use xlink:href="#XMLID_13_"  style="overflow:visible;"/>
			</clipPath>
			<path class="st6" d="M45.85,165.76c0,0,16.42,3.55,22.37,13.89c5.95,10.34-14.48,2.38-14.48,2.38L45.85,165.76"/>
		</g>
		<path class="st7" d="M156.64,106.36v0.19c0.01,1.79-0.19,3.57-0.61,5.29c-0.09,0.39-0.19,0.78-0.3,1.15
			c-0.16,0.55-0.34,1.1-0.71,1.54c-0.36,0.44-0.93,0.74-1.49,0.65c-0.8-0.13-1.25-0.97-1.54-1.72c-0.08-0.19-0.15-0.39-0.22-0.59
			c-0.44-1.16-0.79-2.36-1.03-3.58c-1.53,0.82-2.98,1.68-4.22,2.52c-0.4,0.27-0.83,0.61-0.84,1.09c-0.02,0.48,0.42,0.88,0.88,0.99
			c0.03,0.01,0.08,0.02,0.11,0.02c-0.03,0.67,0.46,1.29,1.08,1.58c0.18,1,0.93,2.04,1.81,2.5c0,0.01,0,0.01,0,0.01
			c0.16,0.74,0.72,1.4,1.39,1.8c0.76,0.46,1.66,0.67,2.52,0.86c0.62,0.14,1.25,0.28,1.86,0.41c0.03-0.01,0.06-0.02,0.09-0.03
			c-3.07,2.49-6.14,4.99-9.2,7.48c0,0,0,0,0,0.01c-1.37,1.1-2.73,2.21-4.08,3.32c-2.32-3.44-5.16-11.93-6.61-16.6
			c3.63-2.9,7.26-5.77,10.9-8.56c2.11-1.58,4.22-3.17,6.33-4.74c0.57-0.43,1.23-0.88,1.94-0.8c1.14,0.15,1.63,1.53,1.77,2.67
			c0.02,0.15,0.03,0.3,0.05,0.45C156.59,104.97,156.63,105.66,156.64,106.36z"/>
		<path class="st7" d="M151.77,112.87c-1.26,0.3-2.53,0.6-3.79,0.9c-0.44,0.1-0.88,0.2-1.31,0.14c-0.03,0-0.08-0.01-0.11-0.02
			c-0.46-0.11-0.9-0.51-0.88-0.99c0.01-0.47,0.44-0.82,0.84-1.09c1.24-0.84,2.69-1.7,4.22-2.52
			C150.99,110.51,151.33,111.7,151.77,112.87z"/>
		<path class="st7" d="M161.01,116.31c-1.34,2.38-3.05,3.76-5.59,4.73c-0.02,0.01-0.05,0.02-0.09,0.03
			c-0.61-0.13-1.24-0.27-1.86-0.41c-0.86-0.19-1.76-0.4-2.52-0.86c-0.67-0.4-1.23-1.06-1.39-1.8c0,0,0,0,0-0.01
			c-0.88-0.46-1.63-1.5-1.81-2.5c-0.61-0.29-1.11-0.92-1.08-1.58c0.43,0.06,0.87-0.04,1.31-0.14c1.26-0.3,2.53-0.6,3.79-0.9
			c0.06,0.2,0.14,0.4,0.22,0.59c0.29,0.75,0.74,1.59,1.54,1.72c0.56,0.1,1.13-0.2,1.49-0.65c0.37-0.44,0.55-0.99,0.71-1.54
			c0.11-0.38,0.22-0.76,0.3-1.15c0.42-1.72,0.62-3.5,0.61-5.29v-0.19c-0.01-0.7-0.05-1.39-0.13-2.09c0.54,0.12,1.06,0.31,1.54,0.55
			c0.44,0.23,0.86,0.48,1.25,0.8c0.93,0.72,1.69,1.66,2.18,2.73C162.63,110.85,162.35,113.9,161.01,116.31z"/>
		
			<rect x="155.27" y="103.34" transform="matrix(0.6772 -0.7358 0.7358 0.6772 -25.0983 150.4687)" class="st5" width="7.36" height="1"/>
		<circle class="st8" cx="168.36" cy="93.43" r="10.1"/>
		<path class="st5" d="M168.36,104.02c-5.84,0-10.59-4.75-10.59-10.6s4.75-10.6,10.59-10.6c5.84,0,10.6,4.75,10.6,10.6
			S174.2,104.02,168.36,104.02z M168.36,83.83c-5.29,0-9.59,4.3-9.59,9.6s4.3,9.6,9.59,9.6s9.6-4.3,9.6-9.6
			S173.65,83.83,168.36,83.83z"/>
		<path class="st9" d="M36.61,170.79c-0.03,0-0.06,0-0.1-0.01c-0.27-0.05-0.45-0.32-0.39-0.59l9.24-46.42
			c0.05-0.27,0.31-0.45,0.59-0.39c0.27,0.05,0.45,0.32,0.39,0.59l-9.24,46.42C37.05,170.62,36.84,170.79,36.61,170.79z"/>
		<rect x="167.36" y="111.31" class="st5" width="8.79" height="19.85"/>
		<rect x="185.33" y="102.11" class="st5" width="8.79" height="29.04"/>
		<rect x="203.3" y="80.09" class="st5" width="8.79" height="51.07"/>
		<g>
			<defs>
				<path id="XMLID_12_" d="M215.96,152.81h-55.09c-1.44,0-2.61-1.17-2.61-2.61v-3.26c0-1.44,1.17-2.61,2.61-2.61h55.09
					c1.44,0,2.61,1.17,2.61,2.61v3.26C218.57,151.64,217.4,152.81,215.96,152.81z"/>
			</defs>
			<use xlink:href="#XMLID_12_"  style="overflow:visible;fill:#FFD26A;"/>
			<clipPath id="XMLID_4_">
				<use xlink:href="#XMLID_12_"  style="overflow:visible;"/>
			</clipPath>
			<path class="st10" d="M164.29,156.56c-0.28,0-0.5-0.22-0.5-0.5v-13.32c0-0.28,0.22-0.5,0.5-0.5s0.5,0.22,0.5,0.5v13.32
				C164.79,156.33,164.57,156.56,164.29,156.56z"/>
			<path class="st10" d="M171.34,156.56c-0.28,0-0.5-0.22-0.5-0.5v-13.32c0-0.28,0.22-0.5,0.5-0.5s0.5,0.22,0.5,0.5v13.32
				C171.84,156.33,171.62,156.56,171.34,156.56z"/>
			<path class="st10" d="M178.38,156.56c-0.28,0-0.5-0.22-0.5-0.5v-13.32c0-0.28,0.22-0.5,0.5-0.5s0.5,0.22,0.5,0.5v13.32
				C178.88,156.33,178.66,156.56,178.38,156.56z"/>
			<path class="st10" d="M185.43,156.56c-0.28,0-0.5-0.22-0.5-0.5v-13.32c0-0.28,0.22-0.5,0.5-0.5s0.5,0.22,0.5,0.5v13.32
				C185.93,156.33,185.71,156.56,185.43,156.56z"/>
			<path class="st10" d="M192.48,156.56c-0.28,0-0.5-0.22-0.5-0.5v-13.32c0-0.28,0.22-0.5,0.5-0.5s0.5,0.22,0.5,0.5v13.32
				C192.98,156.33,192.75,156.56,192.48,156.56z"/>
			<path class="st10" d="M199.52,156.56c-0.28,0-0.5-0.22-0.5-0.5v-13.32c0-0.28,0.22-0.5,0.5-0.5s0.5,0.22,0.5,0.5v13.32
				C200.02,156.33,199.8,156.56,199.52,156.56z"/>
			<path class="st10" d="M206.57,156.56c-0.28,0-0.5-0.22-0.5-0.5v-13.32c0-0.28,0.22-0.5,0.5-0.5s0.5,0.22,0.5,0.5v13.32
				C207.07,156.33,206.84,156.56,206.57,156.56z"/>
			<path class="st10" d="M213.61,156.56c-0.28,0-0.5-0.22-0.5-0.5v-13.32c0-0.28,0.22-0.5,0.5-0.5s0.5,0.22,0.5,0.5v13.32
				C214.11,156.33,213.89,156.56,213.61,156.56z"/>
		</g>
		<g>
			<defs>
				<path id="XMLID_11_" d="M222.96,161.29h-55.09c-1.44,0-2.61-1.17-2.61-2.61v-3.26c0-1.44,1.17-2.61,2.61-2.61h55.09
					c1.44,0,2.61,1.17,2.61,2.61v3.26C225.57,160.12,224.4,161.29,222.96,161.29z"/>
			</defs>
			<use xlink:href="#XMLID_11_"  style="overflow:visible;fill:#FFD26A;"/>
			<clipPath id="XMLID_5_">
				<use xlink:href="#XMLID_11_"  style="overflow:visible;"/>
			</clipPath>
			<rect x="164.65" y="151.4" class="st11" width="61.67" height="2.91"/>
			<path class="st12" d="M171.29,164.76c-0.28,0-0.5-0.22-0.5-0.5v-11.45c0-0.28,0.22-0.5,0.5-0.5s0.5,0.22,0.5,0.5v11.45
				C171.79,164.54,171.57,164.76,171.29,164.76z"/>
			<path class="st12" d="M178.35,164.76c-0.28,0-0.5-0.22-0.5-0.5v-11.45c0-0.28,0.22-0.5,0.5-0.5s0.5,0.22,0.5,0.5v11.45
				C178.85,164.54,178.63,164.76,178.35,164.76z"/>
			<path class="st12" d="M185.41,164.76c-0.28,0-0.5-0.22-0.5-0.5v-11.45c0-0.28,0.22-0.5,0.5-0.5s0.5,0.22,0.5,0.5v11.45
				C185.91,164.54,185.69,164.76,185.41,164.76z"/>
			<path class="st12" d="M192.47,164.76c-0.28,0-0.5-0.22-0.5-0.5v-11.45c0-0.28,0.22-0.5,0.5-0.5s0.5,0.22,0.5,0.5v11.45
				C192.97,164.54,192.75,164.76,192.47,164.76z"/>
			<path class="st12" d="M199.53,164.76c-0.28,0-0.5-0.22-0.5-0.5v-11.45c0-0.28,0.22-0.5,0.5-0.5s0.5,0.22,0.5,0.5v11.45
				C200.03,164.54,199.8,164.76,199.53,164.76z"/>
			<path class="st12" d="M206.59,164.76c-0.28,0-0.5-0.22-0.5-0.5v-11.45c0-0.28,0.22-0.5,0.5-0.5s0.5,0.22,0.5,0.5v11.45
				C207.09,164.54,206.86,164.76,206.59,164.76z"/>
			<path class="st12" d="M213.64,164.76c-0.28,0-0.5-0.22-0.5-0.5v-11.45c0-0.28,0.22-0.5,0.5-0.5s0.5,0.22,0.5,0.5v11.45
				C214.14,164.54,213.92,164.76,213.64,164.76z"/>
			<path class="st12" d="M220.7,164.76c-0.28,0-0.5-0.22-0.5-0.5v-11.45c0-0.28,0.22-0.5,0.5-0.5s0.5,0.22,0.5,0.5v11.45
				C221.2,164.54,220.98,164.76,220.7,164.76z"/>
		</g>
		<g>
			<defs>
				<path id="XMLID_10_" d="M215.96,169.77h-55.09c-1.44,0-2.61-1.17-2.61-2.61v-3.26c0-1.44,1.17-2.61,2.61-2.61h55.09
					c1.44,0,2.61,1.17,2.61,2.61v3.26C218.57,168.6,217.4,169.77,215.96,169.77z"/>
			</defs>
			<use xlink:href="#XMLID_10_"  style="overflow:visible;fill:#FFD26A;"/>
			<clipPath id="XMLID_6_">
				<use xlink:href="#XMLID_10_"  style="overflow:visible;"/>
			</clipPath>
			<rect x="157.65" y="159.88" class="st13" width="61.67" height="2.91"/>
			<path class="st14" d="M164.29,173.24c-0.28,0-0.5-0.22-0.5-0.5v-11.45c0-0.28,0.22-0.5,0.5-0.5s0.5,0.22,0.5,0.5v11.45
				C164.79,173.02,164.57,173.24,164.29,173.24z"/>
			<path class="st14" d="M171.35,173.24c-0.28,0-0.5-0.22-0.5-0.5v-11.45c0-0.28,0.22-0.5,0.5-0.5s0.5,0.22,0.5,0.5v11.45
				C171.85,173.02,171.63,173.24,171.35,173.24z"/>
			<path class="st14" d="M178.41,173.24c-0.28,0-0.5-0.22-0.5-0.5v-11.45c0-0.28,0.22-0.5,0.5-0.5s0.5,0.22,0.5,0.5v11.45
				C178.91,173.02,178.69,173.24,178.41,173.24z"/>
			<path class="st14" d="M185.47,173.24c-0.28,0-0.5-0.22-0.5-0.5v-11.45c0-0.28,0.22-0.5,0.5-0.5s0.5,0.22,0.5,0.5v11.45
				C185.97,173.02,185.75,173.24,185.47,173.24z"/>
			<path class="st14" d="M192.53,173.24c-0.28,0-0.5-0.22-0.5-0.5v-11.45c0-0.28,0.22-0.5,0.5-0.5s0.5,0.22,0.5,0.5v11.45
				C193.03,173.02,192.8,173.24,192.53,173.24z"/>
			<path class="st14" d="M199.59,173.24c-0.28,0-0.5-0.22-0.5-0.5v-11.45c0-0.28,0.22-0.5,0.5-0.5s0.5,0.22,0.5,0.5v11.45
				C200.09,173.02,199.86,173.24,199.59,173.24z"/>
			<path class="st14" d="M206.64,173.24c-0.28,0-0.5-0.22-0.5-0.5v-11.45c0-0.28,0.22-0.5,0.5-0.5s0.5,0.22,0.5,0.5v11.45
				C207.14,173.02,206.92,173.24,206.64,173.24z"/>
			<path class="st14" d="M213.7,173.24c-0.28,0-0.5-0.22-0.5-0.5v-11.45c0-0.28,0.22-0.5,0.5-0.5s0.5,0.22,0.5,0.5v11.45
				C214.2,173.02,213.98,173.24,213.7,173.24z"/>
		</g>
		<g>
			<defs>
				<path id="XMLID_9_" d="M211.96,178.25h-55.09c-1.44,0-2.61-1.17-2.61-2.61v-3.26c0-1.44,1.17-2.61,2.61-2.61h55.09
					c1.44,0,2.61,1.17,2.61,2.61v3.26C214.57,177.08,213.4,178.25,211.96,178.25z"/>
			</defs>
			<use xlink:href="#XMLID_9_"  style="overflow:visible;fill:#FFD26A;"/>
			<clipPath id="XMLID_7_">
				<use xlink:href="#XMLID_9_"  style="overflow:visible;"/>
			</clipPath>
			<rect x="153.65" y="168.36" class="st15" width="61.67" height="2.91"/>
			<path class="st16" d="M160.29,181.72c-0.28,0-0.5-0.22-0.5-0.5v-11.45c0-0.28,0.22-0.5,0.5-0.5s0.5,0.22,0.5,0.5v11.45
				C160.79,181.5,160.57,181.72,160.29,181.72z"/>
			<path class="st16" d="M167.35,181.72c-0.28,0-0.5-0.22-0.5-0.5v-11.45c0-0.28,0.22-0.5,0.5-0.5s0.5,0.22,0.5,0.5v11.45
				C167.85,181.5,167.63,181.72,167.35,181.72z"/>
			<path class="st16" d="M174.41,181.72c-0.28,0-0.5-0.22-0.5-0.5v-11.45c0-0.28,0.22-0.5,0.5-0.5s0.5,0.22,0.5,0.5v11.45
				C174.91,181.5,174.69,181.72,174.41,181.72z"/>
			<path class="st16" d="M181.47,181.72c-0.28,0-0.5-0.22-0.5-0.5v-11.45c0-0.28,0.22-0.5,0.5-0.5s0.5,0.22,0.5,0.5v11.45
				C181.97,181.5,181.75,181.72,181.47,181.72z"/>
			<path class="st16" d="M188.53,181.72c-0.28,0-0.5-0.22-0.5-0.5v-11.45c0-0.28,0.22-0.5,0.5-0.5s0.5,0.22,0.5,0.5v11.45
				C189.03,181.5,188.8,181.72,188.53,181.72z"/>
			<path class="st16" d="M195.59,181.72c-0.28,0-0.5-0.22-0.5-0.5v-11.45c0-0.28,0.22-0.5,0.5-0.5s0.5,0.22,0.5,0.5v11.45
				C196.09,181.5,195.86,181.72,195.59,181.72z"/>
			<path class="st16" d="M202.64,181.72c-0.28,0-0.5-0.22-0.5-0.5v-11.45c0-0.28,0.22-0.5,0.5-0.5s0.5,0.22,0.5,0.5v11.45
				C203.14,181.5,202.92,181.72,202.64,181.72z"/>
			<path class="st16" d="M209.7,181.72c-0.28,0-0.5-0.22-0.5-0.5v-11.45c0-0.28,0.22-0.5,0.5-0.5s0.5,0.22,0.5,0.5v11.45
				C210.2,181.5,209.98,181.72,209.7,181.72z"/>
		</g>
		<g>
			<defs>
				<path id="XMLID_8_" d="M215.96,186.73h-55.09c-1.44,0-2.61-1.17-2.61-2.61v-3.26c0-1.44,1.17-2.61,2.61-2.61h55.09
					c1.44,0,2.61,1.17,2.61,2.61v3.26C218.57,185.56,217.4,186.73,215.96,186.73z"/>
			</defs>
			<use xlink:href="#XMLID_8_"  style="overflow:visible;fill:#FFD26A;"/>
			<clipPath id="XMLID_15_">
				<use xlink:href="#XMLID_8_"  style="overflow:visible;"/>
			</clipPath>
			<rect x="157.65" y="176.84" class="st17" width="61.67" height="2.91"/>
			<path class="st18" d="M164.29,190.2c-0.28,0-0.5-0.22-0.5-0.5v-11.45c0-0.28,0.22-0.5,0.5-0.5s0.5,0.22,0.5,0.5v11.45
				C164.79,189.98,164.57,190.2,164.29,190.2z"/>
			<path class="st18" d="M171.35,190.2c-0.28,0-0.5-0.22-0.5-0.5v-11.45c0-0.28,0.22-0.5,0.5-0.5s0.5,0.22,0.5,0.5v11.45
				C171.85,189.98,171.63,190.2,171.35,190.2z"/>
			<path class="st18" d="M178.41,190.2c-0.28,0-0.5-0.22-0.5-0.5v-11.45c0-0.28,0.22-0.5,0.5-0.5s0.5,0.22,0.5,0.5v11.45
				C178.91,189.98,178.69,190.2,178.41,190.2z"/>
			<path class="st18" d="M185.47,190.2c-0.28,0-0.5-0.22-0.5-0.5v-11.45c0-0.28,0.22-0.5,0.5-0.5s0.5,0.22,0.5,0.5v11.45
				C185.97,189.98,185.75,190.2,185.47,190.2z"/>
			<path class="st18" d="M192.53,190.2c-0.28,0-0.5-0.22-0.5-0.5v-11.45c0-0.28,0.22-0.5,0.5-0.5s0.5,0.22,0.5,0.5v11.45
				C193.03,189.98,192.8,190.2,192.53,190.2z"/>
			<path class="st18" d="M199.59,190.2c-0.28,0-0.5-0.22-0.5-0.5v-11.45c0-0.28,0.22-0.5,0.5-0.5s0.5,0.22,0.5,0.5v11.45
				C200.09,189.98,199.86,190.2,199.59,190.2z"/>
			<path class="st18" d="M206.64,190.2c-0.28,0-0.5-0.22-0.5-0.5v-11.45c0-0.28,0.22-0.5,0.5-0.5s0.5,0.22,0.5,0.5v11.45
				C207.14,189.98,206.92,190.2,206.64,190.2z"/>
			<path class="st18" d="M213.7,190.2c-0.28,0-0.5-0.22-0.5-0.5v-11.45c0-0.28,0.22-0.5,0.5-0.5s0.5,0.22,0.5,0.5v11.45
				C214.2,189.98,213.98,190.2,213.7,190.2z"/>
		</g>
		<path class="st19" d="M144.07,133.33c-0.56,0.15-1.23-0.42-1.94-1.49c1.36-1.11,2.71-2.22,4.08-3.32
			C146.28,128.8,147.09,132.49,144.07,133.33z"/>
		<g>
			<defs>
				<path id="SVGID_3_" d="M17.69,73.25C46.49,39.22,86.71,15.04,130.27,5.55c7.09-1.54,14.39-2.72,21.59-1.8s14.37,4.15,18.68,9.99
					c6.5,8.8,5.53,21.77,12.81,29.94c6.74,7.57,18.07,8.42,27.29,12.65c13.54,6.22,22.37,20.03,26.19,34.44s3.33,29.55,2.82,44.45
					c-0.65,18.77-1.79,38.94-13.41,53.69c-14.09,17.89-39.58,22.35-62.26,20.28c-22.68-2.07-44.81-9.29-67.58-9.44
					c-20.98-0.14-43.16,5.53-62.23-3.23c-16.16-7.43-26.5-24.15-30.66-41.45C-3.16,127.25-1.32,95.7,17.69,73.25z"/>
			</defs>
			<clipPath id="SVGID_4_">
				<use xlink:href="#SVGID_3_"  style="overflow:visible;"/>
			</clipPath>
			<path class="st20" d="M58.16,172.06c2.73,1.99,5.38,4.34,8.67,5.12c4.48,1.07,9.24-0.98,13.74-0.01
				c6.14,1.33,9.72,7.67,11.83,13.59c1.49,4.18,2.56,9.16,0.02,12.81c-2.47,3.57-7.34,4.37-11.67,4.66
				c-16.8,1.09-33.81-1.07-49.8-6.34c-7.13-2.35-14.2-5.4-19.73-10.48c-4.14-3.8-7.65-9.15-8.4-14.81
				c-0.65-4.87,2.09-6.61,6.12-8.55c10.07-4.84,21.67-6.06,32.55-3.52C47.47,165.92,53.19,168.44,58.16,172.06z"/>
		</g>
		<path class="st9" d="M58.91,105.55c-0.13,0-0.27-0.05-0.37-0.16l-9.95-10.73c-0.15-0.16-0.18-0.41-0.06-0.6l3.1-5.04
			c0.14-0.24,0.45-0.31,0.69-0.16c0.23,0.14,0.31,0.45,0.16,0.69l-2.9,4.72l9.7,10.45c0.19,0.2,0.18,0.52-0.03,0.71
			C59.15,105.51,59.03,105.55,58.91,105.55z"/>
		<path class="st9" d="M62.27,105.55c-0.12,0-0.23-0.04-0.33-0.12c-0.21-0.18-0.23-0.5-0.05-0.71l9.8-11.3l-3.33-3.82
			c-0.18-0.21-0.16-0.52,0.05-0.71c0.21-0.18,0.52-0.16,0.71,0.05l3.62,4.15c0.16,0.19,0.16,0.47,0,0.66l-10.08,11.63
			C62.55,105.5,62.41,105.55,62.27,105.55z"/>
		<path class="st9" d="M55.34,170.68c-0.07,0-0.14-0.01-0.21-0.05c-0.25-0.12-0.36-0.41-0.24-0.66c8.18-17.75,5.87-62.95,5.85-63.4
			c-0.01-0.28,0.2-0.51,0.47-0.53c0.27-0.02,0.51,0.2,0.53,0.47c0.02,0.46,2.35,45.9-5.94,63.87
			C55.71,170.58,55.53,170.68,55.34,170.68z"/>
		<g>
			<defs>
				<path id="SVGID_5_" d="M17.69,73.25C46.49,39.22,86.71,15.04,130.27,5.55c7.09-1.54,14.39-2.72,21.59-1.8s14.37,4.15,18.68,9.99
					c6.5,8.8,5.53,21.77,12.81,29.94c6.74,7.57,18.07,8.42,27.29,12.65c13.54,6.22,22.37,20.03,26.19,34.44s3.33,29.55,2.82,44.45
					c-0.65,18.77-1.79,38.94-13.41,53.69c-14.09,17.89-39.58,22.35-62.26,20.28c-22.68-2.07-44.81-9.29-67.58-9.44
					c-20.98-0.14-43.16,5.53-62.23-3.23c-16.16-7.43-26.5-24.15-30.66-41.45C-3.16,127.25-1.32,95.7,17.69,73.25z"/>
			</defs>
			<clipPath id="SVGID_6_">
				<use xlink:href="#SVGID_5_"  style="overflow:visible;"/>
			</clipPath>
			<path class="st21" d="M159.8,186.19c4.3-2.03,9.31-3.56,13.73-1.81c1.82,0.72,3.44,1.97,5.36,2.33c2.92,0.55,5.76-1.03,8.44-2.32
				c10.41-5.04,22.6-6.32,33.83-3.54c5.25,1.3,10.8,3.96,12.68,9.03c1.06,2.86,0.76,6.11-0.42,8.92c-1.18,2.81-3.16,5.22-5.41,7.29
				c-5.28,4.86-12,7.94-18.92,9.85c-6.92,1.9-14.09,2.7-21.22,3.49c-9.13,1.01-18.35,2.02-27.48,1.02
				c-7.3-0.8-18.23-3.08-23.07-9.23c-4.69-5.96,6.38-14.23,10.49-17.53C151.5,190.74,155.53,188.21,159.8,186.19z"/>
		</g>
		<circle class="st9" cx="174.58" cy="90.93" r="1"/>
		<g>
			<path class="st3" d="M156.03,112.34c-0.23,0-0.43-0.16-0.49-0.39c-0.06-0.27,0.11-0.54,0.37-0.6l2.23-0.53
				c0.27-0.06,0.54,0.11,0.6,0.37c0.06,0.27-0.11,0.54-0.37,0.6l-2.23,0.53C156.11,112.34,156.07,112.34,156.03,112.34z"/>
			<path class="st3" d="M149.5,116.32c-0.63,0-1.31-0.06-1.94-0.36l0,0c-0.01,0-0.01-0.01-0.02-0.01c-1.14-0.39-1.36-1.91-1.37-1.97
				c-0.04-0.27,0.15-0.52,0.42-0.56c0.27-0.04,0.53,0.15,0.57,0.42c0.04,0.26,0.25,1.03,0.73,1.18c0.05,0.01,0.09,0.04,0.13,0.06
				c0.56,0.25,1.23,0.26,1.87,0.24c3.38-0.1,6.68-0.76,9.81-1.98c0.26-0.1,0.55,0.03,0.65,0.28c0.1,0.26-0.03,0.55-0.28,0.65
				c-3.23,1.26-6.64,1.95-10.14,2.05C149.79,116.32,149.65,116.32,149.5,116.32z"/>
			<path class="st3" d="M152.23,119.05c-0.84,0-1.78-0.1-2.66-0.48c-0.08-0.04-0.17-0.07-0.24-0.12c-1.28-0.5-1.99-2.57-2.06-2.81
				c-0.08-0.26,0.06-0.54,0.32-0.63c0.26-0.08,0.54,0.06,0.63,0.32c0.24,0.73,0.86,1.97,1.5,2.19c0.04,0.01,0.08,0.03,0.11,0.06
				c0.04,0.03,0.09,0.04,0.13,0.06c1.05,0.45,2.26,0.43,3.2,0.36c2.6-0.21,5.18-0.97,7.46-2.2c0.24-0.13,0.55-0.04,0.68,0.2
				c0.13,0.24,0.04,0.55-0.2,0.68c-2.4,1.3-5.12,2.1-7.86,2.32C152.93,119.03,152.59,119.05,152.23,119.05z"/>
			<path class="st3" d="M154.21,115.61c-2.12,0-2.88-2.5-2.91-2.6c-0.08-0.26,0.07-0.54,0.34-0.62c0.26-0.08,0.54,0.07,0.62,0.34
				c0.01,0.02,0.58,1.89,1.95,1.89c0.16,0,0.32-0.17,0.43-0.31c1.35-1.75,1.84-8.19,1.4-9.91c-0.07-0.27,0.09-0.54,0.36-0.61
				c0.27-0.07,0.54,0.09,0.61,0.36c0.5,1.95-0.02,8.76-1.58,10.77C155.06,115.38,154.66,115.61,154.21,115.61z"/>
			<path class="st3" d="M155.33,121.58C155.33,121.58,155.33,121.58,155.33,121.58c-5.2-0.08-6.21-3.29-6.25-3.43
				c-0.08-0.26,0.07-0.54,0.34-0.62c0.27-0.08,0.54,0.07,0.62,0.33c0.04,0.11,0.89,2.65,5.3,2.72c0.28,0,0.5,0.23,0.49,0.51
				C155.83,121.36,155.6,121.58,155.33,121.58z"/>
			<path class="st3" d="M146.94,114.43c-0.11,0-0.23-0.01-0.35-0.02c-0.01,0-0.1-0.01-0.19-0.04c-0.6-0.14-1.26-0.71-1.23-1.49
				c0.02-0.78,0.72-1.25,1.06-1.48c1.22-0.83,2.66-1.69,4.27-2.55c0.14-0.07,0.31-0.08,0.45-0.01c0.14,0.07,0.25,0.2,0.28,0.35
				c0.24,1.19,0.58,2.37,1.01,3.5c0.05,0.13,0.04,0.28-0.03,0.41c-0.07,0.13-0.19,0.22-0.33,0.25l-3.79,0.9
				C147.68,114.35,147.31,114.43,146.94,114.43z M150.39,110.05c-1.33,0.73-2.57,1.48-3.6,2.18c-0.29,0.19-0.62,0.45-0.62,0.69
				c-0.01,0.22,0.25,0.44,0.5,0.49c0.38,0.06,0.74-0.02,1.12-0.1l3.32-0.79C150.83,111.71,150.59,110.88,150.39,110.05z"/>
		</g>
		<circle class="st5" cx="98.72" cy="77.24" r="2.04"/>
		<circle class="st5" cx="134.24" cy="52.5" r="3.35"/>
		<circle class="st5" cx="143.64" cy="85.37" r="2.04"/>
		<circle class="st5" cx="110.64" cy="95.55" r="3.03"/>
	</g>
</g>
</svg>
