<?xml version="1.0" encoding="utf-8"?>
<!-- Generator: Adobe Illustrator 23.0.1, SVG Export Plug-In . SVG Version: 6.00 Build 0)  -->
<svg version="1.1" id="Artwork" xmlns="http://www.w3.org/2000/svg" xmlns:xlink="http://www.w3.org/1999/xlink" x="0px" y="0px"
	 viewBox="0 0 240 240" style="enable-background:new 0 0 240 240;" xml:space="preserve">
<style type="text/css">
	.st0{clip-path:url(#SVGID_2_);}
	.st1{fill:#D4DAFF;}
	.st2{fill:#E9EDFF;}
	.st3{fill:#659157;}
	.st4{fill:#FFFFFF;}
	.st5{clip-path:url(#XMLID_7_);fill:#E9EDFF;}
	.st6{fill:#7E91FE;}
	.st7{fill:#FFD26A;}
	.st8{clip-path:url(#XMLID_8_);fill:#E9EDFF;}
	.st9{fill:#BEC8FF;}
	.st10{opacity:0.5;clip-path:url(#XMLID_9_);fill:#FFB811;}
	.st11{fill:#FFE19C;}
	.st12{fill:#895737;}
	.st13{opacity:0.5;clip-path:url(#XMLID_10_);fill:#659157;}
	.st14{clip-path:url(#SVGID_4_);}
	.st15{opacity:0.5;clip-path:url(#XMLID_11_);fill:#000D54;}
	.st16{clip-path:url(#SVGID_6_);fill:#D4DAFF;}
	.st17{fill:#32482B;}
</style>
<g>
	<defs>
		<rect id="SVGID_1_" width="240" height="240"/>
	</defs>
	<clipPath id="SVGID_2_">
		<use xlink:href="#SVGID_1_"  style="overflow:visible;"/>
	</clipPath>
	<g class="st0">
		<g>
			<path class="st1" d="M198.76,222.43c-3.76,0-7.51-0.19-11.21-0.37l-1.67-0.08c-24.59-1.2-49.51-1.11-74.09,0.25l-0.05-1
				c24.61-1.37,49.57-1.45,74.2-0.25l1.67,0.08c7.31,0.37,14.87,0.74,22.18-0.36c6.7-1.01,16.83-2.54,22.46-8.46
				c10.41-10.95,7.12-30.13,5.23-37.86c-1.84-7.5-4.92-14.75-7.9-21.77c-2.04-4.8-4.15-9.76-5.85-14.78l0.95-0.32
				c1.69,4.98,3.79,9.93,5.83,14.71c3,7.05,6.1,14.34,7.95,21.92c1.93,7.89,5.27,27.48-5.47,38.79c-5.87,6.17-16.2,7.73-23.04,8.76
				C206.24,222.24,202.49,222.43,198.76,222.43z"/>
			<path class="st1" d="M32.01,198.81c-13.32-11.07-23.18-26.37-27.76-43.08s-3.9-34.89,1.91-51.21l0.06-0.17
				c3.07-8.57,16.01-18.29,24.17-22.01c3.48-1.59,13.65-3.59,17.99-4.45c0.88-0.17,1.64-0.32,1.75-0.35l0.1,0.36l-0.04-0.39
				l0.59,0.43c0.07,0.49,0.07,0.49-2.21,0.94c-3.93,0.77-14.39,2.83-17.76,4.38c-8,3.65-20.67,13.13-23.65,21.44l-0.53,0l0.47,0.17
				c-5.74,16.13-6.41,34.1-1.88,50.61c4.53,16.51,14.27,31.63,27.43,42.57L32.01,198.81z"/>
		</g>
		<path class="st2" d="M8.45,117.73c3.52-16.41,15.14-31.72,30.34-33.78c8.21-1.11,16.4,1.63,24.64,2.44
			c18.32,1.81,36.3-5.97,52.55-15.45s31.74-20.88,49.17-27.34c10.05-3.73,20.85-5.74,31.29-3.69c10.44,2.05,20.46,8.6,25.56,18.82
			c8.71,17.45,1.31,38.97,2.25,58.86c0.68,14.37,5.8,27.96,8.78,41.97c2.98,14.01,3.49,29.88-4.07,41.61
			c-6.67,10.35-18.4,15.4-29.85,16.9c-11.45,1.5-23.02,0.01-34.55,0.11c-27.92,0.24-55.7,9.82-83.41,5.96
			c-17.69-2.46-34.59-10.73-48.41-23.08c-6.94-6.2-13.56-13.57-18.44-21.85C10.25,172.34,5.49,131.56,8.45,117.73z"/>
		<path class="st3" d="M183.09,32.17c-0.23,0.32-2.16,4.24-3.09,6.15c-0.28,0.58,0.01,1.26,0.61,1.48c1.6,0.57,4.69,1.42,7.73,0.78
			c4.36-0.92-1.63-6.41-1.63-6.41L183.09,32.17z"/>
		<polyline class="st4" points="187.85,96.27 145.51,96.27 131.67,111.54 61.53,111.54 61.53,60.6 158.87,60.6 158.87,72.05 
			192.27,77.9 187.85,96.27 		"/>
		<g>
			<defs>
				<polygon id="XMLID_4_" points="61.53,72.05 61.53,111.54 36.21,111.54 28.13,77.9 				"/>
			</defs>
			<use xlink:href="#XMLID_4_"  style="overflow:visible;fill:#FFFFFF;"/>
			<clipPath id="XMLID_7_">
				<use xlink:href="#XMLID_4_"  style="overflow:visible;"/>
			</clipPath>
			<polyline class="st5" points="61.53,77.89 56.99,119.37 68.4,117.41 61.53,77.89 			"/>
		</g>
		<g>
			<g>
				<path class="st6" d="M36.21,112.04c-0.23,0-0.43-0.15-0.49-0.38l-1.4-5.83c-0.06-0.27,0.1-0.54,0.37-0.6
					c0.28-0.07,0.54,0.1,0.6,0.37l1.4,5.83c0.06,0.27-0.1,0.54-0.37,0.6C36.29,112.03,36.25,112.04,36.21,112.04z"/>
			</g>
			<g>
				<path class="st6" d="M32.33,95.86c-0.23,0-0.43-0.15-0.49-0.38l-1.24-5.17c-0.06-0.27,0.1-0.54,0.37-0.6
					c0.28-0.06,0.54,0.1,0.6,0.37l1.24,5.17c0.06,0.27-0.1,0.54-0.37,0.6C32.41,95.86,32.37,95.86,32.33,95.86z"/>
			</g>
			<g>
				<path class="st6" d="M29.53,84.23c-0.23,0-0.43-0.15-0.49-0.38l-1.4-5.83c-0.03-0.13-0.01-0.28,0.07-0.39s0.2-0.19,0.33-0.22
					l5.91-1.03c0.26-0.05,0.53,0.13,0.58,0.41c0.05,0.27-0.13,0.53-0.41,0.58l-5.39,0.94l1.28,5.32c0.06,0.27-0.1,0.54-0.37,0.6
					C29.61,84.23,29.57,84.23,29.53,84.23z"/>
			</g>
			<g>
				<path class="st6" d="M44.2,75.59c-0.24,0-0.45-0.17-0.49-0.41c-0.05-0.27,0.13-0.53,0.41-0.58l5.08-0.89
					c0.27-0.05,0.53,0.13,0.58,0.41c0.05,0.27-0.13,0.53-0.41,0.58l-5.08,0.89C44.25,75.59,44.23,75.59,44.2,75.59z"/>
			</g>
			<g>
				<path class="st6" d="M55.62,73.59c-0.24,0-0.45-0.17-0.49-0.41c-0.05-0.27,0.13-0.53,0.41-0.58l5.91-1.03
					c0.26-0.05,0.53,0.13,0.58,0.41c0.05,0.27-0.13,0.53-0.41,0.58l-5.91,1.03C55.68,73.59,55.65,73.59,55.62,73.59z"/>
			</g>
		</g>
		<g>
			<path class="st7" d="M151.71,73.15h-43.06c-0.28,0-0.5-0.22-0.5-0.5s0.22-0.5,0.5-0.5h43.06c0.28,0,0.5,0.22,0.5,0.5
				S151.99,73.15,151.71,73.15z"/>
			<path class="st7" d="M151.71,80.67h-43.06c-0.28,0-0.5-0.22-0.5-0.5s0.22-0.5,0.5-0.5h43.06c0.28,0,0.5,0.22,0.5,0.5
				S151.99,80.67,151.71,80.67z"/>
			<path class="st7" d="M125.47,88.18h-16.82c-0.28,0-0.5-0.22-0.5-0.5s0.22-0.5,0.5-0.5h16.82c0.28,0,0.5,0.22,0.5,0.5
				S125.74,88.18,125.47,88.18z"/>
		</g>
		<path class="st7" d="M91.94,94.36H74.19c-1.59,0-2.88-1.29-2.88-2.88V75.53c0-1.59,1.29-2.88,2.88-2.88h17.74
			c1.59,0,2.88,1.29,2.88,2.88v15.96C94.81,93.07,93.52,94.36,91.94,94.36z"/>
		<g>
			<defs>
				<polygon id="XMLID_5_" points="192.27,77.9 187.85,96.27 158.87,96.27 158.87,72.05 				"/>
			</defs>
			<use xlink:href="#XMLID_5_"  style="overflow:visible;fill:#FFFFFF;"/>
			<clipPath id="XMLID_8_">
				<use xlink:href="#XMLID_5_"  style="overflow:visible;"/>
			</clipPath>
			<polygon class="st8" points="158,68.81 163.04,102.92 152.6,104.03 			"/>
		</g>
		<path class="st4" d="M230.08,109.15c-0.36,6.32-0.36,7.4-5.84,10.62c-2.18,1.27-8.09,4.69-14.43,8.35
			c-9.65,5.57-20.3,11.69-20.3,11.69l-6.27-16.94l18.09-11.33l8.48-5.31v-2.64c0-4.04-3.28-7.32-7.32-7.32h-14.62l4.41-18.37
			l-33.4-5.84V60.6h-7.64c1.2-3.75,3.08-7.62,6.6-9.38c2.68-1.34,5.83-1.21,8.84-1.04c6.07,0.34,11.65,0.66,17.72,0.99
			c0,0,0.01,0.08,0.05,0.23c0.2,0.91,1.24,4.29,5.57,5.33c5.01,1.19,10.13-1.96,10.13-1.96s18.62,5.72,21.24,9.53
			C224,68.12,230.44,102.83,230.08,109.15z"/>
		<path class="st9" d="M151.7,60.76l-0.95-0.31c1.63-5.08,3.81-8.16,6.85-9.68c2.89-1.44,6.33-1.25,9.09-1.1
			c3.04,0.17,6.21,0.39,9.38,0.6c3.16,0.22,6.33,0.43,9.36,0.6l-0.05,1c-3.04-0.17-6.21-0.38-9.37-0.6
			c-3.16-0.22-6.33-0.43-9.36-0.6c-2.65-0.15-5.94-0.33-8.58,0.99C155.26,53.06,153.24,55.95,151.7,60.76z"/>
		<path class="st9" d="M209.8,128.62c-0.17,0-0.34-0.09-0.43-0.25c-0.14-0.24-0.06-0.54,0.18-0.68c6.34-3.66,12.25-7.08,14.43-8.35
			c5.19-3.05,5.25-3.97,5.59-10l0.01-0.21c0.35-6.18-5.97-40.69-8.62-44.54c-2.07-3.01-16.29-7.91-21.6-9.54
			c-0.26-0.08-0.41-0.36-0.33-0.63c0.08-0.26,0.36-0.41,0.62-0.33c0.79,0.24,19.44,6.01,22.13,9.93c2.7,3.92,9.15,38.91,8.79,45.16
			l-0.01,0.21c-0.35,6.2-0.42,7.49-6.08,10.81c-2.18,1.27-8.09,4.69-14.44,8.35C209.97,128.6,209.89,128.62,209.8,128.62z"/>
		<g>
			<defs>
				<path id="XMLID_1_" d="M206.62,37.83c-0.03,2.28-0.38,4.79-2.12,6.26c-1.02,0.87-2.41,1.22-3.78,1.17
					c-0.2,3.17-0.4,6.33-0.6,9.5c0,0-5.12,3.15-10.13,1.96c-4.32-1.03-5.37-4.41-5.57-5.33c0.81-4.89,1.74-9.77,2.81-14.61
					c-0.5-0.09-0.99-0.21-1.46-0.4c-1.17-0.47-2.24-1.41-2.5-2.64c-0.02-0.11-0.04-0.22-0.05-0.34c0.82-0.58,0.51-0.59,1.56-1.29
					c0.58-0.37,3.7-0.31,3.92-0.95c0.08-0.24,0.08-0.84,0.05-1.52c-0.04-1-0.14-2.14-0.1-2.37c2.61-1.7,8.9-2.97,13.81-3.61
					c0.68-0.08,1.2,0.04,1.86,0.21c0.59,0.16,0.89,0.56,1.05,1.11c0.03,0.06,0.04,0.12,0.06,0.19
					C206.8,29.33,206.69,33.45,206.62,37.83z"/>
			</defs>
			<use xlink:href="#XMLID_1_"  style="overflow:visible;fill:#FFE19C;"/>
			<clipPath id="XMLID_9_">
				<use xlink:href="#XMLID_1_"  style="overflow:visible;"/>
			</clipPath>
			<path class="st10" d="M200.73,45.27c0,0-2.96-0.23-4.78-1.5c-1.82-1.27,4.92,9.46,4.92,9.46L200.73,45.27"/>
		</g>
		<path class="st11" d="M189.5,139.81c0,0-6.93,2.21-16.86,2.12c-9.93-0.09-9.6-4.82-9.6-4.82c-2.16-1.76-1.33-4.06-1.33-4.06
			c-1.47-1.53-1.27-3.06-1.27-3.06c-0.85-0.94-1.81-3.18,4.27-2.22c6.08,0.95,12.58-0.01,12.58-0.01s-5.55,0.24-5.92-2.15
			c-0.39-2.39,11.86-2.74,11.86-2.74L189.5,139.81z"/>
		<g>
			<path class="st12" d="M170.29,132.59c-3.83,0-10.17-1.19-11.09-2.21c-0.18-0.2-0.17-0.52,0.04-0.71c0.2-0.18,0.52-0.17,0.71,0.04
				c0.63,0.69,7.82,2.2,11.52,1.82c0.25-0.03,0.52,0.17,0.55,0.45c0.03,0.27-0.17,0.52-0.45,0.55
				C171.19,132.57,170.76,132.59,170.29,132.59z"/>
			<path class="st12" d="M172.64,136.61C172.64,136.61,172.64,136.61,172.64,136.61c-5.83-0.04-10.04-1.09-11.83-2.98
				c-0.19-0.2-0.18-0.52,0.02-0.71c0.2-0.19,0.52-0.18,0.71,0.02c0.75,0.79,3.34,2.62,11.12,2.67c0.28,0,0.5,0.23,0.5,0.5
				C173.14,136.39,172.92,136.61,172.64,136.61z"/>
			<path class="st12" d="M170.86,139.59c-4.24,0-7.01-0.58-8.44-1.75c-0.21-0.18-0.24-0.49-0.07-0.7c0.18-0.21,0.49-0.24,0.7-0.07
				c1.41,1.15,4.63,1.65,9.57,1.49c0.01,0,0.01,0,0.02,0c0.27,0,0.49,0.21,0.5,0.48c0.01,0.28-0.21,0.51-0.48,0.52
				C172.03,139.58,171.43,139.59,170.86,139.59z"/>
		</g>
		<g>
			<defs>
				<path id="XMLID_3_" d="M205.45,25.18c-0.02-0.07-0.03-0.13-0.06-0.19c-0.16-0.56-0.47-0.95-1.05-1.11
					c-0.66-0.17-1.18-0.29-1.86-0.21c-4.91,0.64-11.19,1.91-13.81,3.61c-0.04,0.23,0.06,1.36,0.1,2.37
					c0.03,0.68,0.03,1.28-0.05,1.52c-0.22,0.65-3.34,0.59-3.92,0.95c-1.05,0.71-0.75,0.72-1.56,1.29c-0.08,0.06-0.17,0.12-0.27,0.19
					c-0.17-0.24-0.34-0.49-0.49-0.74c-1.17-1.85-1.99-3.91-2.13-6.09c-0.12-1.89,0.17-2.98,1.41-4.36c0.46-0.51,1.31-1.03,1.46-1.7
					c0.18-0.84,0.38-2.65,0.95-3.3c0.9-0.99,2.11-1.68,3.32-2.25c3.44-1.59,8.19-3.2,12.03-3.11c0.7-0.28,2.15-1.01,2.9-1.04
					c1.29-0.06,3.47,1.38,4.92,3.48C210.93,19.67,205.82,24.79,205.45,25.18z"/>
			</defs>
			<use xlink:href="#XMLID_3_"  style="overflow:visible;fill:#659157;"/>
			<clipPath id="XMLID_10_">
				<use xlink:href="#XMLID_3_"  style="overflow:visible;"/>
			</clipPath>
			<path class="st13" d="M205.3,19.88c-2.49,0.58-5.09,0.48-7.64,0.67s-5.2,0.73-7.18,2.36c2.5-0.67,5.08-1.06,7.67-1.16
				c1.6-0.06,3.2-0.02,4.79-0.16c1.59-0.14,3.19-0.46,4.6-1.22c0.44-0.24,0.87-0.52,1.18-0.92c0.17-0.23,0.58-0.87,0.26-1.11
				c-0.33-0.24-0.77,0.3-1,0.46C207.17,19.34,206.24,19.66,205.3,19.88z"/>
			<path class="st13" d="M188.53,26.07c-0.84,0.28-1.81,0.29-2.52,0.84c-0.38,0.29-0.63,0.7-0.93,1.07
				c-0.75,0.92-1.81,1.59-2.97,1.87c-0.26,0.06-0.52,0.11-0.79,0.08c-0.26-0.03-0.53-0.13-0.71-0.32c-0.13-0.14-0.21-0.32-0.2-0.51
				c0.01-0.19,0.1-0.37,0.26-0.47c0.25-0.15,0.56-0.05,0.84-0.01c0.76,0.12,1.58-0.14,2.13-0.68c0.54-0.54,0.83-1.32,1.46-1.74
				c0.36-0.24,0.8-0.34,1.23-0.4c0.52-0.08,1.04-0.13,1.56-0.16c0.26-0.02,0.52-0.03,0.78-0.04c0.12,0,0.62-0.1,0.44,0.12
				C188.99,25.9,188.74,26,188.53,26.07z"/>
		</g>
		<g>
			<g>
				<path class="st6" d="M61.53,112.04c-0.28,0-0.5-0.22-0.5-0.5v-6c0-0.28,0.22-0.5,0.5-0.5s0.5,0.22,0.5,0.5v6
					C62.03,111.81,61.81,112.04,61.53,112.04z"/>
			</g>
			<g>
				<path class="st6" d="M61.53,99.27c-0.28,0-0.5-0.22-0.5-0.5v-3.39c0-0.28,0.22-0.5,0.5-0.5s0.5,0.22,0.5,0.5v3.39
					C62.03,99.04,61.81,99.27,61.53,99.27z"/>
			</g>
			<g>
				<path class="st6" d="M61.53,91.65c-0.28,0-0.5-0.22-0.5-0.5V80.99c0-0.28,0.22-0.5,0.5-0.5s0.5,0.22,0.5,0.5v10.16
					C62.03,91.42,61.81,91.65,61.53,91.65z M61.53,74.72c-0.28,0-0.5-0.22-0.5-0.5v-3.39c0-0.28,0.22-0.5,0.5-0.5s0.5,0.22,0.5,0.5
					v3.39C62.03,74.5,61.81,74.72,61.53,74.72z"/>
			</g>
			<g>
				<path class="st6" d="M61.53,67.1c-0.28,0-0.5-0.22-0.5-0.5v-6c0-0.28,0.22-0.5,0.5-0.5h6c0.28,0,0.5,0.22,0.5,0.5
					s-0.22,0.5-0.5,0.5h-5.5v5.5C62.03,66.88,61.81,67.1,61.53,67.1z"/>
			</g>
			<g>
				<path class="st6" d="M81.19,61.1h-4.55c-0.28,0-0.5-0.22-0.5-0.5s0.22-0.5,0.5-0.5h4.55c0.28,0,0.5,0.22,0.5,0.5
					S81.46,61.1,81.19,61.1z"/>
			</g>
			<g>
				<path class="st6" d="M147.18,61.1h-4.55c-0.28,0-0.5-0.22-0.5-0.5s0.22-0.5,0.5-0.5h4.55c0.28,0,0.5,0.22,0.5,0.5
					S147.45,61.1,147.18,61.1z M133.52,61.1h-13.65c-0.28,0-0.5-0.22-0.5-0.5s0.22-0.5,0.5-0.5h13.65c0.28,0,0.5,0.22,0.5,0.5
					S133.8,61.1,133.52,61.1z M114.18,61.1h-4.55c-0.28,0-0.5-0.22-0.5-0.5s0.22-0.5,0.5-0.5h4.55c0.28,0,0.5,0.22,0.5,0.5
					S114.46,61.1,114.18,61.1z M100.53,61.1H86.87c-0.28,0-0.5-0.22-0.5-0.5s0.22-0.5,0.5-0.5h13.65c0.28,0,0.5,0.22,0.5,0.5
					S100.8,61.1,100.53,61.1z"/>
			</g>
			<g>
				<path class="st6" d="M164.78,73.59c-0.03,0-0.06,0-0.09-0.01l-5.91-1.03c-0.24-0.04-0.41-0.25-0.41-0.49V61.1h-5.5
					c-0.28,0-0.5-0.22-0.5-0.5s0.22-0.5,0.5-0.5h6c0.28,0,0.5,0.22,0.5,0.5v11.03l5.5,0.96c0.27,0.05,0.45,0.31,0.41,0.58
					C165.23,73.42,165.02,73.59,164.78,73.59z"/>
			</g>
			<g>
				<path class="st6" d="M180.01,76.25c-0.03,0-0.06,0-0.09-0.01l-5.08-0.89c-0.27-0.05-0.45-0.31-0.41-0.58
					c0.05-0.27,0.31-0.45,0.58-0.41l5.08,0.89c0.27,0.05,0.45,0.31,0.41,0.58C180.46,76.08,180.25,76.25,180.01,76.25z"/>
			</g>
			<g>
				<path class="st6" d="M190.86,84.23c-0.04,0-0.08,0-0.12-0.01c-0.27-0.06-0.43-0.33-0.37-0.6l1.28-5.32l-5.39-0.94
					c-0.27-0.05-0.45-0.31-0.41-0.58c0.05-0.27,0.31-0.45,0.58-0.41l5.91,1.03c0.14,0.02,0.26,0.1,0.33,0.22s0.1,0.26,0.07,0.39
					l-1.4,5.83C191.3,84.08,191.09,84.23,190.86,84.23z"/>
			</g>
			<g>
				<path class="st6" d="M189.73,88.96c-0.04,0-0.08,0-0.12-0.01c-0.27-0.06-0.43-0.33-0.37-0.6l0.38-1.58
					c0.07-0.27,0.32-0.43,0.6-0.37c0.27,0.06,0.43,0.33,0.37,0.6l-0.38,1.58C190.16,88.81,189.95,88.96,189.73,88.96z"/>
			</g>
			<g>
				<path class="st6" d="M187.85,96.77c-0.04,0-0.08,0-0.12-0.01c-0.27-0.06-0.43-0.33-0.37-0.6l1.4-5.83
					c0.07-0.27,0.33-0.44,0.6-0.37c0.27,0.06,0.43,0.33,0.37,0.6l-1.4,5.83C188.28,96.62,188.08,96.77,187.85,96.77z"/>
			</g>
		</g>
		<path class="st9" d="M208.29,98.48c-0.24,0-0.46-0.18-0.49-0.43l-2.53-16.78c-0.04-0.27,0.15-0.53,0.42-0.57
			c0.27-0.03,0.53,0.15,0.57,0.42l2.53,16.78c0.04,0.27-0.15,0.53-0.42,0.57C208.34,98.48,208.32,98.48,208.29,98.48z"/>
		<g>
			<g>
				<path class="st6" d="M158.87,78.55c-0.28,0-0.5-0.22-0.5-0.5v-6c0-0.28,0.22-0.5,0.5-0.5s0.5,0.22,0.5,0.5v6
					C159.37,78.33,159.14,78.55,158.87,78.55z"/>
			</g>
			<g>
				<path class="st6" d="M158.87,87.18c-0.28,0-0.5-0.22-0.5-0.5V83.8c0-0.28,0.22-0.5,0.5-0.5s0.5,0.22,0.5,0.5v2.87
					C159.37,86.95,159.14,87.18,158.87,87.18z"/>
			</g>
			<g>
				<path class="st6" d="M158.87,96.77c-0.28,0-0.5-0.22-0.5-0.5v-6c0-0.28,0.22-0.5,0.5-0.5s0.5,0.22,0.5,0.5v6
					C159.37,96.55,159.14,96.77,158.87,96.77z"/>
			</g>
		</g>
		<g>
			<defs>
				<path id="SVGID_3_" d="M8.45,117.73c3.52-16.41,15.14-31.72,30.34-33.78c8.21-1.11,16.4,1.63,24.64,2.44
					c18.32,1.81,36.3-5.97,52.55-15.45s31.74-20.88,49.17-27.34c10.05-3.73,20.85-5.74,31.29-3.69c10.44,2.05,20.46,8.6,25.56,18.82
					c8.71,17.45,1.31,38.97,2.25,58.86c0.68,14.37,5.8,27.96,8.78,41.97c2.98,14.01,3.49,29.88-4.07,41.61
					c-6.67,10.35-18.4,15.4-29.85,16.9c-11.45,1.5-23.02,0.01-34.55,0.11c-27.92,0.24-55.7,9.82-83.41,5.96
					c-17.69-2.46-34.59-10.73-48.41-23.08c-6.94-6.2-13.56-13.57-18.44-21.85C10.25,172.34,5.49,131.56,8.45,117.73z"/>
			</defs>
			<clipPath id="SVGID_4_">
				<use xlink:href="#SVGID_3_"  style="overflow:visible;"/>
			</clipPath>
			<g class="st14">
				<defs>
					<path id="XMLID_2_" d="M171.37,125.61c0.38,2.39,5.92,2.15,5.92,2.15s-6.5,0.96-12.58,0.01c-6.08-0.96-5.13,1.27-4.27,2.22
						c0,0-0.2,1.53,1.27,3.06c0,0-0.82,2.3,1.33,4.06c0,0-0.33,4.73,9.6,4.82c9.93,0.09,16.86-2.12,16.86-2.12
						s10.65-6.12,20.3-11.69v94.59H25.75V117.02c0-3.03,2.45-5.48,5.48-5.48h100.44l13.84-15.27h58.81c3.03,0,5.48,2.45,5.48,5.48
						v4.48l-8.48,5.31l-18.09,11.33C183.23,122.87,170.98,123.23,171.37,125.61z"/>
				</defs>
				<use xlink:href="#XMLID_2_"  style="overflow:visible;fill:#7E91FE;"/>
				<clipPath id="XMLID_11_">
					<use xlink:href="#XMLID_2_"  style="overflow:visible;"/>
				</clipPath>
				<path class="st15" d="M187.9,140.32c0,0,23.91-6.24,31.54-15.32c7.63-9.09-18.98-6.15-18.98-6.15L187.9,140.32"/>
				<path class="st15" d="M132.65,197.27c0,0,12.87,6.21,13.71,24.66c0.96,20.99-12.42-1.95-12.42-1.95L132.65,197.27"/>
				<path class="st15" d="M107.26,174.82L107.26,174.82c0,0,8.58,8.62,9.8,20.68c1.22,12.06-11.2,5.58-11.2,5.58L107.26,174.82"/>
			</g>
		</g>
		<g>
			<defs>
				<path id="SVGID_5_" d="M8.45,117.73c3.52-16.41,15.14-31.72,30.34-33.78c8.21-1.11,16.4,1.63,24.64,2.44
					c18.32,1.81,36.3-5.97,52.55-15.45s31.74-20.88,49.17-27.34c10.05-3.73,20.85-5.74,31.29-3.69c10.44,2.05,20.46,8.6,25.56,18.82
					c8.71,17.45,1.31,38.97,2.25,58.86c0.68,14.37,5.8,27.96,8.78,41.97c2.98,14.01,3.49,29.88-4.07,41.61
					c-6.67,10.35-18.4,15.4-29.85,16.9c-11.45,1.5-23.02,0.01-34.55,0.11c-27.92,0.24-55.7,9.82-83.41,5.96
					c-17.69-2.46-34.59-10.73-48.41-23.08c-6.94-6.2-13.56-13.57-18.44-21.85C10.25,172.34,5.49,131.56,8.45,117.73z"/>
			</defs>
			<clipPath id="SVGID_6_">
				<use xlink:href="#SVGID_5_"  style="overflow:visible;"/>
			</clipPath>
			<path class="st16" d="M13.28,240c0,0-17.52-19.72,2.16-38.07c2.85-2.66,7.35-2.55,7.38-6.45c0.03-4.5,1.34-9.69,6.47-12.44
				c5.53-2.96,10.43-2.2,13.78-0.88c2.83,1.12,6.03,0.03,7.78-2.46c5.58-7.95,18.32-21.95,37.07-18.13
				c17.59,3.58,23.09,18.56,24.81,27.74c0.65,3.47,3.87,5.91,7.36,5.4c6.04-0.87,14.79,0.28,19.9,11.94
				c8.35,19.09-9.81,33.33-9.81,33.33H13.28z"/>
		</g>
		<path class="st4" d="M186.84,23.73c-0.14,0-0.25-0.11-0.25-0.25v-2.11c0-0.06,0.03-0.13,0.07-0.17c3.4-3.53,7.58-6.6,12.76-9.37
			c0.12-0.07,0.27-0.02,0.34,0.1c0.06,0.12,0.02,0.27-0.1,0.34c-5.11,2.73-9.22,5.74-12.57,9.21v2.01
			C187.09,23.62,186.97,23.73,186.84,23.73z"/>
		<path class="st4" d="M199.35,20.2c-0.07,0-0.14-0.03-0.19-0.08c-0.09-0.1-0.08-0.26,0.02-0.35c2.39-2.12,5.06-3.89,7.94-5.28
			c0.13-0.06,0.27-0.01,0.33,0.12c0.06,0.12,0.01,0.27-0.12,0.33c-2.84,1.36-5.47,3.11-7.82,5.2
			C199.47,20.18,199.41,20.2,199.35,20.2z"/>
		<path class="st17" d="M187.72,23.73c-0.12,0-0.23-0.09-0.25-0.21c-0.02-0.14,0.07-0.26,0.21-0.29c1.35-0.22,2.73-0.83,4.06-1.41
			c1.08-0.48,2.19-0.97,3.29-1.26c1.71-0.44,3.49-0.5,5.21-0.55c0.59-0.02,1.18-0.04,1.77-0.07c2.18-0.13,4.46-0.44,6.29-1.86
			c0.11-0.09,0.27-0.07,0.35,0.04c0.08,0.11,0.07,0.27-0.04,0.35c-1.94,1.51-4.31,1.84-6.57,1.97c-0.59,0.03-1.19,0.05-1.78,0.07
			c-1.7,0.05-3.45,0.11-5.1,0.54c-1.06,0.28-2.16,0.76-3.22,1.23c-1.36,0.6-2.76,1.22-4.18,1.45
			C187.74,23.73,187.73,23.73,187.72,23.73z"/>
		<path class="st17" d="M186.01,24.11c-0.11,0-0.22-0.08-0.24-0.19c-0.03-0.13,0.05-0.27,0.19-0.3c5.13-1.2,10.39-1.92,15.65-2.16
			c1.85-0.08,4.68-0.6,6.56-1.79c0.12-0.07,0.27-0.04,0.34,0.08c0.07,0.12,0.04,0.27-0.08,0.34c-1.96,1.24-4.89,1.77-6.8,1.86
			c-5.23,0.24-10.46,0.96-15.56,2.15C186.05,24.11,186.03,24.11,186.01,24.11z"/>
		<path class="st17" d="M181.65,28.97c-0.33,0-0.66-0.06-0.98-0.18c-0.13-0.05-0.19-0.19-0.15-0.32c0.05-0.13,0.19-0.2,0.32-0.15
			c0.86,0.32,1.8,0.12,2.57-0.57c0.2-0.18,0.38-0.4,0.57-0.62c0.24-0.29,0.49-0.6,0.82-0.84c0.71-0.53,1.59-0.64,2.44-0.74
			l0.33-0.04c3.34-0.44,6.42-1.96,9.4-3.44c0.13-0.06,0.28-0.01,0.33,0.11c0.06,0.12,0.01,0.27-0.11,0.33
			c-3.01,1.49-6.13,3.04-9.55,3.49l-0.33,0.04c-0.79,0.1-1.6,0.19-2.2,0.64c-0.27,0.2-0.49,0.47-0.73,0.76
			c-0.19,0.23-0.39,0.47-0.62,0.68C183.13,28.68,182.39,28.97,181.65,28.97z"/>
		<path class="st9" d="M177.44,63.88c-0.02,0-0.04,0-0.06,0l-4.07-0.54c-0.26-0.03-0.46-0.27-0.43-0.54
			c0.15-1.78,1.34-3.5,3.27-4.73c1.18-0.74,2.48-1.23,3.74-1.7c0.46-0.17,0.93-0.35,1.39-0.54c1.1-0.46,2.69-1.21,3.75-2.41
			c0.15-0.17,0.4-0.22,0.61-0.11c0.21,0.11,0.31,0.34,0.25,0.57c-0.14,0.55-0.69,2.41-1.89,3.09c-0.55,0.31-1.12,0.54-1.68,0.77
			c-0.73,0.3-1.42,0.59-2.03,1c-1.49,1.02-2.41,2.84-2.34,4.62c0.01,0.15-0.05,0.29-0.16,0.39
			C177.68,63.83,177.56,63.88,177.44,63.88z M173.94,62.41l3.01,0.4c0.12-1.92,1.16-3.79,2.77-4.9c0.7-0.47,1.47-0.79,2.21-1.1
			c0.55-0.23,1.08-0.45,1.57-0.72c0.2-0.11,0.4-0.32,0.59-0.59c-0.85,0.56-1.74,0.96-2.44,1.25c-0.47,0.19-0.94,0.37-1.42,0.55
			c-1.27,0.48-2.47,0.92-3.56,1.61C175.19,59.86,174.21,61.11,173.94,62.41z"/>
	</g>
</g>
</svg>
