<?xml version="1.0" encoding="utf-8"?>
<!-- Generator: Adobe Illustrator 23.0.1, SVG Export Plug-In . SVG Version: 6.00 Build 0)  -->
<svg version="1.1" id="Artwork" xmlns="http://www.w3.org/2000/svg" xmlns:xlink="http://www.w3.org/1999/xlink" x="0px" y="0px"
	 viewBox="0 0 240 240" style="enable-background:new 0 0 240 240;" xml:space="preserve">
<style type="text/css">
	.st0{clip-path:url(#SVGID_2_);}
	.st1{fill:#D4DAFF;}
	.st2{fill:#E9EDFF;}
	.st3{fill:none;stroke:#000000;stroke-linecap:round;stroke-linejoin:round;stroke-miterlimit:10;}
	.st4{fill:#536DFE;}
	.st5{opacity:0.5;clip-path:url(#XMLID_8_);fill:#000D54;}
	.st6{fill:#FFD26A;}
	.st7{opacity:0.5;clip-path:url(#XMLID_9_);fill:#000D54;}
	.st8{opacity:0.5;clip-path:url(#XMLID_10_);fill:#000D54;}
	.st9{opacity:0.5;clip-path:url(#XMLID_11_);fill:#000D54;}
	.st10{opacity:0.5;clip-path:url(#XMLID_12_);fill:#000D54;}
	.st11{fill:#FFFFFF;}
	.st12{fill:#7E91FE;}
	.st13{clip-path:url(#SVGID_4_);fill:#A9DBB8;}
	.st14{clip-path:url(#SVGID_6_);}
	.st15{opacity:0.5;clip-path:url(#XMLID_13_);fill:#000D54;}
	.st16{clip-path:url(#SVGID_8_);fill:#D4DAFF;}
</style>
<g>
	<defs>
		<rect id="SVGID_1_" width="240" height="240"/>
	</defs>
	<clipPath id="SVGID_2_">
		<use xlink:href="#SVGID_1_"  style="overflow:visible;"/>
	</clipPath>
	<g class="st0">
		<g>
			<path class="st1" d="M85.01,236.13c-13.2,0-26.35-2.1-38.7-6.4c-8.77-3.05-15.66-6.68-21.07-11.1
				c-11-8.99-18.48-23.51-21.06-40.9c-2.3-15.55-0.73-31.38,0.79-46.7l1,0.1c-1.52,15.25-3.08,31.02-0.8,46.45
				c2.54,17.14,9.89,31.45,20.7,40.27c5.32,4.34,12.11,7.92,20.77,10.93c33.3,11.58,72.52,7.09,102.35-11.71l0.53,0.85
				C130.5,229.91,107.7,236.13,85.01,236.13z"/>
			<path class="st1" d="M216.89,161.13l-1-0.01c0.1-12.83,4.08-25.21,8.38-36.67c0.88-2.35,1.79-4.7,2.69-7.05
				c3.55-9.21,7.23-18.73,9.3-28.51c2.06-9.71,3.26-23.93-2.7-36.56c-5.68-12.04-17.32-19.97-28.96-19.76
				c-10.06,0.19-18.97,5.95-27.6,11.53l-1.51,0.98c-15.77,10.15-32.53,19-49.81,26.3l-0.39-0.92c17.23-7.28,33.93-16.1,49.66-26.22
				l1.51-0.97c8.74-5.65,17.78-11.49,28.12-11.69c0.17,0,0.33,0,0.5,0c11.86,0,23.62,8.11,29.38,20.33
				c4.81,10.2,5.77,23.06,2.77,37.19c-2.09,9.86-5.78,19.42-9.34,28.66c-0.91,2.35-1.81,4.69-2.69,7.04
				C220.95,136.18,216.99,148.46,216.89,161.13z"/>
		</g>
		<path class="st2" d="M44.55,72.18c13.8-9.87,30.5-15.05,46.54-12.05c10.42,1.95,20.36,7.25,30.92,7.56
			c16.43,0.49,31.03-10.96,45.29-20.37s31.73-17.25,46.7-9.45c10.9,5.68,17.85,18.87,19.75,32.45c1.9,13.58-0.61,27.51-4.51,40.51
			c-3.11,10.38-7.18,21.13-5.46,31.94c1.49,9.36,7.15,17.22,9.06,26.48c3.11,15.08-4.66,30.95-15.63,39.95
			c-10.97,9-24.56,12.5-37.82,15.29c-39.35,8.28-80.08,12.05-119.24,2.68c-14.86-3.56-29.93-9.35-40.88-21.43
			c-10.52-11.6-16.28-28.21-17.42-44.93c-1.13-16.52,0.78-38.21,10.18-51.23C22.1,95.62,30.85,81.98,44.55,72.18z"/>
		<g>
			<path class="st1" d="M176.31,89.56c-0.13,0-0.25-0.05-0.35-0.14l-5.64-5.54c-0.2-0.19-0.2-0.51-0.01-0.71
				c0.19-0.2,0.51-0.2,0.71-0.01l5.64,5.54c0.2,0.19,0.2,0.51,0.01,0.71C176.57,89.51,176.44,89.56,176.31,89.56z"/>
			<path class="st1" d="M182.47,87.08c-0.03,0-0.06,0-0.09-0.01c-0.27-0.05-0.45-0.31-0.4-0.58l2.74-15.23
				c0.05-0.27,0.31-0.45,0.58-0.4c0.27,0.05,0.45,0.31,0.4,0.58l-2.74,15.23C182.92,86.91,182.71,87.08,182.47,87.08z"/>
			<path class="st1" d="M201.78,99.59c-0.19,0-0.37-0.11-0.45-0.29l-13.06-28.01c-0.12-0.25-0.01-0.55,0.24-0.66
				c0.25-0.12,0.55-0.01,0.66,0.24l13.06,28.01c0.12,0.25,0.01,0.55-0.24,0.66C201.92,99.57,201.85,99.59,201.78,99.59z"/>
			<path class="st3" d="M203.67,86.55"/>
			<path class="st1" d="M187.88,91.6c-0.22,0-0.42-0.14-0.48-0.36c-0.08-0.27,0.08-0.54,0.34-0.62l15.79-4.55
				c0.27-0.08,0.54,0.08,0.62,0.34c0.08,0.27-0.08,0.54-0.34,0.62l-15.79,4.55C187.97,91.59,187.92,91.6,187.88,91.6z"/>
			<path class="st1" d="M195.81,105.28c-0.11,0-0.22-0.04-0.32-0.11l-9.09-7.4c-0.21-0.17-0.25-0.49-0.07-0.7s0.49-0.25,0.7-0.07
				l9.09,7.4c0.21,0.17,0.25,0.49,0.07,0.7C196.1,105.22,195.96,105.28,195.81,105.28z"/>
			<path class="st1" d="M167.84,103.87c-0.15,0-0.29-0.06-0.39-0.19c-0.17-0.22-0.14-0.53,0.08-0.7l8.13-6.54
				c0.21-0.17,0.53-0.14,0.7,0.08s0.14,0.53-0.08,0.7l-8.13,6.54C168.06,103.83,167.95,103.87,167.84,103.87z"/>
			<circle class="st1" cx="161.45" cy="107.55" r="7.63"/>
			<path class="st1" d="M205.95,120.88c-2.37,0-4.68-0.73-6.65-2.12c-2.54-1.78-4.22-4.45-4.75-7.5c-0.53-3.05,0.16-6.13,1.94-8.67
				c1.78-2.54,4.45-4.22,7.5-4.76c6.31-1.1,12.33,3.14,13.42,9.44v0c1.1,6.3-3.14,12.33-9.44,13.42
				C207.29,120.82,206.62,120.88,205.95,120.88z M205.98,98.66c-0.6,0-1.21,0.05-1.82,0.16c-2.79,0.49-5.23,2.03-6.86,4.35
				c-1.63,2.32-2.26,5.13-1.77,7.92c0.49,2.79,2.03,5.23,4.35,6.86c2.32,1.63,5.13,2.26,7.92,1.77c5.76-1,9.63-6.51,8.63-12.27
				C215.53,102.3,211.04,98.66,205.98,98.66z"/>
			<circle class="st1" cx="181.55" cy="93.18" r="6.66"/>
			<path class="st1" d="M186.53,72c-3.02,0-5.69-2.17-6.23-5.24c-0.6-3.44,1.71-6.72,5.15-7.31c1.66-0.29,3.34,0.09,4.72,1.06
				c1.38,0.97,2.3,2.42,2.59,4.09c0.29,1.66-0.09,3.34-1.06,4.72c-0.97,1.38-2.42,2.3-4.09,2.59C187.25,71.97,186.89,72,186.53,72z
				 M186.54,60.35c-0.31,0-0.62,0.03-0.92,0.08c-2.89,0.5-4.83,3.27-4.33,6.16c0.5,2.89,3.26,4.83,6.16,4.33
				c1.4-0.24,2.62-1.02,3.44-2.18c0.82-1.16,1.13-2.58,0.89-3.98v0c-0.24-1.4-1.02-2.62-2.18-3.44
				C188.69,60.69,187.63,60.35,186.54,60.35z"/>
			<circle class="st1" cx="208.62" cy="85.15" r="5.15"/>
			<circle class="st1" cx="167.22" cy="79.71" r="5.15"/>
		</g>
		<path class="st4" d="M179.96,202.22h-74.77c0-10.25,4.29-19.9,11-26.64v-0.01c6.76-6.8,16.11-11.01,26.46-11.01
			c2.75,0,5.43,0.3,8.01,0.86v0.01C167.42,169.09,179.96,184.37,179.96,202.22z"/>
		<g>
			<defs>
				<path id="XMLID_5_" d="M188.96,216.62H96.33v-8.63c0-3.19,2.58-5.77,5.77-5.77h81.09c3.19,0,5.77,2.58,5.77,5.77V216.62z"/>
			</defs>
			<use xlink:href="#XMLID_5_"  style="overflow:visible;fill:#FFD26A;"/>
			<clipPath id="XMLID_8_">
				<use xlink:href="#XMLID_5_"  style="overflow:visible;"/>
			</clipPath>
			<path class="st5" d="M186.97,203.66c0,0-12.54,6.51-17.5,24.89c-4.96,18.38,20.43-2.66,20.79-2.54
				C190.63,226.14,186.97,203.66,186.97,203.66"/>
		</g>
		<path class="st4" d="M133.6,140.65c0,10.22-8.28,18.51-18.51,18.51c-5.66,0-10.73-2.54-14.12-6.54l-0.05-0.07
			c-2.71-3.22-4.34-7.38-4.34-11.9c0-5.43,2.33-10.3,6.04-13.68c3.28-3,7.67-4.83,12.46-4.83c6.87,0,12.87,3.74,16.05,9.3
			c0.12,0.17,0.21,0.35,0.31,0.53C132.81,134.56,133.6,137.51,133.6,140.65z"/>
		<circle class="st6" cx="115.09" cy="140.65" r="9.24"/>
		<path class="st4" d="M146.49,70.69c0,3.35-1.2,6.42-3.2,8.81c-2.52,3.01-6.31,4.93-10.55,4.93c-5.21,0-9.75-2.91-12.08-7.18
			c-1.06-1.94-1.66-4.18-1.66-6.56c0-7.59,6.15-13.74,13.74-13.74c0.66,0,1.3,0.05,1.94,0.14l0.05,0.01
			c0.47,0.07,0.94,0.15,1.39,0.28h0.02C142.09,58.88,146.49,64.26,146.49,70.69z"/>
		<circle class="st6" cx="132.74" cy="70.69" r="6.55"/>
		<path class="st4" d="M93.51,55.69c0,3.64-2.3,6.74-5.52,7.93h-0.01l-0.01-0.01l-0.01,0.02c-0.9,0.33-1.87,0.5-2.89,0.5
			c-4.65,0-8.44-3.78-8.44-8.44c0-0.62,0.07-1.22,0.19-1.8c0.82-3.79,4.21-6.64,8.25-6.64c0.52,0,1.02,0.05,1.52,0.14l0.6,0.13
			C90.82,48.46,93.51,51.76,93.51,55.69z"/>
		<g>
			<defs>
				<path id="XMLID_4_" d="M150.67,165.42c-2.59-0.56-5.26-0.86-8.01-0.86c-10.35,0-19.71,4.21-26.46,11.01l-15.22-22.95
					c3.39,4,8.46,6.54,14.12,6.54c10.22,0,18.51-8.28,18.51-18.51c0-3.14-0.78-6.09-2.15-8.68l1.29,2.26L150.67,165.42z"/>
			</defs>
			<use xlink:href="#XMLID_4_"  style="overflow:visible;fill:#7E91FE;"/>
			<clipPath id="XMLID_9_">
				<use xlink:href="#XMLID_4_"  style="overflow:visible;"/>
			</clipPath>
			<polyline class="st7" points="122.47,157.62 101.47,172.91 85.15,148.52 94.49,143.71 104.83,147.07 122.47,157.62 			"/>
		</g>
		<g>
			<defs>
				<path id="XMLID_3_" d="M143.29,79.49l-10.55,54.74l-1.29-2.26c-0.1-0.18-0.19-0.36-0.31-0.53c-3.18-5.56-9.17-9.3-16.05-9.3
					c-4.8,0-9.18,1.82-12.46,4.83l18.04-49.72c2.33,4.28,6.86,7.18,12.08,7.18C136.98,84.43,140.77,82.5,143.29,79.49z"/>
			</defs>
			<use xlink:href="#XMLID_3_"  style="overflow:visible;fill:#7E91FE;"/>
			<clipPath id="XMLID_10_">
				<use xlink:href="#XMLID_3_"  style="overflow:visible;"/>
			</clipPath>
			<polyline class="st8" points="113.31,122.22 89.22,121.68 97.72,134.23 112.77,127.6 113.31,122.22 			"/>
		</g>
		<g>
			<defs>
				<path id="XMLID_2_" d="M134.68,57.08c-0.64-0.09-1.28-0.14-1.94-0.14c-7.59,0-13.74,6.15-13.74,13.74c0,2.38,0.6,4.62,1.66,6.56
					L87.99,63.62c3.22-1.19,5.52-4.29,5.52-7.93c0-3.93-2.68-7.23-6.32-8.17L134.68,57.08z"/>
			</defs>
			<use xlink:href="#XMLID_2_"  style="overflow:visible;fill:#7E91FE;"/>
			<clipPath id="XMLID_11_">
				<use xlink:href="#XMLID_2_"  style="overflow:visible;"/>
			</clipPath>
			<polyline class="st9" points="120.66,64.13 110.93,80.82 118.52,83.15 122.96,73.08 120.66,64.13 			"/>
		</g>
		<polygon class="st4" points="70.74,110.7 62.77,117.62 52.79,114.17 50.78,103.8 58.76,96.88 68.74,100.33 		"/>
		<g>
			<defs>
				<path id="XMLID_1_" d="M87.96,63.63l-19.21,36.7l-9.98-3.45L76.82,53.9c-0.13,0.58-0.19,1.18-0.19,1.8
					c0,4.66,3.78,8.44,8.44,8.44C86.08,64.13,87.06,63.96,87.96,63.63z"/>
			</defs>
			<use xlink:href="#XMLID_1_"  style="overflow:visible;fill:#7E91FE;"/>
			<clipPath id="XMLID_12_">
				<use xlink:href="#XMLID_1_"  style="overflow:visible;"/>
			</clipPath>
			<polyline class="st10" points="79.11,61.66 88.29,70.36 88.84,60.14 79.11,61.66 			"/>
		</g>
		<path class="st6" d="M50.79,103.8l-13.89,11.34c-0.94,0.77-1.33,2.02-1,3.18l6.78,23.59c0.48,1.68,2.29,2.6,3.93,2.01l0.57-0.2
			c1.44-0.52,2.27-2.03,1.93-3.53l-3.78-16.44c-0.23-1.01,0.07-2.06,0.79-2.8l6.67-6.78"/>
		<path class="st6" d="M70.75,110.7l5.44,14.56c0.39,1.05,0.17,2.23-0.57,3.07l-15.25,17.19c-1.2,1.35-3.32,1.36-4.52,0.01
			l-0.53-0.59c-0.95-1.07-1.03-2.65-0.19-3.81l10.21-13.99c0.64-0.87,0.76-2.02,0.32-3.01l-2.89-6.51"/>
		<g>
			<path class="st11" d="M78.23,164.33c-5.74,8.01-13.72,14.76-23.08,17.74c-0.25,0.08-0.53,0.09-0.79,0.04
				c-5.91-1.24-11.49-4.04-16.03-8.02c-0.83-0.73-0.58-2.09,0.45-2.49c9.08-3.56,17.19-10.02,22.51-18.18
				c0.39-0.6,1.16-0.86,1.82-0.58c5.35,2.28,10.65,5.61,14.92,9.56C78.58,162.89,78.66,163.73,78.23,164.33z"/>
			<path class="st12" d="M54.76,182.69c-0.03,0-0.06,0-0.1-0.01c-3.2-0.63-6.31-1.71-9.26-3.21c-0.25-0.13-0.34-0.43-0.22-0.67
				c0.13-0.25,0.42-0.35,0.67-0.22c2.83,1.44,5.82,2.48,8.88,3.1c0.68-0.21,1.36-0.44,2.03-0.7c0.26-0.1,0.55,0.03,0.64,0.29
				c0.1,0.26-0.03,0.55-0.29,0.64c-0.73,0.27-1.47,0.53-2.21,0.75C54.86,182.68,54.81,182.69,54.76,182.69z M61.49,179.89
				c-0.18,0-0.35-0.1-0.44-0.27c-0.13-0.24-0.04-0.55,0.21-0.68c1.14-0.61,2.29-1.29,3.4-2.02c0.23-0.15,0.54-0.09,0.69,0.14
				c0.15,0.23,0.09,0.54-0.14,0.69c-1.14,0.75-2.31,1.45-3.48,2.07C61.65,179.87,61.57,179.89,61.49,179.89z M38.96,175.13
				c-0.11,0-0.23-0.04-0.32-0.12c-0.85-0.71-1.68-1.47-2.45-2.25c-0.12-0.12-0.17-0.3-0.13-0.47c0.04-0.17,0.17-0.3,0.33-0.36
				c0.22-0.07,0.45-0.15,0.67-0.23c0.26-0.09,0.55,0.04,0.64,0.3c0.08,0.23-0.02,0.49-0.23,0.61c0.58,0.56,1.19,1.11,1.82,1.63
				c0.21,0.18,0.24,0.49,0.06,0.7C39.25,175.07,39.11,175.13,38.96,175.13z M71.19,172.89c-0.13,0-0.27-0.05-0.37-0.16
				c-0.19-0.2-0.18-0.52,0.02-0.71c2.83-2.65,5.43-5.69,7.71-9.03c0.16-0.23,0.47-0.29,0.69-0.13c0.23,0.16,0.29,0.47,0.13,0.7
				c-2.32,3.4-4.96,6.49-7.85,9.19C71.44,172.84,71.32,172.89,71.19,172.89z M41.85,170.77c-0.19,0-0.37-0.11-0.45-0.29
				c-0.12-0.25-0.01-0.55,0.24-0.67c3.57-1.7,6.93-3.84,9.99-6.37c0.21-0.18,0.53-0.15,0.7,0.07c0.18,0.21,0.15,0.53-0.07,0.7
				c-3.12,2.58-6.56,4.77-10.2,6.5C42,170.75,41.92,170.77,41.85,170.77z M73.91,159.49c-0.1,0-0.21-0.03-0.3-0.1
				c-3.13-2.3-6.69-4.35-10.28-5.92c-0.25-0.11-0.37-0.41-0.26-0.66c0.11-0.25,0.4-0.37,0.66-0.26c3.66,1.6,7.28,3.68,10.48,6.03
				c0.22,0.16,0.27,0.48,0.11,0.7C74.21,159.42,74.06,159.49,73.91,159.49z M57.66,158.75c-0.12,0-0.23-0.04-0.33-0.12
				c-0.21-0.18-0.23-0.5-0.05-0.71c0.86-1,1.69-2.04,2.45-3.1c0.16-0.22,0.47-0.28,0.7-0.11c0.22,0.16,0.27,0.47,0.11,0.7
				c-0.78,1.08-1.62,2.15-2.51,3.17C57.94,158.69,57.8,158.75,57.66,158.75z"/>
		</g>
		<g>
			<path class="st11" d="M131.55,29.08c7.01,7.81,16.86,15.98,26.67,19.71c2.86-5.38,6.89-10.12,11.74-13.82
				c-8.98-4.39-17.12-10.74-23.54-18.39C142.02,21.23,137.04,25.8,131.55,29.08z"/>
			<g>
				<path class="st12" d="M135.7,33.91c-0.13,0-0.25-0.05-0.35-0.14c-1.45-1.41-2.85-2.88-4.17-4.35c-0.1-0.11-0.14-0.26-0.12-0.41
					c0.02-0.15,0.11-0.28,0.24-0.35c1.61-0.96,3.26-2.09,4.91-3.35c0.21-0.17,0.53-0.13,0.7,0.09c0.17,0.22,0.13,0.53-0.09,0.7
					c-1.5,1.15-3.01,2.19-4.48,3.1c1.19,1.31,2.44,2.6,3.72,3.86c0.2,0.19,0.2,0.51,0.01,0.71
					C135.96,33.86,135.83,33.91,135.7,33.91z"/>
			</g>
			<g>
				<path class="st12" d="M147.37,43.52c-0.1,0-0.19-0.03-0.28-0.09c-1.36-0.92-2.74-1.92-4.11-2.98c-0.22-0.17-0.26-0.48-0.09-0.7
					c0.17-0.22,0.48-0.26,0.7-0.09c1.35,1.05,2.71,2.04,4.05,2.94c0.23,0.15,0.29,0.47,0.13,0.69
					C147.69,43.44,147.53,43.52,147.37,43.52z"/>
			</g>
			<g>
				<path class="st12" d="M158.22,49.29c-0.06,0-0.12-0.01-0.18-0.03c-1.79-0.68-3.64-1.53-5.51-2.53c-0.24-0.13-0.33-0.43-0.2-0.68
					c0.13-0.24,0.43-0.33,0.68-0.21c1.69,0.9,3.36,1.68,4.98,2.32c0.9-1.64,1.91-3.24,3.02-4.75c0.16-0.22,0.48-0.27,0.7-0.11
					c0.22,0.16,0.27,0.48,0.11,0.7c-1.16,1.59-2.22,3.28-3.15,5.02C158.57,49.19,158.4,49.29,158.22,49.29z"/>
			</g>
			<g>
				<path class="st12" d="M163.22,41.89c-0.11,0-0.23-0.04-0.32-0.12c-0.21-0.18-0.24-0.49-0.06-0.7c0.32-0.38,0.65-0.75,0.98-1.12
					c0.19-0.21,0.5-0.22,0.71-0.04c0.21,0.19,0.22,0.5,0.04,0.71c-0.33,0.36-0.64,0.73-0.96,1.1
					C163.51,41.83,163.37,41.89,163.22,41.89z"/>
			</g>
			<g>
				<path class="st12" d="M165.46,39.44c-0.13,0-0.25-0.05-0.35-0.14c-0.2-0.19-0.2-0.51-0.01-0.71c1.23-1.25,2.55-2.43,3.92-3.52
					c-1.55-0.78-3.09-1.63-4.59-2.53c-0.24-0.14-0.31-0.45-0.17-0.69c0.14-0.24,0.45-0.31,0.69-0.17c1.71,1.02,3.47,1.98,5.24,2.84
					c0.16,0.08,0.26,0.23,0.28,0.4c0.02,0.17-0.06,0.34-0.2,0.45c-1.56,1.19-3.06,2.51-4.45,3.92
					C165.71,39.39,165.58,39.44,165.46,39.44z"/>
			</g>
			<g>
				<path class="st12" d="M157.65,27.82c-0.11,0-0.21-0.03-0.3-0.1c-1.13-0.87-2.24-1.78-3.32-2.71c-0.21-0.18-0.23-0.5-0.05-0.71
					c0.18-0.21,0.5-0.23,0.71-0.05c1.06,0.92,2.16,1.82,3.27,2.67c0.22,0.17,0.26,0.48,0.09,0.7
					C157.95,27.76,157.8,27.82,157.65,27.82z"/>
			</g>
			<g>
				<path class="st12" d="M150.47,21.51c-0.13,0-0.26-0.05-0.35-0.15c-1.29-1.3-2.54-2.65-3.72-4.03c-1.33,1.4-2.6,2.67-3.87,3.87
					c-0.2,0.19-0.52,0.18-0.71-0.02s-0.18-0.52,0.02-0.71c1.38-1.3,2.75-2.68,4.21-4.23c0.1-0.1,0.23-0.16,0.38-0.16
					c0.14,0,0.28,0.07,0.37,0.18c1.26,1.51,2.62,2.99,4.02,4.4c0.19,0.2,0.19,0.51,0,0.71C150.72,21.46,150.59,21.51,150.47,21.51z"
					/>
			</g>
			<g>
				<path class="st12" d="M138.22,24.83c-0.14,0-0.29-0.06-0.39-0.18c-0.17-0.21-0.14-0.53,0.07-0.7c0.45-0.37,0.9-0.75,1.33-1.13
					c0.21-0.18,0.52-0.16,0.71,0.05c0.18,0.21,0.16,0.52-0.05,0.71c-0.45,0.39-0.9,0.77-1.36,1.15
					C138.45,24.8,138.34,24.83,138.22,24.83z"/>
			</g>
		</g>
		<circle class="st6" cx="85.06" cy="55.69" r="4.16"/>
		<g>
			<defs>
				<path id="SVGID_3_" d="M44.55,72.18c13.8-9.87,30.5-15.05,46.54-12.05c10.42,1.95,20.36,7.25,30.92,7.56
					c16.43,0.49,31.03-10.96,45.29-20.37s31.73-17.25,46.7-9.45c10.9,5.68,17.85,18.87,19.75,32.45c1.9,13.58-0.61,27.51-4.51,40.51
					c-3.11,10.38-7.18,21.13-5.46,31.94c1.49,9.36,7.15,17.22,9.06,26.48c3.11,15.08-4.66,30.95-15.63,39.95
					c-10.97,9-24.56,12.5-37.82,15.29c-39.35,8.28-80.08,12.05-119.24,2.68c-14.86-3.56-29.93-9.35-40.88-21.43
					c-10.52-11.6-16.28-28.21-17.42-44.93c-1.13-16.52,0.78-38.21,10.18-51.23C22.1,95.62,30.85,81.98,44.55,72.18z"/>
			</defs>
			<clipPath id="SVGID_4_">
				<use xlink:href="#SVGID_3_"  style="overflow:visible;"/>
			</clipPath>
			<path class="st13" d="M87.91,204.6v25.25c0,2.74-2.23,4.97-4.97,4.97H18.96v-38.05c0-2.03,1.65-3.68,3.68-3.68h23.45
				c1.26,0,2.34,0.88,2.59,2.12l1.16,5.71h34.4C86.26,200.93,87.91,202.57,87.91,204.6z"/>
		</g>
		<g>
			<defs>
				<path id="SVGID_5_" d="M44.55,72.18c13.8-9.87,30.5-15.05,46.54-12.05c10.42,1.95,20.36,7.25,30.92,7.56
					c16.43,0.49,31.03-10.96,45.29-20.37s31.73-17.25,46.7-9.45c10.9,5.68,17.85,18.87,19.75,32.45c1.9,13.58-0.61,27.51-4.51,40.51
					c-3.11,10.38-7.18,21.13-5.46,31.94c1.49,9.36,7.15,17.22,9.06,26.48c3.11,15.08-4.66,30.95-15.63,39.95
					c-10.97,9-24.56,12.5-37.82,15.29c-39.35,8.28-80.08,12.05-119.24,2.68c-14.86-3.56-29.93-9.35-40.88-21.43
					c-10.52-11.6-16.28-28.21-17.42-44.93c-1.13-16.52,0.78-38.21,10.18-51.23C22.1,95.62,30.85,81.98,44.55,72.18z"/>
			</defs>
			<clipPath id="SVGID_6_">
				<use xlink:href="#SVGID_5_"  style="overflow:visible;"/>
			</clipPath>
			<g class="st14">
				<defs>
					<rect id="XMLID_6_" x="96.33" y="216.62" width="92.63" height="17.25"/>
				</defs>
				<use xlink:href="#XMLID_6_"  style="overflow:visible;fill:#7E91FE;"/>
				<clipPath id="XMLID_13_">
					<use xlink:href="#XMLID_6_"  style="overflow:visible;"/>
				</clipPath>
				<path class="st15" d="M174.47,216.62c0,0-4.15,8.66-5.24,13.26c-1.09,4.59,14.75-0.85,14.75-0.85l-0.85-12.94l-0.73-2.42
					L174.47,216.62"/>
			</g>
		</g>
		<path class="st12" d="M28.77,146.4c-0.15,0-0.31-0.07-0.4-0.2c-2.37-3.22-4.46-6.7-6.21-10.36c-0.12-0.25-0.01-0.55,0.24-0.67
			c0.25-0.12,0.55-0.01,0.67,0.24c1.72,3.6,3.78,7.03,6.11,10.2c0.16,0.22,0.12,0.54-0.11,0.7C28.98,146.36,28.87,146.4,28.77,146.4
			z M19.61,128.71c-0.21,0-0.4-0.13-0.47-0.34c-0.42-1.27-0.81-2.57-1.16-3.86c-0.07-0.27,0.09-0.54,0.35-0.61
			c0.27-0.07,0.54,0.09,0.61,0.35c0.34,1.27,0.73,2.55,1.14,3.8c0.09,0.26-0.05,0.55-0.32,0.63
			C19.72,128.7,19.66,128.71,19.61,128.71z M17.35,120c-0.24,0-0.45-0.17-0.49-0.41c-0.73-3.89-1.1-7.85-1.1-11.77l0-0.26
			c0-0.27,0.23-0.5,0.5-0.5c0,0,0,0,0,0c0.28,0,0.5,0.23,0.5,0.5l0,0.26c0,3.85,0.36,7.75,1.08,11.58c0.05,0.27-0.13,0.53-0.4,0.58
			C17.41,120,17.38,120,17.35,120z M16.81,100.09c-0.02,0-0.04,0-0.07,0c-0.27-0.04-0.47-0.29-0.43-0.56
			c0.17-1.32,0.39-2.66,0.65-3.98c0.05-0.27,0.31-0.45,0.59-0.39c0.27,0.05,0.45,0.32,0.39,0.59c-0.25,1.3-0.47,2.61-0.64,3.92
			C17.27,99.91,17.06,100.09,16.81,100.09z M18.6,91.28c-0.04,0-0.09-0.01-0.13-0.02c-0.27-0.07-0.42-0.35-0.35-0.62
			c1.08-3.88,2.52-7.68,4.28-11.29c0.12-0.25,0.42-0.35,0.67-0.23c0.25,0.12,0.35,0.42,0.23,0.67c-1.74,3.56-3.16,7.3-4.22,11.12
			C19.02,91.14,18.82,91.28,18.6,91.28z M26.81,73.13c-0.09,0-0.19-0.03-0.27-0.08c-0.23-0.15-0.3-0.46-0.14-0.69
			c0.73-1.12,1.51-2.23,2.31-3.3c0.17-0.22,0.48-0.27,0.7-0.1c0.22,0.17,0.27,0.48,0.1,0.7c-0.79,1.05-1.56,2.15-2.28,3.25
			C27.13,73.05,26.97,73.13,26.81,73.13z M32.23,65.96c-0.11,0-0.23-0.04-0.32-0.12c-0.21-0.18-0.24-0.49-0.06-0.7l1.27-1.5
			c2.13-2.5,4.33-5.09,6.12-7.86c0.15-0.23,0.46-0.3,0.69-0.15c0.23,0.15,0.3,0.46,0.15,0.69c-1.83,2.83-4.05,5.44-6.2,7.96
			l-1.27,1.5C32.52,65.9,32.38,65.96,32.23,65.96z M43.26,49.42c-0.06,0-0.12-0.01-0.18-0.03c-0.26-0.1-0.38-0.39-0.28-0.65
			c0.44-1.12,0.88-2.35,1.33-3.74c0.09-0.26,0.37-0.4,0.63-0.32c0.26,0.09,0.4,0.37,0.32,0.63c-0.46,1.41-0.91,2.65-1.35,3.79
			C43.65,49.3,43.46,49.42,43.26,49.42z M46.08,40.87c-0.05,0-0.1-0.01-0.14-0.02c-0.26-0.08-0.41-0.36-0.34-0.62l0.09-0.29
			c1.12-3.72,2.27-7.57,3.87-11.11c0.11-0.25,0.41-0.36,0.66-0.25c0.25,0.11,0.36,0.41,0.25,0.66c-1.58,3.47-2.72,7.29-3.83,10.98
			l-0.09,0.29C46.5,40.73,46.3,40.87,46.08,40.87z M126.01,22.88c-0.04,0-0.07,0-0.11-0.01c-2.74-0.61-5.63-1.38-9.11-2.43
			c-0.26-0.08-0.41-0.36-0.33-0.62c0.08-0.26,0.36-0.41,0.62-0.33c3.45,1.05,6.32,1.81,9.03,2.41c0.27,0.06,0.44,0.33,0.38,0.6
			C126.45,22.72,126.24,22.88,126.01,22.88z M54.15,22.73c-0.11,0-0.22-0.04-0.32-0.11c-0.21-0.18-0.24-0.49-0.07-0.7l0.15-0.18
			c0.81-0.98,1.71-1.91,2.67-2.76c0.21-0.18,0.52-0.17,0.71,0.04c0.18,0.21,0.17,0.52-0.04,0.71c-0.92,0.82-1.78,1.71-2.56,2.65
			l-0.14,0.18C54.44,22.66,54.29,22.73,54.15,22.73z M112.17,18.95c-0.05,0-0.1-0.01-0.15-0.02l-3.81-1.23
			c-0.26-0.08-0.41-0.37-0.32-0.63s0.37-0.41,0.63-0.32l3.8,1.23c0.26,0.08,0.41,0.37,0.32,0.63
			C112.58,18.82,112.38,18.95,112.17,18.95z M60.93,16.88c-0.17,0-0.33-0.09-0.43-0.24c-0.14-0.24-0.07-0.54,0.17-0.69
			c3.28-1.98,7.1-3.39,11.36-4.2c0.27-0.05,0.53,0.13,0.58,0.4c0.05,0.27-0.13,0.53-0.4,0.58c-4.14,0.79-7.85,2.16-11.03,4.07
			C61.11,16.86,61.02,16.88,60.93,16.88z M100.73,15.34c-0.05,0-0.09-0.01-0.14-0.02c-4.31-1.26-7.91-2.1-11.34-2.66l-0.27-0.04
			c-0.27-0.04-0.46-0.3-0.42-0.57c0.04-0.27,0.3-0.46,0.57-0.42l0.28,0.04c3.47,0.56,7.11,1.42,11.46,2.69
			c0.27,0.08,0.42,0.35,0.34,0.62C101.14,15.2,100.94,15.34,100.73,15.34z M84.08,12.07c-0.01,0-0.02,0-0.03,0
			c-1.1-0.07-2.22-0.11-3.31-0.11l-0.65,0c0,0,0,0-0.01,0c-0.27,0-0.5-0.22-0.5-0.49c0-0.28,0.22-0.5,0.49-0.51l0.66,0
			c1.12,0,2.25,0.04,3.37,0.11c0.28,0.02,0.48,0.26,0.47,0.53C84.56,11.87,84.34,12.07,84.08,12.07z"/>
		<g>
			<defs>
				<path id="SVGID_7_" d="M44.55,72.18c13.8-9.87,30.5-15.05,46.54-12.05c10.42,1.95,20.36,7.25,30.92,7.56
					c16.43,0.49,31.03-10.96,45.29-20.37s31.73-17.25,46.7-9.45c10.9,5.68,17.85,18.87,19.75,32.45c1.9,13.58-0.61,27.51-4.51,40.51
					c-3.11,10.38-7.18,21.13-5.46,31.94c1.49,9.36,7.15,17.22,9.06,26.48c3.11,15.08-4.66,30.95-15.63,39.95
					c-10.97,9-24.56,12.5-37.82,15.29c-39.35,8.28-80.08,12.05-119.24,2.68c-14.86-3.56-29.93-9.35-40.88-21.43
					c-10.52-11.6-16.28-28.21-17.42-44.93c-1.13-16.52,0.78-38.21,10.18-51.23C22.1,95.62,30.85,81.98,44.55,72.18z"/>
			</defs>
			<clipPath id="SVGID_8_">
				<use xlink:href="#SVGID_7_"  style="overflow:visible;"/>
			</clipPath>
			<path class="st16" d="M40.7,217.42c4.41-3.28,10.61-4.77,15.48-2.21c2.75,1.44,4.87,4.04,7.84,4.97
				c3.98,1.24,8.15-0.84,11.84-2.77c5.14-2.69,10.47-5.24,16.2-6.09c5.74-0.85,12.01,0.23,16.34,4.09
				c4.33,3.86,6.03,10.84,2.9,15.72c-1.7,2.64-4.54,4.39-7.53,5.34c-2.99,0.95-6.16,1.19-9.3,1.38
				c-12.27,0.75-24.58,0.86-36.86,0.34c-4.75-0.2-30.65,0.85-27.78-7.83C31.31,225.89,37.03,220.16,40.7,217.42z"/>
			<path class="st16" d="M181.74,210.93c3.05-6.48,9.15-12.03,16.31-12.29c2.29-0.08,4.69,0.35,6.82-0.49
				c3.33-1.31,4.74-5.11,6.43-8.27c2.58-4.84,6.8-9.02,12.07-10.53c5.27-1.51,11.58,0.14,14.69,4.66c2.14,3.13,2.56,7.1,2.7,10.89
				c0.29,7.76-0.48,16.07-5.25,22.2c-4.2,5.4-10.83,8.26-17.33,10.41c-5.65,1.87-11.43,3.38-17.27,4.51
				c-5.27,1.02-11.98,2.84-17.35,2.07C173.79,232.69,179.25,216.22,181.74,210.93z"/>
		</g>
		<path class="st1" d="M182.63,147.42h15.78c0.6,0,1.08-0.49,1.08-1.08v-0.07c0-0.6-0.49-1.08-1.08-1.08h-15.78
			c-0.6,0-1.08,0.49-1.08,1.08v0.07C181.55,146.94,182.04,147.42,182.63,147.42z"/>
		<path class="st1" d="M182.63,151.75h22c0.6,0,1.08-0.49,1.08-1.08v-0.07c0-0.6-0.49-1.08-1.08-1.08h-22
			c-0.6,0-1.08,0.49-1.08,1.08v0.07C181.55,151.26,182.04,151.75,182.63,151.75z"/>
		<path class="st1" d="M182.63,156.07h22c0.6,0,1.08-0.49,1.08-1.08v-0.07c0-0.6-0.49-1.08-1.08-1.08h-22
			c-0.6,0-1.08,0.49-1.08,1.08v0.07C181.55,155.59,182.04,156.07,182.63,156.07z"/>
	</g>
</g>
</svg>
