<?xml version="1.0" encoding="utf-8"?>
<!-- Generator: Adobe Illustrator 23.0.1, SVG Export Plug-In . SVG Version: 6.00 Build 0)  -->
<svg version="1.1" id="Layer_1" xmlns="http://www.w3.org/2000/svg" xmlns:xlink="http://www.w3.org/1999/xlink" x="0px" y="0px"
	 viewBox="0 0 240 240" style="enable-background:new 0 0 240 240;" xml:space="preserve">
<style type="text/css">
	.st0{clip-path:url(#SVGID_2_);}
	.st1{fill:#D4DAFF;}
	.st2{fill:#E9EDFF;}
	.st3{opacity:0.5;clip-path:url(#XMLID_2_);fill:#000D54;}
	.st4{fill:#7E91FE;}
	.st5{opacity:0.5;clip-path:url(#XMLID_3_);fill:#FFB811;}
	.st6{clip-path:url(#XMLID_4_);fill:#4B6C41;}
	.st7{fill:#4B6C41;}
	.st8{fill:#253620;}
	.st9{opacity:0.5;clip-path:url(#XMLID_5_);fill:#000D54;}
	.st10{clip-path:url(#SVGID_4_);fill:#A9DBB8;}
	.st11{opacity:0.5;clip-path:url(#XMLID_6_);fill:#FFB811;}
	.st12{clip-path:url(#XMLID_6_);fill:#895737;}
	.st13{fill:#A9DBB8;}
	.st14{fill:none;stroke:#4B6C41;stroke-linecap:round;stroke-linejoin:round;stroke-miterlimit:10;}
	.st15{fill:#659157;}
	.st16{clip-path:url(#SVGID_6_);}
	.st17{clip-path:url(#SVGID_8_);}
	.st18{clip-path:url(#SVGID_6_);fill:none;stroke:#7E91FE;stroke-linecap:round;stroke-linejoin:round;stroke-miterlimit:10;}
	.st19{clip-path:url(#SVGID_10_);fill:#D4DAFF;}
	.st20{clip-path:url(#SVGID_12_);fill:#D4DAFF;}
</style>
<g>
	<defs>
		<rect id="SVGID_1_" width="240" height="240"/>
	</defs>
	<clipPath id="SVGID_2_">
		<use xlink:href="#SVGID_1_"  style="overflow:visible;"/>
	</clipPath>
	<g class="st0">
		<g>
			<path class="st1" d="M63.1,237.1c-7.13,0-14.53-0.67-21.8-2.48c-16.94-4.23-30.81-14.71-37.1-28.02
				c-6.93-14.68-4.86-31.91-2.27-45.29c3.5-18.13,9.01-35.91,16.38-52.84l0.92,0.4C11.89,125.74,6.4,143.45,2.91,161.5
				c-2.56,13.22-4.62,30.25,2.19,44.67c6.16,13.04,19.79,23.32,36.44,27.48c16.56,4.14,33.86,2.24,47.08,0.13
				c5.29-0.85,10.65-1.85,15.84-2.83c10.17-1.91,20.69-3.89,31.19-4.74l3.02-0.25c16.36-1.36,38.76-3.22,52.11,3.71l-0.46,0.89
				c-13.09-6.79-36.25-4.87-51.57-3.6l-3.02,0.25c-10.44,0.84-20.94,2.82-31.08,4.73c-5.19,0.98-10.56,1.99-15.87,2.84
				C81.25,235.97,72.4,237.1,63.1,237.1z"/>
			<path class="st1" d="M221.94,104.88c-17.8-8.67-31.27-26.11-35.17-45.52c-0.33-1.62-0.6-3.29-0.86-4.91
				c-0.93-5.69-1.9-11.58-5.26-16.19c-3.18-4.36-8.44-7.41-14.83-8.6c-6.08-1.13-12.35-0.49-17.69,0.29
				c-23.37,3.41-55.52,20.74-70.83,30.43l-0.54-0.84c15.38-9.74,47.68-27.14,71.22-30.58c5.42-0.79,11.8-1.44,18.02-0.28
				c6.64,1.24,12.12,4.43,15.45,9c3.5,4.8,4.48,10.81,5.44,16.62c0.26,1.61,0.54,3.27,0.86,4.87c3.84,19.11,17.11,36.28,34.63,44.81
				L221.94,104.88z"/>
		</g>
		<path class="st2" d="M23.03,99.83c28.11-33.2,67.37-56.81,109.88-66.06c6.92-1.51,14.05-2.65,21.07-1.76s14.03,4.05,18.23,9.75
			c6.34,8.59,5.4,21.25,12.5,29.22c6.58,7.39,17.64,8.22,26.63,12.35c13.22,6.07,21.84,19.55,25.56,33.61s3.25,28.84,2.75,43.38
			c-0.63,18.32-1.75,38-13.09,52.4c-13.75,17.46-38.63,21.81-60.76,19.8c-22.13-2.02-43.73-9.06-65.96-9.21
			c-20.48-0.14-42.12,5.4-60.73-3.15c-15.77-7.25-25.87-23.57-29.92-40.45C2.69,152.54,4.48,121.74,23.03,99.83z"/>
		<g>
			<defs>
				<path id="XMLID_16_" d="M129.09,216.56l-15.89-52.42c-0.5-1.67-2.04-2.8-3.78-2.8H38.16c-2.65,0-4.55,2.56-3.78,5.1l15.19,50.12
					H129.09z"/>
			</defs>
			<use xlink:href="#XMLID_16_"  style="overflow:visible;fill:#536DFE;"/>
			<clipPath id="XMLID_2_">
				<use xlink:href="#XMLID_16_"  style="overflow:visible;"/>
			</clipPath>
			<path class="st3" d="M82.96,209.84c0,0,18.26-0.46,25.74,8.82s-21.01-1.51-21.01-1.51L82.96,209.84"/>
			<path class="st3" d="M46.54,206.53c0,0,10.4,4.93,13.05,11.18c2.65,6.25-13.44-1.15-13.44-1.15L46.54,206.53"/>
		</g>
		<g>
			<path class="st4" d="M87.62,33.54c-0.19,0-0.38-0.11-0.46-0.3L82.45,22.2c-0.11-0.25,0.01-0.55,0.26-0.66
				c0.25-0.11,0.55,0.01,0.66,0.26l4.71,11.03c0.11,0.25-0.01,0.55-0.26,0.66C87.75,33.52,87.69,33.54,87.62,33.54z M79.77,15.15
				c-0.19,0-0.38-0.11-0.46-0.3l-1.57-3.68c-0.11-0.25,0.01-0.55,0.26-0.66c0.25-0.11,0.55,0.01,0.66,0.26l1.57,3.68
				c0.11,0.25-0.01,0.55-0.26,0.66C79.9,15.14,79.83,15.15,79.77,15.15z"/>
		</g>
		<g>
			<path class="st4" d="M66.57,51.3c-0.05,0-0.1-0.01-0.14-0.02c-3.19-0.96-7.24-2.18-11.52-3.47c-0.26-0.08-0.41-0.36-0.33-0.62
				c0.08-0.26,0.36-0.42,0.62-0.33c4.28,1.29,8.33,2.51,11.52,3.47c0.26,0.08,0.41,0.36,0.33,0.62
				C66.99,51.16,66.79,51.3,66.57,51.3z M50.25,46.38c-0.05,0-0.1-0.01-0.15-0.02l-3.84-1.16c-0.26-0.08-0.41-0.36-0.33-0.62
				c0.08-0.26,0.36-0.41,0.62-0.33l3.84,1.16c0.26,0.08,0.41,0.36,0.33,0.62C50.66,46.24,50.46,46.38,50.25,46.38z M38.74,42.88
				c-0.05,0-0.1-0.01-0.15-0.02c-11.58-3.55-11.62-3.63-11.77-3.87c-0.14-0.24-0.06-0.54,0.18-0.68c0.17-0.1,0.38-0.09,0.53,0.02
				c0.3,0.13,2.22,0.79,11.35,3.58c0.26,0.08,0.41,0.36,0.33,0.62C39.15,42.74,38.95,42.88,38.74,42.88z"/>
		</g>
		<g>
			<defs>
				<path id="XMLID_15_" d="M174.8,124.16c-0.78,2.87-3.02,5.19-5.63,6.61c-1.41,0.77-2.94,1.28-4.52,1.56
					c-1.72-3.8-3.44-7.58-5.15-11.38c-0.87,0.34-1.77,0.61-2.69,0.79c-2.4,0.47-5.05,0.23-7.03-1.18c-1.2-0.84-2.06-2.02-2.72-3.33
					c-0.56-1.07-0.98-2.25-1.35-3.41c-1.46-4.59-2.47-9.35-3-14.14c3.83-2.68,8.1-4.71,12.59-5.99c1.35-0.38,2.77-0.7,4.15-0.44
					c2.29,0.44,3.97,2.36,5.36,4.23c4.05,5.47,7.17,11.61,9.21,18.1C174.9,118.36,175.57,121.34,174.8,124.16z"/>
			</defs>
			<use xlink:href="#XMLID_15_"  style="overflow:visible;fill:#FFE19C;"/>
			<clipPath id="XMLID_3_">
				<use xlink:href="#XMLID_15_"  style="overflow:visible;"/>
			</clipPath>
			<path class="st5" d="M159.5,120.95c1.78-0.75,4.43-4.09,5.69-4.41s-2.59,13.82-2.59,13.82L159.5,120.95"/>
		</g>
		<g>
			<defs>
				<path id="XMLID_14_" d="M207.35,133.11c-3.76-2.16-17-10.49-19.48-12.68c-1.56-1.37-4.3-11.6-5.39-13.35
					c-2.37-3.81-12.32-24.89-22.22-25.57c-4.33-0.29-8.68,0.63-12.52,2.65c-2.26,1.19-4.43,2.66-6.04,4.64
					c-2.77,3.39-3.66,8-3.34,12.36c0.32,4.36,4.22,16.65,5.6,20.81c-1.85,2.73-2.12,6.93-0.87,10.04c-1.48,1.24-2.32,3.13-2.84,5.03
					c-0.55,1.99-0.81,4.06-1.55,5.99c-0.91,2.45-2.53,4.56-3.71,6.9c-1.14,2.24-1.85,4.9-1,7.24v0.01c0.02,0.09,0.05,0.19,0.09,0.28
					c6.28,4.9,12.83,10.64,17.78,16.88c2.79,3.51,5.1,7.38,6.98,11.46c0.89,1.93,1.69,3.92,2.41,5.94
					c1.43,4.09,2.63,8.79,5.08,12.29c0.98,1.4,2.17,2.62,3.65,3.52c0.26-0.94,0.57-1.85,0.9-2.75c0.01-0.03,0.02-0.06,0.04-0.09
					c2.27-6.01,6.16-11.33,10.04-16.67c4.69-6.43,9.37-12.87,11.13-20.52c0.6-2.58,0.88-5.33,2.34-7.54
					c1.95-2.94,4.53-3.82,7.75-5.29c2.81-1.29,6.53-10.57,7.82-15.17c-0.04-0.05-0.08-0.11-0.13-0.15
					c-0.07-0.09-0.15-0.17-0.22-0.25c0.34-0.41,0.59-0.81,0.75-1.23C210.97,136.34,210.2,134.74,207.35,133.11z M174.8,124.16
					c-0.78,2.87-3.02,5.19-5.63,6.61c-1.41,0.77-2.94,1.28-4.52,1.56c-3.62,0.63-7.48-0.03-10.6-1.97c-4.16-2.57-7.37-7.43-7-13.13
					c-0.56-1.07-0.98-2.25-1.35-3.41c-1.46-4.59-2.47-9.35-3-14.14c3.83-2.68,8.1-4.71,12.59-5.99c1.35-0.38,2.24-0.4,3.63-0.14
					c2.29,0.44,4.85,3.52,6.24,5.39c4.05,5.47,6.82,10.14,8.86,16.62C174.9,118.36,175.57,121.34,174.8,124.16z"/>
			</defs>
			<use xlink:href="#XMLID_14_"  style="overflow:visible;fill:#659157;"/>
			<clipPath id="XMLID_4_">
				<use xlink:href="#XMLID_14_"  style="overflow:visible;"/>
			</clipPath>
			<path class="st6" d="M163.82,137.1c-0.02,0-0.04,0-0.06,0l-7.22-0.83c-4.34-0.5-9.74-1.12-13.64-4.32
				c-0.21-0.17-0.25-0.49-0.07-0.7c0.17-0.21,0.49-0.25,0.7-0.07c3.67,3.01,8.91,3.61,13.12,4.09l7.21,0.83
				c0.27,0.03,0.47,0.28,0.44,0.55C164.29,136.91,164.07,137.1,163.82,137.1z"/>
			<path class="st6" d="M153.26,162.61c-0.04,0-0.09-0.01-0.13-0.02c-2.5-0.68-4.42-3-5.68-6.91c-0.13-0.41-0.26-0.83-0.39-1.25
				c-0.73-2.36-1.48-4.81-3.24-6.41c-0.58-0.53-1.3-0.99-2-1.44c-1.49-0.96-3.03-1.95-3.54-3.72c-0.08-0.27,0.08-0.54,0.34-0.62
				c0.26-0.08,0.54,0.08,0.62,0.34c0.41,1.41,1.73,2.26,3.13,3.16c0.73,0.47,1.49,0.96,2.13,1.54c1.97,1.78,2.76,4.36,3.53,6.85
				c0.13,0.42,0.25,0.83,0.39,1.23c1.16,3.56,2.83,5.67,4.99,6.25c0.27,0.07,0.42,0.35,0.35,0.61
				C153.68,162.46,153.48,162.61,153.26,162.61z"/>
			<path class="st6" d="M178.92,128.75c-0.15,0-0.3-0.07-0.4-0.2c-0.17-0.22-0.12-0.53,0.1-0.7l6.37-4.78
				c0.5-0.38,1.03-0.77,1.4-1.26c0.37-0.49,0.54-1.03,0.46-1.49c-0.05-0.27,0.13-0.53,0.41-0.58c0.26-0.05,0.53,0.13,0.58,0.41
				c0.13,0.74-0.11,1.56-0.65,2.27c-0.45,0.59-1.03,1.03-1.59,1.45l-6.37,4.78C179.13,128.72,179.02,128.75,178.92,128.75z"/>
		</g>
		<path class="st7" d="M187.29,151.96c-0.07,0-0.14-0.01-0.2-0.04c-0.25-0.11-0.37-0.41-0.26-0.66c0.63-1.43,3.87-2.86,9.11-5.08
			c5.15-2.18,10.98-4.64,13.24-7.26c0.18-0.21,0.5-0.23,0.71-0.05c0.21,0.18,0.23,0.5,0.05,0.71c-2.41,2.79-8.36,5.31-13.6,7.52
			c-3.98,1.68-8.09,3.42-8.59,4.56C187.67,151.84,187.49,151.96,187.29,151.96z"/>
		<path class="st8" d="M164.66,132.33c-3.62,0.63-7.48-0.03-10.6-1.97c-4.16-2.57-7.37-7.43-7-13.13c0.66,1.31,1.52,2.49,2.72,3.33
			c1.99,1.41,4.64,1.65,7.03,1.18c0.93-0.18,1.82-0.45,2.69-0.79C161.22,124.75,162.93,128.54,164.66,132.33z"/>
		<g>
			<defs>
				<polygon id="XMLID_13_" points="181.24,211.73 181.24,216.56 128.47,216.56 126.99,211.73 				"/>
			</defs>
			<use xlink:href="#XMLID_13_"  style="overflow:visible;fill:#536DFE;"/>
			<clipPath id="XMLID_5_">
				<use xlink:href="#XMLID_13_"  style="overflow:visible;"/>
			</clipPath>
			<polygon class="st9" points="172.67,210.33 160.84,219.41 175.89,219.88 176.44,209.88 			"/>
		</g>
		<g>
			<defs>
				<path id="SVGID_3_" d="M23.03,99.83c28.11-33.2,67.37-56.81,109.88-66.06c6.92-1.51,14.05-2.65,21.07-1.76
					s14.03,4.05,18.23,9.75c6.34,8.59,5.4,21.25,12.5,29.22c6.58,7.39,17.64,8.22,26.63,12.35c13.22,6.07,21.84,19.55,25.56,33.61
					s3.25,28.84,2.75,43.38c-0.63,18.32-1.75,38-13.09,52.4c-13.75,17.46-38.63,21.81-60.76,19.8c-22.13-2.02-43.73-9.06-65.96-9.21
					c-20.48-0.14-42.12,5.4-60.73-3.15c-15.77-7.25-25.87-23.57-29.92-40.45C2.69,152.54,4.48,121.74,23.03,99.83z"/>
			</defs>
			<clipPath id="SVGID_4_">
				<use xlink:href="#SVGID_3_"  style="overflow:visible;"/>
			</clipPath>
			<path class="st10" d="M238.23,216.56h-56.99v-4.83h-52.73c-0.09-15.26,0.3-32.46,1.18-47.68c0.08-1.46,0.18-2.97,0.83-4.28
				c0.44-0.9,2.05-2.04,3.47-2.6c0.02,0.09,0.05,0.19,0.09,0.28c6.28,4.9,12.83,10.64,17.78,16.88c2.79,3.51,5.1,7.38,6.98,11.46
				c0.89,1.93,1.69,3.92,2.41,5.94c1.43,4.09,2.63,8.79,5.08,12.29c0.98,1.4,2.17,2.62,3.65,3.52c0.26-0.94,0.57-1.85,0.9-2.75
				c0.01-0.03,0.02-0.06,0.04-0.09c2.27-6.01,6.16-11.33,10.04-16.67c4.69-6.43,9.37-12.87,11.13-20.52
				c0.6-2.58,0.88-5.33,2.34-7.54c1.95-2.94,4.53-3.82,7.75-5.29c2.81-1.29,6.53-10.57,7.82-15.17c2.59,3.21,5.36,9.77,7.01,11.78
				c2.14,2.61,3.66,5.67,5.06,8.74C229.26,175.77,235.98,198.48,238.23,216.56z"/>
		</g>
		<path class="st7" d="M208.59,194.26c-0.2,0-0.39-0.12-0.47-0.32l-7.5-19.48c-0.1-0.26,0.03-0.55,0.29-0.65
			c0.26-0.1,0.55,0.03,0.65,0.29l7.5,19.48c0.1,0.26-0.03,0.55-0.29,0.65C208.72,194.25,208.65,194.26,208.59,194.26z"/>
		<path class="st7" d="M152.26,212.24c-0.25,0-0.47-0.19-0.5-0.44l-3.47-29.96c-0.03-0.27,0.17-0.52,0.44-0.55
			c0.27-0.03,0.52,0.16,0.55,0.44l3.47,29.96c0.03,0.27-0.17,0.52-0.44,0.55C152.3,212.23,152.28,212.24,152.26,212.24z"/>
		<g>
			<defs>
				<path id="XMLID_12_" d="M170.93,204.81c-0.02,0-0.03-0.01-0.05-0.01c-1.5-0.26-3.03-0.53-4.55-0.77
					c-5.39-0.87-10.88-1.6-16.16-2.09c-2.01-0.19-2.92-2.81-3.67-4.69c-0.61-1.56-1.14-4.01-1.47-5.93c-2.8,0.44-5.6,0.88-8.41,1.34
					c-0.93,0.15-2.03,0.23-2.66-0.46c-0.59-0.67-0.41-1.78,0.18-2.45c0.58-0.68,1.45-1.03,2.29-1.32c4.88-1.75,10.04-2.8,15.22-2.89
					c2.4,0.05,4.79,0.15,7.19,0.27c2.84,0.15,5.68,0.36,8.52,0.62c1.76,5.96,2.95,12.09,3.56,18.28
					C170.92,204.73,170.93,204.77,170.93,204.81z"/>
			</defs>
			<use xlink:href="#XMLID_12_"  style="overflow:visible;fill:#FFE19C;"/>
			<clipPath id="XMLID_6_">
				<use xlink:href="#XMLID_12_"  style="overflow:visible;"/>
			</clipPath>
			<polyline class="st11" points="167.95,188.51 168.19,208.76 176.48,205.86 167.95,188.51 			"/>
			<path class="st12" d="M145.38,196c-0.22,0-0.42-0.14-0.48-0.37c-0.07-0.27,0.08-0.54,0.35-0.62c2.03-0.57,4.13-0.77,6.24-0.6
				c0.28,0.02,0.48,0.26,0.46,0.54c-0.02,0.28-0.27,0.48-0.54,0.46c-1.99-0.16-3.97,0.03-5.89,0.56
				C145.47,195.99,145.42,196,145.38,196z"/>
			<path class="st12" d="M146.28,200.07c-0.24,0-0.45-0.17-0.49-0.41c-0.05-0.27,0.13-0.53,0.41-0.58c1.82-0.32,3.67-0.44,5.51-0.35
				c0.28,0.01,0.49,0.25,0.48,0.52c-0.01,0.28-0.24,0.51-0.52,0.48c-1.77-0.08-3.55,0.03-5.29,0.34
				C146.34,200.07,146.31,200.07,146.28,200.07z"/>
			<path class="st12" d="M145.15,192.29c-0.24,0-0.45-0.18-0.49-0.42c-0.04-0.27,0.14-0.53,0.42-0.57l4.95-0.79
				c0.27-0.04,0.53,0.14,0.57,0.42c0.04,0.27-0.14,0.53-0.42,0.57l-4.95,0.79C145.2,192.29,145.17,192.29,145.15,192.29z"/>
		</g>
		<path class="st13" d="M170.87,204.66c0,3.15,10.51-16.82,10.51-16.82l-14.19-1.43C167.19,186.4,170.87,201.5,170.87,204.66z"/>
		<g>
			<path class="st14" d="M167.19,186.26c11.57,1.05,32.39,5.11,41.52,7.6"/>
			<path class="st7" d="M213.45,217.25c-0.11,0-0.22-0.04-0.32-0.11c-1.92-1.58-22.54-8.37-42.29-11.84
				c-0.27-0.05-0.45-0.31-0.41-0.58c0.05-0.27,0.31-0.46,0.58-0.41c19.2,3.37,40.44,10.15,42.75,12.05c0.21,0.17,0.24,0.49,0.07,0.7
				C213.74,217.19,213.6,217.25,213.45,217.25z"/>
		</g>
		<path class="st15" d="M171.06,106.27c0,0-0.91,22.41-19.44,22.21c-18.53-0.2,17.9,5.76,17.9,5.76l8.71-11.17l-3.97-11.17
			L171.06,106.27z"/>
		<g>
			<defs>
				<path id="SVGID_5_" d="M23.03,99.83c28.11-33.2,67.37-56.81,109.88-66.06c6.92-1.51,14.05-2.65,21.07-1.76
					s14.03,4.05,18.23,9.75c6.34,8.59,5.4,21.25,12.5,29.22c6.58,7.39,17.64,8.22,26.63,12.35c13.22,6.07,21.84,19.55,25.56,33.61
					s3.25,28.84,2.75,43.38c-0.63,18.32-1.75,38-13.09,52.4c-13.75,17.46-38.63,21.81-60.76,19.8c-22.13-2.02-43.73-9.06-65.96-9.21
					c-20.48-0.14-42.12,5.4-60.73-3.15c-15.77-7.25-25.87-23.57-29.92-40.45C2.69,152.54,4.48,121.74,23.03,99.83z"/>
			</defs>
			<clipPath id="SVGID_6_">
				<use xlink:href="#SVGID_5_"  style="overflow:visible;"/>
			</clipPath>
			<g class="st16">
				<defs>
					<path id="SVGID_7_" d="M236.86,217.06H27.42c-0.28,0-0.5-0.22-0.5-0.5V63.64c0-0.28,0.22-0.5,0.5-0.5h209.44
						c0.28,0,0.5,0.22,0.5,0.5v152.92C237.36,216.84,237.13,217.06,236.86,217.06z M27.92,216.06h208.44V64.14H27.92V216.06z"/>
				</defs>
				<use xlink:href="#SVGID_7_"  style="overflow:visible;fill:#7E91FE;"/>
				<clipPath id="SVGID_8_">
					<use xlink:href="#SVGID_7_"  style="overflow:visible;"/>
				</clipPath>
				<g class="st17">
					<rect x="44.51" y="64.17" class="st1" width="153.92" height="12.41"/>
				</g>
			</g>
			<line class="st18" x1="27.42" y1="76.57" x2="239.77" y2="76.57"/>
		</g>
		<g>
			<defs>
				<path id="SVGID_9_" d="M23.03,99.83c28.11-33.2,67.37-56.81,109.88-66.06c6.92-1.51,14.05-2.65,21.07-1.76
					s14.03,4.05,18.23,9.75c6.34,8.59,5.4,21.25,12.5,29.22c6.58,7.39,17.64,8.22,26.63,12.35c13.22,6.07,21.84,19.55,25.56,33.61
					s3.25,28.84,2.75,43.38c-0.63,18.32-1.75,38-13.09,52.4c-13.75,17.46-38.63,21.81-60.76,19.8c-22.13-2.02-43.73-9.06-65.96-9.21
					c-20.48-0.14-42.12,5.4-60.73-3.15c-15.77-7.25-25.87-23.57-29.92-40.45C2.69,152.54,4.48,121.74,23.03,99.83z"/>
			</defs>
			<clipPath id="SVGID_10_">
				<use xlink:href="#SVGID_9_"  style="overflow:visible;"/>
			</clipPath>
			<path class="st19" d="M173.95,211.94c3.79-3.28,8.26-6.78,13.22-6.1c3.84,0.53,6.95,3.5,10.74,4.33
				c4.78,1.05,9.55-1.44,13.86-3.76s9.26-4.61,13.93-3.14c5.07,1.59,7.98,7.48,7.25,12.75c-0.73,5.27-4.41,9.76-8.84,12.7
				c-4.43,2.94-9.58,4.56-14.66,6.12c-7.67,2.35-15.37,4.65-23.26,6.08c-10.29,1.87-22.47,3.12-32.82,0.91
				c-3.45-0.74-5.37-3.21-4.29-6.82c1.28-4.29,6.88-7.48,10.09-10.26C164.1,220.48,169.03,216.21,173.95,211.94z"/>
		</g>
		<g>
			<path class="st4" d="M236.86,121.61c-0.28,0-0.5-0.22-0.5-0.5v-4c0-0.28,0.22-0.5,0.5-0.5s0.5,0.22,0.5,0.5v4
				C237.36,121.39,237.13,121.61,236.86,121.61z M236.86,109.61c-0.28,0-0.5-0.22-0.5-0.5v-12c0-0.28,0.22-0.5,0.5-0.5
				s0.5,0.22,0.5,0.5v12C237.36,109.39,237.13,109.61,236.86,109.61z M236.86,92.61c-0.28,0-0.5-0.22-0.5-0.5v-4
				c0-0.28,0.22-0.5,0.5-0.5s0.5,0.22,0.5,0.5v4C237.36,92.39,237.13,92.61,236.86,92.61z M236.86,80.61c-0.28,0-0.5-0.22-0.5-0.5
				v-9.67c0-0.73-0.12-1.44-0.36-2.12c-0.09-0.26,0.04-0.55,0.3-0.64c0.26-0.09,0.55,0.04,0.64,0.3c0.28,0.79,0.42,1.61,0.42,2.45
				v9.67C237.36,80.39,237.13,80.61,236.86,80.61z M233.28,64.95c-0.08,0-0.16-0.02-0.24-0.06c-0.91-0.49-1.94-0.75-2.99-0.75h-0.64
				c-0.28,0-0.5-0.22-0.5-0.5s0.22-0.5,0.5-0.5h0.64c1.21,0,2.41,0.3,3.46,0.87c0.24,0.13,0.33,0.43,0.2,0.68
				C233.63,64.86,233.46,64.95,233.28,64.95z M221.42,64.14h-12c-0.28,0-0.5-0.22-0.5-0.5s0.22-0.5,0.5-0.5h12
				c0.28,0,0.5,0.22,0.5,0.5S221.69,64.14,221.42,64.14z M204.42,64.14h-4c-0.28,0-0.5-0.22-0.5-0.5s0.22-0.5,0.5-0.5h4
				c0.28,0,0.5,0.22,0.5,0.5S204.69,64.14,204.42,64.14z M192.42,64.14h-12c-0.28,0-0.5-0.22-0.5-0.5s0.22-0.5,0.5-0.5h12
				c0.28,0,0.5,0.22,0.5,0.5S192.69,64.14,192.42,64.14z"/>
		</g>
		<g>
			<path class="st4" d="M27.25,95.51c-0.28,0-0.5-0.22-0.5-0.5v-6.75c0-0.28,0.22-0.5,0.5-0.5s0.5,0.22,0.5,0.5v6.75
				C27.75,95.29,27.53,95.51,27.25,95.51z M27.25,83.76c-0.28,0-0.5-0.22-0.5-0.5v-4c0-0.28,0.22-0.5,0.5-0.5s0.5,0.22,0.5,0.5v4
				C27.75,83.54,27.53,83.76,27.25,83.76z M27.25,71.76c-0.28,0-0.5-0.22-0.5-0.5v-1.58c0-3.33,2.71-6.08,6.05-6.13l1.65-0.02
				c0,0,0,0,0.01,0c0.27,0,0.5,0.22,0.5,0.49c0,0.28-0.22,0.5-0.49,0.51l-1.65,0.02c-2.79,0.04-5.06,2.34-5.06,5.13v1.58
				C27.75,71.54,27.53,71.76,27.25,71.76z M39.45,64.46c-0.27,0-0.5-0.22-0.5-0.49c0-0.28,0.22-0.5,0.49-0.51l4-0.05c0,0,0,0,0.01,0
				c0.27,0,0.5,0.22,0.5,0.49c0,0.28-0.22,0.5-0.49,0.51L39.45,64.46C39.46,64.46,39.46,64.46,39.45,64.46z M51.45,64.3
				c-0.27,0-0.5-0.22-0.5-0.49c0-0.28,0.22-0.5,0.49-0.51l12-0.16c0,0,0,0,0.01,0c0.27,0,0.5,0.22,0.5,0.49
				c0,0.28-0.22,0.5-0.49,0.51L51.45,64.3C51.46,64.3,51.45,64.3,51.45,64.3z"/>
		</g>
		<g>
			<path class="st4" d="M233.63,77.07h-12c-0.28,0-0.5-0.22-0.5-0.5s0.22-0.5,0.5-0.5h12c0.28,0,0.5,0.22,0.5,0.5
				S233.9,77.07,233.63,77.07z M216.63,77.07h-4c-0.28,0-0.5-0.22-0.5-0.5s0.22-0.5,0.5-0.5h4c0.28,0,0.5,0.22,0.5,0.5
				S216.9,77.07,216.63,77.07z M204.63,77.07h-12c-0.28,0-0.5-0.22-0.5-0.5s0.22-0.5,0.5-0.5h12c0.28,0,0.5,0.22,0.5,0.5
				S204.9,77.07,204.63,77.07z"/>
		</g>
		<g>
			<g>
				<path class="st4" d="M46.35,77.07h-6c-0.28,0-0.5-0.22-0.5-0.5s0.22-0.5,0.5-0.5h6c0.28,0,0.5,0.22,0.5,0.5
					S46.63,77.07,46.35,77.07z"/>
			</g>
			<g>
				<path class="st4" d="M37.01,77.07h-1.67c-0.28,0-0.5-0.22-0.5-0.5s0.22-0.5,0.5-0.5h1.67c0.28,0,0.5,0.22,0.5,0.5
					S37.29,77.07,37.01,77.07z"/>
			</g>
			<g>
				<path class="st4" d="M33.25,77.07h-6c-0.28,0-0.5-0.22-0.5-0.5s0.22-0.5,0.5-0.5h6c0.28,0,0.5,0.22,0.5,0.5
					S33.53,77.07,33.25,77.07z"/>
			</g>
		</g>
		<path class="st4" d="M208.06,73.82c-2.05,0-3.72-1.67-3.72-3.72s1.67-3.72,3.72-3.72s3.72,1.67,3.72,3.72
			S210.11,73.82,208.06,73.82z M208.06,67.38c-1.5,0-2.72,1.22-2.72,2.72s1.22,2.72,2.72,2.72c1.5,0,2.72-1.22,2.72-2.72
			S209.56,67.38,208.06,67.38z"/>
		<g>
			<g>
				<path class="st4" d="M224.11,73.82c-0.12,0-0.25-0.05-0.35-0.14l-6.72-6.43c-0.2-0.19-0.21-0.51-0.02-0.71
					c0.19-0.2,0.51-0.21,0.71-0.02l6.72,6.43c0.2,0.19,0.21,0.51,0.02,0.71C224.38,73.77,224.25,73.82,224.11,73.82z"/>
			</g>
			<g>
				<path class="st4" d="M217.39,73.82c-0.13,0-0.26-0.05-0.36-0.15c-0.19-0.2-0.18-0.52,0.02-0.71l6.72-6.43
					c0.2-0.19,0.52-0.18,0.71,0.02c0.19,0.2,0.18,0.52-0.02,0.71l-6.72,6.43C217.64,73.77,217.52,73.82,217.39,73.82z"/>
			</g>
		</g>
		<path class="st4" d="M122.97,145.15H86.74c-1.53,0-2.77-1.24-2.77-2.77v-8.85c0-1.53,1.24-2.77,2.77-2.77h36.23
			c1.53,0,2.77,1.24,2.77,2.77v8.85C125.74,143.91,124.5,145.15,122.97,145.15z"/>
		<path class="st4" d="M61.39,145.15H25.16c-1.53,0-2.77-1.24-2.77-2.77v-8.85c0-1.53,1.24-2.77,2.77-2.77h36.23
			c1.53,0,2.77,1.24,2.77,2.77v8.85C64.16,143.91,62.92,145.15,61.39,145.15z"/>
		<g>
			<path class="st4" d="M73.82,161.84c-0.28,0-0.5-0.22-0.5-0.5v-9.88c0-0.28,0.22-0.5,0.5-0.5s0.5,0.22,0.5,0.5v9.88
				C74.32,161.62,74.09,161.84,73.82,161.84z"/>
			<path class="st4" d="M104.35,151.58H43.28c-0.28,0-0.5-0.22-0.5-0.5v-5.93c0-0.28,0.22-0.5,0.5-0.5s0.5,0.22,0.5,0.5v5.43h60.08
				v-5.43c0-0.28,0.22-0.5,0.5-0.5s0.5,0.22,0.5,0.5v5.93C104.85,151.35,104.63,151.58,104.35,151.58z"/>
			<path class="st4" d="M43.28,131.26c-0.28,0-0.5-0.22-0.5-0.5v-6.06c0-0.28,0.22-0.5,0.5-0.5s0.5,0.22,0.5,0.5v6.06
				C43.78,131.04,43.55,131.26,43.28,131.26z"/>
			<path class="st4" d="M65.61,125.21H21.7c-0.28,0-0.5-0.22-0.5-0.5v-5.98c0-0.28,0.22-0.5,0.5-0.5s0.5,0.22,0.5,0.5v5.48h42.91
				v-5.48c0-0.28,0.22-0.5,0.5-0.5s0.5,0.22,0.5,0.5v5.98C66.11,124.98,65.89,125.21,65.61,125.21z"/>
		</g>
		<path class="st4" d="M103.95,88.63c-0.07,0-0.14-0.01-0.2-0.03c-0.21-0.06-0.38-0.2-0.47-0.39c-3.17-6.5-9.77-9.98-12.47-10.64
			c-3.52-0.87-11.18-5.85-12.4-15.72c-1.37-11.08,8.55-18.18,8.97-18.48c0.34-0.24,0.81-0.15,1.04,0.18
			c0.24,0.34,0.16,0.81-0.18,1.04c-0.1,0.07-9.6,6.89-8.35,17.06C81,70.68,88.1,75.36,91.16,76.12c3.34,0.82,9.69,4.43,13.08,10.69
			l7.21-4.59c0.35-0.22,0.81-0.12,1.04,0.23c0.22,0.35,0.12,0.81-0.23,1.04l-7.9,5.03C104.23,88.59,104.09,88.63,103.95,88.63z"/>
		<g>
			<path class="st4" d="M107.06,91.63c-0.25,0-0.49-0.12-0.63-0.35c-0.22-0.35-0.12-0.81,0.23-1.04l14.29-9.09
				c0.35-0.22,0.81-0.12,1.04,0.23c0.22,0.35,0.12,0.81-0.23,1.04l-14.29,9.09C107.34,91.59,107.2,91.63,107.06,91.63z"/>
			<path class="st4" d="M109.98,94.35c-0.25,0-0.49-0.12-0.63-0.35c-0.22-0.35-0.12-0.81,0.23-1.04l12.59-8.01
				c0.35-0.22,0.81-0.12,1.04,0.23c0.22,0.35,0.12,0.81-0.23,1.04l-12.59,8.01C110.26,94.31,110.12,94.35,109.98,94.35z"/>
			<path class="st4" d="M114.65,95.96c-0.25,0-0.49-0.12-0.63-0.35c-0.22-0.35-0.12-0.81,0.23-1.04l7.42-4.72
				c0.35-0.22,0.81-0.12,1.04,0.23c0.22,0.35,0.12,0.81-0.23,1.04l-7.42,4.72C114.92,95.92,114.78,95.96,114.65,95.96z"/>
		</g>
		<path class="st4" d="M117.17,46.41l-3.32,1.56c-0.74-0.62-1.54-1.17-2.36-1.65l0.34-3.65c0.14-1.47-0.84-2.81-2.25-3.1l-4.21-0.94
			c-1.43-0.34-2.87,0.46-3.38,1.85l-1.23,3.45c-0.95,0.09-1.9,0.25-2.84,0.5l-2.34-2.82c-0.93-1.13-2.57-1.4-3.8-0.61l-1.83,1.16
			l5.9,9.27c5.7-3.63,13.27-1.95,16.89,3.76s1.95,13.27-3.76,16.89l5.9,9.27l1.83-1.16c1.23-0.78,1.69-2.38,1.06-3.7l-1.56-3.31
			c0.62-0.75,1.17-1.54,1.65-2.36l3.65,0.35c1.48,0.14,2.81-0.84,3.11-2.26l0.53-2.38l0.41-1.83c0.34-1.42-0.46-2.87-1.86-3.37
			l-3.45-1.24c-0.09-0.94-0.26-1.89-0.5-2.83l2.81-2.34c0.21-0.17,0.39-0.36,0.53-0.57c0.67-0.94,0.73-2.22,0.08-3.23l-2.33-3.66
			C120.07,46.24,118.48,45.78,117.17,46.41z"/>
		<g>
			<defs>
				<path id="SVGID_11_" d="M23.03,99.83c28.11-33.2,67.37-56.81,109.88-66.06c6.92-1.51,14.05-2.65,21.07-1.76
					s14.03,4.05,18.23,9.75c6.34,8.59,5.4,21.25,12.5,29.22c6.58,7.39,17.64,8.22,26.63,12.35c13.22,6.07,21.84,19.55,25.56,33.61
					s3.25,28.84,2.75,43.38c-0.63,18.32-1.75,38-13.09,52.4c-13.75,17.46-38.63,21.81-60.76,19.8c-22.13-2.02-43.73-9.06-65.96-9.21
					c-20.48-0.14-42.12,5.4-60.73-3.15c-15.77-7.25-25.87-23.57-29.92-40.45C2.69,152.54,4.48,121.74,23.03,99.83z"/>
			</defs>
			<clipPath id="SVGID_12_">
				<use xlink:href="#SVGID_11_"  style="overflow:visible;"/>
			</clipPath>
			<path class="st20" d="M31.26,205.83c6.24-2.46,14.24-1.76,18.47,3.43c1.6,1.96,2.63,4.48,4.75,5.86c2.05,1.33,4.73,1.3,7.08,0.63
				c2.35-0.67,4.48-1.92,6.71-2.92c8.84-3.98,19.39-3.99,28.23-0.01c3.79,1.7,7.38,4.22,9.45,7.83s2.3,8.45-0.19,11.78
				c-3.09,4.13-8.94,4.7-14.09,4.92c-19.04,0.82-38.17,1.64-57.1-0.49c-5.24-0.59-10.69-1.51-14.9-4.69
				c-4.03-3.05-6.88-9.5-4.02-14.27C18.64,212.9,25.96,207.92,31.26,205.83z"/>
		</g>
	</g>
</g>
</svg>
